<svg width="107" height="80" viewBox="0 0 107 80" fill="none" xmlns="http://www.w3.org/2000/svg">
<path opacity="0.3" d="M30.6835 20.7801C22.9509 23.1975 16.853 28.8868 15.9216 39.3818C15.1255 48.2262 18.1453 64.4848 30.8321 68.306C50.6438 74.2739 85.1167 71.676 88.8901 56.4391C91.4455 46.1113 92.2336 27.6158 77.8777 21.8601C68.1337 17.9593 47.2605 15.6029 30.6835 20.7801Z" fill="#E6E6E6"/>
<path d="M68.4893 23.2637L71.6471 27.1273C71.8238 27.3436 72.05 27.5144 72.3064 27.6252C72.5629 27.736 72.8422 27.7837 73.1209 27.7642C73.3996 27.7447 73.6696 27.6586 73.9081 27.5131C74.1466 27.3677 74.3468 27.1671 74.4917 26.9283L75.9379 24.6993L77.1267 25.5723C77.1267 25.5723 75.9671 28.7566 73.9212 30.4788C71.8753 32.201 66.7167 26.7054 66.7167 26.7054L68.4893 23.2637Z" fill="#A2B13A"/>
<path opacity="0.09" d="M68.4893 23.2637L71.6471 27.1273C71.8238 27.3436 72.05 27.5144 72.3064 27.6252C72.5629 27.736 72.8422 27.7837 73.1209 27.7642C73.3996 27.7447 73.6696 27.6586 73.9081 27.5131C74.1466 27.3677 74.3468 27.1671 74.4917 26.9283L75.9379 24.6993L77.1267 25.5723C77.1267 25.5723 75.9671 28.7566 73.9212 30.4788C71.8753 32.201 66.7167 26.7054 66.7167 26.7054L68.4893 23.2637Z" fill="black"/>
<path d="M69.0333 19.3682C68.9849 19.913 68.8626 20.4486 68.6697 20.9604C68.6154 21.0785 68.5165 21.1703 68.3946 21.2156C68.2727 21.2608 68.1379 21.2559 68.0196 21.2019C67.8255 21.1261 67.6574 20.9958 67.5355 20.8269C67.4136 20.6579 67.3431 20.4573 67.3323 20.2492L67.1943 19.3603C67.1859 19.1788 67.2339 18.9992 67.3318 18.8462C67.4297 18.6931 67.5727 18.5742 67.741 18.5058C68.3513 18.2033 69.1182 18.7712 69.0333 19.3682Z" fill="#F4A28C"/>
<path d="M67.2209 19.509L66.1674 22.5235L67.871 22.9852L67.9533 20.6076L67.2209 19.509Z" fill="#F4A28C"/>
<path d="M68.9457 19.9785L69.1474 20.3951C69.1592 20.4186 69.1647 20.4447 69.1636 20.471C69.1624 20.4973 69.1545 20.5228 69.1407 20.5451C69.1268 20.5675 69.1075 20.5859 69.0845 20.5987C69.0616 20.6114 69.0357 20.6181 69.0094 20.618H68.6299L68.9457 19.9785Z" fill="#F4A28C"/>
<path opacity="0.31" d="M67.9559 21.1276C67.7503 21.0349 67.5768 20.8835 67.457 20.6924C67.441 21.1551 67.6013 21.6065 67.9055 21.9555L67.9559 21.1276Z" fill="#CE8172"/>
<path d="M66.8865 20.4642L67.473 20.5172C67.473 20.5172 68.2001 19.9865 68.1549 19.209C68.1549 19.209 68.744 19.7079 69.2695 19.3099C69.7949 18.9118 69.5189 18.068 68.8847 17.8C68.2505 17.5319 66.3823 17.2347 66.8865 20.4642Z" fill="#FFD200"/>
<path d="M66.1674 22.5262L67.871 22.9853C67.871 22.9853 71.0553 24.5774 71.111 27.7617C71.1668 30.946 66.9529 35.3669 66.9529 35.3669L61.4626 32.9469C61.4626 32.9469 60.019 22.42 66.1674 22.5262Z" fill="#A2B13A"/>
<path d="M76.251 24.9383C76.251 24.9383 76.5164 23.8026 77.3921 23.8503C78.2678 23.8981 77.0126 25.4982 77.0126 25.4982L76.251 24.9383Z" fill="#F4A28C"/>
<path d="M66.0745 24.3174L65.626 11.4315L64.2011 11.198C64.2011 11.198 61.9322 20.0796 62.4258 24.6809C62.9194 29.2822 66.0745 26.1059 66.0745 24.3174Z" fill="#A2B13A"/>
<path opacity="0.46" d="M66.0745 24.3174L65.626 11.4315L64.2011 11.198C64.2011 11.198 61.9322 20.0796 62.4258 24.6809C62.9194 29.2822 66.0745 26.1059 66.0745 24.3174Z" fill="white"/>
<path d="M65.4032 11.4129C65.4032 11.4129 66.0214 10.4735 65.4881 10.0543C64.9547 9.63501 64.6177 9.52355 64.4452 10.0251C64.3397 10.4111 64.3099 10.8139 64.3576 11.2112L65.4032 11.4129Z" fill="#F4A28C"/>
<path d="M38.509 19.2144C38.4492 19.7156 38.4573 20.2226 38.5329 20.7216C38.5454 20.7806 38.5696 20.8366 38.604 20.8861C38.6384 20.9356 38.6823 20.9778 38.7332 21.0102C38.7841 21.0426 38.8409 21.0645 38.9004 21.0746C38.9599 21.0847 39.0208 21.0829 39.0795 21.0693C39.2711 21.0385 39.4497 20.953 39.5937 20.8231C39.7378 20.6931 39.8412 20.5243 39.8915 20.3369L40.1887 19.5408C40.232 19.3773 40.2233 19.2044 40.1639 19.046C40.1044 18.8877 39.9972 18.7518 39.857 18.6572C39.3581 18.2856 38.5461 18.6598 38.509 19.2144Z" fill="#F4A28C"/>
<path d="M40.1356 19.6946L40.5071 22.648L38.8646 22.7383L39.2546 20.5517L40.1356 19.6946Z" fill="#F4A28C"/>
<path d="M39.4483 20.0237C39.4483 20.0237 39.4669 19.6735 39.727 19.708C39.987 19.7425 39.9658 20.2387 39.6075 20.2838L39.4483 20.0237Z" fill="#F4A28C"/>
<path d="M38.4771 19.7849L38.2118 20.1272C38.1969 20.1466 38.1872 20.1693 38.1834 20.1934C38.1796 20.2174 38.1819 20.2421 38.1901 20.265C38.1983 20.288 38.2121 20.3085 38.2302 20.3248C38.2484 20.341 38.2703 20.3525 38.294 20.3581L38.639 20.435L38.4771 19.7849Z" fill="#F4A28C"/>
<path d="M38.8646 22.7517C38.8646 22.7517 36.3543 23.1232 35.6086 19.9389C34.8629 16.7546 38.2277 14.3663 38.2277 14.3663C38.2277 14.3663 39.9233 13.9179 39.1193 13.0157C38.3153 12.1134 37.2618 13.7029 37.2618 13.7029C37.2618 13.7029 32.1669 16.0514 33.1912 20.5572C34.2155 25.063 37.0177 26.5012 37.0177 26.5012L38.8646 22.7517Z" fill="#F4A28C"/>
<path opacity="0.31" d="M39.1485 21.0269C39.3509 20.981 39.5354 20.8767 39.6792 20.7271C39.6016 21.1512 39.3665 21.5304 39.0211 21.7885L39.1485 21.0269Z" fill="#CE8172"/>
<path d="M36.7443 24.044C36.7443 24.044 33.3875 27.5679 35.8845 29.6908C38.3816 31.8137 39.5704 33.0158 39.5704 33.0158L44.2142 31.551C44.2142 31.551 44.0099 27.7723 44.7449 25.6069C45.4799 23.4416 44.254 22.1971 43.0041 22.144C41.7543 22.0909 39.8782 21.4408 36.7443 24.044Z" fill="#A2B13A"/>
<path opacity="0.09" d="M40.1277 22.1836C40.1277 22.1836 38.3285 24.6011 39.8756 26.5117C41.4226 28.4222 42.0409 32.2381 42.0409 32.2381L44.2142 31.5508C44.2142 31.5508 44.1107 28.0003 44.5141 26.509C44.7136 25.8743 44.867 25.226 44.9731 24.5692C45.0368 23.9191 42.3912 21.7219 42.3912 21.7219L40.1277 22.1836Z" fill="black"/>
<path d="M43.4738 26.1429C41.8047 27.2813 39.987 24.9143 41.4704 23.5424C41.8832 23.1533 42.327 22.7983 42.7972 22.4809C44.4663 21.3823 46.2707 16.7465 44.124 14.3291C44.124 14.3291 42.8954 12.8669 43.8586 12.3893C44.8219 11.9117 44.997 14.0796 44.997 14.0796C44.997 14.0796 48.5342 17.8398 46.7829 21.3983C45.8329 23.3221 44.7423 25.2778 43.4738 26.1429Z" fill="#F4A28C"/>
<path d="M39.3342 19.4638C39.3342 19.4638 39.3528 22.6853 41.4306 22.6216C43.5083 22.5579 43.9913 21.5442 44.2911 20.7136C44.591 19.8831 40.937 21.5946 40.7804 19.3019C40.6239 17.0092 38.7319 17.5107 38.2463 18.2803C37.7607 19.0498 39.3342 19.4638 39.3342 19.4638Z" fill="#24285B"/>
<path d="M49.9194 9.70385C50.0203 9.78877 50.344 9.38807 50.3865 9.30051C50.5748 8.99328 50.6534 8.63124 50.6094 8.27356C50.5536 8.05597 50.3307 7.72427 50.0786 7.71631C49.9364 7.73276 49.8016 7.78871 49.6895 7.87781C49.5774 7.96692 49.4925 8.08562 49.4444 8.22049C49.3368 8.41933 49.2402 8.62397 49.1552 8.83347C49.0888 9.02453 49.1897 9.09883 49.333 9.21824C49.5267 9.38277 49.7231 9.54198 49.9194 9.70385Z" fill="#F4A28C"/>
<path d="M49.5798 20.3421C49.5798 20.3421 49.134 14.1858 50.3387 9.78083L49.1552 8.8335C49.1552 8.8335 45.7294 16.7598 47.0323 24.8002L49.5798 20.3421Z" fill="#A2B13A"/>
<path d="M59.0504 11.6198C58.9231 11.6994 58.7161 11.2165 58.6975 11.1475C58.594 10.7707 58.3446 10.3514 58.5887 9.96133C58.6619 9.85911 58.7588 9.77623 58.8712 9.71982C58.9835 9.66342 59.1079 9.6352 59.2335 9.63759C59.4989 9.69066 59.6581 9.98256 59.7324 10.2187C59.8124 10.4304 59.8798 10.6466 59.9341 10.8662C59.9712 11.0679 59.8625 11.1316 59.7032 11.2218L59.0504 11.6198Z" fill="#F4A28C"/>
<path d="M57.8616 22.1944C57.8616 22.1944 59.1884 16.1681 58.6232 11.6358L59.9341 10.8662C59.9341 10.8662 62.1843 19.2012 59.751 26.9735L57.8616 22.1944Z" fill="#A2B13A"/>
<path opacity="0.46" d="M49.5798 20.3421C49.5798 20.3421 49.134 14.1858 50.3387 9.78083L49.1552 8.8335C49.1552 8.8335 45.7294 16.7598 47.0323 24.8002L49.5798 20.3421Z" fill="white"/>
<path opacity="0.46" d="M57.8616 22.1944C57.8616 22.1944 59.1884 16.1681 58.6232 11.6358L59.9341 10.8662C59.9341 10.8662 62.1843 19.2012 59.751 26.9735L57.8616 22.1944Z" fill="white"/>
<path d="M59.9367 25.3707C59.4352 30.6779 56.5985 35.1121 56.5985 35.1121L49.7682 34.7246C49.7682 34.7246 42.3381 20.1139 51.8911 19.9043H52.313H53.7857C54.2152 19.9245 54.6427 19.976 55.0647 20.0582C55.277 20.098 55.5052 20.1484 55.7467 20.2095C56.0902 20.2972 56.4278 20.4062 56.7577 20.5359C58.4587 21.1966 60.2021 22.5632 59.9367 25.3707Z" fill="#A2B13A"/>
<path d="M56.97 36.7679L56.5959 35.112L49.7655 34.7246L49.5798 36.7679H56.97Z" fill="#24285B"/>
<path opacity="0.08" d="M56.763 20.5305C56.6038 21.5575 56.2058 22.6163 55.2638 23.0461C53.194 23.9882 52.9313 21.9422 52.9313 21.9422C52.6659 21.5283 52.9313 20.7428 53.3532 19.9839L54.8259 20.029C54.8259 20.029 54.9108 20.029 55.0621 20.0529C55.2744 20.0927 55.5026 20.1431 55.7441 20.2041C56.0902 20.2916 56.4305 20.4006 56.763 20.5305Z" fill="black"/>
<path d="M52.5863 19.6283C52.6637 19.9164 52.724 20.2088 52.7667 20.504C52.8225 20.9073 53.0162 21.4991 53.669 21.5495C54.6773 21.6291 54.7755 20.0396 54.7755 20.0396C54.7755 20.0396 55.2452 18.5085 54.1546 18.4183C53.1701 18.3387 52.2493 18.3042 52.5863 19.6283Z" fill="#F4A28C"/>
<path d="M54.7198 20.0981C54.7198 20.0981 54.7198 19.6178 55.1444 19.594C55.5689 19.5701 55.4893 20.4856 54.7198 20.0981Z" fill="#F4A28C"/>
<path d="M52.8702 20.0343C52.8702 20.0343 52.9684 19.5646 52.5651 19.4505C52.1617 19.3364 52.037 20.2359 52.8702 20.0343Z" fill="#F4A28C"/>
<path d="M52.5863 19.6284C52.5863 19.6284 50.9596 19.5673 51.554 18.3016C52.1485 17.0358 52.3979 17.9141 52.6394 16.9748C52.8808 16.0354 53.1701 15.8178 53.7008 16.1548C54.2315 16.4918 53.8414 17.3595 54.5685 17.0517C55.2956 16.7439 55.7839 16.4759 55.9909 17.0836C56.1978 17.6912 56.089 18.0017 55.6273 18.2644C55.1656 18.5271 56.0121 19.2861 54.8312 19.7531C53.6504 20.2201 52.8835 18.957 52.8835 18.957L52.5863 19.6284Z" fill="#24285B"/>
<path d="M72.2202 30.8398V46.2731C72.2227 48.1486 71.8551 50.0062 71.1385 51.7394C70.4219 53.4725 69.3704 55.0473 68.0442 56.3735C66.7181 57.6997 65.1433 58.7512 63.4101 59.4677C61.6769 60.1843 59.8194 60.5519 57.9439 60.5495H48.1893C46.3143 60.5502 44.4575 60.1814 42.7251 59.4642C40.9927 58.747 39.4186 57.6954 38.0928 56.3696C36.767 55.0438 35.7154 53.4697 34.9982 51.7373C34.281 50.0049 33.9122 48.1481 33.9129 46.2731V30.8398H72.2202Z" fill="#FFD200"/>
<path d="M56.6675 56.7576H49.463V70.3068H56.6675V56.7576Z" fill="#FFD200"/>
<path d="M64.7583 67.7991H41.3722V72.2836H64.7583V67.7991Z" fill="#24285B"/>
<path d="M34.1066 48.6216H31.8219C30.0809 48.5868 28.4229 47.8708 27.2039 46.6272C25.985 45.3837 25.3022 43.7117 25.3022 41.9704C25.3022 40.229 25.985 38.5571 27.2039 37.3135C28.4229 36.0699 30.0809 35.3539 31.8219 35.3191H33.9129V32.6655H31.8219C29.3813 32.7067 27.0546 33.7052 25.3433 35.4457C23.6319 37.1862 22.6729 39.5294 22.6729 41.9704C22.6729 44.4113 23.6319 46.7545 25.3433 48.495C27.0546 50.2355 29.3813 51.234 31.8219 51.2752H34.8125C34.4924 50.4154 34.256 49.5268 34.1066 48.6216Z" fill="#FFD200"/>
<path d="M74.3007 32.6655H72.2096V35.3191H74.3007C76.0417 35.3539 77.6996 36.0699 78.9186 37.3135C80.1376 38.5571 80.8204 40.229 80.8204 41.9704C80.8204 43.7117 80.1376 45.3837 78.9186 46.6272C77.6996 47.8708 76.0417 48.5868 74.3007 48.6216H72.0159C71.8666 49.5268 71.6302 50.4154 71.3101 51.2752H74.3007C76.7412 51.234 79.0679 50.2355 80.7793 48.495C82.4907 46.7545 83.4497 44.4113 83.4497 41.9704C83.4497 39.5294 82.4907 37.1862 80.7793 35.4457C79.0679 33.7052 76.7412 32.7067 74.3007 32.6655Z" fill="#FFD200"/>
<path opacity="0.3" d="M37.2963 48.6374C37.421 49.8766 37.5616 51.1317 38.0154 52.2967C38.5247 53.5874 39.3696 54.7185 40.4627 55.5732C41.5558 56.4279 42.8574 56.975 44.2328 57.1581C44.9439 57.243 45.8727 57.0705 46.0107 56.362C46.1089 55.8684 45.7453 55.4173 45.4136 55.0352C42.4734 51.4502 42.2824 46.3738 42.7282 41.7672C42.8688 40.313 43.0572 38.8482 42.898 37.3967C42.7388 35.9452 42.1816 34.4778 41.0697 33.5331C40.2975 32.875 38.8911 32.2753 37.9942 33.021C37.6294 33.3593 37.3635 33.7904 37.2246 34.2681C36.8186 35.4649 36.8266 36.7254 36.9009 37.9832C36.9593 38.9544 36.7496 39.8619 36.7788 40.8411C36.862 43.4381 37.0345 46.0368 37.2963 48.6374Z" fill="white"/>
<path d="M33.3172 57.0911L28.2254 55.8281L27.8702 57.2601L32.9621 58.5231L33.3172 57.0911Z" fill="#F2F2F2"/>
<path d="M44.5725 62.355L39.4037 63.2524L39.6561 64.7061L44.8249 63.8086L44.5725 62.355Z" fill="#F2F2F2"/>
<path d="M72.4119 59.8896L67.7035 62.2034L68.3542 63.5275L73.0626 61.2138L72.4119 59.8896Z" fill="#F2F2F2"/>
<path d="M30.9658 26.9924L28.2198 28.3418L28.599 29.1134L31.345 27.764L30.9658 26.9924Z" fill="#F2F2F2"/>
<path d="M28.6218 20.2665L25.6252 19.6487L25.4516 20.4907L28.4482 21.1086L28.6218 20.2665Z" fill="#F2F2F2"/>
<path d="M81.3555 29.6986L78.3589 29.0808L78.1853 29.9229L81.1819 30.5407L81.3555 29.6986Z" fill="#F2F2F2"/>
<path d="M75.2862 18.3091L72.7281 19.9875L73.1998 20.7064L75.7579 19.0279L75.2862 18.3091Z" fill="#F2F2F2"/>
<path d="M80.2913 53.9933L75.0481 54.1672L75.097 55.6418L80.3403 55.4679L80.2913 53.9933Z" fill="#F2F2F2"/>
<path opacity="0.43" d="M53.4991 37.5189L55.5106 41.5921C55.5444 41.662 55.5946 41.7227 55.657 41.7689C55.7194 41.8151 55.7921 41.8455 55.8688 41.8575L60.364 42.5103C60.4522 42.523 60.5351 42.5602 60.6033 42.6176C60.6716 42.675 60.7223 42.7503 60.75 42.8351C60.7776 42.9199 60.7809 43.0107 60.7596 43.0972C60.7383 43.1838 60.6932 43.2627 60.6293 43.3249L57.376 46.4933C57.3208 46.5479 57.2794 46.6149 57.2554 46.6888C57.2313 46.7627 57.2254 46.8413 57.238 46.9179L58.0076 51.3919C58.0227 51.4797 58.013 51.57 57.9795 51.6526C57.946 51.7352 57.8901 51.8068 57.818 51.8592C57.746 51.9117 57.6607 51.9429 57.5718 51.9494C57.4829 51.9559 57.3939 51.9375 57.315 51.896L53.2948 49.7732C53.2262 49.7365 53.1497 49.7173 53.0719 49.7173C52.9941 49.7173 52.9176 49.7365 52.849 49.7732L48.8288 51.896C48.7499 51.9375 48.6609 51.9559 48.572 51.9494C48.4832 51.9429 48.3979 51.9117 48.3258 51.8592C48.2537 51.8068 48.1978 51.7352 48.1643 51.6526C48.1308 51.57 48.1211 51.4797 48.1362 51.3919L48.9058 46.9179C48.9184 46.8413 48.9125 46.7627 48.8884 46.6888C48.8644 46.6149 48.8231 46.5479 48.7678 46.4933L45.5145 43.3249C45.4507 43.2627 45.4055 43.1838 45.3842 43.0972C45.3629 43.0107 45.3662 42.9199 45.3938 42.8351C45.4215 42.7503 45.4722 42.675 45.5405 42.6176C45.6087 42.5602 45.6916 42.523 45.7798 42.5103L50.275 41.8575C50.3517 41.8455 50.4244 41.8151 50.4868 41.7689C50.5492 41.7227 50.5994 41.662 50.6332 41.5921L52.6447 37.5189C52.6836 37.4387 52.7443 37.3711 52.8199 37.3238C52.8954 37.2765 52.9828 37.2515 53.0719 37.2515C53.161 37.2515 53.2484 37.2765 53.3239 37.3238C53.3995 37.3711 53.4602 37.4387 53.4991 37.5189Z" fill="white"/>
</svg>
