<svg width="86" height="72" viewBox="0 0 86 72" fill="none" xmlns="http://www.w3.org/2000/svg">
<path d="M69.3521 6.54043C69.3521 6.54043 69.8017 4.71006 69.4601 3.37305L66.2169 3.60951C66.2169 3.60951 66.2169 6.62509 67.1335 7.06298C68.0502 7.50086 69.5915 6.41782 69.5915 6.41782" fill="white"/>
<path d="M67.6327 7.31667C67.4373 7.3208 67.2435 7.27985 67.0664 7.19698C66.106 6.73282 66.068 3.92742 66.068 3.60923C66.0672 3.57148 66.081 3.53489 66.1066 3.50713C66.1322 3.47937 66.1675 3.4626 66.2052 3.46034L69.4514 3.22389C69.4868 3.22028 69.5222 3.22993 69.5508 3.25098C69.5793 3.27202 69.5991 3.30294 69.6062 3.33774C69.8718 4.37699 69.6762 5.67313 69.5624 6.27158C69.5961 6.26562 69.6308 6.27121 69.6609 6.28746C69.691 6.3037 69.7148 6.32965 69.7283 6.36108C69.7418 6.39251 69.7443 6.42759 69.7354 6.46063C69.7265 6.49366 69.7066 6.52271 69.6791 6.54307C69.6237 6.58102 68.5523 7.31667 67.6327 7.31667ZM66.3687 3.74059C66.3891 4.63972 66.5614 6.61021 67.1978 6.91674C67.7816 7.20866 68.7362 6.7445 69.2121 6.47009C69.2617 6.24531 69.5945 4.71854 69.3434 3.52457L66.3687 3.74059Z" fill="#093F68"/>
<path d="M60.3346 24.5576C59.1669 26.169 54.9486 34.9268 54.6654 35.3355C54.2742 35.9018 53.0335 36.0711 52.5227 36.4536C51.9155 36.909 51.4951 37.8139 51.1973 38.497C51.0723 38.7364 51.01 39.0036 51.0163 39.2736C51.0202 39.4106 51.0697 39.5424 51.1569 39.6482C51.2442 39.7539 51.3642 39.8276 51.498 39.8574C51.6219 39.8551 51.744 39.8281 51.8573 39.7779C51.9706 39.7278 52.0727 39.6556 52.1578 39.5655L53.3634 38.5613C53.4831 38.8357 53.3342 39.1451 53.2175 39.4137C53.1007 39.6822 53.0306 40.0501 53.2525 40.2457C53.3367 40.3136 53.4374 40.3579 53.5444 40.3741C54.2304 40.5142 54.934 40.126 55.3777 39.5888C55.8214 39.0517 56.4053 38.7948 56.6505 38.1292C56.9424 37.3644 58.2444 36.1032 58.621 35.3764C58.8837 34.8713 57.9379 34.5269 58.2911 34.0714L60.6265 31.0734L63.5983 27.2404" fill="#CD8B4B"/>
<path d="M53.8217 40.5232C53.7237 40.523 53.6259 40.5132 53.5298 40.494C53.3957 40.4732 53.2697 40.4168 53.1649 40.3305C52.9343 40.1233 52.9051 39.7467 53.0919 39.3263L53.1124 39.2738C53.1837 39.1307 53.2348 38.9784 53.2642 38.8213L52.2541 39.6474C52.1552 39.7531 52.0353 39.8371 51.9021 39.8939C51.7689 39.9506 51.6253 39.9791 51.4805 39.9773C51.315 39.9441 51.1651 39.8571 51.0543 39.7298C50.9434 39.6026 50.8777 39.4422 50.8675 39.2738C50.8564 38.9786 50.9228 38.6857 51.0601 38.4242C51.3054 37.8667 51.7608 36.8274 52.4322 36.3253C52.7169 36.1455 53.0241 36.0042 53.3459 35.9049C53.8334 35.7269 54.3355 35.54 54.5428 35.2423C54.6245 35.1226 55.1442 34.0746 55.7455 32.8835C57.2052 29.9643 59.3975 25.5854 60.2149 24.4615C60.2252 24.4424 60.2395 24.4257 60.2568 24.4126C60.2741 24.3995 60.294 24.3903 60.3152 24.3855C60.3364 24.3808 60.3583 24.3806 60.3796 24.3851C60.4008 24.3895 60.4209 24.3985 60.4384 24.4113C60.4558 24.4242 60.4704 24.4406 60.481 24.4596C60.4916 24.4785 60.498 24.4995 60.4997 24.5211C60.5015 24.5428 60.4987 24.5645 60.4913 24.585C60.484 24.6054 60.4723 24.624 60.4572 24.6396C59.6573 25.7314 57.3774 30.2941 56.0141 33.0178C55.2726 34.5008 54.8814 35.2831 54.7909 35.4145C54.5311 35.7911 53.9794 35.9984 53.4481 36.1881C53.1549 36.2789 52.8744 36.4064 52.6132 36.5676C52.0031 37.023 51.5681 38.0272 51.3345 38.5439C51.2189 38.7589 51.1615 39.0005 51.1681 39.2446C51.1717 39.3447 51.2074 39.4411 51.27 39.5194C51.3325 39.5978 51.4186 39.6539 51.5155 39.6795C51.7244 39.6648 51.9197 39.5708 52.0614 39.4168L53.2671 38.4155C53.2848 38.3999 53.306 38.3889 53.3288 38.3833C53.3517 38.3777 53.3756 38.3777 53.3985 38.3834C53.4213 38.3887 53.4425 38.3994 53.4602 38.4147C53.478 38.4299 53.4919 38.4492 53.5006 38.471C53.5452 38.6243 53.5573 38.7853 53.5361 38.9436C53.515 39.102 53.4612 39.2542 53.378 39.3905L53.3576 39.4431C53.308 39.554 53.1649 39.9364 53.3576 40.1028C53.4228 40.1535 53.5004 40.1858 53.5824 40.1962C53.9035 40.233 54.2286 40.1843 54.5249 40.0551C54.8211 39.9259 55.0781 39.7209 55.2697 39.4606C55.4343 39.2675 55.616 39.0897 55.8127 38.9293C56.1194 38.7035 56.3619 38.4016 56.5162 38.0535C56.6855 37.6039 57.1672 37.0172 57.6314 36.4508C57.9568 36.0879 58.2498 35.6972 58.5071 35.2831C58.583 35.1372 58.5071 35.0146 58.3291 34.7839C58.151 34.5533 57.9379 34.2818 58.1889 33.9578L63.4874 27.1268C63.4994 27.1108 63.5145 27.0974 63.5318 27.0873C63.549 27.0772 63.5681 27.0706 63.5879 27.0679C63.6077 27.0652 63.6278 27.0664 63.6471 27.0715C63.6665 27.0766 63.6846 27.0855 63.7005 27.0976C63.7316 27.1228 63.7517 27.1591 63.7566 27.1988C63.7615 27.2386 63.7508 27.2787 63.7268 27.3107L58.4079 34.1534C58.3145 34.2731 58.3553 34.3636 58.548 34.6117C58.7407 34.8598 58.9275 35.0992 58.7524 35.4349C58.4894 35.8675 58.1885 36.2759 57.8532 36.6552C57.4328 37.111 57.0745 37.6204 56.7877 38.1703C56.6154 38.5638 56.3438 38.9059 55.9995 39.1628C55.8168 39.3108 55.646 39.4728 55.4886 39.6474C55.2904 39.905 55.0388 40.1166 54.751 40.2677C54.4633 40.4189 54.1463 40.506 53.8217 40.5232Z" fill="#093F68"/>
<path d="M58.478 16.3491C58.478 16.3491 59.2691 23.6735 58.5831 25.3638C57.8182 27.2554 54.5487 34.3375 54.5487 34.3375L58.1773 36.597C58.1773 36.597 61.6483 31.1818 62.0074 28.9544C62.3664 26.7271 58.478 16.3491 58.478 16.3491Z" fill="#A2B13A"/>
<path d="M38.8197 41.9652C38.8197 41.9652 29.9802 41.7755 26.445 42.841L28.9527 49.0386C28.9527 49.0386 38.703 46.0172 38.8197 41.9652Z" fill="#093F68"/>
<path d="M28.9527 49.1877C28.9236 49.1888 28.8949 49.1806 28.8708 49.1644C28.8466 49.1481 28.8283 49.1246 28.8184 49.0972L26.3108 42.8996C26.3028 42.8807 26.2987 42.8603 26.2987 42.8398C26.2987 42.8192 26.3028 42.7989 26.3108 42.7799C26.3199 42.7618 26.3326 42.7457 26.3482 42.7326C26.3637 42.7196 26.3818 42.7098 26.4012 42.704C29.9043 41.6414 38.4607 41.8107 38.8197 41.8283C38.8391 41.8278 38.8584 41.8314 38.8764 41.8388C38.8943 41.8462 38.9105 41.8573 38.924 41.8713C38.9374 41.8853 38.9478 41.9019 38.9545 41.9201C38.9612 41.9384 38.964 41.9578 38.9628 41.9771C38.9131 43.7287 37.2112 45.4598 33.9066 47.1617C32.3238 47.9638 30.6812 48.6422 28.9935 49.1906C28.9799 49.1921 28.966 49.1911 28.9527 49.1877ZM26.6406 42.9405L29.0373 48.8637C30.1642 48.4929 38.3439 45.6904 38.6708 42.1085C37.5002 42.0881 29.9481 42.0122 26.6406 42.9405Z" fill="#093F68"/>
<path d="M0.446198 47.6461C0.446198 47.6461 3.07352 46.1865 7.66842 45.7778L8.54419 50.6822L0.446198 47.6461Z" fill="#093F68"/>
<path d="M8.55878 50.8281C8.54151 50.8322 8.52351 50.8322 8.50624 50.8281L0.396564 47.7833C0.370139 47.7738 0.346998 47.757 0.329912 47.7347C0.312826 47.7124 0.30252 47.6857 0.30023 47.6578C0.298865 47.6301 0.305246 47.6026 0.318654 47.5784C0.332063 47.5541 0.351967 47.5341 0.37613 47.5206C0.402403 47.506 3.07352 46.0463 7.65382 45.6318C7.6902 45.629 7.72635 45.6396 7.75541 45.6617C7.78447 45.6837 7.80441 45.7157 7.81146 45.7515L8.68723 50.6558C8.69088 50.681 8.68826 50.7067 8.67961 50.7306C8.67095 50.7546 8.65652 50.776 8.6376 50.793C8.61556 50.8125 8.58804 50.8248 8.55878 50.8281ZM0.814017 47.6169L8.36903 50.4486L7.54872 45.9296C3.97264 46.277 1.60513 47.2549 0.814017 47.6286V47.6169Z" fill="#093F68"/>
<path d="M37.4535 49.6079L37.2521 59.1188C37.2425 59.5681 37.0771 60 36.7843 60.3408C36.4914 60.6816 36.0892 60.9101 35.6465 60.9871L30.0999 61.9593C29.7065 62.029 29.301 61.9752 28.9393 61.8054C28.5776 61.6355 28.2774 61.3578 28.0798 61.0105L25.5371 56.5791L26.9968 55.9018L29.1599 59.7903C29.2807 60.0096 29.4667 60.1859 29.6921 60.2947C29.9176 60.4035 30.1713 60.4394 30.4181 60.3975L34.6598 59.6676C34.9344 59.6211 35.1843 59.4807 35.3669 59.2704C35.5496 59.0601 35.6535 58.793 35.6611 58.5145L35.8684 51.0296L37.4535 49.6079Z" fill="#093F68"/>
<path d="M29.7555 62.1261C29.3875 62.1259 29.0261 62.0287 28.7078 61.8442C28.3895 61.6596 28.1255 61.3944 27.9426 61.0751L25.4204 56.6466C25.4101 56.6292 25.4036 56.6098 25.4011 56.5897C25.3985 56.5697 25.4001 56.5493 25.4058 56.5299C25.4195 56.4914 25.4478 56.4599 25.4846 56.4423L26.9588 55.765C26.9923 55.7493 27.0306 55.7468 27.0658 55.7582C27.101 55.7696 27.1306 55.7939 27.1486 55.8263L29.2942 59.7264C29.4014 59.919 29.5656 60.0738 29.7642 60.1694C29.9628 60.265 30.1861 60.2969 30.4035 60.2607L34.6452 59.5308C34.8857 59.488 35.1041 59.3636 35.2636 59.1785C35.4231 58.9935 35.514 58.7591 35.521 58.5149L35.7253 51.0329C35.7256 51.0131 35.7299 50.9936 35.7379 50.9756C35.7459 50.9575 35.7575 50.9413 35.772 50.9278L37.3543 49.5003C37.3748 49.4805 37.4011 49.4676 37.4293 49.4634C37.4576 49.4592 37.4865 49.4639 37.5119 49.477C37.5379 49.4881 37.56 49.507 37.5751 49.531C37.5902 49.5549 37.5977 49.5829 37.5966 49.6112L37.3893 59.1222C37.3777 59.6051 37.1992 60.069 36.8841 60.4352C36.569 60.8013 36.1369 61.0471 35.6611 61.1306L30.1145 62.1027C29.9959 62.122 29.8756 62.1299 29.7555 62.1261ZM25.7415 56.6408L28.1937 60.9379C28.378 61.2582 28.6565 61.5141 28.9912 61.6708C29.326 61.8274 29.7008 61.8773 30.0649 61.8137L35.6115 60.8416C36.0212 60.7694 36.3931 60.5575 36.6641 60.2418C36.935 59.9262 37.0881 59.5264 37.0974 59.1105L37.29 49.9382L36.0056 51.1059L35.7983 58.5266C35.7894 58.8384 35.6729 59.1376 35.4686 59.3733C35.2643 59.609 34.9847 59.7668 34.6773 59.8199L30.4356 60.5497C30.1587 60.5968 29.8739 60.5567 29.6208 60.4348C29.3676 60.313 29.1586 60.1154 29.0227 59.8695L26.9413 56.0891L25.7415 56.6408Z" fill="#093F68"/>
<path d="M10.5322 67.2547L55.0478 38.7716C55.2137 38.641 55.3211 38.4499 55.3463 38.2403C55.3714 38.0307 55.3124 37.8196 55.1821 37.6535C55.1177 37.5714 55.0378 37.5029 54.9469 37.4517C54.856 37.4005 54.7559 37.3678 54.6524 37.3553C54.5488 37.3428 54.4438 37.3509 54.3434 37.379C54.2429 37.4071 54.149 37.4548 54.067 37.5192L9.53965 66.0023C9.37373 66.1329 9.2664 66.3239 9.24122 66.5336C9.21605 66.7432 9.27508 66.9542 9.40536 67.1204C9.47009 67.2038 9.55074 67.2735 9.64264 67.3255C9.73454 67.3775 9.83586 67.4107 9.9407 67.4232C10.0455 67.4357 10.1518 67.4272 10.2534 67.3983C10.3549 67.3694 10.4497 67.3205 10.5322 67.2547Z" fill="#A2B13A"/>
<path d="M10.033 67.5732C9.83609 67.5743 9.64375 67.5137 9.48302 67.3999C9.32229 67.2861 9.20123 67.1248 9.13683 66.9387C9.07243 66.7525 9.06792 66.5509 9.12394 66.3621C9.17996 66.1733 9.29369 66.0068 9.44918 65.8859L53.9882 37.3824C54.0865 37.3057 54.199 37.2491 54.3191 37.2159C54.4393 37.1827 54.5649 37.1735 54.6886 37.1888C54.8124 37.2041 54.9319 37.2437 55.0404 37.3052C55.1488 37.3667 55.2441 37.449 55.3208 37.5473C55.3975 37.6456 55.454 37.7581 55.4872 37.8783C55.5204 37.9985 55.5296 38.124 55.5143 38.2478C55.499 38.3715 55.4595 38.491 55.398 38.5995C55.3365 38.708 55.2542 38.8033 55.1559 38.8799L10.6081 67.3806C10.4431 67.5068 10.2408 67.5745 10.033 67.5732ZM54.5545 37.505C54.4105 37.5049 54.2707 37.5532 54.1575 37.6422L9.62141 66.1311C9.49024 66.2375 9.40648 66.3914 9.38843 66.5594C9.37039 66.7273 9.41951 66.8955 9.52508 67.0273C9.63133 67.1608 9.78594 67.2471 9.95537 67.2673C10.1248 67.2875 10.2954 67.2401 10.43 67.1353L54.9544 38.6435C55.0849 38.5361 55.1683 38.382 55.1869 38.2141C55.2054 38.0461 55.1576 37.8776 55.0537 37.7443C54.9464 37.6108 54.7916 37.5239 54.6216 37.502L54.5545 37.505Z" fill="#093F68"/>
<path d="M43.7182 49.9902L43.5197 59.4982C43.5097 59.9477 43.3442 60.3797 43.0515 60.7209C42.7588 61.0621 42.3568 61.2913 41.9141 61.3695L36.3676 62.3416C35.9738 62.4102 35.5685 62.3556 35.207 62.1853C34.8454 62.0149 34.5453 61.7372 34.3475 61.3899L31.8165 56.9556L33.2761 56.2754L35.4217 60.1755C35.5423 60.3956 35.7287 60.5726 35.9549 60.6814C36.181 60.7903 36.4356 60.8257 36.6829 60.7827L40.9245 60.0558C41.2013 60.0083 41.4528 59.8656 41.6356 59.6524C41.8184 59.4392 41.921 59.1689 41.9258 58.8881L42.1331 51.4061L43.7182 49.9902Z" fill="#A2B13A"/>
<path d="M36.0231 62.5229C35.654 62.5229 35.2914 62.4255 34.9721 62.2404C34.6527 62.0554 34.3879 61.7893 34.2044 61.4691L31.6734 57.0318C31.6625 57.0139 31.6556 56.9939 31.6531 56.9732C31.6506 56.9524 31.6526 56.9313 31.659 56.9114C31.6653 56.8914 31.6759 56.8731 31.69 56.8576C31.7041 56.8421 31.7213 56.8299 31.7405 56.8216L33.2002 56.1414C33.235 56.1263 33.2741 56.1245 33.3102 56.1363C33.3463 56.1481 33.3767 56.1728 33.3958 56.2057L35.5443 60.1058C35.6491 60.2983 35.8117 60.4531 36.0091 60.5485C36.2066 60.6438 36.4289 60.6748 36.6449 60.6371L40.8924 59.9102C41.1322 59.8681 41.3501 59.7446 41.5096 59.5607C41.6691 59.3767 41.7604 59.1435 41.7682 58.9001L41.9754 51.4152C41.9757 51.3947 41.9802 51.3745 41.9887 51.3559C41.9973 51.3373 42.0097 51.3207 42.0251 51.3072L43.6073 49.8796C43.6291 49.8599 43.6561 49.8469 43.6851 49.8423C43.7141 49.8376 43.7439 49.8415 43.7708 49.8534C43.7967 49.8666 43.8185 49.8866 43.834 49.9113C43.8494 49.936 43.8578 49.9644 43.8583 49.9935L43.6686 59.4986C43.6577 59.9831 43.4793 60.4489 43.1637 60.8167C42.8481 61.1845 42.4147 61.4315 41.9375 61.5158L36.3909 62.4879C36.2695 62.5102 36.1465 62.5219 36.0231 62.5229ZM32.0149 57.026L34.4671 61.3202C34.6497 61.6401 34.9265 61.8959 35.2599 62.0526C35.5932 62.2093 35.9668 62.2594 36.3296 62.196L41.8762 61.2238C42.2841 61.1512 42.6543 60.9397 42.924 60.6253C43.1938 60.3108 43.3465 59.9128 43.3562 59.4986L43.5489 50.338L42.2732 51.4881L42.0688 58.9089C42.0593 59.2221 41.942 59.5224 41.7367 59.7591C41.5314 59.9957 41.2507 60.1543 40.942 60.2079L36.7003 60.9348C36.4222 60.9821 36.1363 60.9418 35.8821 60.8194C35.6279 60.697 35.418 60.4987 35.2816 60.2517L33.2031 56.4742L32.0149 57.026Z" fill="#093F68"/>
<path d="M6.33724 46.4494H6.40147C6.79848 45.5036 7.23929 44.2103 8.05376 43.5301C8.67264 43.0164 9.76152 42.9842 10.1731 43.679C10.4055 43.1478 10.7432 42.6691 11.1657 42.272C11.6152 41.907 12.2808 41.7465 12.7771 42.0443C12.4852 41.8633 13.9448 40.6926 14.1024 40.6226C14.7167 40.3813 15.3869 40.3195 16.035 40.4445C15.9241 39.2243 18.6302 38.0332 19.579 37.6449C21.2167 36.9794 24.0688 36.6349 24.9562 38.5412C25.4554 38.2054 25.9779 37.7851 26.5997 37.68C27.2215 37.5749 27.9776 37.8989 28.1119 38.5236C29.195 38.2317 29.303 38.5849 29.8372 39.2476C30.1291 39.6067 31.0224 39.4578 31.4661 39.6563C31.774 39.7905 32.0378 40.0087 32.2273 40.286C32.4168 40.5633 32.5243 40.8884 32.5375 41.2239C33.0505 41.0773 33.5938 41.0741 34.1085 41.2146C34.6231 41.3551 35.0894 41.634 35.4568 42.0209C36.9777 43.5798 36.8492 46.0174 35.9326 47.8098C34.7386 50.1452 32.6338 52.2704 30.421 53.6629C27.7207 55.3589 24.603 56.2902 21.459 56.8215C18.204 57.3674 14.806 57.49 11.6503 56.5296C9.56599 55.9075 7.68222 54.7476 6.18836 53.1666C5.45271 52.3667 4.68203 51.669 3.97849 50.9129C3.67863 50.5759 3.47619 50.1637 3.39287 49.7203C3.30956 49.277 3.34852 48.8194 3.50557 48.3965C3.93178 47.2551 5.13159 46.5428 6.33724 46.4494Z" fill="#093F68"/>
<path d="M16.7998 57.3821C15.0373 57.4013 13.2818 57.1563 11.5919 56.6552C9.48247 56.0284 7.57676 54.8539 6.06867 53.2514C5.68625 52.8368 5.29215 52.4456 4.90097 52.0837C4.50979 51.7217 4.18867 51.3772 3.84712 51.0123C3.5284 50.6554 3.31319 50.2183 3.2247 49.7481C3.13622 49.2779 3.17782 48.7924 3.34501 48.3441C3.77414 47.2435 4.95644 46.4349 6.29053 46.3211C6.33432 46.216 6.38103 46.105 6.42482 45.9941C6.79848 45.0775 7.22178 44.0382 7.95159 43.431C8.15358 43.2666 8.38804 43.1468 8.63958 43.0794C8.89113 43.012 9.15409 42.9985 9.41121 43.0398C9.69021 43.0833 9.94743 43.2165 10.1439 43.4193C10.3657 42.9467 10.6793 42.523 11.0664 42.1728C11.2778 41.9914 11.5307 41.865 11.8026 41.8049C12.0746 41.7448 12.3572 41.7529 12.6253 41.8283C12.853 41.3554 13.9419 40.5439 14.0353 40.503C14.6194 40.2612 15.2597 40.1884 15.8832 40.2928C15.9941 39.1251 18.1806 38.0654 19.5177 37.5224C21.2021 36.8393 24.0016 36.5153 25.0058 38.3398L25.0876 38.2814C25.5207 37.9291 26.0275 37.6786 26.5706 37.5487C27.2099 37.4407 27.9806 37.7414 28.2083 38.3603C29.1015 38.1472 29.3555 38.4128 29.7788 38.9441C29.8314 39.0083 29.8839 39.0813 29.9452 39.1543C30.0795 39.3207 30.4356 39.3528 30.7772 39.382C31.03 39.3915 31.2799 39.4387 31.5187 39.5221C31.823 39.6554 32.0882 39.8643 32.2891 40.1289C32.4899 40.3936 32.6196 40.7053 32.666 41.0343C33.1802 40.9244 33.7139 40.9472 34.2169 41.1004C34.7199 41.2536 35.1757 41.5322 35.5414 41.9101C37.147 43.5565 36.9514 46.0875 36.0435 47.8653C34.905 50.0927 32.8323 52.3026 30.4794 53.7768C28.0477 55.3065 25.0963 56.3458 21.4619 56.9559C19.9223 57.2267 18.363 57.3692 16.7998 57.3821ZM9.13096 43.2938C8.77299 43.2939 8.42582 43.4165 8.14718 43.6412C7.47283 44.2017 7.06413 45.2059 6.70507 46.0875C6.64668 46.2306 6.59122 46.3794 6.53575 46.502C6.52463 46.5274 6.50679 46.5493 6.48415 46.5652C6.46151 46.5812 6.43493 46.5906 6.4073 46.5925H6.34892C5.11408 46.6889 4.01352 47.4274 3.62526 48.4317C3.47808 48.8292 3.4419 49.2594 3.52058 49.6759C3.59927 50.0925 3.78985 50.4798 4.07191 50.7963C4.40762 51.1553 4.75209 51.4969 5.11408 51.8589C5.47606 52.2209 5.89644 52.6325 6.28178 53.0499C7.75469 54.6168 9.61746 55.7643 11.6795 56.3749C14.4148 57.2186 17.6026 57.3149 21.421 56.6669C25.0146 56.0626 27.9309 55.035 30.3306 53.5258C32.6338 52.0661 34.6744 49.9117 35.7895 47.7311C36.6478 46.0466 36.8434 43.6441 35.3371 42.1115C34.9907 41.7456 34.5508 41.4815 34.065 41.3477C33.5793 41.2139 33.0662 41.2156 32.5813 41.3525C32.5593 41.3593 32.536 41.361 32.5133 41.3574C32.4905 41.3539 32.4688 41.3452 32.4499 41.3321C32.432 41.3176 32.4176 41.2994 32.4075 41.2787C32.3974 41.258 32.3919 41.2354 32.3915 41.2124C32.3774 40.9051 32.2774 40.608 32.103 40.3547C31.9286 40.1014 31.6868 39.9019 31.4048 39.779C31.1957 39.7087 30.9773 39.6693 30.7568 39.6622C30.3539 39.6272 29.9365 39.5863 29.7263 39.3265C29.662 39.2506 29.6066 39.1777 29.554 39.1105C29.1629 38.6084 29.0169 38.4186 28.1499 38.6551C28.1111 38.6638 28.0704 38.6576 28.036 38.6376C28.0191 38.6274 28.0044 38.6138 27.9929 38.5978C27.9813 38.5817 27.9732 38.5635 27.9689 38.5442C27.8521 37.9983 27.169 37.7209 26.6231 37.8114C26.1247 37.9395 25.6597 38.1735 25.2598 38.4975L25.038 38.6522C25.0205 38.6637 25.0007 38.6712 24.98 38.6742C24.9594 38.6772 24.9383 38.6757 24.9183 38.6697C24.8977 38.6645 24.8787 38.6547 24.8625 38.641C24.8463 38.6274 24.8335 38.6102 24.8248 38.5909C24.3811 37.6392 22.5799 36.5708 19.6344 37.7706C17.4041 38.6755 16.1109 39.6681 16.1809 40.4183C16.1826 40.4402 16.1795 40.4623 16.172 40.4829C16.1644 40.5035 16.1525 40.5223 16.1372 40.538C16.1212 40.5527 16.1022 40.5637 16.0815 40.5702C16.0608 40.5768 16.039 40.5787 16.0175 40.576C15.3962 40.4556 14.7536 40.5133 14.1637 40.7424C13.9769 40.8358 12.9698 41.6853 12.8851 41.9363C12.9079 41.9624 12.9207 41.9958 12.9212 42.0305C12.9216 42.0652 12.9097 42.0989 12.8876 42.1256C12.8655 42.1522 12.8346 42.1702 12.8004 42.1762C12.7663 42.1822 12.7311 42.1758 12.7012 42.1582C12.2341 41.8663 11.6269 42.0735 11.2591 42.3742C10.8525 42.7594 10.5269 43.2219 10.3016 43.7346C10.2901 43.7582 10.2723 43.778 10.2501 43.792C10.2279 43.8059 10.2023 43.8133 10.1761 43.8134C10.1501 43.8135 10.1245 43.8071 10.1016 43.7949C10.0787 43.7826 10.0591 43.765 10.0447 43.7434C9.97136 43.6247 9.87255 43.5238 9.7554 43.4481C9.63826 43.3724 9.50573 43.3236 9.36742 43.3055C9.28914 43.2942 9.20997 43.2903 9.13096 43.2938Z" fill="white"/>
<path d="M35.7925 54.0394C35.7925 54.0394 38.4198 46.9573 38.049 43.8979C38.049 43.8979 34.3299 48.3615 21.1991 50.3582C9.76736 52.1098 1.17892 48.3615 1.17892 48.3615C1.17892 48.3615 10.287 60.1115 17.4245 63.1154L35.7925 54.0394Z" fill="#A2B13A"/>
<path d="M17.4246 63.2641C17.4053 63.2685 17.3854 63.2685 17.3662 63.2641C10.2753 60.2806 1.14974 48.5832 1.05925 48.4635C1.03995 48.4369 1.02978 48.4049 1.03026 48.372C1.03074 48.3392 1.04184 48.3074 1.06189 48.2815C1.08195 48.2555 1.10989 48.2367 1.14151 48.228C1.17314 48.2192 1.20675 48.2209 1.23732 48.2329C1.3249 48.2708 9.925 51.9345 21.1758 50.2209C34.0818 48.2591 37.8973 43.8569 37.9352 43.7985C37.9543 43.7763 37.9794 43.7601 38.0075 43.7518C38.0356 43.7435 38.0655 43.7435 38.0936 43.7519C38.1216 43.7602 38.1467 43.7765 38.1658 43.7988C38.1848 43.821 38.197 43.8483 38.2009 43.8774C38.5833 46.9367 36.0406 53.8028 35.9326 54.0947C35.9179 54.1302 35.891 54.1592 35.8567 54.1765L17.4888 63.2524C17.4684 63.2607 17.4465 63.2647 17.4246 63.2641ZM1.64309 48.697C3.37129 50.8456 11.189 60.2777 17.407 62.94L35.6582 53.9225C35.8946 53.2744 38.0753 47.2082 37.9177 44.2364C36.9193 45.2173 32.6222 48.7613 21.2079 50.4982C11.4693 51.9929 3.68949 49.4648 1.64309 48.697Z" fill="#093F68"/>
<path d="M10.7511 70.9652C13.2147 70.9652 15.2118 68.9681 15.2118 66.5046C15.2118 64.041 13.2147 62.0439 10.7511 62.0439C8.28761 62.0439 6.29053 64.041 6.29053 66.5046C6.29053 68.9681 8.28761 70.9652 10.7511 70.9652Z" fill="#093F68"/>
<path d="M10.7512 71.1111C9.84007 71.1111 8.94944 70.8409 8.19189 70.3348C7.43435 69.8286 6.84391 69.1091 6.49525 68.2674C6.14659 67.4256 6.05536 66.4994 6.23311 65.6058C6.41085 64.7122 6.84959 63.8914 7.49383 63.2472C8.13807 62.6029 8.95888 62.1642 9.85247 61.9865C10.7461 61.8087 11.6723 61.8999 12.514 62.2486C13.3558 62.5973 14.0752 63.1877 14.5814 63.9453C15.0876 64.7028 15.3577 65.5934 15.3577 66.5045C15.3562 67.7258 14.8704 68.8966 14.0068 69.7602C13.1432 70.6237 11.9724 71.1096 10.7512 71.1111ZM10.7512 62.1899C9.89781 62.1899 9.06362 62.4429 8.35408 62.917C7.64454 63.3911 7.09152 64.065 6.76495 64.8534C6.43839 65.6418 6.35294 66.5093 6.51942 67.3463C6.6859 68.1832 7.09684 68.952 7.70025 69.5554C8.30367 70.1589 9.07246 70.5698 9.90942 70.7363C10.7464 70.9028 11.6139 70.8173 12.4023 70.4907C13.1907 70.1642 13.8646 69.6112 14.3387 68.9016C14.8128 68.1921 15.0658 67.3579 15.0658 66.5045C15.0643 65.3607 14.6092 64.2641 13.8004 63.4553C12.9916 62.6465 11.895 62.1914 10.7512 62.1899Z" fill="#093F68"/>
<path d="M10.7512 69.4235C12.3634 69.4235 13.6704 68.1165 13.6704 66.5042C13.6704 64.892 12.3634 63.585 10.7512 63.585C9.1389 63.585 7.83191 64.892 7.83191 66.5042C7.83191 68.1165 9.1389 69.4235 10.7512 69.4235Z" fill="white"/>
<path d="M10.7511 69.5723C10.1443 69.5723 9.55114 69.3924 9.04658 69.0552C8.54203 68.7181 8.14878 68.2389 7.91656 67.6783C7.68434 67.1177 7.62358 66.5008 7.74197 65.9056C7.86035 65.3104 8.15256 64.7638 8.58165 64.3347C9.01074 63.9056 9.55742 63.6134 10.1526 63.495C10.7477 63.3766 11.3646 63.4374 11.9253 63.6696C12.4859 63.9018 12.9651 64.2951 13.3022 64.7996C13.6393 65.3042 13.8193 65.8973 13.8193 66.5042C13.8185 67.3177 13.495 68.0976 12.9198 68.6728C12.3446 69.248 11.5646 69.5715 10.7511 69.5723ZM10.7511 63.7338C10.2039 63.7338 9.66898 63.896 9.21394 64.2C8.7589 64.504 8.40419 64.936 8.19464 65.4415C7.98509 65.947 7.93012 66.5033 8.03666 67.0401C8.14321 67.5768 8.40649 68.07 8.79323 68.4571C9.17998 68.8443 9.67282 69.1081 10.2095 69.2152C10.7461 69.3223 11.3024 69.2679 11.8082 69.0589C12.3139 68.8499 12.7463 68.4956 13.0508 68.0409C13.3552 67.5862 13.518 67.0514 13.5186 66.5042C13.5178 65.7704 13.226 65.067 12.7072 64.5481C12.1883 64.0293 11.4849 63.7375 10.7511 63.7367V63.7338Z" fill="#093F68"/>
<path d="M74.4317 31.1113L74.1719 48.9187L81.6305 57.8079L80.0103 61.4832C80.0103 61.4832 68.4151 54.801 66.4446 52.0511C64.4741 49.3012 64.1793 42.6716 64.1793 42.6716L57.6898 49.1844L55.1967 61.7547L50.234 61.4832C50.234 61.4832 50.8646 52.6758 50.8646 48.8253C50.8646 44.9748 60.6732 31.7302 60.6732 31.7302L74.4317 31.1113Z" fill="#093F68"/>
<path d="M55.1967 61.901L50.234 61.6295C50.1957 61.6264 50.1602 61.6086 50.1347 61.5799C50.1217 61.5658 50.1116 61.5492 50.1051 61.5312C50.0985 61.5131 50.0957 61.4939 50.0968 61.4748C50.0968 61.3872 50.7273 52.6294 50.7273 48.8257C50.7273 44.9693 60.1623 32.1859 60.5652 31.643C60.5777 31.6258 60.5939 31.6117 60.6126 31.6016C60.6313 31.5915 60.652 31.5857 60.6732 31.5846L74.42 30.9657C74.4398 30.9642 74.4598 30.9672 74.4785 30.9742C74.4971 30.9813 74.514 30.9923 74.528 31.0066C74.5422 31.0207 74.5533 31.0376 74.5609 31.0561C74.5684 31.0747 74.5721 31.0946 74.5718 31.1146L74.3119 48.8636L81.7356 57.7089C81.7542 57.729 81.7663 57.7542 81.7705 57.7813C81.7747 57.8083 81.7706 57.836 81.7589 57.8607L80.1417 61.5419C80.1342 61.561 80.1224 61.578 80.1072 61.5917C80.092 61.6054 80.0738 61.6153 80.0541 61.6207C80.0356 61.6286 80.0158 61.6327 79.9957 61.6327C79.9757 61.6327 79.9558 61.6286 79.9373 61.6207C79.4615 61.3463 68.2954 54.9065 66.3249 52.1478C64.5733 49.7102 64.1384 44.403 64.0508 43.0164L57.824 49.2548L55.3397 61.7842C55.3335 61.8174 55.3158 61.8474 55.2896 61.8688C55.2634 61.8901 55.2305 61.9016 55.1967 61.901ZM50.4004 61.3463L55.0712 61.6032L57.5409 49.1555C57.5457 49.127 57.5589 49.1006 57.5788 49.0796L64.0741 42.5668C64.0946 42.5469 64.1203 42.5333 64.1482 42.5276C64.1762 42.5219 64.2052 42.5244 64.2318 42.5347C64.2578 42.5449 64.2802 42.5625 64.2962 42.5854C64.3123 42.6082 64.3214 42.6352 64.3223 42.6631C64.3223 42.7274 64.6375 49.2781 66.5613 51.9639C68.3771 54.4948 78.6178 60.5027 79.9432 61.2733L81.4612 57.8228L74.0609 49.0067C74.0384 48.9796 74.026 48.9455 74.0259 48.9103L74.2857 31.2605L60.7637 31.8707C60.0718 32.8107 51.0251 45.1854 51.0251 48.8227C51.0251 52.3667 50.485 60.1757 50.4033 61.3463H50.4004Z" fill="#093F68"/>
<path d="M74.0901 12.3499C70.1637 10.3707 60.0631 9.83063 58.583 12.8433C57.4153 15.2371 60.9681 27.8512 60.9681 27.8512L73.4624 30.4318C73.4624 30.4318 76.0489 13.3366 74.0901 12.3499Z" fill="#A2B13A"/>
<path d="M59.4121 34.0603L60.6148 21.6885L74.7761 22.6256L74.4054 32.875L59.4121 34.0603Z" fill="#093F68"/>
<path d="M59.4121 34.2057C59.393 34.206 59.374 34.2022 59.3564 34.1946C59.3388 34.1871 59.323 34.176 59.3099 34.1619C59.2948 34.1468 59.2833 34.1284 59.2762 34.1082C59.2691 34.088 59.2667 34.0664 59.2691 34.0452L60.4689 21.6734C60.4703 21.6546 60.4755 21.6362 60.4841 21.6194C60.4927 21.6026 60.5045 21.5877 60.5189 21.5755C60.5333 21.5633 60.5499 21.5541 60.5679 21.5483C60.5859 21.5426 60.6048 21.5404 60.6236 21.542L74.7849 22.4791C74.8226 22.4814 74.8579 22.4981 74.8835 22.5259C74.9091 22.5536 74.9229 22.5902 74.9221 22.628L74.5513 32.8804C74.5494 32.9159 74.5348 32.9496 74.5102 32.9753C74.4855 33.001 74.4525 33.0171 74.417 33.0205L59.4238 34.2057H59.4121ZM60.7433 21.8398L59.5756 33.8992L74.2652 32.7315L74.6272 22.7506L60.7433 21.8398Z" fill="#093F68"/>
<path d="M64.9353 10.3792L65.2039 13.0065C65.2039 13.0065 65.8257 14.4107 67.4546 13.7071C67.9223 13.5048 68.3247 13.1767 68.617 12.7592C68.9092 12.3417 69.0798 11.8513 69.1098 11.3426L68.5902 6.61629C68.5902 6.61629 67.2152 6.16089 67.116 3.36133C67.116 3.36133 65.4812 3.36133 62.9006 3.48102C62.9006 3.48102 62.5444 7.83362 62.9765 9.11517C63.4085 10.3967 64.9353 10.3792 64.9353 10.3792Z" fill="#CD8B4B"/>
<path d="M66.5964 14.0662C66.2758 14.058 65.9636 13.9619 65.6938 13.7884C65.4241 13.615 65.2072 13.3707 65.0667 13.0824C65.0654 13.0669 65.0654 13.0513 65.0667 13.0357L64.8098 10.5252C64.404 10.496 63.2247 10.3091 62.8452 9.1794C62.4102 7.88325 62.7459 3.66494 62.7605 3.48394C62.764 3.44725 62.7808 3.41309 62.8076 3.38785C62.8345 3.3626 62.8696 3.34799 62.9065 3.34674C65.4608 3.23581 67.1102 3.22705 67.1277 3.22705C67.167 3.22702 67.2047 3.24221 67.233 3.26943C67.2613 3.29665 67.278 3.33377 67.2795 3.37301C67.3729 6.03537 68.6369 6.48493 68.6515 6.48785C68.6789 6.49752 68.703 6.5147 68.7211 6.53741C68.7391 6.56012 68.7504 6.58746 68.7537 6.6163L69.2617 11.3309C69.2309 11.872 69.0509 12.394 68.7418 12.8392C68.4327 13.2843 68.0064 13.6353 67.5101 13.8531C67.2231 13.9852 66.9122 14.0577 66.5964 14.0662ZM65.3528 12.9773C65.4345 13.1437 66.0125 14.1772 67.3963 13.5816C67.8386 13.392 68.2193 13.0829 68.4957 12.6889C68.772 12.2949 68.9332 11.8318 68.961 11.3513L68.4501 6.73307C68.129 6.57543 67.0956 5.88941 66.973 3.52189C66.5263 3.52189 65.0871 3.54817 63.0407 3.63574C62.9853 4.3714 62.7488 7.96207 63.1196 9.07722C63.4903 10.1924 64.8711 10.2274 64.9324 10.2245C64.9704 10.2249 65.007 10.239 65.0354 10.2642C65.0638 10.2894 65.0822 10.324 65.0871 10.3617L65.3528 12.9773Z" fill="#093F68"/>
<path d="M68.0852 6.71572C68.1029 6.47278 68.1992 6.2422 68.3596 6.05889C68.7566 5.6064 69.5886 5.29113 69.9652 5.9246C70.5666 6.93758 69.4864 8.24249 68.3917 7.96808" fill="#CD8B4B"/>
<path d="M68.6924 8.15457C68.5791 8.15439 68.4662 8.13967 68.3567 8.11078C68.3374 8.10633 68.3193 8.09809 68.3032 8.08654C68.2872 8.075 68.2736 8.06038 68.2633 8.04353C68.253 8.02668 68.2461 8.00795 68.2431 7.98842C68.2401 7.9689 68.241 7.94896 68.2457 7.92979C68.2505 7.91042 68.2591 7.89219 68.2709 7.87614C68.2827 7.86008 68.2976 7.84651 68.3147 7.83621C68.3318 7.82591 68.3507 7.81907 68.3705 7.81609C68.3902 7.81312 68.4103 7.81406 68.4297 7.81886C68.6724 7.86932 68.9247 7.84691 69.1548 7.75446C69.3849 7.66202 69.5825 7.50364 69.7229 7.29923C69.8716 7.1205 69.9622 6.9006 69.9826 6.66897C70.0029 6.43733 69.952 6.20501 69.8367 6.00308C69.7946 5.92241 69.733 5.8535 69.6576 5.80254C69.5822 5.75158 69.4953 5.72017 69.4047 5.71116C69.2272 5.71327 69.0522 5.75346 68.8915 5.829C68.7309 5.90454 68.5883 6.01368 68.4734 6.14905C68.3343 6.30796 68.2503 6.50768 68.2341 6.7183C68.233 6.73813 68.2279 6.75753 68.2192 6.77537C68.2105 6.79322 68.1983 6.80913 68.1833 6.82219C68.1684 6.83525 68.1509 6.84518 68.1321 6.8514C68.1132 6.85763 68.0933 6.86001 68.0735 6.85842C68.0337 6.85543 67.9968 6.83691 67.9705 6.80687C67.9443 6.77682 67.931 6.73767 67.9334 6.69787C67.9546 6.42169 68.0641 6.15966 68.2457 5.95054C68.3913 5.7782 68.5735 5.64054 68.7791 5.54761C68.9846 5.45468 69.2083 5.40883 69.4339 5.4134C69.5699 5.42641 69.7006 5.47296 69.8142 5.54887C69.9278 5.62478 70.0208 5.72768 70.0849 5.84837C70.229 6.10205 70.2938 6.39312 70.2709 6.684C70.248 6.97487 70.1385 7.25222 69.9564 7.48023C69.812 7.68249 69.6227 7.84861 69.4035 7.9656C69.1842 8.08258 68.9408 8.14726 68.6924 8.15457Z" fill="#093F68"/>
<path d="M65.0638 11.6431C65.6268 11.4902 66.1298 11.1695 66.5059 10.7235C66.6623 10.5571 66.7718 10.3521 66.8231 10.1295C66.8744 9.90688 66.8656 9.67466 66.7978 9.45654C66.5716 9.73775 66.2867 9.96605 65.9629 10.1254C65.6392 10.2848 65.2844 10.3713 64.9236 10.379L65.0638 11.6431Z" fill="#093F68"/>
<path d="M65.0638 11.7891C65.033 11.7896 65.0031 11.7793 64.9791 11.7599C64.9627 11.748 64.949 11.7328 64.9389 11.7151C64.9289 11.6975 64.9227 11.678 64.9207 11.6578L64.7923 10.3937C64.7902 10.3731 64.7926 10.3523 64.7991 10.3327C64.8057 10.313 64.8164 10.295 64.8305 10.2798C64.8446 10.2647 64.8617 10.2526 64.8808 10.2446C64.8999 10.2366 64.9205 10.2327 64.9412 10.2332H64.9937C65.3229 10.2142 65.6444 10.1265 65.9375 9.97568C66.2307 9.82483 66.4889 9.61421 66.6957 9.3574C66.7108 9.33677 66.7314 9.32068 66.755 9.31091C66.7787 9.30113 66.8046 9.29802 66.8299 9.30194C66.8559 9.30582 66.8804 9.31651 66.9009 9.33292C66.9214 9.34933 66.9372 9.37087 66.9467 9.39535C67.0233 9.63904 67.0328 9.89886 66.9742 10.1475C66.9157 10.3961 66.7912 10.6244 66.6139 10.8083C66.2178 11.2784 65.6869 11.6157 65.093 11.7745L65.0638 11.7891ZM65.0959 10.5222L65.1922 11.4563C65.6572 11.2852 66.0717 11.0002 66.3979 10.6273C66.5062 10.5136 66.5904 10.3793 66.6456 10.2323C66.7007 10.0854 66.7257 9.92877 66.719 9.77194C66.2871 10.2109 65.7101 10.4776 65.0959 10.5222Z" fill="#093F68"/>
<path d="M64.4828 8.20734C64.3446 8.21534 64.208 8.17396 64.0975 8.09057C63.8231 7.86287 64.1821 6.96374 64.5295 6.25436C64.5466 6.21952 64.5767 6.19288 64.6134 6.18029C64.6501 6.16769 64.6903 6.17019 64.7251 6.18722C64.76 6.20426 64.7866 6.23443 64.7992 6.27111C64.8118 6.30779 64.8093 6.34797 64.7923 6.38281C64.4653 7.05132 64.2318 7.74902 64.2931 7.87747C64.404 7.96796 64.7572 7.87747 64.9557 7.81324C64.9733 7.80565 64.9923 7.80166 65.0114 7.80153C65.0306 7.8014 65.0496 7.80512 65.0673 7.81247C65.085 7.81982 65.101 7.83066 65.1145 7.84433C65.1279 7.858 65.1385 7.87424 65.1455 7.89206C65.16 7.9277 65.1599 7.96762 65.1451 8.00316C65.1304 8.03869 65.1022 8.06696 65.0667 8.08181C64.8807 8.15677 64.6832 8.19923 64.4828 8.20734Z" fill="#093F68"/>
<path d="M63.3677 6.23672C63.458 6.23672 63.5312 6.0472 63.5312 5.81343C63.5312 5.57965 63.458 5.39014 63.3677 5.39014C63.2774 5.39014 63.2042 5.57965 63.2042 5.81343C63.2042 6.0472 63.2774 6.23672 63.3677 6.23672Z" fill="#093F68"/>
<path d="M65.9366 6.23672C66.0269 6.23672 66.1001 6.0472 66.1001 5.81343C66.1001 5.57965 66.0269 5.39014 65.9366 5.39014C65.8464 5.39014 65.7732 5.57965 65.7732 5.81343C65.7732 6.0472 65.8464 6.23672 65.9366 6.23672Z" fill="#093F68"/>
<path d="M65.0404 9.21155C64.6987 9.21302 64.3622 9.12763 64.0625 8.96342C64.0462 8.95326 64.0321 8.93999 64.0209 8.92437C64.0097 8.90875 64.0017 8.89108 63.9974 8.87238C63.9931 8.85367 63.9925 8.8343 63.9956 8.81536C63.9988 8.79642 64.0056 8.77828 64.0158 8.76199C64.0259 8.7457 64.0392 8.73157 64.0548 8.7204C64.0704 8.70924 64.0881 8.70126 64.1068 8.69692C64.1255 8.69258 64.1449 8.69197 64.1638 8.69512C64.1828 8.69827 64.2009 8.70512 64.2172 8.71528C64.5181 8.87876 64.8611 8.94834 65.2019 8.91504C65.5427 8.88173 65.8657 8.74708 66.1293 8.52845C66.1445 8.51657 66.1619 8.50787 66.1805 8.5029C66.1992 8.49792 66.2186 8.49676 66.2377 8.49948C66.2568 8.50221 66.2751 8.50877 66.2916 8.51876C66.3081 8.52876 66.3224 8.54198 66.3336 8.55764C66.3572 8.58825 66.3676 8.62694 66.3627 8.66524C66.3578 8.70354 66.3379 8.73833 66.3074 8.76199C65.9478 9.05045 65.5014 9.20888 65.0404 9.21155Z" fill="#093F68"/>
<path d="M11.0255 67.2696L79.0791 33.3362C79.2636 33.2335 79.3999 33.0618 79.4579 32.8587C79.5159 32.6557 79.491 32.4379 79.3885 32.2532C79.2853 32.0692 79.1135 31.9335 78.9107 31.8755C78.7079 31.8175 78.4903 31.8421 78.3055 31.9437L10.2403 65.88C10.0581 65.9851 9.92508 66.1581 9.87035 66.3612C9.81562 66.5642 9.84367 66.7807 9.94834 66.9631C10.0509 67.1461 10.2218 67.2811 10.4237 67.3386C10.6256 67.396 10.8419 67.3712 11.0255 67.2696Z" fill="#A2B13A"/>
<path d="M10.6402 67.5203C10.4308 67.5205 10.2271 67.4511 10.0613 67.323C9.89555 67.1949 9.77697 67.0155 9.7242 66.8127C9.67142 66.61 9.68745 66.3955 9.76977 66.2028C9.85208 66.0102 9.99602 65.8503 10.179 65.7483L78.2384 31.8091C78.4578 31.6898 78.7154 31.6618 78.9553 31.7312C79.1952 31.8006 79.3981 31.9618 79.5199 32.1799C79.5805 32.2884 79.6192 32.4077 79.6337 32.5311C79.6481 32.6546 79.6381 32.7796 79.6042 32.8992C79.5704 33.0187 79.5132 33.1305 79.4362 33.2279C79.3591 33.3254 79.2635 33.4067 79.155 33.4673L11.0956 67.4035C10.9561 67.4803 10.7995 67.5205 10.6402 67.5203ZM78.6938 31.996C78.5843 31.9954 78.4766 32.0236 78.3814 32.0777L10.3191 66.014C10.173 66.0995 10.0663 66.239 10.0221 66.4024C9.97787 66.5659 9.99969 66.7401 10.0828 66.8876C10.166 67.0351 10.3038 67.144 10.4665 67.1909C10.6292 67.2377 10.8038 67.2187 10.9526 67.1379L79.012 33.1987C79.1193 33.1351 79.2058 33.0416 79.2609 32.9296C79.3159 32.8176 79.3372 32.692 79.322 32.5681C79.3068 32.4442 79.2559 32.3275 79.1754 32.2321C79.095 32.1367 78.9885 32.0668 78.8689 32.031C78.8126 32.0107 78.7536 31.9989 78.6938 31.996Z" fill="#093F68"/>
<path d="M76.3612 29.2928L69.9389 36.7807C69.9389 36.7807 70.4147 38.9876 69.9739 39.1978C69.5331 39.408 67.259 40.1495 66.9087 39.5656C66.6958 39.1565 66.6143 38.6916 66.6752 38.2344L66.0913 38.1906C66.0913 38.1906 65.8665 37.2507 66.3219 36.6931C66.7774 36.1355 72.9486 27.874 72.9486 27.874" fill="#CD8B4B"/>
<path d="M67.5597 39.9393C67.1978 39.9393 66.9058 39.8605 66.7803 39.6474C66.5693 39.2581 66.4751 38.8161 66.5088 38.3746L66.0709 38.3454C66.0391 38.3426 66.009 38.3297 65.9849 38.3088C65.9608 38.2878 65.9439 38.2598 65.9366 38.2286C65.9366 38.1878 65.6973 37.2098 66.1994 36.5997C66.6489 36.0509 72.7589 27.8712 72.8202 27.7865C72.8455 27.7582 72.8805 27.7404 72.9183 27.7366C72.956 27.7328 72.9939 27.7433 73.0243 27.766C73.0547 27.7887 73.0755 27.822 73.0826 27.8593C73.0896 27.8966 73.0825 27.9352 73.0625 27.9675C72.8086 28.3061 66.8854 36.2348 66.43 36.7924C66.1118 37.1806 66.1702 37.8054 66.2081 38.0535L66.684 38.0856C66.7048 38.0869 66.7252 38.0925 66.7438 38.1021C66.7623 38.1116 66.7788 38.1249 66.792 38.1411C66.8048 38.1575 66.8142 38.1762 66.8197 38.1962C66.8252 38.2163 66.8267 38.2372 66.8241 38.2578C66.7668 38.6806 66.8412 39.1108 67.0372 39.4898C67.2912 39.9131 69.32 39.3409 69.9097 39.0635C70.082 38.9818 70.0265 37.8959 69.79 36.8157C69.7856 36.7933 69.7861 36.7701 69.7917 36.7479C69.7972 36.7257 69.8076 36.705 69.8222 36.6873L76.2445 29.1994C76.2573 29.1845 76.273 29.1722 76.2906 29.1633C76.3082 29.1544 76.3273 29.149 76.347 29.1475C76.3667 29.1461 76.3864 29.1485 76.4051 29.1546C76.4239 29.1607 76.4412 29.1705 76.4562 29.1834C76.4711 29.1962 76.4834 29.2119 76.4923 29.2294C76.5012 29.247 76.5065 29.2662 76.508 29.2858C76.5095 29.3055 76.5071 29.3253 76.501 29.344C76.4948 29.3627 76.4851 29.38 76.4722 29.395L70.0966 36.8245C70.2513 37.5601 70.514 39.1103 70.0353 39.335C69.8397 39.4255 68.4764 39.9393 67.5597 39.9393Z" fill="#093F68"/>
<path d="M14.4673 51.3592C19.388 51.3574 24.2772 50.5751 28.9527 49.0414C35.8275 46.7848 39.8911 43.7167 40.0604 43.5882C40.1703 43.508 40.2631 43.4066 40.3333 43.29C40.4035 43.1735 40.4497 43.044 40.4692 42.9094C40.4887 42.7747 40.4811 42.6375 40.4468 42.5058C40.4126 42.3741 40.3524 42.2506 40.2697 42.1425C40.1871 42.0343 40.0837 41.9438 39.9656 41.8762C39.8475 41.8086 39.7171 41.7653 39.582 41.7488C39.447 41.7322 39.31 41.7429 39.1791 41.78C39.0481 41.8172 38.926 41.8801 38.8197 41.9651C38.7467 42.0206 34.7795 44.9924 28.2345 47.1263C19.5518 49.9559 10.2086 50.0445 1.47377 47.3803C1.21401 47.3029 0.934138 47.3318 0.695717 47.4607C0.457296 47.5897 0.279857 47.808 0.202433 48.0678C0.12501 48.3275 0.153944 48.6074 0.282872 48.8458C0.411801 49.0843 0.630161 49.2617 0.889916 49.3391C5.29237 50.6738 9.86703 51.3544 14.4673 51.3592Z" fill="#A2B13A"/>
<path d="M14.4674 51.5082C9.85043 51.5021 5.25932 50.8196 0.840301 49.4823C0.616978 49.417 0.418233 49.2866 0.269553 49.1076C0.120874 48.9287 0.0290392 48.7094 0.00582715 48.4779C-0.0173849 48.2464 0.0290838 48.0133 0.139274 47.8084C0.249464 47.6035 0.418352 47.4361 0.624277 47.3279C0.893211 47.1846 1.2075 47.1521 1.50005 47.2374C10.2067 49.8904 19.5187 49.8017 28.1732 46.9834C34.6569 44.8669 38.5541 41.9652 38.7146 41.8426C38.8369 41.7486 38.9765 41.6798 39.1255 41.64C39.2745 41.6003 39.4298 41.5905 39.5826 41.6111C39.7354 41.6317 39.8826 41.6824 40.0158 41.7602C40.1489 41.838 40.2652 41.9414 40.3582 42.0645C40.4522 42.1867 40.521 42.3263 40.5607 42.4753C40.6005 42.6243 40.6103 42.7797 40.5897 42.9325C40.5691 43.0853 40.5184 43.2325 40.4406 43.3656C40.3628 43.4987 40.2593 43.6151 40.1363 43.708C39.967 43.8394 35.8946 46.9192 28.9848 49.1845C24.2998 50.7254 19.3992 51.5098 14.4674 51.5082ZM1.19061 47.4884C0.985889 47.496 0.790294 47.5751 0.637852 47.7119C0.48541 47.8488 0.385768 48.0347 0.356262 48.2375C0.326756 48.4402 0.369252 48.6469 0.476358 48.8215C0.583463 48.9961 0.748401 49.1277 0.942475 49.1933C5.33303 50.5224 9.89464 51.201 14.482 51.2076C19.3869 51.2095 24.2609 50.43 28.9206 48.8984C35.7808 46.6448 39.8152 43.5971 39.9845 43.4686C40.0765 43.3988 40.1535 43.3111 40.2107 43.2108C40.2678 43.1104 40.3041 42.9995 40.3173 42.8848C40.3472 42.6558 40.2855 42.4242 40.1455 42.2405C40.0056 42.0568 39.7987 41.9358 39.57 41.9039C39.4568 41.8878 39.3416 41.8947 39.2312 41.9243C39.1209 41.9539 39.0176 42.0056 38.9277 42.0761C38.7613 42.1988 34.8262 45.1297 28.2988 47.2607C19.5848 50.0998 10.2084 50.1895 1.44167 47.5176C1.35991 47.4954 1.27528 47.4856 1.19061 47.4884Z" fill="#093F68"/>
<path d="M8.39532 46.1982C8.38085 46.201 8.36599 46.201 8.35153 46.1982C8.3149 46.1868 8.28426 46.1614 8.26623 46.1275C8.2482 46.0936 8.24423 46.054 8.25519 46.0172C8.4537 45.3983 8.69016 44.759 9.20979 44.3474C9.94252 43.7636 10.9438 43.8453 11.9043 43.9796L13.2442 44.1664C13.2827 44.1722 13.3175 44.1929 13.3409 44.224C13.3644 44.2551 13.3747 44.2942 13.3697 44.3328C13.3633 44.3708 13.3423 44.4048 13.3113 44.4277C13.2802 44.4506 13.2415 44.4605 13.2033 44.4554L11.8634 44.2686C10.9643 44.146 10.033 44.0642 9.39078 44.578C8.93538 44.9371 8.71935 45.5297 8.53544 46.1048C8.52425 46.1327 8.50487 46.1565 8.47986 46.1732C8.45485 46.1899 8.42537 46.1986 8.39532 46.1982Z" fill="white"/>
<path d="M27.7149 43.1942C27.6947 43.1939 27.6747 43.1897 27.6562 43.1817C27.6376 43.1737 27.6209 43.162 27.6069 43.1474C26.8372 42.3312 25.8231 41.7873 24.7173 41.5977C23.6115 41.4081 22.4741 41.5832 21.4765 42.0965C21.4424 42.1151 21.4024 42.1194 21.3651 42.1084C21.3279 42.0975 21.2965 42.0722 21.278 42.0381C21.2594 42.0041 21.2551 41.964 21.266 41.9268C21.277 41.8896 21.3023 41.8582 21.3364 41.8396C22.3903 41.299 23.5912 41.1149 24.7587 41.3149C25.9262 41.515 26.9973 42.0883 27.8112 42.9489C27.8306 42.9698 27.8435 42.9959 27.8482 43.024C27.8529 43.0521 27.8493 43.081 27.8378 43.107C27.8263 43.1331 27.8075 43.1552 27.7835 43.1707C27.7596 43.1862 27.7317 43.1943 27.7032 43.1942H27.7149Z" fill="white"/>
<path d="M17.2465 46.1546C17.2231 46.1543 17.2002 46.1486 17.1795 46.1379C17.1587 46.1273 17.1407 46.112 17.1268 46.0933C17.1046 46.0617 17.0955 46.0228 17.1015 45.9847C17.1075 45.9465 17.1281 45.9122 17.1589 45.889C18.0841 45.2112 19.1943 44.8323 20.3409 44.803C20.3602 44.8018 20.3796 44.8046 20.3979 44.8113C20.4161 44.818 20.4327 44.8284 20.4467 44.8418C20.4607 44.8553 20.4718 44.8715 20.4792 44.8894C20.4866 44.9074 20.4902 44.9266 20.4897 44.9461C20.4905 44.9653 20.4874 44.9846 20.4806 45.0026C20.4737 45.0206 20.4633 45.0371 20.45 45.051C20.4366 45.0649 20.4206 45.076 20.4028 45.0835C20.3851 45.0911 20.366 45.095 20.3467 45.0949C19.2601 45.1238 18.2081 45.4833 17.3311 46.1254C17.3064 46.1433 17.2769 46.1534 17.2465 46.1546Z" fill="white"/>
<path d="M33.5592 43.5735C33.3397 43.2296 33.0024 42.9774 32.6105 42.8641C31.995 42.6276 31.3494 42.4783 30.6925 42.4204" fill="white"/>
<path d="M33.5593 43.7346C33.5326 43.7347 33.5065 43.7274 33.4838 43.7135C33.4611 43.6996 33.4428 43.6796 33.4308 43.6558C33.2244 43.3451 32.9138 43.1184 32.555 43.0165C31.9524 42.7797 31.3196 42.6283 30.675 42.5669C30.6363 42.5634 30.6006 42.5447 30.5757 42.5149C30.5508 42.4851 30.5387 42.4465 30.5422 42.4078C30.5457 42.3691 30.5644 42.3334 30.5943 42.3085C30.6241 42.2836 30.6626 42.2715 30.7013 42.275C31.3712 42.3357 32.0294 42.489 32.6572 42.7304C33.0845 42.854 33.4506 43.1317 33.6848 43.5098C33.7021 43.5443 33.7051 43.5842 33.693 43.6209C33.681 43.6575 33.6549 43.6879 33.6206 43.7054C33.6028 43.72 33.5818 43.7301 33.5593 43.7346Z" fill="white"/>
<path d="M74.0901 12.3496C74.0901 12.3496 81.0233 22.0503 81.0963 23.8573C81.1692 25.6643 71.8919 35.1168 71.8919 35.1168L68.1932 32.2414C68.1932 32.2414 74.7673 24.1259 74.6447 23.326C74.5221 22.5261 70.3388 16.8774 70.3388 16.8774C70.3388 16.8774 70.6687 13.1758 74.0901 12.3496Z" fill="#A2B13A"/>
<path d="M62.0073 22.6664C62.0073 22.6664 61.0498 15.7099 62.2029 10.9281L63.8143 10.7705C63.8143 10.7705 63.0787 15.6778 63.7764 23.2007L62.0073 22.6664Z" fill="#093F68"/>
<path d="M63.7822 23.3461C63.7687 23.3488 63.7548 23.3488 63.7414 23.3461L61.9635 22.8118C61.9372 22.8039 61.9137 22.7888 61.8957 22.7681C61.8776 22.7475 61.8657 22.7222 61.8614 22.6951C61.8614 22.625 60.9155 15.6655 62.0686 10.9013C62.0763 10.8723 62.0928 10.8463 62.1158 10.827C62.1388 10.8077 62.1672 10.7959 62.1971 10.7933L63.8056 10.6356C63.8276 10.6332 63.8498 10.6359 63.8706 10.6435C63.8913 10.6511 63.9101 10.6634 63.9253 10.6794C63.94 10.696 63.951 10.7155 63.9576 10.7366C63.9641 10.7578 63.966 10.7801 63.9632 10.802C63.9632 10.8517 63.2393 15.7648 63.9282 23.1943C63.9305 23.2179 63.927 23.2418 63.9178 23.2637C63.9086 23.2856 63.8941 23.3049 63.8756 23.3198C63.8488 23.3396 63.8155 23.349 63.7822 23.3461ZM62.1387 22.552L63.6188 22.9987C63.0349 16.4625 63.5312 11.8851 63.6509 10.9334L62.3284 11.0619C61.295 15.4699 62.0336 21.72 62.1387 22.552Z" fill="#093F68"/>
<path d="M70.2308 11.1177C69.1306 15.3441 68.5782 19.6944 68.5873 24.0616L70.3564 23.8981C70.3564 23.8981 70.2308 17.5897 72.1284 11.6811L70.2308 11.1177Z" fill="#093F68"/>
<path d="M68.5873 24.2075C68.5695 24.2079 68.5519 24.2047 68.5353 24.1982C68.5188 24.1917 68.5037 24.182 68.491 24.1696C68.4753 24.1563 68.4627 24.1398 68.4541 24.1211C68.4456 24.1024 68.4412 24.0821 68.4413 24.0616C68.4373 19.6812 68.9895 15.318 70.0849 11.0768C70.0969 11.0401 70.1218 11.009 70.1549 10.9892C70.1908 10.9763 70.23 10.9763 70.2659 10.9892L72.1605 11.5526C72.1792 11.5583 72.1966 11.5677 72.2117 11.5802C72.2267 11.5927 72.2391 11.6082 72.248 11.6256C72.2558 11.6431 72.2597 11.6619 72.2597 11.681C72.2597 11.7002 72.2558 11.719 72.248 11.7365C70.3826 17.5546 70.4819 23.8426 70.4965 23.9069C70.4967 23.9435 70.4835 23.9789 70.4593 24.0064C70.435 24.0339 70.4015 24.0514 70.3651 24.0557L68.5961 24.2192L68.5873 24.2075ZM70.3388 11.2986C69.2898 15.4187 68.7525 19.6524 68.7391 23.9039L70.2162 23.7667C70.2162 22.8238 70.2659 17.1284 71.9474 11.7803L70.3388 11.2986Z" fill="#093F68"/>
<path d="M69.8076 4.7566C69.8076 4.84126 63.4202 4.90256 61.6337 4.91716C61.5759 4.91432 61.5194 4.89858 61.4685 4.87111C61.4175 4.84365 61.3734 4.80514 61.3392 4.7584C61.3051 4.71167 61.2818 4.65789 61.2712 4.60101C61.2605 4.54413 61.2627 4.48558 61.2775 4.42965C61.2952 4.34844 61.3396 4.27551 61.4036 4.22258C61.4677 4.16964 61.5477 4.13975 61.6308 4.13772H62.6087C62.6087 4.13772 62.3489 0.87692 65.6914 0.439032C69.034 0.00114483 69.793 2.89412 69.8076 4.7566Z" fill="#FFBC0E"/>
<path d="M61.6191 5.06898C61.5439 5.06827 61.4698 5.05088 61.4021 5.01807C61.3345 4.98525 61.275 4.93783 61.2279 4.87923C61.1741 4.81262 61.1364 4.73452 61.1177 4.65099C61.0989 4.56746 61.0997 4.48074 61.1199 4.39755C61.142 4.28075 61.2038 4.17516 61.2947 4.09858C61.3856 4.022 61.5002 3.97913 61.6191 3.97718H62.4423C62.4423 3.29407 62.6525 0.672587 65.6535 0.278489C66.8387 0.123769 67.805 0.363147 68.5318 0.993705C69.7813 2.07383 69.9418 3.98302 69.9506 4.75662C69.9506 4.79695 69.9349 4.83571 69.9068 4.86463C69.8426 4.93177 69.7754 4.99891 61.6161 5.06898H61.6191ZM61.6191 4.27786C61.5689 4.28095 61.5213 4.30075 61.4837 4.33408C61.4462 4.36741 61.4208 4.41237 61.4118 4.46177C61.4033 4.50125 61.4035 4.54214 61.4126 4.5815C61.4217 4.62086 61.4394 4.65773 61.4643 4.68947C61.4823 4.71364 61.5056 4.73332 61.5325 4.74699C61.5593 4.76067 61.5889 4.76795 61.6191 4.76829C66.0417 4.73034 69.0369 4.6778 69.6499 4.63109C69.6236 3.83413 69.431 2.16724 68.3392 1.22141C67.6794 0.652152 66.792 0.433209 65.7118 0.579172C62.5532 0.990786 62.7488 3.98885 62.7605 4.11438C62.7617 4.13518 62.7586 4.156 62.7516 4.1756C62.7445 4.1952 62.7336 4.21318 62.7194 4.22844C62.7052 4.24371 62.6881 4.25595 62.6691 4.26445C62.6501 4.27294 62.6295 4.2775 62.6087 4.27786H61.6191Z" fill="#093F68"/>
<path d="M63.8698 4.12593C63.8698 4.12593 63.756 2.21382 64.4537 0.993578C64.9178 0.167431 66.2052 -0.0281584 66.5176 0.322151C66.7132 0.541095 65.8637 0.938112 65.6155 1.92482C65.5022 2.65312 65.4437 3.38888 65.4404 4.12593" fill="#FFC107"/>
<path d="M63.8698 4.27788C63.8313 4.27791 63.7943 4.26303 63.7665 4.23636C63.7388 4.20969 63.7224 4.1733 63.7209 4.13484C63.7209 4.05602 63.6129 2.16434 64.3047 0.923663C64.4669 0.671537 64.684 0.459401 64.9398 0.303175C65.1957 0.146948 65.4835 0.0506878 65.7819 0.0216155C65.9267 -0.00949781 66.0768 -0.00699315 66.2205 0.0289375C66.3642 0.0648681 66.4978 0.133268 66.611 0.228882C66.789 0.424472 66.611 0.634658 66.4037 0.856521C66.0934 1.16566 65.8665 1.54828 65.7439 1.96875C65.6332 2.68554 65.5756 3.40955 65.5717 4.13484C65.5726 4.15487 65.5692 4.17485 65.5618 4.1935C65.5545 4.21215 65.5433 4.22904 65.5289 4.24308C65.5146 4.25711 65.4975 4.26799 65.4787 4.27499C65.46 4.28199 65.4399 4.28496 65.4199 4.28372C65.3801 4.28295 65.3423 4.26662 65.3144 4.23824C65.2866 4.20985 65.271 4.17168 65.271 4.13192C65.2734 3.38201 65.3339 2.6334 65.452 1.89285C65.5863 1.42655 65.8364 1.00177 66.1789 0.658012C66.2509 0.58267 66.3154 0.500549 66.3716 0.412795C66.2035 0.314244 66.0046 0.281974 65.814 0.322298C65.563 0.344786 65.3203 0.424003 65.1044 0.553969C64.8885 0.683935 64.7049 0.861255 64.5675 1.07255C63.9048 2.24024 64.007 4.10564 64.007 4.12316C64.0094 4.16296 63.996 4.20212 63.9698 4.23216C63.9436 4.2622 63.9066 4.28072 63.8669 4.28372L63.8698 4.27788Z" fill="#093F68"/>
<path d="M69.539 4.27191H62.597C62.5583 4.27191 62.5212 4.25653 62.4938 4.22915C62.4664 4.20178 62.451 4.16465 62.451 4.12594C62.451 4.08723 62.4664 4.05011 62.4938 4.02273C62.5212 3.99536 62.5583 3.97998 62.597 3.97998H69.539C69.5777 3.97998 69.6148 3.99536 69.6422 4.02273C69.6696 4.05011 69.6849 4.08723 69.6849 4.12594C69.6849 4.16465 69.6696 4.20178 69.6422 4.22915C69.6148 4.25653 69.5777 4.27191 69.539 4.27191Z" fill="#093F68"/>
<path d="M60.6119 21.8401C60.578 21.8395 60.5453 21.8272 60.5193 21.8055C60.4933 21.7837 60.4755 21.7537 60.4689 21.7205C60.4309 21.5073 59.5493 16.4658 59.9843 13.8969C59.9914 13.8588 60.0131 13.825 60.0447 13.8027C60.0763 13.7804 60.1154 13.7712 60.1536 13.7772C60.1916 13.7843 60.2254 13.806 60.2478 13.8376C60.2701 13.8692 60.2793 13.9082 60.2733 13.9465C59.8442 16.4658 60.7491 21.6154 60.7579 21.6679C60.7612 21.6869 60.7608 21.7064 60.7566 21.7252C60.7524 21.744 60.7445 21.7618 60.7333 21.7775C60.7222 21.7933 60.7081 21.8066 60.6917 21.8169C60.6754 21.8271 60.6572 21.834 60.6382 21.8372L60.6119 21.8401Z" fill="#093F68"/>
<path d="M74.6535 23.472C74.629 23.4725 74.6048 23.4666 74.5832 23.4548C74.5617 23.4431 74.5437 23.4258 74.5309 23.4049L71.5854 18.8333C71.5645 18.8008 71.5574 18.7613 71.5656 18.7236C71.5739 18.6858 71.5967 18.6529 71.6292 18.6319C71.645 18.6208 71.663 18.613 71.682 18.6092C71.701 18.6054 71.7206 18.6055 71.7395 18.6096C71.7584 18.6138 71.7763 18.6218 71.792 18.6331C71.8077 18.6445 71.8208 18.659 71.8306 18.6757L74.7761 23.2472C74.797 23.2798 74.8041 23.3192 74.7959 23.357C74.7877 23.3948 74.7648 23.4277 74.7323 23.4487C74.7087 23.4634 74.6814 23.4715 74.6535 23.472Z" fill="#093F68"/>
<path d="M65.998 31.961C65.8695 31.961 65.7382 31.961 65.6097 31.9435C64.5584 31.8497 63.5853 31.3488 62.8981 30.5476C62.211 29.7465 61.8641 28.7085 61.9314 27.6551L62.1562 23.9243C62.1567 23.904 62.1616 23.8841 62.1707 23.8659C62.1798 23.8477 62.1928 23.8318 62.2088 23.8193C62.2242 23.8068 62.242 23.7975 62.261 23.792C62.2801 23.7865 62.3 23.7848 62.3197 23.7871L70.0849 24.7184C70.1218 24.7221 70.1559 24.74 70.1798 24.7683C70.2038 24.7966 70.2158 24.8332 70.2134 24.8702L70.0528 28.1018C69.9997 29.142 69.5495 30.1221 68.7951 30.8402C68.0407 31.5582 67.0395 31.9594 65.998 31.961ZM62.4365 24.0966L62.2263 27.6785C62.1991 28.1728 62.2695 28.6677 62.4335 29.1348C62.5975 29.602 62.852 30.0322 63.1823 30.401C63.5126 30.7698 63.9123 31.07 64.3586 31.2843C64.8049 31.4986 65.2891 31.6229 65.7834 31.6501C66.2777 31.6774 66.7726 31.6069 67.2397 31.4429C67.7069 31.2789 68.1371 31.0244 68.5059 30.6941C68.8747 30.3638 69.1748 29.9641 69.3892 29.5178C69.6035 29.0715 69.7278 28.5874 69.755 28.093L69.9098 24.9986L62.4365 24.0966Z" fill="white"/>
<path d="M56.4724 57.2389L49.9421 56.1821L49.6706 65.6609C49.6706 65.6609 45.6887 66.9542 45.7237 67.6723C45.7734 68.7291 54.8522 68.2941 54.8522 68.2941L56.4724 57.2389Z" fill="#F56132"/>
<path d="M50.9667 68.5477H50.3128C45.6216 68.4981 45.5924 67.9376 45.5836 67.6982C45.5836 67.5055 45.8318 66.7816 49.5304 65.5672L49.8019 56.1935C49.8025 56.172 49.8077 56.151 49.8173 56.1318C49.8269 56.1126 49.8406 56.0958 49.8574 56.0825C49.8741 56.0694 49.8934 56.0597 49.914 56.0542C49.9345 56.0487 49.956 56.0474 49.9771 56.0504L56.4958 57.1072C56.5151 57.11 56.5338 57.1167 56.5505 57.1267C56.5673 57.1368 56.582 57.1501 56.5937 57.1658C56.6053 57.1815 56.6138 57.1994 56.6185 57.2184C56.6232 57.2374 56.6242 57.2571 56.6213 57.2765L55.0099 68.3317C55.0051 68.3666 54.988 68.3986 54.9619 68.4221C54.9357 68.4456 54.902 68.4591 54.8668 68.4601C54.8464 68.4455 52.9868 68.5477 50.9667 68.5477ZM50.0909 56.3715L49.8224 65.6781C49.8217 65.7091 49.8115 65.7391 49.7933 65.7642C49.775 65.7892 49.7495 65.8081 49.7202 65.8182C47.8577 66.4225 45.8609 67.307 45.8785 67.6807C45.8785 67.7332 46.0244 68.1974 50.3099 68.2441C52.257 68.2616 54.2188 68.1857 54.7238 68.1624L56.2973 57.3757L50.0909 56.3715Z" fill="#093F68"/>
<path d="M77.8122 52.5947L73.515 58.0566L80.419 63.4397C80.419 63.4397 79.1346 66.5225 79.4878 66.9428C79.841 67.3632 85.4314 61.7641 85.4314 61.7641L77.8122 52.5947Z" fill="#F56132"/>
<path d="M79.5433 67.1057C79.4822 67.1036 79.4244 67.0774 79.3827 67.0328C79.0207 66.6124 79.8293 64.493 80.2439 63.4888L73.4303 58.1758C73.4145 58.1636 73.4013 58.1482 73.3918 58.1306C73.3822 58.113 73.3765 58.0935 73.3749 58.0736C73.3697 58.0342 73.3802 57.9944 73.4041 57.9627L77.6925 52.492C77.7063 52.4742 77.724 52.4597 77.7442 52.4496C77.7644 52.4395 77.7866 52.434 77.8092 52.4336C77.8537 52.4368 77.8954 52.4566 77.926 52.4891L85.5569 61.6584C85.5823 61.6864 85.5964 61.7228 85.5964 61.7606C85.5964 61.7984 85.5823 61.8348 85.5569 61.8628C84.3075 63.0947 80.241 67.1057 79.5433 67.1057ZM73.7252 58.0386L80.5124 63.3312C80.5377 63.3517 80.5558 63.3797 80.5641 63.4112C80.5725 63.4426 80.5708 63.4759 80.5592 63.5063C79.9169 65.0477 79.4878 66.5044 79.5841 66.8051C80.0979 66.6591 82.7953 64.1777 85.23 61.7548L77.8151 52.8423L73.7252 58.0386Z" fill="#093F68"/>
<path d="M55.5558 59.4373H55.5324L50.234 58.6549C50.196 58.6484 50.162 58.6275 50.1391 58.5965C50.1162 58.5654 50.1063 58.5267 50.1114 58.4885C50.1139 58.4697 50.1201 58.4515 50.1297 58.4351C50.1393 58.4186 50.1521 58.4043 50.1674 58.3929C50.1826 58.3814 50.1999 58.3732 50.2184 58.3686C50.2368 58.3639 50.256 58.363 50.2749 58.3659L55.5821 59.1453C55.6208 59.1481 55.6568 59.166 55.6823 59.1953C55.7077 59.2246 55.7205 59.2628 55.7178 59.3015C55.7151 59.3402 55.6971 59.3763 55.6678 59.4017C55.6385 59.4272 55.6003 59.44 55.5616 59.4373H55.5558Z" fill="#093F68"/>
<path d="M55.3514 60.5874H55.3339L50.3449 59.9218C50.3062 59.9163 50.2712 59.8958 50.2477 59.8646C50.2241 59.8334 50.214 59.7941 50.2194 59.7554C50.2248 59.7167 50.2454 59.6817 50.2766 59.6581C50.3078 59.6346 50.3471 59.6244 50.3858 59.6298L55.3719 60.2954C55.4106 60.2981 55.4466 60.3161 55.4721 60.3454C55.4975 60.3747 55.5103 60.4129 55.5076 60.4516C55.5049 60.4903 55.4869 60.5264 55.4576 60.5518C55.4283 60.5773 55.3901 60.5901 55.3514 60.5874Z" fill="#093F68"/>
<path d="M76.1482 59.0456C76.1155 59.0442 76.0839 59.033 76.0577 59.0135C76.0276 58.9894 76.0082 58.9544 76.0039 58.9162C75.9995 58.8779 76.0104 58.8394 76.0343 58.8092L79.0762 54.947C79.0866 54.9289 79.1008 54.9133 79.1178 54.9011C79.1348 54.889 79.1542 54.8807 79.1748 54.8767C79.1953 54.8727 79.2164 54.8732 79.2367 54.8781C79.257 54.883 79.276 54.8921 79.2925 54.905C79.3089 54.9179 79.3224 54.9341 79.3321 54.9527C79.3417 54.9712 79.3473 54.9916 79.3483 55.0125C79.3494 55.0333 79.346 55.0542 79.3383 55.0736C79.3307 55.093 79.3189 55.1106 79.3039 55.1251L76.2649 58.9902C76.2506 59.0073 76.2328 59.0211 76.2126 59.0307C76.1925 59.0402 76.1705 59.0454 76.1482 59.0456Z" fill="#093F68"/>
<path d="M77.1378 59.4368C77.1035 59.4368 77.0703 59.4243 77.0444 59.4018C77.015 59.3764 76.9967 59.3405 76.9934 59.3017C76.9901 59.263 77.0022 59.2246 77.0269 59.1946L79.8147 55.8754C79.8408 55.8507 79.875 55.8365 79.9108 55.8355C79.9467 55.8345 79.9816 55.8467 80.0091 55.8698C80.0365 55.8929 80.0544 55.9252 80.0595 55.9607C80.0646 55.9962 80.0564 56.0323 80.0366 56.0622L77.2487 59.3843C77.2348 59.4002 77.2178 59.413 77.1987 59.422C77.1796 59.4311 77.1589 59.4361 77.1378 59.4368Z" fill="#093F68"/>
</svg>
