<svg width="48" height="48" viewBox="0 0 48 48" fill="none" xmlns="http://www.w3.org/2000/svg">
<circle cx="24" cy="24" r="24" fill="#A2B13A"/>
<path d="M33.345 27.9433C31.91 27.9433 30.5217 27.71 29.2267 27.29C29.0238 27.2212 28.8056 27.211 28.5972 27.2605C28.3888 27.3101 28.1986 27.4173 28.0483 27.57L26.2167 29.8683C22.915 28.2933 19.8233 25.3183 18.1783 21.9L20.4533 19.9633C20.7683 19.6367 20.8617 19.1817 20.7333 18.7733C20.3017 17.4783 20.08 16.09 20.08 14.655C20.08 14.025 19.555 13.5 18.925 13.5H14.8883C14.2583 13.5 13.5 13.78 13.5 14.655C13.5 25.4933 22.5183 34.5 33.345 34.5C34.1733 34.5 34.5 33.765 34.5 33.1233V29.0983C34.5 28.4683 33.975 27.9433 33.345 27.9433Z" fill="white"/>
</svg>
