<svg width="40" height="40" viewBox="0 0 40 40" fill="none" xmlns="http://www.w3.org/2000/svg">
<circle cx="20" cy="20" r="12" fill="white"/>
<path d="M17.6667 27.6668L29.4167 15.9168L27.0833 13.5835L17.6667 23.0002L12.9167 18.2502L10.5833 20.5835L17.6667 27.6668ZM20 36.6668C17.6944 36.6668 15.5278 36.229 13.5 35.3535C11.4722 34.4791 9.70834 33.2918 8.20834 31.7918C6.70834 30.2918 5.52111 28.5279 4.64667 26.5002C3.77111 24.4724 3.33334 22.3057 3.33334 20.0002C3.33334 17.6946 3.77111 15.5279 4.64667 13.5002C5.52111 11.4724 6.70834 9.7085 8.20834 8.2085C9.70834 6.7085 11.4722 5.52072 13.5 4.64516C15.5278 3.77072 17.6944 3.3335 20 3.3335C22.3056 3.3335 24.4722 3.77072 26.5 4.64516C28.5278 5.52072 30.2917 6.7085 31.7917 8.2085C33.2917 9.7085 34.4789 11.4724 35.3533 13.5002C36.2289 15.5279 36.6667 17.6946 36.6667 20.0002C36.6667 22.3057 36.2289 24.4724 35.3533 26.5002C34.4789 28.5279 33.2917 30.2918 31.7917 31.7918C30.2917 33.2918 28.5278 34.4791 26.5 35.3535C24.4722 36.229 22.3056 36.6668 20 36.6668Z" fill="#A2B13A"/>
</svg>
