<svg width="81" height="80" viewBox="0 0 81 80" fill="none" xmlns="http://www.w3.org/2000/svg">
<path d="M79.5698 39.9924C79.5751 44.6895 78.7409 49.3499 77.1065 53.7535C76.9291 54.2309 76.7432 54.7042 76.5488 55.1689C72.9914 63.7028 66.5655 70.7264 58.3809 75.0269C57.9837 75.2381 57.5781 75.4494 57.1725 75.6353C52.1484 78.0565 46.6699 79.39 41.095 79.5488C35.5202 79.7075 29.9747 78.6878 24.821 76.5563C24.3985 76.3831 23.9759 76.2014 23.5534 76.0113C15.2088 72.2053 8.44074 65.6254 4.40107 57.3913C4.18559 56.9688 3.97856 56.504 3.77576 56.0562C1.39234 50.6683 0.241484 44.8164 0.407132 38.9272C0.572781 33.038 2.05075 27.2601 4.73326 22.0147C7.41577 16.7693 11.2352 12.1888 15.913 8.6071C20.5907 5.02544 26.0089 2.53296 31.7724 1.31144C37.5359 0.0899279 43.4994 0.170167 49.2279 1.54631C54.9564 2.92245 60.3056 5.55981 64.8853 9.26603C69.465 12.9723 73.1598 17.6539 75.7002 22.9696C78.2406 28.2852 79.5626 34.1009 79.5698 39.9924Z" fill="white"/>
<path d="M39.9848 79.9998C34.7325 80.0104 29.5305 78.9763 24.6816 76.9577C24.2337 76.776 23.8027 76.5901 23.414 76.4084C14.9878 72.556 8.15386 65.9071 4.07153 57.5899C3.83493 57.1082 3.64902 56.6646 3.44199 56.2421C0.781043 50.2488 -0.365938 43.6933 0.102002 37.1525C0.569941 30.6118 2.63845 24.2863 6.12549 18.7329C9.61252 13.1794 14.4112 8.5682 20.0991 5.3051C25.787 2.042 32.1898 0.227042 38.744 0.0199576C45.2982 -0.187127 51.8028 1.22001 57.6854 4.11754C63.568 7.01506 68.6481 11.3141 72.4788 16.6364C76.3094 21.9586 78.7731 28.1409 79.6531 34.639C80.533 41.1372 79.8021 47.752 77.5248 53.9013C77.3389 54.3999 77.1488 54.8816 76.9587 55.3337C73.3721 63.9581 66.8865 71.0594 58.6217 75.4113C58.2457 75.6141 57.8443 75.8127 57.3965 76.0282C51.9712 78.6619 46.0156 80.0204 39.9848 79.9998ZM39.9848 0.829916C33.4608 0.831996 27.0405 2.46341 21.3068 5.57607C15.5731 8.68874 10.7076 13.1841 7.15186 18.6541C3.59615 24.124 1.46283 30.3954 0.945567 36.899C0.428303 43.4026 1.54347 49.9323 4.18984 55.8956C4.37574 56.3181 4.57854 56.7406 4.81093 57.218C8.80743 65.3634 15.5021 71.8729 23.7563 75.6395C24.145 75.8169 24.5632 75.9986 25.0027 76.1761C30.1008 78.2858 35.587 79.2954 41.1022 79.1388C46.6174 78.9823 52.0375 77.6631 57.0078 75.2677C57.4303 75.0564 57.8528 74.8452 58.2035 74.6677C66.2945 70.404 72.6449 63.4515 76.1601 55.0083C76.3418 54.5858 76.5277 54.0915 76.7094 53.6056C78.9028 47.6836 79.6318 41.319 78.8343 35.0544C78.0369 28.7898 75.7366 22.8108 72.1295 17.6272C68.5224 12.4435 63.7154 8.20884 58.1183 5.28408C52.5213 2.35931 46.3 0.831177 39.9848 0.829916Z" fill="#093F68"/>
<path d="M35.4936 18.8331C35.4936 18.8331 20.2494 37.1531 22.2395 40.2459C24.2295 43.3386 40.8637 54.9999 46.8084 57.6152L52.639 64.6331L68.293 50.8931C68.293 50.8931 50.7589 25.7665 46.6732 21.8244C42.5875 17.8824 35.4936 18.8331 35.4936 18.8331Z" fill="#FFC9B0"/>
<path d="M52.6221 65.0557H52.5883C52.532 65.0511 52.4772 65.0353 52.4271 65.0092C52.377 64.9831 52.3327 64.9472 52.2968 64.9036L46.5337 57.9618C39.6426 54.8901 23.676 43.3176 21.8634 40.4741C19.8311 37.2841 32.5909 21.664 35.1682 18.5627C35.2355 18.4821 35.3304 18.4294 35.4344 18.4149C35.7301 18.3726 42.7818 17.4473 46.9689 21.5034C51.0377 25.4454 67.9381 49.6257 68.6563 50.6566C68.7154 50.7417 68.7411 50.8455 68.7286 50.9483C68.7162 51.0511 68.6664 51.1458 68.5887 51.2143L52.9009 64.9543C52.8233 65.0207 52.7242 65.0567 52.6221 65.0557ZM35.7217 19.2345C29.9037 26.2397 21.2845 37.9686 22.5901 40.0178C24.466 42.9754 40.8763 54.5437 46.9774 57.2266C47.0358 57.2549 47.0877 57.2952 47.1295 57.3449L52.6601 64.029L67.7395 50.8256C65.7072 47.9272 50.1377 25.7623 46.3732 22.0949C42.8241 18.6641 36.7653 19.1247 35.709 19.2345H35.7217Z" fill="#093F68"/>
<path d="M15.9018 50.2381C15.9018 50.2381 32.7177 25.9692 36.2034 22.9567C39.6891 19.9442 47.683 14.3079 51.0166 14.4304C54.1685 14.5487 55.8754 17.2486 52.7066 21.1906C52.7066 21.1906 56.1163 18.9724 58.1992 21.9849C60.2822 24.9974 56.5176 27.7395 56.5176 27.7395C56.5176 27.7395 59.9484 26.2565 61.3469 28.6817C62.6736 30.9801 58.9259 34.0729 58.9259 34.0729C58.9259 34.0729 61.8835 30.9928 63.7468 34.7869C65.4706 38.298 46.2253 53.2253 43.7705 54.421C40.8425 55.8491 37.1583 55.4857 37.1583 55.4857L28.8179 65.7654L15.9018 50.2381Z" fill="#E28362"/>
<path d="M28.8179 66.188C28.7558 66.1881 28.6945 66.1745 28.6383 66.1482C28.582 66.1219 28.5323 66.0836 28.4926 66.0359L15.5764 50.4918C15.5206 50.4183 15.4904 50.3285 15.4904 50.2361C15.4904 50.1438 15.5206 50.054 15.5764 49.9805C16.2651 48.9876 32.4768 25.6355 35.9499 22.6188C39.4229 19.6021 47.3872 14.0081 50.9109 14.0081H51.0335C52.7235 14.0714 53.991 14.7981 54.5318 15.9981C55.0726 17.198 54.8445 18.6303 53.915 20.2232C55.3515 19.8007 57.2232 19.8852 58.5246 21.7822C59.8259 23.6793 59.0569 25.6228 57.9922 26.92C59.3146 26.7552 60.8653 27.0045 61.7103 28.4748C62.4877 29.8184 61.8159 31.3394 60.9667 32.5055C61.2243 32.4656 61.4865 32.4656 61.7441 32.5055C62.7116 32.6534 63.5144 33.3505 64.1228 34.6181C64.2279 34.8682 64.282 35.1368 64.282 35.4082C64.282 35.6795 64.2279 35.9481 64.1228 36.1983C62.4328 41.1754 46.3478 53.6564 43.9691 54.8183C41.358 56.0858 38.2314 55.9971 37.3568 55.9421L29.1601 66.0824C29.1208 66.1308 29.0713 66.17 29.015 66.197C28.9588 66.2241 28.8972 66.2383 28.8348 66.2387L28.8179 66.188ZM16.4341 50.2171L28.8137 65.119L36.8414 55.207C36.8854 55.1534 36.942 55.1115 37.0061 55.085C37.0702 55.0584 37.1399 55.0481 37.2089 55.0549C37.247 55.0549 40.8172 55.3844 43.5973 54.0282C45.8915 52.9085 61.723 40.567 63.3243 35.8983C63.4552 35.6025 63.4747 35.2693 63.3792 34.9603C62.8975 33.9801 62.3102 33.4308 61.63 33.3252C60.8188 33.1942 60.0118 33.7139 59.5724 34.0604C59.3738 34.2505 59.2386 34.3646 59.209 34.3857C59.1259 34.4531 59.0202 34.4865 58.9135 34.479C58.8067 34.4715 58.7067 34.4238 58.6337 34.3455C58.5608 34.2672 58.5203 34.1641 58.5204 34.057C58.5205 33.95 58.5613 33.847 58.6344 33.7688C58.7534 33.6493 58.8789 33.5364 59.0104 33.4308C59.8555 32.6407 61.9089 30.4733 60.992 28.8804C59.8005 26.8143 56.8218 28.0607 56.6951 28.1157C56.5998 28.1587 56.4919 28.1649 56.3923 28.133C56.2926 28.1011 56.2084 28.0334 56.1558 27.943C56.1032 27.8526 56.0861 27.7459 56.1077 27.6435C56.1292 27.5412 56.188 27.4505 56.2726 27.3889C56.4078 27.2875 59.6527 24.8792 57.8274 22.2428C56.0022 19.6063 53.0615 21.4865 52.9347 21.5668C52.8507 21.6191 52.7508 21.6402 52.6528 21.6264C52.5547 21.6127 52.4645 21.5649 52.3981 21.4914C52.3317 21.4179 52.2932 21.3234 52.2893 21.2245C52.2855 21.1255 52.3165 21.0283 52.377 20.9499C53.8093 19.1584 54.3037 17.5233 53.7671 16.3488C53.3446 15.4488 52.3475 14.9038 51.0039 14.8531H50.9025C47.6492 14.8531 39.8116 20.4049 36.4865 23.2779C33.2669 26.0496 18.2678 47.5976 16.4341 50.2171Z" fill="#093F68"/>
<path d="M30.0366 41.5096L19.8355 35.6957C18.5583 34.9678 16.9328 35.4131 16.2049 36.6903L15.9204 37.1895C15.1924 38.4667 15.6377 40.0922 16.9149 40.8201L27.116 46.634C28.3932 47.3619 30.0187 46.9166 30.7466 45.6394L31.0312 45.1402C31.7591 43.863 31.3138 42.2375 30.0366 41.5096Z" fill="#FFC9B0"/>
<path d="M28.4334 47.403C27.898 47.3987 27.3733 47.2529 26.9124 46.9805L16.7088 41.1668C16.3548 40.9659 16.044 40.6971 15.7943 40.3757C15.5446 40.0543 15.3608 39.6867 15.2536 39.2941C15.1464 38.9014 15.1179 38.4915 15.1697 38.0878C15.2215 37.6841 15.3525 37.2946 15.5553 36.9417L15.8426 36.4432C16.0427 36.0911 16.3102 35.782 16.6298 35.5335C16.9495 35.285 17.315 35.1019 17.7054 34.9948C18.0959 34.8877 18.5037 34.8586 18.9054 34.9092C19.3071 34.9598 19.6949 35.0891 20.0466 35.2897L30.2671 41.1372C30.6207 41.3385 30.931 41.6076 31.1804 41.929C31.4298 42.2505 31.6134 42.618 31.7205 43.0104C31.8277 43.4029 31.8563 43.8127 31.8049 44.2163C31.7534 44.6198 31.6228 45.0093 31.4205 45.3623L31.1332 45.8609C30.9338 46.2135 30.6664 46.5232 30.3466 46.7719C30.0268 47.0206 29.6609 47.2036 29.27 47.3101C28.9964 47.3776 28.7151 47.4089 28.4334 47.403ZM18.5213 35.7671C18.3214 35.7665 18.1224 35.7936 17.9298 35.8474C17.6456 35.9247 17.3794 36.0575 17.1467 36.2381C16.9139 36.4186 16.7191 36.6434 16.5736 36.8995L16.2905 37.398C16.1451 37.654 16.0517 37.9362 16.0155 38.2283C15.9793 38.5205 16.0011 38.8169 16.0796 39.1006C16.1581 39.3843 16.2917 39.6498 16.4729 39.8818C16.6541 40.1138 16.8793 40.3078 17.1355 40.4528L27.3391 46.2665C27.5946 46.4123 27.8765 46.5061 28.1684 46.5425C28.4604 46.579 28.7567 46.5573 29.0402 46.4787C29.3237 46.4002 29.5889 46.2664 29.8205 46.0849C30.0521 45.9035 30.2455 45.678 30.3896 45.4215L30.6769 44.9229C30.9693 44.4056 31.0446 43.7935 30.8861 43.2208C30.7277 42.6481 30.3486 42.1617 29.8319 41.8682L19.6283 36.0544C19.2904 35.8645 18.909 35.7655 18.5213 35.7671Z" fill="#093F68"/>
<path d="M33.9851 36.9672L21.8568 30.055C20.4884 29.2751 18.7468 29.7522 17.9669 31.1206L17.8706 31.2895C17.0907 32.6579 17.5678 34.3995 18.9363 35.1794L31.0645 42.0916C32.433 42.8715 34.1746 42.3944 34.9545 41.026L35.0507 40.8571C35.8306 39.4887 35.3535 37.7471 33.9851 36.9672Z" fill="#FFC9B0"/>
<path d="M32.4769 42.8864C31.9099 42.8888 31.3521 42.7432 30.8587 42.4639L18.7284 35.5517C18.3546 35.3389 18.0265 35.0546 17.7628 34.7149C17.4991 34.3752 17.305 33.9868 17.1915 33.572C17.0781 33.1571 17.0476 32.724 17.1018 32.2974C17.156 31.8708 17.2938 31.459 17.5074 31.0857L17.6045 30.9125C18.0349 30.1596 18.7464 29.6082 19.5829 29.3793C20.4193 29.1504 21.3124 29.2627 22.0662 29.6914L34.1965 36.6122C34.5702 36.8249 34.8983 37.1092 35.1621 37.4488C35.426 37.7884 35.6203 38.1766 35.7341 38.5913C35.8479 39.006 35.8789 39.4391 35.8253 39.8658C35.7717 40.2924 35.6346 40.7044 35.4218 41.0781L35.3246 41.2471C35.0368 41.7473 34.6217 42.1625 34.1216 42.4504C33.6214 42.7383 33.054 42.8887 32.4769 42.8864ZM20.4522 30.1013C20.0233 30.1034 19.6025 30.2181 19.2317 30.4338C18.861 30.6496 18.5534 30.9589 18.3397 31.3308L18.2425 31.4998C17.9239 32.0595 17.8406 32.7229 18.011 33.3441C18.1813 33.9652 18.5913 34.4933 19.1509 34.8123L31.2812 41.7245C31.5582 41.8828 31.8637 41.9849 32.1803 42.025C32.4969 42.065 32.8182 42.0422 33.1259 41.9578C33.4336 41.8734 33.7217 41.7291 33.9735 41.5332C34.2254 41.3373 34.4361 41.0936 34.5936 40.8161L34.6908 40.6471C34.8491 40.3701 34.9512 40.0645 34.9913 39.748C35.0313 39.4314 35.0085 39.1101 34.9241 38.8024C34.8397 38.4946 34.6954 38.2066 34.4995 37.9547C34.3036 37.7029 34.0599 37.4922 33.7824 37.3346L21.648 30.4224C21.284 30.2133 20.8719 30.1027 20.4522 30.1013Z" fill="#093F68"/>
<path d="M38.062 32.5027L24.8619 24.9796C23.4468 24.1731 21.6459 24.6664 20.8394 26.0815C20.0329 27.4966 20.5263 29.2975 21.9413 30.104L35.1415 37.6271C36.5565 38.4336 38.3575 37.9402 39.164 36.5252C39.9704 35.1101 39.4771 33.3092 38.062 32.5027Z" fill="#FFC9B0"/>
<path d="M36.6048 38.4375C36.0242 38.4416 35.4523 38.2961 34.9443 38.015L21.7324 30.469C21.3135 30.2685 20.9404 29.9838 20.6364 29.6327C20.3324 29.2816 20.104 28.8716 19.9655 28.4283C19.8269 27.9851 19.7812 27.518 19.8312 27.0563C19.8812 26.5945 20.0258 26.1481 20.256 25.7447C20.4862 25.3414 20.7971 24.9898 21.1692 24.7119C21.5413 24.434 21.9667 24.2358 22.4188 24.1296C22.8709 24.0234 23.3401 24.0115 23.797 24.0947C24.2539 24.1779 24.6888 24.3543 25.0745 24.613L38.2948 32.1337C38.8664 32.4694 39.3266 32.9659 39.6182 33.5612C39.9098 34.1566 40.0199 34.8245 39.9348 35.482C39.8497 36.1394 39.5731 36.7573 39.1395 37.2588C38.706 37.7602 38.1345 38.1231 37.4962 38.3023C37.2063 38.3862 36.9066 38.4317 36.6048 38.4375ZM35.3372 37.2587C35.9185 37.5804 36.6028 37.661 37.2429 37.4833C37.883 37.3056 38.4278 36.8837 38.76 36.3084C39.0922 35.7331 39.1854 35.0504 39.0193 34.4071C38.8533 33.7639 38.4414 33.2115 37.8723 32.8688L24.6731 25.3439C24.0959 25.0721 23.4375 25.0278 22.8292 25.2199C22.2208 25.4121 21.7073 25.8266 21.391 26.3807C21.0748 26.9347 20.9791 27.5877 21.1231 28.2092C21.267 28.8307 21.64 29.3752 22.1676 29.7338L35.3372 37.2587Z" fill="#093F68"/>
<path d="M39.826 26.7189L27.6977 19.8067C26.3293 19.0268 24.5877 19.5039 23.8078 20.8723L23.7116 21.0412C22.9317 22.4096 23.4088 24.1512 24.7772 24.9311L36.9055 31.8433C38.2739 32.6232 40.0155 32.1461 40.7954 30.7777L40.8916 30.6088C41.6715 29.2404 41.1944 27.4988 39.826 26.7189Z" fill="#FFC9B0"/>
<path d="M38.316 32.6405C37.7504 32.642 37.1943 32.4964 36.702 32.218L24.5717 25.3058C24.198 25.093 23.8699 24.8087 23.6061 24.4691C23.3422 24.1295 23.1479 23.7413 23.0341 23.3266C22.9203 22.9119 22.8894 22.4788 22.9429 22.0522C22.9965 21.6255 23.1336 21.2135 23.3465 20.8399L23.4436 20.6708C23.8741 19.917 24.5861 19.3646 25.4233 19.1349C26.2605 18.9052 27.1546 19.0169 27.9096 19.4456L40.0398 26.3578C40.4135 26.5706 40.7416 26.8549 41.0055 27.1945C41.2693 27.5341 41.4636 27.9223 41.5774 28.337C41.6912 28.7517 41.7222 29.1848 41.6686 29.6114C41.615 30.0381 41.4779 30.4501 41.2651 30.8238L41.1679 30.9928C40.9555 31.3672 40.671 31.6959 40.3309 31.9598C39.9908 32.2238 39.6018 32.4178 39.1863 32.5307C38.9026 32.6068 38.6097 32.6438 38.316 32.6405ZM26.2913 19.8554C25.8623 19.8545 25.4407 19.9675 25.0696 20.1827C24.6985 20.398 24.3911 20.7078 24.1788 21.0807L24.0816 21.2497C23.763 21.8094 23.6797 22.4728 23.85 23.094C24.0204 23.7151 24.4304 24.2432 24.99 24.5622L37.1203 31.4744C37.68 31.793 38.3434 31.8763 38.9646 31.706C39.5857 31.5356 40.1138 31.1256 40.4327 30.566L40.5299 30.397C40.8485 29.8373 40.9318 29.1739 40.7615 28.5527C40.5911 27.9316 40.1811 27.4035 39.6215 27.0845L27.4913 20.1723C27.1257 19.964 26.7121 19.8548 26.2913 19.8554Z" fill="#093F68"/>
<path d="M38.7173 20.616L37.2892 20.9751C37.2892 20.9751 29.6841 25.3777 27.7701 22.5215C25.8561 19.6654 35.9794 12.5292 38.3328 12.4109C40.6862 12.2926 44.4254 16.5388 44.4254 16.5388L38.7173 20.616Z" fill="#FFC9B0"/>
<path d="M29.9798 23.9117C28.7799 23.9117 27.9222 23.523 27.4067 22.754C26.9842 22.0907 26.9842 21.2415 27.5039 20.219C29.194 16.8389 36.1654 12.0815 38.3117 11.9758H38.4258C40.9609 11.9758 44.586 16.0742 44.7423 16.2516C44.7809 16.2958 44.8098 16.3476 44.8273 16.4036C44.8447 16.4596 44.8503 16.5187 44.8437 16.577C44.8371 16.6356 44.8183 16.6923 44.7884 16.7432C44.7586 16.7941 44.7184 16.8383 44.6705 16.8727L38.9497 20.9795C38.9062 21.0094 38.8575 21.0309 38.8061 21.0429L37.4329 21.3893C36.1321 22.1174 34.7725 22.7351 33.3684 23.2357C32.283 23.6434 31.1385 23.8717 29.9798 23.9117ZM38.43 12.8293H38.3498C36.6597 12.9138 29.8996 17.3755 28.256 20.6077C27.8926 21.326 27.8335 21.8752 28.1081 22.2977C29.4855 24.368 35.0373 21.7907 37.0611 20.6077C37.0959 20.5893 37.1328 20.5751 37.1709 20.5654L38.5188 20.2274L43.7874 16.4713C42.6002 15.1954 40.0482 12.8293 38.4343 12.8293H38.43Z" fill="#093F68"/>
<path d="M31.8389 67.878L24.8421 76.5859C24.4196 76.4127 23.9971 76.231 23.5746 76.0409C15.23 72.2349 8.46192 65.6549 4.42224 57.4209L10.067 50.3945L11.964 51.9156L27.9349 64.7472L28.9743 65.5922L29.9249 66.3569L31.8389 67.878Z" fill="#A2B13A"/>
<path d="M24.8421 76.9915C24.7872 76.9921 24.7326 76.9821 24.6815 76.9619C24.2337 76.776 23.8027 76.5901 23.414 76.4084C14.9878 72.5559 8.15384 65.9071 4.07152 57.5898C4.03596 57.5175 4.02185 57.4365 4.03083 57.3564C4.03981 57.2763 4.07152 57.2004 4.12222 57.1377L9.74582 50.1325C9.78069 50.0891 9.82379 50.053 9.87264 50.0263C9.9215 49.9996 9.97516 49.9829 10.0305 49.977C10.0859 49.9711 10.1419 49.9762 10.1952 49.992C10.2486 50.0078 10.2983 50.034 10.3416 50.0691L28.2095 64.4345L29.2024 65.233L29.2404 65.2584L32.0881 67.5484C32.1315 67.5832 32.1676 67.6263 32.1943 67.6752C32.221 67.724 32.2378 67.7777 32.2437 67.8331C32.2496 67.8884 32.2444 67.9444 32.2286 67.9978C32.2128 68.0512 32.1866 68.1009 32.1515 68.1441L25.1716 76.8351C25.1319 76.8841 25.0816 76.9236 25.0246 76.9507C24.9676 76.9777 24.9052 76.9917 24.8421 76.9915ZM4.91654 57.4588C8.93257 65.4877 15.5768 71.8993 23.7436 75.6267C24.0478 75.7662 24.3647 75.9056 24.6984 76.0493L31.2304 67.9159L28.7461 65.9175L28.7081 65.8921L27.6687 65.0471L10.1388 50.9775L4.91654 57.4588Z" fill="#093F68"/>
<path d="M33.2284 62.2308L15.2613 47.7952L11.964 51.8991L29.9311 66.3348L33.2284 62.2308Z" fill="white"/>
<path d="M29.9418 66.7582C29.845 66.7586 29.7511 66.7258 29.6756 66.6653L11.7063 52.245C11.6198 52.1747 11.5647 52.0731 11.5528 51.9623C11.541 51.8515 11.5733 51.7406 11.6429 51.6535L14.9385 47.5467C14.9739 47.5037 15.0176 47.468 15.0669 47.4419C15.1162 47.4158 15.1702 47.3997 15.2258 47.3946C15.3362 47.3825 15.4471 47.4144 15.5342 47.4833L33.5035 61.9163C33.5469 61.9511 33.583 61.9942 33.6097 62.0431C33.6364 62.092 33.6532 62.1456 33.6591 62.201C33.665 62.2563 33.6598 62.3123 33.644 62.3657C33.6282 62.4191 33.602 62.4688 33.5669 62.512L30.2671 66.6104C30.1965 66.6964 30.0947 66.751 29.984 66.7625L29.9418 66.7582ZM12.5682 51.8225L29.8911 65.7273L32.6585 62.2839L15.3356 48.3791L12.5682 51.8225Z" fill="#093F68"/>
<path d="M76.5488 55.1689C72.9914 63.7028 66.5655 70.7264 58.3809 75.0268C57.9837 75.2381 57.5781 75.4494 57.1725 75.6353L50.9363 67.878L52.8333 66.3527L70.8027 51.9156L72.6997 50.3945L76.5488 55.1689Z" fill="#A2B13A"/>
<path d="M57.1937 76.0705C57.1335 76.0667 57.0748 76.0499 57.0216 76.0215C56.9684 75.9931 56.9219 75.9536 56.8852 75.9057L50.6279 68.1189C50.5928 68.0757 50.5666 68.0259 50.5507 67.9726C50.5349 67.9192 50.5298 67.8632 50.5357 67.8078C50.5416 67.7525 50.5584 67.6988 50.5851 67.65C50.6117 67.6011 50.6478 67.558 50.6912 67.5231L72.4336 50.0481C72.4768 50.013 72.5265 49.9868 72.5799 49.971C72.6333 49.9552 72.6893 49.9501 72.7446 49.956C72.8 49.9619 72.8536 49.9786 72.9025 50.0053C72.9513 50.032 72.9944 50.0681 73.0293 50.1115L76.8784 54.9028C76.9248 54.9616 76.9548 55.0318 76.9652 55.106C76.9756 55.1803 76.966 55.2559 76.9375 55.3253C73.3524 63.9517 66.8665 71.0548 58.6006 75.4072C58.2246 75.61 57.8232 75.8086 57.3753 76.024C57.3194 76.0538 57.2571 76.0697 57.1937 76.0705ZM51.532 67.9245L57.312 75.1072C57.6288 74.9509 57.9246 74.803 58.2034 74.6551C66.2195 70.4297 72.5289 63.5636 76.0629 55.2197L72.6364 50.9777L71.0689 52.2452L51.532 67.9245Z" fill="#093F68"/>
<path d="M52.8355 66.3458L70.8027 51.9102L67.5054 47.8062L49.5382 62.2418L52.8355 66.3458Z" fill="white"/>
<path d="M52.8334 66.7583H52.7911C52.7356 66.7532 52.6816 66.7371 52.6323 66.711C52.5829 66.6849 52.5393 66.6493 52.5038 66.6062L49.2082 62.4994C49.1731 62.4562 49.1469 62.4065 49.1311 62.3531C49.1153 62.2997 49.1102 62.2437 49.1161 62.1884C49.122 62.133 49.1387 62.0794 49.1654 62.0305C49.1921 61.9816 49.2282 61.9385 49.2716 61.9037L67.241 47.4707C67.2842 47.4356 67.3339 47.4094 67.3873 47.3936C67.4407 47.3778 67.4966 47.3727 67.552 47.3786C67.6074 47.3845 67.661 47.4013 67.7099 47.4279C67.7587 47.4546 67.8018 47.4907 67.8367 47.5341L71.1323 51.6409C71.2018 51.728 71.2342 51.8389 71.2223 51.9497C71.2105 52.0605 71.1553 52.1621 71.0689 52.2324L53.0827 66.6654C53.0117 66.7224 52.9243 66.755 52.8334 66.7583ZM50.1251 62.2966L52.8925 65.7401L70.2154 51.8353L67.448 48.3918L50.1251 62.2966Z" fill="#093F68"/>
<path d="M23.2662 15.6473C23.2055 15.6478 23.1454 15.6352 23.09 15.6104C23.0346 15.5856 22.9851 15.5492 22.9451 15.5036L20.8029 13.0446C20.729 12.96 20.6917 12.8495 20.6992 12.7374C20.7067 12.6252 20.7585 12.5207 20.8431 12.4467C20.9277 12.3728 21.0382 12.3355 21.1503 12.343C21.2624 12.3505 21.367 12.4023 21.4409 12.4869L23.5831 14.9459C23.6564 15.0305 23.6932 15.1408 23.6852 15.2525C23.6773 15.3642 23.6254 15.4682 23.5408 15.5416C23.4649 15.6086 23.3674 15.6461 23.2662 15.6473Z" fill="#DFEAEF"/>
<path d="M14.5244 25.8255C14.4769 25.825 14.4297 25.8164 14.385 25.8002L7.73893 23.4595C7.6822 23.4449 7.62911 23.4188 7.58303 23.3826C7.53695 23.3464 7.49889 23.3011 7.47127 23.2495C7.44364 23.1978 7.42706 23.141 7.42257 23.0826C7.41808 23.0242 7.42578 22.9655 7.44518 22.9102C7.46458 22.855 7.49526 22.8044 7.53527 22.7616C7.57527 22.7188 7.62374 22.6848 7.67758 22.6618C7.73143 22.6387 7.78948 22.6271 7.84804 22.6277C7.90661 22.6283 7.96441 22.641 8.01779 22.6652L14.6639 25.0016C14.7759 25.0201 14.876 25.0824 14.9422 25.1747C15.0084 25.267 15.0352 25.3818 15.0167 25.4939C14.9982 25.6059 14.9359 25.706 14.8436 25.7722C14.7513 25.8384 14.6365 25.8651 14.5244 25.8467V25.8255Z" fill="#DFEAEF"/>
<path d="M7.48542 42.9837C7.37337 42.9965 7.26078 42.9644 7.17243 42.8943C7.08408 42.8241 7.02721 42.7218 7.01432 42.6097C7.00144 42.4977 7.03359 42.3851 7.10372 42.2967C7.17384 42.2084 7.27619 42.1515 7.38824 42.1386L11.1063 41.264C11.2114 41.2477 11.3187 41.2716 11.4069 41.3309C11.4951 41.3903 11.5577 41.4806 11.5822 41.5841C11.6068 41.6875 11.5914 41.7964 11.5392 41.889C11.487 41.9816 11.4019 42.0511 11.3007 42.0837L7.5826 42.9625C7.55126 42.9737 7.51859 42.9808 7.48542 42.9837Z" fill="#DFEAEF"/>
<path d="M56.7036 15.6473C56.6023 15.6461 56.5049 15.6086 56.4289 15.5416C56.3444 15.4682 56.2924 15.3642 56.2845 15.2525C56.2766 15.1408 56.3133 15.0305 56.3867 14.9459L58.5288 12.4869C58.6028 12.4023 58.7073 12.3505 58.8194 12.343C58.9315 12.3355 59.0421 12.3728 59.1267 12.4467C59.2113 12.5207 59.263 12.6252 59.2705 12.7374C59.2781 12.8495 59.2407 12.96 59.1668 13.0446L57.0247 15.4867C56.9862 15.5354 56.9375 15.575 56.882 15.6028C56.8265 15.6305 56.7656 15.6457 56.7036 15.6473Z" fill="#DFEAEF"/>
<path d="M65.4453 25.8257C65.3332 25.8442 65.2184 25.8174 65.1261 25.7512C65.0338 25.6851 64.9715 25.585 64.953 25.4729C64.9346 25.3608 64.9613 25.246 65.0275 25.1537C65.0937 25.0614 65.1938 24.9992 65.3058 24.9807L71.9519 22.6696C72.0053 22.6454 72.0631 22.6327 72.1217 22.6321C72.1802 22.6315 72.2383 22.6431 72.2921 22.6662C72.346 22.6892 72.3944 22.7232 72.4344 22.766C72.4744 22.8087 72.5051 22.8594 72.5245 22.9146C72.5439 22.9699 72.5516 23.0286 72.5471 23.087C72.5426 23.1454 72.5261 23.2022 72.4984 23.2539C72.4708 23.3055 72.4328 23.3508 72.3867 23.387C72.3406 23.4231 72.2875 23.4493 72.2308 23.4639L65.5847 25.8046C65.5397 25.8194 65.4926 25.8265 65.4453 25.8257Z" fill="#DFEAEF"/>
<path d="M72.4843 42.9838C72.4521 42.9879 72.4194 42.9879 72.3871 42.9838L68.6691 42.1049C68.5679 42.0724 68.4827 42.0028 68.4305 41.9102C68.3783 41.8176 68.363 41.7087 68.3875 41.6053C68.412 41.5019 68.4746 41.4115 68.5628 41.3522C68.6511 41.2929 68.7584 41.269 68.8634 41.2853L72.5815 42.1599C72.6936 42.1728 72.7959 42.2296 72.866 42.318C72.9361 42.4063 72.9683 42.5189 72.9554 42.631C72.9425 42.743 72.8857 42.8454 72.7973 42.9155C72.709 42.9856 72.5964 43.0178 72.4843 43.0049V42.9838Z" fill="#DFEAEF"/>
<path d="M39.9848 8.72661C39.8728 8.72661 39.7653 8.6821 39.6861 8.60286C39.6068 8.52363 39.5623 8.41616 39.5623 8.3041V2.58755C39.5623 2.47549 39.6068 2.36802 39.6861 2.28879C39.7653 2.20955 39.8728 2.16504 39.9848 2.16504C40.0969 2.16504 40.2044 2.20955 40.2836 2.28879C40.3628 2.36802 40.4073 2.47549 40.4073 2.58755V8.3041C40.4073 8.41616 40.3628 8.52363 40.2836 8.60286C40.2044 8.6821 40.0969 8.72661 39.9848 8.72661Z" fill="#DFEAEF"/>
<path d="M39.9848 69.8047C39.8728 69.8047 39.7653 69.7602 39.6861 69.681C39.6068 69.6017 39.5623 69.4943 39.5623 69.3822V63.653C39.5623 63.5409 39.6068 63.4335 39.6861 63.3542C39.7653 63.275 39.8728 63.2305 39.9848 63.2305C40.0969 63.2305 40.2044 63.275 40.2836 63.3542C40.3628 63.4335 40.4073 63.5409 40.4073 63.653V69.3653C40.4096 69.4222 40.4004 69.479 40.3802 69.5322C40.3599 69.5854 40.3292 69.634 40.2897 69.6751C40.2503 69.7161 40.2029 69.7487 40.1505 69.771C40.0981 69.7933 40.0418 69.8048 39.9848 69.8047Z" fill="#DFEAEF"/>
</svg>
