<svg width="79" height="72" viewBox="0 0 79 72" fill="none" xmlns="http://www.w3.org/2000/svg">
<path d="M25.9084 45.0277C24.5207 46.5148 23.2324 48.1013 21.9323 49.6838L16.0237 44.3359C14.5645 43.0119 11.6301 40.2683 13.5347 38.2485C13.8693 37.9536 14.2492 37.7146 14.6599 37.5407C15.5307 37.0755 16.4054 36.3757 17.3836 36.5348C17.9814 36.6873 18.5225 37.009 18.9422 37.4612C19.7097 38.0943 20.4324 38.7799 21.1052 39.5129C21.6579 40.1729 21.5267 40.5308 21.8726 41.2425C22.2185 41.9542 23.133 42.5188 23.7175 43.0476L25.9084 45.0277Z" fill="#CD8B4B"/>
<path d="M21.9402 50.0775C21.8422 50.0783 21.7473 50.0429 21.6738 49.9781L18.5486 47.1511L15.7653 44.6262C14.7355 43.6958 12.5844 41.7634 12.5208 39.8549C12.506 39.5094 12.563 39.1646 12.6883 38.8423C12.8135 38.5199 13.0042 38.2271 13.2484 37.9822C13.5384 37.7006 13.8764 37.473 14.2464 37.3102L14.485 37.179L15.0059 36.8808C15.7255 36.4593 16.5406 35.9822 17.4591 36.1293C18.1324 36.2932 18.744 36.648 19.2205 37.1511C19.3836 37.2983 19.5506 37.4494 19.7215 37.5965C20.329 38.1034 20.8979 38.655 21.4233 39.2466C21.711 39.583 21.9129 39.9841 22.0118 40.4155C22.0665 40.6363 22.1438 40.8508 22.2424 41.0557C22.5588 41.5358 22.9636 41.9514 23.4352 42.2803C23.6301 42.4394 23.8328 42.5945 23.9879 42.7416L26.1748 44.7296C26.214 44.765 26.2459 44.8078 26.2684 44.8556C26.2909 44.9034 26.3037 44.9552 26.306 45.008C26.3084 45.0611 26.3001 45.1141 26.2817 45.164C26.2633 45.2138 26.235 45.2595 26.1986 45.2982C24.8945 46.6978 23.6539 48.2127 22.4531 49.6719L22.2464 49.9264C22.2121 49.9679 22.1697 50.0019 22.1219 50.0265C22.074 50.0511 22.0217 50.0658 21.968 50.0696L21.9402 50.0775ZM16.2901 44.0378L19.0734 46.5626L21.8885 49.1073C22.9939 47.7555 24.135 46.3638 25.3358 45.0517L23.4432 43.338C23.2921 43.2028 23.1132 43.0557 22.9263 42.9086C22.3553 42.5116 21.8721 42.0013 21.5068 41.4096C21.3875 41.1628 21.2942 40.9043 21.2285 40.6382C21.1601 40.3159 21.011 40.0163 20.7951 39.7674C20.2966 39.2071 19.757 38.6848 19.1808 38.2048L18.6679 37.7515C18.302 37.3539 17.8324 37.0661 17.312 36.9205C16.6758 36.8172 16.0516 37.1869 15.3876 37.5766C15.2047 37.684 15.0218 37.7913 14.8389 37.8867L14.5963 38.014C14.3041 38.1352 14.0351 38.306 13.8011 38.5189C13.6309 38.688 13.4975 38.8904 13.4093 39.1135C13.321 39.3365 13.2798 39.5754 13.2882 39.8152C13.3518 41.4056 15.3995 43.2465 16.2703 44.0378H16.2901Z" fill="#093F68"/>
<path d="M23.5863 42.5587C23.5863 42.5587 29.6897 46.6581 30.8229 47.2266C30.8229 47.2266 37.3238 39.3022 44.1786 39.3022H51.6895C56.0354 39.3022 59.5543 43.1869 59.5543 47.9821V61.4572H37.3954V52.6859C34.3179 54.4353 32.5763 55.4691 31.1688 55.7832C29.1807 56.2405 26.8428 54.7017 20.3816 48.0537L23.5863 42.5587Z" fill="white"/>
<path d="M59.5543 61.8547H37.3954C37.2899 61.8547 37.1888 61.8128 37.1142 61.7382C37.0396 61.6636 36.9978 61.5625 36.9978 61.457V53.3617C34.2781 54.9084 32.624 55.8428 31.2602 56.1449C29.0137 56.6618 26.5088 54.9044 20.0953 48.304C20.0346 48.2419 19.9959 48.1617 19.9852 48.0755C19.9744 47.9894 19.9921 47.902 20.0357 47.8269L23.2324 42.3478C23.2597 42.3008 23.2963 42.2599 23.34 42.2277C23.3836 42.1954 23.4335 42.1724 23.4864 42.1601C23.5393 42.1478 23.5941 42.1464 23.6476 42.1562C23.701 42.1659 23.7519 42.1865 23.7971 42.2166C23.8567 42.2564 29.141 45.7951 30.7234 46.7136C31.9289 45.3448 33.2513 44.0836 34.6757 42.9442C36.9898 41.0953 40.5126 38.8926 44.1707 38.8926H51.6816C56.2382 38.8926 59.9439 42.9641 59.9439 47.9701V61.4451C59.9455 61.4977 59.9367 61.55 59.9179 61.5991C59.8991 61.6482 59.8708 61.6931 59.8346 61.7312C59.7983 61.7693 59.7549 61.7998 59.7068 61.821C59.6587 61.8422 59.6068 61.8536 59.5543 61.8547ZM37.793 61.0594H59.1567V47.982C59.1567 43.4134 55.8088 39.6997 51.6895 39.6997H44.1786C37.5942 39.6997 31.1966 47.4015 31.133 47.481C31.0756 47.5516 30.9957 47.6003 30.9067 47.6191C30.8177 47.638 30.725 47.6257 30.6439 47.5844C29.6499 47.0834 25.0456 44.0059 23.7136 43.1271L20.8746 47.982C26.7473 54.0098 29.2245 55.811 31.0813 55.3855C32.3457 55.0913 33.9719 54.1688 36.6479 52.638L37.1846 52.3319C37.2451 52.2979 37.3134 52.2803 37.3827 52.2809C37.4521 52.2814 37.5201 52.3001 37.58 52.3351C37.6398 52.3701 37.6895 52.4201 37.7241 52.4802C37.7587 52.5403 37.777 52.6084 37.7771 52.6778L37.793 61.0594Z" fill="#093F68"/>
<path d="M47.2015 42.2548L46.5871 42.1693C46.1265 42.1052 45.7102 41.8608 45.4298 41.4898C45.1494 41.1187 45.0279 40.6515 45.092 40.1909L45.4207 37.828L49.5204 38.3984L49.1916 40.7613C49.1598 40.9903 49.0829 41.2108 48.9655 41.4101C48.848 41.6093 48.6923 41.7834 48.5074 41.9222C48.3224 42.061 48.1118 42.1618 47.8876 42.2189C47.6635 42.276 47.4303 42.2882 47.2015 42.2548Z" fill="#CD8B4B"/>
<path d="M47.451 42.666C47.3499 42.6654 47.249 42.6588 47.1488 42.6461L46.5325 42.5586C45.9679 42.4797 45.4578 42.18 45.1141 41.7252C44.7704 41.2704 44.6213 40.6978 44.6995 40.1332L45.0255 37.7833C45.0328 37.7315 45.0503 37.6817 45.0769 37.6366C45.1035 37.5916 45.1388 37.5523 45.1806 37.5209C45.2648 37.4577 45.3706 37.4306 45.4748 37.4453L49.5623 38.0139C49.6659 38.0287 49.7595 38.0838 49.8227 38.1672C49.886 38.2505 49.9139 38.3555 49.9003 38.4592L49.5742 40.8131C49.5025 41.3257 49.2483 41.7953 48.8582 42.1356C48.4682 42.476 47.9686 42.6643 47.451 42.666ZM46.6557 41.7713L47.272 41.8588C47.4485 41.8835 47.6282 41.8731 47.8007 41.8283C47.9732 41.7835 48.1351 41.7051 48.2773 41.5977C48.4195 41.4902 48.5391 41.3558 48.6293 41.202C48.7194 41.0483 48.7784 40.8783 48.8028 40.7018L49.0732 38.7455L45.773 38.2843L45.5027 40.2445C45.478 40.4205 45.4882 40.5996 45.5328 40.7716C45.5775 40.9437 45.6556 41.1052 45.7626 41.247C45.8697 41.3888 46.0037 41.5081 46.157 41.5981C46.3102 41.6881 46.4797 41.7469 46.6557 41.7713Z" fill="#093F68"/>
<path d="M41.4704 26.1001C41.7333 24.21 40.5747 22.487 38.8826 22.2516C37.1904 22.0162 35.6055 23.3576 35.3426 25.2476C35.0796 27.1377 36.2382 28.8608 37.9304 29.0962C39.6225 29.3316 41.2074 27.9902 41.4704 26.1001Z" fill="#CD8B4B"/>
<path d="M38.3417 29.5208C38.1926 29.5221 38.0437 29.5115 37.8964 29.489C37.4249 29.4288 36.972 29.2677 36.5686 29.0166C36.1651 28.7654 35.8205 28.4302 35.5584 28.0337C35.0187 27.1988 34.7972 26.1975 34.9345 25.2128C35.0717 24.2281 35.5585 23.3256 36.3059 22.67C36.66 22.3584 37.0767 22.1262 37.5279 21.989C37.9792 21.8518 38.4546 21.8129 38.9222 21.8747C40.8268 22.1411 42.1389 24.0696 41.8486 26.1729C41.7193 27.1597 41.2309 28.0642 40.4769 28.7137C39.8824 29.2257 39.1263 29.5115 38.3417 29.5208ZM38.5166 22.6222C37.9046 22.6298 37.3153 22.8554 36.8546 23.2584C36.2507 23.7821 35.8601 24.5094 35.7572 25.3021C35.6395 26.0943 35.8163 26.902 36.2542 27.5725C36.4467 27.8767 36.7032 28.1352 37.0057 28.3302C37.3083 28.5251 37.6497 28.6518 38.0062 28.7014C38.3627 28.7509 38.7257 28.7222 39.07 28.6172C39.4143 28.5122 39.7316 28.3335 39.9997 28.0934C40.604 27.5682 40.9945 26.8396 41.0971 26.0457C41.3278 24.3757 40.3218 22.8648 38.8506 22.6461C38.7334 22.6293 38.6152 22.6213 38.4968 22.6222H38.5166Z" fill="#093F68"/>
<path d="M63.2401 17.8113C62.9658 21.2546 62.3654 27.3103 60.8545 30.2884C58.2581 35.4176 52.7233 39.8311 47.4549 39.1034C45.3686 38.8502 43.4006 37.9972 41.7894 36.6478C40.1781 35.2984 38.993 33.5106 38.3775 31.5011C37.7725 29.5836 37.6107 27.5538 37.9043 25.5647C37.9043 25.5647 37.7413 24.1095 38.787 18.6741C39.8327 13.2388 40.4371 10.4078 51.1726 10.1812C59.4549 10.0102 63.5185 14.364 63.2401 17.8113Z" fill="#CD8B4B"/>
<path d="M48.5285 39.5648C48.1508 39.5663 47.7734 39.5411 47.3993 39.4892C45.2403 39.2213 43.2046 38.3354 41.5371 36.9381C39.8696 35.5407 38.6412 33.6914 37.9997 31.6126C37.3842 29.6523 37.2158 27.579 37.5067 25.545C37.4828 25.2229 37.4471 23.5172 38.3974 18.5908C39.4272 13.2389 40.0474 10.0103 51.1647 9.77573C57.3952 9.65247 60.5284 11.9666 61.8405 13.3542C63.1527 14.7419 63.761 16.3005 63.6377 17.8274C63.1328 24.0937 62.3415 28.2209 61.2083 30.4515C58.099 36.6145 52.7074 39.5648 48.5285 39.5648ZM51.6338 10.567H51.1806C40.7075 10.7896 40.1985 13.4457 39.1767 18.7379C38.1548 24.0301 38.2979 25.4973 38.3019 25.4973C38.304 25.5291 38.304 25.5609 38.3019 25.5927C38.009 27.5294 38.1585 29.5073 38.7393 31.378C39.3369 33.3124 40.4802 35.0333 42.0318 36.3339C43.5835 37.6344 45.4776 38.4595 47.4868 38.7099C52.7313 39.4376 58.095 34.8213 60.4807 30.1096C62.0711 26.9287 62.6437 20.0421 62.8266 17.7836C62.93 16.4834 62.3694 15.1117 61.2362 13.9188C59.2521 11.7837 55.7611 10.5749 51.6338 10.5749V10.567Z" fill="#093F68"/>
<path d="M43.2363 29.4136C44.6637 29.1313 48.5404 29.2148 50.3694 30.4594C52.7869 32.1055 51.2641 34.0379 53.3992 33.6045C54.8823 33.3102 55.3157 33.2387 56.3098 32.0896C57.6179 30.5826 57.5861 28.3242 57.9002 26.4355C57.9769 25.7571 58.1763 25.0983 58.4887 24.4912C58.78 24.0251 59.2003 23.6535 59.6985 23.4213C60.1967 23.1892 60.7515 23.1064 61.2958 23.1831C65.1049 23.7874 62.9618 28.7496 62.3813 30.9961L60.7272 30.7655L60.5881 32.1174C59.4118 34.5178 57.5077 36.4855 55.1473 37.74C52.7869 38.9944 50.0906 39.4716 47.443 39.1034C45.3567 38.8502 43.3886 37.9972 41.7774 36.6478C40.1662 35.2984 38.981 33.5106 38.3655 31.5011C38.8592 31.6647 39.3624 31.7974 39.8725 31.8987C41.3278 32.1532 40.7472 30.7894 42.0673 29.8788C42.421 29.6454 42.8189 29.4871 43.2363 29.4136Z" fill="#725858"/>
<path d="M49.2522 39.6239C48.6323 39.6248 48.0132 39.5823 47.3993 39.4967C45.2393 39.2281 43.2029 38.341 41.5353 36.9422C39.8677 35.5434 38.6399 33.6924 37.9997 31.612C37.9781 31.5433 37.9756 31.47 37.9924 31.4C38.0092 31.33 38.0447 31.2658 38.0952 31.2144C38.1462 31.1633 38.2101 31.127 38.2802 31.1095C38.3502 31.092 38.4237 31.0939 38.4928 31.115C38.9695 31.2766 39.4554 31.4093 39.948 31.5126C40.4729 31.6041 40.5206 31.5126 40.7433 30.9878C40.9619 30.4129 41.345 29.915 41.8446 29.5564C42.2401 29.2936 42.6854 29.1149 43.1528 29.0315C44.7234 28.7214 48.6557 28.8287 50.5881 30.1409C51.472 30.7113 52.1004 31.602 52.3416 32.6259C52.5364 33.286 52.5603 33.3695 53.3157 33.2223H53.3754C54.779 32.944 55.109 32.8804 56.0036 31.8506C56.8982 30.8208 57.1368 29.2065 57.3276 27.6955C57.3833 27.2621 57.439 26.8128 57.5145 26.3834C57.5978 25.658 57.8149 24.9542 58.1547 24.3079C58.486 23.7733 58.966 23.3468 59.5358 23.0806C60.1057 22.8144 60.7407 22.7199 61.3634 22.8089C61.7795 22.8511 62.181 22.9849 62.5392 23.2008C62.8974 23.4167 63.2033 23.7092 63.435 24.0574C64.425 25.6478 63.6417 28.2124 63.0692 30.0892C62.9538 30.4868 62.8465 30.8168 62.7709 31.115C62.7465 31.2098 62.6879 31.2922 62.6065 31.3465C62.5251 31.4008 62.4265 31.4231 62.3296 31.4092L61.0851 31.2343L60.9897 32.1766C60.983 32.2251 60.9682 32.2722 60.9459 32.3158C59.8729 34.5038 58.209 36.3479 56.1424 37.6394C54.0758 38.9309 51.6891 39.6183 49.2522 39.6239ZM39.0176 32.1051C39.705 33.8694 40.8571 35.4149 42.3516 36.5776C43.8461 37.7403 45.6274 38.4769 47.5066 38.7094C50.0598 39.0713 52.662 38.6185 54.9428 37.4156C57.2237 36.2127 59.067 34.3209 60.2103 32.0096L60.3415 30.7333C60.3469 30.6802 60.3629 30.6287 60.3886 30.5819C60.4143 30.5352 60.4492 30.494 60.4911 30.461C60.533 30.428 60.5812 30.4038 60.6327 30.3897C60.6842 30.3757 60.738 30.3722 60.7908 30.3794L62.099 30.5623C62.1626 30.3397 62.2342 30.1011 62.3137 29.8466C62.8385 28.113 63.5622 25.7393 62.767 24.4669C62.5941 24.2155 62.3674 24.0059 62.1032 23.8532C61.8391 23.7005 61.5443 23.6086 61.2401 23.5842C60.777 23.5247 60.3065 23.5986 59.8839 23.7972C59.4613 23.9958 59.1042 24.3109 58.8545 24.7055C58.5684 25.27 58.3866 25.8815 58.3177 26.5107C58.2461 26.9083 58.1944 27.3377 58.1388 27.783C57.932 29.4092 57.7412 31.0911 56.6239 32.3595C55.5066 33.6279 55.0056 33.7035 53.5503 33.9897H53.4867C52.0235 34.28 51.7969 33.5126 51.5981 32.8406C51.505 32.4202 51.33 32.0223 51.083 31.6695C50.836 31.3168 50.5219 31.0162 50.1587 30.785C48.5086 29.6597 44.7949 29.5087 43.3238 29.7989C42.9637 29.8618 42.6201 29.9971 42.3138 30.1965C41.9346 30.4721 41.6476 30.8561 41.4908 31.2979C41.2522 31.8228 40.954 32.4907 39.8288 32.28C39.5862 32.2442 39.3158 32.1846 39.0176 32.1051Z" fill="#093F68"/>
<path d="M53.3455 25.9162C53.4305 25.3051 53.0023 24.7404 52.3889 24.6551C51.7756 24.5698 51.2094 24.9961 51.1244 25.6072C51.0394 26.2184 51.4676 26.783 52.081 26.8684C52.6943 26.9537 53.2605 26.5274 53.3455 25.9162Z" fill="#093F68"/>
<path d="M42.8108 25.7162C43.4301 25.7162 43.9321 25.2142 43.9321 24.5949C43.9321 23.9756 43.4301 23.4736 42.8108 23.4736C42.1916 23.4736 41.6896 23.9756 41.6896 24.5949C41.6896 25.2142 42.1916 25.7162 42.8108 25.7162Z" fill="#093F68"/>
<path d="M49.1209 28.5152C48.1909 28.4967 47.2667 28.3631 46.3695 28.1175C46.2457 28.0831 46.1333 28.0163 46.0438 27.9241C45.9544 27.8319 45.8911 27.7175 45.8605 27.5927C45.6498 26.7259 47.0971 25.1474 47.7333 24.5072C47.8078 24.4332 47.9086 24.3916 48.0136 24.3916C48.1186 24.3916 48.2194 24.4332 48.2939 24.5072C48.3312 24.5442 48.3608 24.5882 48.3809 24.6366C48.4011 24.6851 48.4115 24.737 48.4115 24.7895C48.4115 24.842 48.4011 24.894 48.3809 24.9424C48.3608 24.9909 48.3312 25.0349 48.2939 25.0718C47.4033 25.9704 46.6359 27.0321 46.6279 27.37C47.4456 27.5803 48.2848 27.695 49.1289 27.712C49.2344 27.712 49.3355 27.7539 49.4101 27.8284C49.4846 27.903 49.5265 28.0041 49.5265 28.1096C49.5276 28.1631 49.5178 28.2164 49.4978 28.2661C49.4778 28.3158 49.448 28.3609 49.4101 28.3988C49.3723 28.4367 49.3271 28.4665 49.2774 28.4865C49.2277 28.5065 49.1745 28.5162 49.1209 28.5152Z" fill="#093F68"/>
<path d="M56.0235 24.7415C55.8447 24.742 55.6709 24.6823 55.5302 24.5719C55.3895 24.4615 55.2902 24.3069 55.2481 24.1331C55.2203 24.0178 54.93 23.0993 53.5662 22.9403C52.0156 22.7415 51.4152 23.3021 51.3913 23.3379C51.249 23.4902 51.0526 23.5805 50.8444 23.5894C50.6362 23.5983 50.4328 23.5251 50.278 23.3856C50.1994 23.3151 50.1356 23.2297 50.0904 23.1342C50.0451 23.0388 50.0194 22.9353 50.0146 22.8299C50.0097 22.7244 50.026 22.619 50.0623 22.5198C50.0987 22.4207 50.1544 22.3298 50.2263 22.2524C50.3376 22.1292 51.3754 21.0596 53.773 21.3777C56.2899 21.7037 56.7789 23.7156 56.7988 23.7991C56.8223 23.9012 56.8254 24.007 56.808 24.1103C56.7905 24.2136 56.7528 24.3124 56.697 24.4011C56.6412 24.4897 56.5684 24.5665 56.4829 24.627C56.3973 24.6874 56.3006 24.7304 56.1984 24.7534C56.1399 24.7551 56.0813 24.7511 56.0235 24.7415Z" fill="#093F68"/>
<path d="M45.1409 22.5945C45.0247 22.5941 44.91 22.5683 44.8049 22.5188C44.6998 22.4693 44.6069 22.3975 44.5325 22.3082C44.0043 21.7575 43.302 21.4063 42.5445 21.3142C41.614 21.2267 41.3993 21.6124 41.3914 21.6283C41.3926 21.6151 41.3926 21.6018 41.3914 21.5885L39.9321 21.008C40.1469 20.4593 40.9739 19.5726 42.6955 19.7317C43.8732 19.8613 44.9638 20.4137 45.7651 21.2864C45.8629 21.4022 45.9255 21.5436 45.9456 21.6939C45.9657 21.8442 45.9424 21.9971 45.8785 22.1346C45.8145 22.2721 45.7126 22.3884 45.5848 22.4699C45.4569 22.5514 45.3084 22.5946 45.1568 22.5945H45.1409Z" fill="#093F68"/>
<path d="M59.7412 26.4752C59.7412 26.4752 62.9499 24.8569 64.1626 27.668C65.3753 30.4792 63.2362 34.7257 58.5762 32.7575L59.7412 26.4752Z" fill="#CD8B4B"/>
<path d="M60.8266 33.6837C60.0033 33.6641 59.1922 33.4803 58.441 33.143C58.3565 33.108 58.2867 33.045 58.2433 32.9647C58.1998 32.8843 58.1854 32.7914 58.2024 32.7016L59.3674 26.4034C59.3785 26.3434 59.4032 26.2866 59.4398 26.2377C59.4763 26.1887 59.5237 26.1488 59.5781 26.1211C59.6497 26.0854 61.3236 25.2543 62.8266 25.8031C63.2178 25.9524 63.5729 26.1831 63.8683 26.4799C64.1638 26.7767 64.3928 27.1328 64.5403 27.5247C64.896 28.3578 65.0012 29.2764 64.843 30.1683C64.6848 31.0602 64.2701 31.8866 63.6497 32.5465C63.281 32.9179 62.8405 33.2102 62.3552 33.4057C61.8698 33.6012 61.3497 33.6958 60.8266 33.6837ZM59.0175 32.5267C60.6716 33.139 62.099 32.9521 63.0612 31.9859C63.5661 31.4365 63.9029 30.7538 64.0319 30.0188C64.1609 29.2839 64.0765 28.5273 63.7888 27.8388C63.681 27.5476 63.513 27.2824 63.2959 27.0604C63.0787 26.8384 62.8172 26.6647 62.5284 26.5506C61.59 26.2086 60.5006 26.5824 60.0871 26.7533L59.0175 32.5267Z" fill="#093F68"/>
<path d="M49.6895 32.8054L45.5663 32.1812C45.5663 32.1812 45.4709 35.6046 47.1567 36.0579C48.8426 36.5111 49.6895 32.8054 49.6895 32.8054Z" fill="white"/>
<path d="M47.4271 36.4754C47.2927 36.4753 47.1588 36.4565 47.0295 36.4198C45.1051 35.9029 45.1488 32.5311 45.1568 32.1494C45.1584 32.093 45.172 32.0376 45.1967 31.9869C45.2213 31.9362 45.2565 31.8913 45.2999 31.8552C45.3431 31.8192 45.3934 31.7928 45.4476 31.7778C45.5017 31.7627 45.5584 31.7593 45.614 31.7677L49.7492 32.4079C49.8029 32.4166 49.8543 32.4363 49.9001 32.4657C49.9459 32.4951 49.9852 32.5336 50.0156 32.5788C50.0467 32.6242 50.0681 32.6756 50.0784 32.7296C50.0886 32.7837 50.0875 32.8393 50.0752 32.8929C50.0116 33.1633 49.4271 35.5331 48.1985 36.2647C47.966 36.4054 47.6988 36.4784 47.4271 36.4754ZM45.9679 32.6226C46.0116 33.6603 46.286 35.4058 47.2482 35.6524C47.3391 35.6779 47.4343 35.6837 47.5276 35.6693C47.6209 35.6549 47.71 35.6206 47.7889 35.5689C48.449 35.1713 48.95 33.9029 49.1885 33.1116L45.9679 32.6226Z" fill="#093F68"/>
<path d="M37.3954 53.0832C37.2899 53.0832 37.1888 53.0414 37.1142 52.9668C37.0397 52.8922 36.9978 52.7911 36.9978 52.6856V45.131C36.9978 45.0256 37.0397 44.9244 37.1142 44.8499C37.1888 44.7753 37.2899 44.7334 37.3954 44.7334C37.5008 44.7334 37.602 44.7753 37.6765 44.8499C37.7511 44.9244 37.793 45.0256 37.793 45.131V52.6856C37.793 52.7911 37.7511 52.8922 37.6765 52.9668C37.602 53.0414 37.5008 53.0832 37.3954 53.0832Z" fill="#093F68"/>
<path d="M50.9245 1.81998L55.1519 2.36453C57.9863 2.72963 60.5595 4.20573 62.3056 6.46809C64.0516 8.73045 64.8274 11.5938 64.4623 14.4281L64.064 17.5199L38.4626 14.2221L38.8609 11.1303C39.226 8.29597 40.7021 5.72274 42.9644 3.97671C45.2268 2.23067 48.0901 1.45488 50.9245 1.81998Z" fill="#A2B13A"/>
<path d="M64.0711 17.9107H64.0194L38.4172 14.6145C38.3654 14.6072 38.3156 14.5897 38.2706 14.5631C38.2255 14.5365 38.1862 14.5012 38.1548 14.4594C38.1219 14.4193 38.0979 14.3727 38.0842 14.3227C38.0705 14.2727 38.0675 14.2204 38.0753 14.1691L38.4729 11.0757C38.8515 8.13646 40.3819 5.46788 42.7276 3.65676C45.0734 1.84565 48.0424 1.04027 50.9818 1.41773L55.2084 1.96246C58.1455 2.34502 60.8112 3.87662 62.6209 6.22147C64.4306 8.56633 65.2367 11.5331 64.8624 14.4713L64.4648 17.5647C64.4522 17.6603 64.4054 17.7481 64.333 17.8117C64.2606 17.8754 64.1675 17.9105 64.0711 17.9107ZM38.9143 13.8749L63.7252 17.0558L64.0711 14.36C64.4205 11.6307 63.6726 8.87435 61.9915 6.69605C60.3105 4.51775 57.8337 3.09558 55.105 2.74178L50.8784 2.19705C49.5258 2.02252 48.1522 2.11639 46.8359 2.47329C45.5197 2.8302 44.2868 3.44313 43.2077 4.27702C42.1285 5.11091 41.2245 6.14939 40.5471 7.33304C39.8698 8.51669 39.4324 9.82229 39.2602 11.1751L38.9143 13.8749Z" fill="#093F68"/>
<path d="M64.7025 17.6012L37.8312 14.1399C36.5114 13.9699 35.3036 14.902 35.1336 16.2218L35.1331 16.2258C34.9631 17.5456 35.8952 18.7534 37.215 18.9234L64.0863 22.3847C65.4061 22.5547 66.6139 21.6226 66.7839 20.3028L66.7844 20.2988C66.9544 18.979 66.0223 17.7712 64.7025 17.6012Z" fill="#A2B13A"/>
<path d="M64.3972 22.7976C64.2762 22.7976 64.1553 22.7896 64.0354 22.7738L37.1687 19.3146C36.7959 19.2764 36.4345 19.164 36.1058 18.984C35.7771 18.804 35.4878 18.5599 35.2549 18.2663C35.022 17.9727 34.8503 17.6354 34.7499 17.2743C34.6494 16.9132 34.6223 16.5357 34.6701 16.164C34.7179 15.7923 34.8396 15.4339 35.0281 15.11C35.2166 14.7861 35.4681 14.5032 35.7677 14.278C36.0673 14.0529 36.4089 13.8899 36.7724 13.7989C37.136 13.7079 37.5141 13.6906 37.8844 13.748L64.7511 17.2072C65.4902 17.3024 66.1613 17.6871 66.6168 18.2769C67.0724 18.8666 67.2751 19.6131 67.1805 20.3523C67.0902 21.0274 66.7586 21.6469 66.2469 22.0964C65.7353 22.5459 65.0782 22.795 64.3972 22.7976ZM64.1387 22.0024C64.6679 22.0689 65.2019 21.9229 65.6237 21.5965C66.0455 21.2701 66.3208 20.7898 66.3892 20.2609C66.4251 19.999 66.4084 19.7326 66.3402 19.4773C66.2719 19.222 66.1534 18.9828 65.9916 18.7738C65.8312 18.5634 65.6304 18.3872 65.401 18.2554C65.1716 18.1237 64.9182 18.039 64.6556 18.0064L37.785 14.5154C37.2871 14.5033 36.8024 14.676 36.4242 15.0001C36.046 15.3242 35.8013 15.7769 35.737 16.2708C35.6728 16.7647 35.7938 17.2649 36.0765 17.675C36.3592 18.085 36.7837 18.3759 37.2681 18.4915L64.1387 22.0024Z" fill="#093F68"/>
<path d="M53.2455 0.500358C54.2757 0.633061 55.211 1.16957 55.8456 1.99187C56.4803 2.81417 56.7623 3.85489 56.6296 4.8851L55.1503 16.3687L47.3816 15.368L48.8608 3.88438C48.9265 3.37428 49.092 2.88211 49.3479 2.43598C49.6039 1.98985 49.9451 1.59849 50.3523 1.28426C50.7595 0.970024 51.2245 0.739063 51.721 0.60456C52.2174 0.470058 52.7354 0.43465 53.2455 0.500358Z" fill="#A2B13A"/>
<path d="M55.1527 16.7657H55.101L47.3317 15.7638C47.2274 15.7499 47.1328 15.6952 47.0687 15.6118C47.0046 15.5283 46.9762 15.4228 46.9897 15.3184L48.4689 3.83542C48.6165 2.70095 49.208 1.67132 50.1136 0.972204C51.0191 0.273089 52.1649 -0.0384703 53.2998 0.105818C54.4335 0.253533 55.4625 0.84441 56.1615 1.74909C56.8605 2.65377 57.1726 3.79856 57.0294 4.93283L55.5503 16.4158C55.5386 16.5128 55.4916 16.6021 55.4183 16.6666C55.3449 16.7312 55.2504 16.7665 55.1527 16.7657ZM47.8287 15.0242L54.8108 15.9228L56.2342 4.82944C56.3534 3.90357 56.0999 2.96827 55.5294 2.22932C54.959 1.49036 54.1184 1.00828 53.1925 0.889114C52.2666 0.769952 51.3313 1.02347 50.5924 1.59391C49.8534 2.16434 49.3713 3.00496 49.2522 3.93084L47.8287 15.0242Z" fill="#093F68"/>
<path d="M42.8427 39.1826H39.4908V48.9002H42.8427V39.1826Z" fill="#F56132"/>
<path d="M42.8427 49.2983H39.4908C39.3853 49.2983 39.2842 49.2564 39.2096 49.1818C39.1351 49.1073 39.0932 49.0061 39.0932 48.9007V39.1671C39.0932 39.0617 39.1351 38.9606 39.2096 38.886C39.2842 38.8114 39.3853 38.7695 39.4908 38.7695H42.8427C42.9481 38.7695 43.0492 38.8114 43.1238 38.886C43.1984 38.9606 43.2403 39.0617 43.2403 39.1671V48.8848C43.2424 48.9383 43.2337 48.9917 43.2147 49.0418C43.1957 49.0919 43.1667 49.1376 43.1296 49.1763C43.0925 49.2149 43.0479 49.2456 42.9986 49.2666C42.9493 49.2875 42.8962 49.2983 42.8427 49.2983ZM39.8884 48.5031H42.4451V39.5648H39.8884V48.5031Z" fill="#093F68"/>
<path d="M54.9499 39.3022H51.5981V48.8966H54.9499V39.3022Z" fill="#F56132"/>
<path d="M54.9499 49.2979H51.5981C51.4926 49.2979 51.3915 49.256 51.3169 49.1814C51.2423 49.1068 51.2005 49.0057 51.2005 48.9003V39.3019C51.2005 39.1965 51.2423 39.0953 51.3169 39.0208C51.3915 38.9462 51.4926 38.9043 51.5981 38.9043H54.9499C55.0554 38.9043 55.1565 38.9462 55.2311 39.0208C55.3057 39.0953 55.3475 39.1965 55.3475 39.3019V48.9003C55.3475 49.0057 55.3057 49.1068 55.2311 49.1814C55.1565 49.256 55.0554 49.2979 54.9499 49.2979ZM51.9957 48.5026H54.5523V39.6995H51.9957V48.5026Z" fill="#093F68"/>
<path d="M56.8147 48.8965H37.3954V61.6081H56.8147V48.8965Z" fill="#F56132"/>
<path d="M56.8147 62.0056H37.3954C37.2899 62.0056 37.1888 61.9637 37.1142 61.8892C37.0397 61.8146 36.9978 61.7135 36.9978 61.608V48.8844C36.9978 48.779 37.0397 48.6778 37.1142 48.6033C37.1888 48.5287 37.2899 48.4868 37.3954 48.4868H56.8147C56.9202 48.4868 57.0213 48.5287 57.0959 48.6033C57.1705 48.6778 57.2123 48.779 57.2123 48.8844V61.608C57.2123 61.7135 57.1705 61.8146 57.0959 61.8892C57.0213 61.9637 56.9202 62.0056 56.8147 62.0056ZM37.793 61.2104H56.4171V49.282H37.793V61.2104Z" fill="#093F68"/>
<path d="M60.2633 60.2622L63.5013 60.996C64.3344 61.1848 65.1628 60.6625 65.3516 59.8294L66.4897 54.8077C66.6786 53.9746 66.1563 53.1462 65.3232 52.9574L62.0852 52.2235C61.2521 52.0347 60.4237 52.557 60.2349 53.3901L59.0968 58.4118C58.9079 59.2449 59.4302 60.0733 60.2633 60.2622Z" fill="#CD8B4B"/>
<path d="M63.8405 61.4334C63.6958 61.4338 63.5516 61.4165 63.4111 61.3817L60.1666 60.6381C59.6643 60.5234 59.228 60.214 58.9537 59.7779C58.6793 59.3418 58.5893 58.8146 58.7034 58.3121L59.8406 53.2863C59.8969 53.0377 60.0017 52.8027 60.1489 52.5946C60.2961 52.3866 60.4828 52.2095 60.6985 52.0736C60.9141 51.9378 61.1544 51.8457 61.4056 51.8027C61.6568 51.7597 61.9141 51.7666 62.1626 51.8231L65.4071 52.5547C65.9096 52.6695 66.3462 52.9787 66.6212 53.4146C66.8962 53.8506 66.9872 54.3778 66.8743 54.8807L65.7332 59.9065C65.6376 60.3379 65.3982 60.724 65.0543 61.0015C64.7104 61.2789 64.2824 61.4312 63.8405 61.4334ZM61.7332 52.5785C61.5176 52.5795 61.3066 52.6416 61.1248 52.7575C60.9942 52.8368 60.881 52.9419 60.7922 53.0663C60.7033 53.1907 60.6406 53.3318 60.6079 53.4811L59.4708 58.5069C59.4372 58.6537 59.433 58.8056 59.4582 58.9539C59.4834 59.1023 59.5377 59.2443 59.6178 59.3717C59.6979 59.4991 59.8024 59.6094 59.9252 59.6964C60.048 59.7834 60.1868 59.8454 60.3336 59.8787L63.5781 60.6143C63.7249 60.6483 63.8769 60.653 64.0255 60.628C64.174 60.603 64.3162 60.5489 64.4437 60.4686C64.5713 60.3884 64.6816 60.2838 64.7685 60.1607C64.8554 60.0376 64.917 59.8985 64.9499 59.7515L66.091 54.7256C66.1565 54.4284 66.1023 54.1174 65.94 53.8598C65.7778 53.6023 65.5206 53.4191 65.2242 53.3499L61.9797 52.6183C61.8991 52.5972 61.8164 52.5852 61.7332 52.5825V52.5785Z" fill="#093F68"/>
<path d="M73.4508 48.841L61.2918 42.5508C61.1945 42.5011 61.1105 42.4289 61.0466 42.3402C60.9827 42.2516 60.9409 42.149 60.9246 42.0409C60.9083 41.9329 60.9179 41.8225 60.9527 41.719C60.9876 41.6154 61.0466 41.5216 61.1248 41.4454L68.1824 34.5508L76.7033 26.2248C76.8074 26.1211 76.9421 26.0535 77.0874 26.0319C77.2328 26.0103 77.3813 26.0358 77.5111 26.1047C77.6409 26.1736 77.7453 26.2823 77.8088 26.4148C77.8724 26.5474 77.8918 26.6967 77.8643 26.8411L76.3057 36.6343L74.4448 48.344C74.4268 48.4508 74.3839 48.5518 74.3195 48.6389C74.2551 48.726 74.171 48.7966 74.0741 48.8451C73.9772 48.8935 73.8703 48.9184 73.762 48.9177C73.6536 48.917 73.547 48.8907 73.4508 48.841Z" fill="white"/>
<path d="M73.7649 49.3142C73.5916 49.315 73.4208 49.2726 73.2679 49.191L61.1089 42.9047C60.9555 42.8259 60.8231 42.7116 60.7227 42.5713C60.6223 42.4311 60.5567 42.269 60.5315 42.0983C60.5062 41.9277 60.522 41.7535 60.5774 41.5902C60.6329 41.4269 60.7265 41.2791 60.8505 41.1592L76.4249 25.9426C76.588 25.7822 76.7975 25.6774 77.0236 25.6431C77.2498 25.6088 77.481 25.6469 77.6842 25.7518C77.8874 25.8567 78.0523 26.0232 78.1554 26.2274C78.2584 26.4316 78.2943 26.6631 78.2579 26.8889L74.8385 48.3957C74.8115 48.5648 74.7449 48.725 74.6439 48.8632C74.543 49.0015 74.4107 49.1138 74.258 49.191C74.1055 49.2701 73.9366 49.3123 73.7649 49.3142ZM73.6297 48.4872C73.6708 48.5086 73.7163 48.5199 73.7626 48.5202C73.8089 48.5204 73.8546 48.5095 73.8958 48.4885C73.9371 48.4675 73.9727 48.4369 73.9997 48.3994C74.0268 48.3618 74.0444 48.3183 74.0512 48.2725L77.4746 26.7657C77.485 26.7043 77.4751 26.6412 77.4464 26.5859C77.4177 26.5307 77.3718 26.4863 77.3156 26.4595C77.2621 26.4296 77.2002 26.4184 77.1397 26.4278C77.0792 26.4372 77.0235 26.4665 76.9816 26.5112L61.4032 41.7278C61.3696 41.7602 61.3444 41.8003 61.3298 41.8447C61.3153 41.889 61.3118 41.9363 61.3197 41.9823C61.3256 42.0276 61.3424 42.0709 61.3687 42.1083C61.3951 42.1457 61.4301 42.1761 61.4708 42.197L73.6297 48.4872Z" fill="#093F68"/>
<path d="M69.0587 42.4323C69.2132 42.5122 69.3297 42.6503 69.3825 42.8161C69.4352 42.9819 69.42 43.1619 69.34 43.3164L65.6866 50.3797L64.5211 49.7769L68.1746 42.7136C68.2545 42.559 68.3926 42.4426 68.5584 42.3898C68.7242 42.3371 68.9041 42.3523 69.0587 42.4323Z" fill="white"/>
<path d="M65.6854 50.7729C65.6219 50.7732 65.5591 50.7582 65.5026 50.7292L64.3376 50.1248C64.2909 50.1013 64.2493 50.0689 64.2152 50.0293C64.1811 49.9897 64.1551 49.9438 64.1387 49.8942C64.1077 49.7937 64.1177 49.6851 64.1666 49.592L67.8127 42.5384C67.942 42.2916 68.1635 42.1059 68.429 42.0215C68.6275 41.9582 68.8403 41.9552 69.0406 42.0128C69.2408 42.0704 69.4194 42.1862 69.5539 42.3453C69.6884 42.5045 69.7727 42.6999 69.7961 42.907C69.8195 43.114 69.781 43.3234 69.6854 43.5086L66.0393 50.5582C66.0057 50.623 65.955 50.6774 65.8925 50.7152C65.8301 50.7531 65.7585 50.7731 65.6854 50.7729ZM65.0532 49.6039L65.5145 49.8425L68.9777 43.1427C69.0098 43.0816 69.017 43.0103 68.9976 42.9439C68.9747 42.8799 68.9295 42.8262 68.8703 42.7928C68.8096 42.7621 68.7392 42.7566 68.6745 42.7775C68.6097 42.7983 68.5558 42.8438 68.5244 42.9042L65.0532 49.6039Z" fill="#093F68"/>
<path d="M63.757 55.9181C64.6199 54.2481 65.6934 52.8525 66.4012 51.6676C66.4691 51.5521 66.5127 51.4239 66.5294 51.2909C66.5461 51.1579 66.5355 51.023 66.4983 50.8942C66.4611 50.7655 66.398 50.6456 66.313 50.5421C66.2279 50.4385 66.1226 50.3534 66.0035 50.2919L64.4131 49.4688C64.2941 49.4071 64.1639 49.3701 64.0302 49.3601C63.8966 49.3502 63.7623 49.3675 63.6355 49.411C63.5087 49.4545 63.3921 49.5233 63.2927 49.6132C63.1933 49.7031 63.1132 49.8122 63.0572 49.934C62.5006 51.1984 61.9797 52.8803 61.1129 54.5503C59.0533 58.5264 54.1309 60.0771 58.7272 62.4469C63.3236 64.8166 61.6974 59.9022 63.757 55.9181Z" fill="#F56132"/>
<path d="M60.6437 63.4608C59.8941 63.4071 59.1672 63.1798 58.5205 62.7968C57.2282 62.1288 56.5642 61.4688 56.441 60.7173C56.266 59.6636 57.1408 58.7292 58.2501 57.5841C59.2343 56.6369 60.0778 55.5537 60.7551 54.3674C61.2496 53.3764 61.6877 52.3582 62.0672 51.3177C62.2819 50.7651 62.4847 50.2442 62.6914 49.775C62.7663 49.6043 62.8756 49.4509 63.0124 49.3244C63.1492 49.1978 63.3107 49.1008 63.4866 49.0394C63.6647 48.9765 63.8537 48.95 64.0422 48.9616C64.2308 48.9733 64.415 49.0227 64.5841 49.107L66.1745 49.9301C66.3435 50.0171 66.4928 50.1378 66.6131 50.2849C66.7335 50.4319 66.8224 50.6021 66.8743 50.7849C66.9271 50.9644 66.9421 51.1528 66.9181 51.3384C66.8941 51.5239 66.8318 51.7024 66.7351 51.8625C66.4727 52.3038 66.1626 52.769 65.8365 53.2621C65.2066 54.1721 64.6291 55.1173 64.1069 56.0931C63.5219 57.3298 63.12 58.6451 62.9141 59.9976C62.6079 61.5881 62.3614 62.8207 61.4032 63.2859C61.1662 63.4 60.9067 63.4598 60.6437 63.4608ZM63.9519 49.7551C63.8398 49.7559 63.7303 49.7884 63.6359 49.849C63.5416 49.9095 63.4664 49.9955 63.4191 50.0971C63.2203 50.5464 63.0215 51.0593 62.8107 51.604C62.42 52.6714 61.97 53.716 61.4628 54.7332C60.754 55.9885 59.8659 57.1338 58.8266 58.1328C57.9082 59.095 57.1129 59.926 57.2362 60.5861C57.3157 61.0553 57.8724 61.5642 58.8982 62.093C59.9241 62.6218 60.6596 62.7849 61.0891 62.5781C61.6894 62.2879 61.9121 61.1586 62.1666 59.8545C62.3726 58.4292 62.7852 57.0416 63.3912 55.7352C63.9285 54.7345 64.5205 53.7642 65.1646 52.8287C65.4866 52.3436 65.7928 51.8863 66.0473 51.4609C66.0866 51.3937 66.1118 51.3192 66.1214 51.242C66.131 51.1647 66.1247 51.0863 66.1029 51.0116C66.0801 50.9333 66.0415 50.8605 65.9895 50.7976C65.9376 50.7347 65.8733 50.683 65.8008 50.6458L64.2103 49.8227C64.1301 49.7817 64.0419 49.7586 63.9519 49.7551Z" fill="#093F68"/>
<path d="M76.3056 36.6224C75.6885 36.6016 75.0805 36.4668 74.5124 36.2248C72.7788 35.4295 74.5124 32.7297 72.1586 35.0081C69.8047 37.2864 68.1824 34.5548 68.1824 34.5548L76.7033 26.2288C76.8072 26.1257 76.9414 26.0584 77.0862 26.0368C77.2311 26.0152 77.379 26.0404 77.5086 26.1087C77.6381 26.177 77.7424 26.2849 77.8064 26.4166C77.8704 26.5484 77.8907 26.6971 77.8643 26.8411L76.3056 36.6224Z" fill="#FFBC0E"/>
<path d="M76.3096 37.0201H76.2858C75.6169 36.9972 74.9584 36.8474 74.3454 36.5787C73.3832 36.1294 73.2679 35.2308 73.2043 34.694V34.6185C72.9367 34.8256 72.683 35.0501 72.4448 35.2905C71.6496 36.0618 70.8226 36.3958 69.9995 36.2845C68.6675 36.1056 67.8842 34.8054 67.8524 34.7537C67.8064 34.6769 67.7877 34.5869 67.7993 34.4981C67.8108 34.4093 67.852 34.3271 67.9161 34.2646L76.4369 25.9426C76.5999 25.7822 76.8094 25.6774 77.0356 25.6431C77.2617 25.6088 77.4929 25.6469 77.6961 25.7518C77.8994 25.8567 78.0643 26.0232 78.1673 26.2274C78.2703 26.4316 78.3062 26.6631 78.2699 26.8889L76.7112 36.6861C76.6959 36.7808 76.6468 36.8669 76.573 36.9283C76.4991 36.9897 76.4056 37.0223 76.3096 37.0201ZM73.3514 33.708C73.4163 33.7088 73.4806 33.7196 73.5423 33.7398C73.9001 33.867 73.9399 34.2527 73.9916 34.5946C74.0631 35.1632 74.1586 35.6165 74.6794 35.859C75.0891 36.0408 75.5255 36.155 75.9717 36.197L77.4746 26.7657C77.485 26.7043 77.4751 26.6412 77.4464 26.5859C77.4177 26.5307 77.3718 26.4863 77.3156 26.4595C77.2621 26.4296 77.2002 26.4184 77.1397 26.4278C77.0792 26.4372 77.0235 26.4665 76.9816 26.5112L68.7033 34.5946C69.0397 35.0571 69.5355 35.3787 70.095 35.4972C70.6635 35.5728 71.2679 35.3103 71.8842 34.702C72.6436 33.9982 73.0333 33.708 73.3514 33.708Z" fill="#093F68"/>
<path d="M61.9932 55.5445L65.2798 56.5025C65.7183 56.6303 66.1774 56.3784 66.3052 55.9399L66.3442 55.8063C66.472 55.3678 66.2201 54.9087 65.7816 54.7809L62.495 53.8229C62.0565 53.6951 61.5973 53.947 61.4695 54.3855L61.4306 54.5191C61.3028 54.9576 61.5547 55.4167 61.9932 55.5445Z" fill="#CD8B4B"/>
<path d="M65.4986 56.9401C65.383 56.9396 65.2679 56.9235 65.1566 56.8923L61.8684 55.9341C61.5568 55.8428 61.2943 55.6315 61.1384 55.3467C60.9826 55.0619 60.9463 54.7268 61.0374 54.4152L61.0771 54.28C61.1685 53.9694 61.3791 53.7076 61.663 53.5518C61.9469 53.3961 62.2809 53.3591 62.592 53.449L65.8803 54.4073C66.192 54.4987 66.4548 54.7097 66.6112 54.9944C66.7677 55.279 66.8051 55.614 66.7153 55.9261L66.6755 56.0613C66.6007 56.3154 66.4456 56.5383 66.2334 56.6967C66.0212 56.8551 65.7634 56.9405 65.4986 56.9401ZM62.091 55.1707L65.3793 56.1289C65.4884 56.161 65.6058 56.1484 65.7057 56.094C65.8056 56.0396 65.8798 55.9478 65.9121 55.8387L65.9518 55.7035C65.9827 55.5938 65.969 55.4765 65.914 55.3767C65.8589 55.277 65.7668 55.203 65.6576 55.1707L62.3694 54.2124C62.3154 54.1963 62.2587 54.1912 62.2027 54.1973C62.1467 54.2035 62.0925 54.2208 62.0433 54.2482C61.945 54.3032 61.8721 54.3946 61.8405 54.5027L61.8008 54.6379C61.7846 54.6919 61.7795 54.7485 61.7856 54.8045C61.7918 54.8605 61.8091 54.9147 61.8366 54.9639C61.8914 55.0632 61.9826 55.1374 62.091 55.1707Z" fill="#093F68"/>
<path d="M61.4916 57.2686L64.7783 58.2266C65.2168 58.3544 65.6759 58.1025 65.8037 57.664L65.8426 57.5304C65.9704 57.0919 65.7186 56.6328 65.2801 56.505L61.9934 55.547C61.5549 55.4192 61.0958 55.6711 60.968 56.1096L60.929 56.2432C60.8012 56.6817 61.0531 57.1408 61.4916 57.2686Z" fill="#CD8B4B"/>
<path d="M64.9817 58.65C64.8661 58.6495 64.751 58.6335 64.6397 58.6023L61.3515 57.6441C61.1969 57.5993 61.0527 57.5244 60.9272 57.4238C60.8017 57.3231 60.6973 57.1986 60.6201 57.0574C60.5429 56.9163 60.4943 56.7612 60.4772 56.6013C60.4601 56.4413 60.4748 56.2795 60.5205 56.1252L60.5602 55.99C60.6516 55.6793 60.8622 55.4175 61.1461 55.2618C61.43 55.106 61.764 55.0691 62.0751 55.159L65.3634 56.1172C65.6748 56.2077 65.9375 56.4181 66.0941 56.702C66.2506 56.986 66.2881 57.3205 66.1984 57.6321L66.1586 57.7673C66.0839 58.0217 65.929 58.2452 65.7168 58.4043C65.5047 58.5634 65.2468 58.6496 64.9817 58.65ZM61.7332 55.9065C61.6428 55.9082 61.5554 55.9388 61.4838 55.9939C61.4122 56.0491 61.3603 56.1257 61.3356 56.2127L61.2958 56.3478C61.2648 56.457 61.2779 56.5739 61.3322 56.6735C61.3864 56.7731 61.4776 56.8475 61.5861 56.8806L64.8743 57.8389C64.984 57.8697 65.1013 57.8561 65.2011 57.801C65.3008 57.746 65.3748 57.6539 65.4071 57.5447L65.4469 57.4095C65.4776 57.3003 65.4639 57.1835 65.4087 57.0844C65.3536 56.9854 65.2616 56.9121 65.1526 56.8806L61.8644 55.9224C61.8264 55.9155 61.7875 55.9141 61.7491 55.9184L61.7332 55.9065Z" fill="#093F68"/>
<path d="M60.9871 58.9883L64.2738 59.9463C64.7123 60.0741 65.1714 59.8223 65.2992 59.3837L65.3382 59.2501C65.466 58.8116 65.2141 58.3525 64.7756 58.2247L61.4889 57.2667C61.0504 57.1389 60.5913 57.3908 60.4635 57.8293L60.4246 57.9629C60.2968 58.4014 60.5486 58.8605 60.9871 58.9883Z" fill="#CD8B4B"/>
<path d="M64.4966 60.3834C64.3806 60.3834 64.2654 60.366 64.1546 60.3317L60.8664 59.3734C60.7123 59.3287 60.5685 59.2539 60.4433 59.1535C60.3181 59.0531 60.2139 58.929 60.1367 58.7883C60.0595 58.6476 60.0109 58.4931 59.9935 58.3335C59.9761 58.174 59.9903 58.0126 60.0354 57.8585L60.0751 57.7234C60.1195 57.569 60.1939 57.4249 60.2942 57.2994C60.3945 57.1739 60.5186 57.0695 60.6595 56.9922C60.8003 56.915 60.955 56.8664 61.1148 56.8492C61.2745 56.8321 61.436 56.8467 61.59 56.8923L64.8783 57.8506C65.0327 57.8951 65.1768 57.9696 65.3024 58.0699C65.4279 58.1702 65.5324 58.2943 65.6099 58.4351C65.6883 58.5755 65.7376 58.7302 65.7546 58.8901C65.7717 59.05 65.7563 59.2117 65.7093 59.3655L65.6735 59.5007C65.5983 59.7548 65.4432 59.9779 65.2312 60.1369C65.0192 60.2959 64.7616 60.3823 64.4966 60.3834ZM61.0891 58.61L64.3773 59.5683C64.4864 59.6003 64.6038 59.5878 64.7037 59.5334C64.8036 59.4789 64.8778 59.3871 64.9101 59.278L64.9459 59.1428C64.966 59.0892 64.9743 59.0318 64.9702 58.9747C64.9661 58.9176 64.9498 58.862 64.9222 58.8118C64.8946 58.7615 64.8565 58.7179 64.8105 58.6837C64.7645 58.6496 64.7117 58.6258 64.6556 58.614L61.3674 57.6558C61.3134 57.6396 61.2567 57.6345 61.2007 57.6406C61.1447 57.6468 61.0905 57.6641 61.0413 57.6915C60.9915 57.7173 60.9477 57.7532 60.9127 57.7971C60.8778 57.8409 60.8525 57.8917 60.8386 57.946L60.7988 58.0812C60.7829 58.1352 60.7779 58.1918 60.784 58.2478C60.7901 58.3038 60.8073 58.358 60.8346 58.4072C60.8614 58.4562 60.8978 58.4994 60.9415 58.5342C60.9851 58.569 61.0353 58.5948 61.0891 58.61Z" fill="#093F68"/>
<path d="M60.4867 60.7042L63.7733 61.6621C64.2118 61.7899 64.6709 61.5381 64.7987 61.0996L64.8377 60.966C64.9655 60.5274 64.7136 60.0683 64.2751 59.9405L60.9885 58.9826C60.55 58.8547 60.0909 59.1066 59.963 59.5451L59.9241 59.6787C59.7963 60.1172 60.0482 60.5763 60.4867 60.7042Z" fill="#CD8B4B"/>
<path d="M63.9956 62.1008C63.88 62.1004 63.765 62.0843 63.6536 62.0531L60.3654 61.0949C60.211 61.0504 60.0669 60.9759 59.9413 60.8756C59.8158 60.7753 59.7113 60.6512 59.6338 60.5104C59.479 60.2242 59.4433 59.8884 59.5344 59.576L59.5741 59.4448C59.6185 59.2903 59.6929 59.1461 59.7932 59.0205C59.8934 58.8949 60.0174 58.7902 60.1582 58.7127C60.2989 58.6351 60.4536 58.5861 60.6134 58.5684C60.7731 58.5508 60.9348 58.5648 61.0891 58.6098L64.3773 59.5681C64.5319 59.6128 64.676 59.6877 64.8016 59.7884C64.9271 59.889 65.0314 60.0135 65.1087 60.1547C65.1859 60.2958 65.2345 60.4509 65.2516 60.6109C65.2687 60.7709 65.254 60.9327 65.2083 61.0869L65.1725 61.2182C65.0979 61.4726 64.9429 61.696 64.7308 61.8551C64.5186 62.0142 64.2607 62.1004 63.9956 62.1008ZM60.7471 59.3573C60.6749 59.3566 60.6037 59.3744 60.5403 59.409C60.4911 59.4365 60.4478 59.4735 60.413 59.5179C60.3782 59.5623 60.3526 59.6131 60.3376 59.6675L60.2978 59.7987C60.2817 59.8527 60.2765 59.9093 60.2827 59.9653C60.2888 60.0213 60.3061 60.0755 60.3336 60.1247C60.3589 60.1753 60.3946 60.2199 60.4385 60.2556C60.4824 60.2912 60.5334 60.3171 60.5881 60.3315L63.8763 61.2897C63.9855 61.3218 64.1029 61.3092 64.2027 61.2548C64.3026 61.2004 64.3769 61.1086 64.4091 60.9995L64.4449 60.8643C64.461 60.8103 64.4662 60.7536 64.46 60.6976C64.4539 60.6416 64.4366 60.5874 64.4091 60.5382C64.3838 60.4877 64.3481 60.4431 64.3042 60.4074C64.2603 60.3718 64.2093 60.3459 64.1546 60.3315L60.8664 59.3732C60.8277 59.3619 60.7874 59.3566 60.7471 59.3573Z" fill="#093F68"/>
<path d="M47.2084 58.2286C45.7911 58.2275 44.4321 57.6643 43.4295 56.6624C42.4269 55.6606 41.8627 54.302 41.8606 52.8847V52.4552C41.8606 52.3498 41.9024 52.2486 41.977 52.1741C42.0516 52.0995 42.1527 52.0576 42.2582 52.0576H52.1547C52.2602 52.0576 52.3613 52.0995 52.4359 52.1741C52.5104 52.2486 52.5523 52.3498 52.5523 52.4552V52.8847C52.5502 54.3013 51.9865 55.6593 50.9848 56.661C49.9831 57.6628 48.6251 58.2264 47.2084 58.2286ZM42.6558 52.8528V52.8847C42.6908 54.0683 43.1856 55.1917 44.0352 56.0166C44.8848 56.8414 46.0223 57.3028 47.2064 57.3028C48.3906 57.3028 49.5281 56.8414 50.3777 56.0166C51.2273 55.1917 51.7221 54.0683 51.7571 52.8847V52.8528H42.6558Z" fill="#093F68"/>
<path d="M39.4351 52.0332H0.39761V70.713H39.4351V52.0332Z" fill="#A2B13A"/>
<path d="M39.4351 71.1109H0.397612C0.292159 71.1109 0.191024 71.069 0.116457 70.9944C0.0418908 70.9199 0 70.8187 0 70.7133V52.0255C0 51.9201 0.0418908 51.819 0.116457 51.7444C0.191024 51.6698 0.292159 51.6279 0.397612 51.6279H39.4351C39.5406 51.6279 39.6417 51.6698 39.7163 51.7444C39.7908 51.819 39.8327 51.9201 39.8327 52.0255V70.7133C39.8327 70.8187 39.7908 70.9199 39.7163 70.9944C39.6417 71.069 39.5406 71.1109 39.4351 71.1109ZM0.795223 70.3157H39.0375V52.4232H0.795223V70.3157Z" fill="#093F68"/>
<path d="M77.8762 60.9043H36.0514V70.7134H77.8762V60.9043Z" fill="#A2B13A"/>
<path d="M77.8762 71.1111H36.0514C35.946 71.1111 35.8449 71.0692 35.7703 70.9947C35.6957 70.9201 35.6538 70.819 35.6538 70.7135V60.9044C35.6538 60.799 35.6957 60.6979 35.7703 60.6233C35.8449 60.5487 35.946 60.5068 36.0514 60.5068H77.8762C77.9817 60.5068 78.0828 60.5487 78.1574 60.6233C78.2319 60.6979 78.2738 60.799 78.2738 60.9044V70.7135C78.2738 70.819 78.2319 70.9201 78.1574 70.9947C78.0828 71.0692 77.9817 71.1111 77.8762 71.1111ZM36.4491 70.3159H77.4786V61.3021H36.4491V70.3159Z" fill="#093F68"/>
<path d="M11.8488 43.1592H0.39761V52.0339H11.8488V43.1592Z" fill="#A2B13A"/>
<path d="M11.8528 52.4309H0.397612C0.292159 52.4309 0.191024 52.389 0.116457 52.3145C0.0418908 52.2399 0 52.1388 0 52.0333V43.1427C0 43.0373 0.0418908 42.9361 0.116457 42.8616C0.191024 42.787 0.292159 42.7451 0.397612 42.7451H11.8528C11.9583 42.7451 12.0594 42.787 12.134 42.8616C12.2085 42.9361 12.2504 43.0373 12.2504 43.1427V52.0174C12.2526 52.071 12.2439 52.1244 12.2248 52.1745C12.2058 52.2246 12.1769 52.2703 12.1397 52.3089C12.1026 52.3475 12.058 52.3783 12.0087 52.3992C11.9594 52.4202 11.9064 52.431 11.8528 52.4309ZM0.795223 51.6357H11.4552V43.5403H0.795223V51.6357Z" fill="#093F68"/>
<path d="M0.39761 60.9043C0.39761 61.1707 39.4351 60.9043 39.4351 60.9043H0.39761Z" fill="#A2B13A"/>
<path d="M10.1113 61.4334C0.361826 61.4334 0.266399 61.338 0.127235 61.1988C0.0896651 61.162 0.0597773 61.1181 0.0393016 61.0696C0.018826 61.0211 0.00816841 60.9691 0.00795002 60.9165C0.00774085 60.8522 0.0231391 60.7888 0.0528191 60.7317C0.082499 60.6746 0.125578 60.6256 0.178359 60.5889C0.23114 60.5521 0.292049 60.5287 0.35586 60.5207C0.419672 60.5127 0.48448 60.5202 0.544728 60.5427C2.02384 60.7336 29.0614 60.5904 39.4431 60.5189C39.5485 60.5189 39.6497 60.5608 39.7242 60.6353C39.7988 60.7099 39.8407 60.811 39.8407 60.9165C39.8407 61.0219 39.7988 61.1231 39.7242 61.1976C39.6497 61.2722 39.5485 61.3141 39.4431 61.3141C39.3477 61.3141 29.638 61.3777 20.0237 61.4135C15.9243 61.4334 12.6759 61.4334 10.1113 61.4334Z" fill="#093F68"/>
<path d="M20.3577 52.0332C20.2901 52.0332 20.3577 60.9039 20.3577 60.9039V52.0332Z" fill="#A2B13A"/>
<path d="M20.3577 61.302C20.2523 61.302 20.1511 61.2601 20.0766 61.1856C20.002 61.111 19.9601 61.0099 19.9601 60.9044C19.8925 51.9383 19.9164 51.9144 20.0754 51.7594C20.1126 51.7225 20.1566 51.6933 20.2051 51.6736C20.2535 51.6538 20.3054 51.6437 20.3577 51.644C20.4632 51.644 20.5643 51.6859 20.6389 51.7605C20.7134 51.8351 20.7553 51.9362 20.7553 52.0417C20.7595 52.0707 20.7595 52.1001 20.7553 52.1291C20.7195 52.6301 20.7553 57.6201 20.7553 60.9084C20.7553 61.0139 20.7134 61.115 20.6389 61.1896C20.5643 61.2641 20.4632 61.306 20.3577 61.306V61.302Z" fill="#093F68"/>
<path d="M11.8528 71.1113C11.7474 71.1113 11.6462 71.0694 11.5717 70.9948C11.4971 70.9202 11.4552 70.8191 11.4552 70.7137V61.0358C11.4552 60.9303 11.4971 60.8292 11.5717 60.7546C11.6462 60.6801 11.7474 60.6382 11.8528 60.6382C11.9583 60.6382 12.0594 60.6801 12.134 60.7546C12.2085 60.8292 12.2504 60.9303 12.2504 61.0358V70.7256C12.2473 70.829 12.2041 70.9271 12.1298 70.9991C12.0556 71.0711 11.9562 71.1113 11.8528 71.1113Z" fill="#093F68"/>
<path d="M11.8528 50.3638C13.9122 49.9686 16.028 49.9686 18.0874 50.3638C21.4233 51.0318 24.6917 51.2982 27.8288 50.833C30.966 50.3678 30.3656 50.4353 32.7672 50.5666C35.1688 50.6978 38.9699 51.0676 38.9699 51.0676V52.0337H11.8528V50.3638Z" fill="#FFBC0E"/>
<path d="M38.9699 52.4312H11.8528C11.7474 52.4312 11.6462 52.3893 11.5717 52.3147C11.4971 52.2402 11.4552 52.139 11.4552 52.0336V50.3636C11.4528 50.2722 11.4819 50.1828 11.5376 50.1104C11.5934 50.038 11.6724 49.987 11.7614 49.966C13.8766 49.5537 16.0516 49.5537 18.1669 49.966C21.8209 50.6976 24.9581 50.8487 27.7692 50.4312L28.0833 50.3835C30.469 50.0296 30.5008 50.0256 31.9322 50.1131L32.7871 50.1608C35.1727 50.292 38.9699 50.6578 39.0097 50.6618C39.1081 50.6717 39.1993 50.7179 39.2655 50.7914C39.3316 50.865 39.368 50.9605 39.3675 51.0594V52.0256C39.3686 52.0785 39.3591 52.1311 39.3396 52.1802C39.3201 52.2294 39.2909 52.2742 39.2539 52.3119C39.2169 52.3497 39.1727 52.3797 39.1239 52.4002C39.0752 52.4206 39.0228 52.4312 38.9699 52.4312ZM12.2504 51.636H38.5723V51.4292C37.5664 51.3338 34.6797 51.0713 32.7433 50.964L31.8805 50.9123C30.5326 50.8288 30.5326 50.8288 28.1986 51.1787L27.8885 51.2264C24.9859 51.6558 21.7533 51.5047 18.0118 50.7533C16.1098 50.3947 14.1594 50.3745 12.2504 50.6936V51.636Z" fill="#093F68"/>
<path d="M27.6897 32.9321H10.5049C10.0416 32.9321 9.66594 33.3077 9.66594 33.7711V40.3993C9.66594 40.8626 10.0416 41.2382 10.5049 41.2382H27.6897C28.153 41.2382 28.5286 40.8626 28.5286 40.3993V33.7711C28.5286 33.3077 28.153 32.9321 27.6897 32.9321Z" fill="#A2B13A"/>
<path d="M27.6897 41.6325H10.5089C10.182 41.6325 9.86845 41.5027 9.63729 41.2715C9.40614 41.0403 9.27628 40.7268 9.27628 40.3999V33.7678C9.27628 33.4409 9.40614 33.1273 9.63729 32.8962C9.86845 32.665 10.182 32.5352 10.5089 32.5352H27.6976C27.8598 32.5346 28.0205 32.5661 28.1705 32.6278C28.3205 32.6896 28.4569 32.7803 28.5718 32.8948C28.6867 33.0093 28.7778 33.1453 28.84 33.2951C28.9022 33.4449 28.9342 33.6056 28.9342 33.7678V40.3999C28.9342 40.5628 28.9019 40.7241 28.8392 40.8744C28.7766 41.0247 28.6847 41.1611 28.569 41.2757C28.4532 41.3904 28.316 41.4809 28.165 41.5421C28.0141 41.6034 27.8525 41.6341 27.6897 41.6325ZM10.5089 33.3304C10.3929 33.3304 10.2816 33.3765 10.1996 33.4585C10.1176 33.5405 10.0715 33.6518 10.0715 33.7678V40.3999C10.0715 40.5159 10.1176 40.6272 10.1996 40.7092C10.2816 40.7912 10.3929 40.8373 10.5089 40.8373H27.6976C27.814 40.8373 27.9256 40.7913 28.0083 40.7094C28.091 40.6275 28.1379 40.5163 28.139 40.3999V33.7678C28.1379 33.6514 28.091 33.5402 28.0083 33.4582C27.9256 33.3763 27.814 33.3304 27.6976 33.3304H10.5089Z" fill="#093F68"/>
<path d="M58.2461 71.1111C58.1407 71.1111 58.0395 71.0692 57.965 70.9947C57.8904 70.9201 57.8485 70.819 57.8485 70.7135V60.9044C57.8485 60.799 57.8904 60.6979 57.965 60.6233C58.0395 60.5487 58.1407 60.5068 58.2461 60.5068C58.3516 60.5068 58.4527 60.5487 58.5273 60.6233C58.6019 60.6979 58.6437 60.799 58.6437 60.9044V70.7135C58.6437 70.819 58.6019 70.9201 58.5273 70.9947C58.4527 71.0692 58.3516 71.1111 58.2461 71.1111Z" fill="#093F68"/>
<path d="M19.7573 43.1435C19.7573 43.1435 17.6062 39.386 18.4452 39.1673C19.2842 38.9486 22.0237 42.5311 22.0237 42.5311" fill="#CD8B4B"/>
<path d="M19.7573 43.5406C19.6873 43.5409 19.6184 43.5227 19.5576 43.4877C19.4969 43.4528 19.4464 43.4025 19.4114 43.3418C18.8468 42.3557 17.5744 39.974 17.9204 39.155C17.9567 39.0642 18.0137 38.9831 18.0869 38.9182C18.16 38.8533 18.2473 38.8064 18.3418 38.7812C18.8428 38.65 19.9323 39.155 22.3418 42.2881C22.3736 42.3297 22.397 42.377 22.4106 42.4276C22.4241 42.4781 22.4275 42.5308 22.4207 42.5827C22.4139 42.6346 22.3969 42.6846 22.3707 42.7299C22.3446 42.7752 22.3098 42.8149 22.2682 42.8468C22.2267 42.8786 22.1794 42.902 22.1288 42.9155C22.0783 42.9291 22.0256 42.9325 21.9737 42.9257C21.9218 42.9189 21.8718 42.9019 21.8265 42.8757C21.7812 42.8496 21.7414 42.8147 21.7096 42.7732C20.4929 41.1828 19.1689 39.819 18.644 39.5923C18.6838 40.1053 19.312 41.5804 20.1032 42.9522C20.1548 43.0439 20.1678 43.1524 20.1395 43.2538C20.1111 43.3551 20.0438 43.4411 19.9522 43.4929C19.8924 43.5252 19.8253 43.5416 19.7573 43.5406Z" fill="#093F68"/>
</svg>
