<svg width="48" height="48" viewBox="0 0 48 48" fill="none" xmlns="http://www.w3.org/2000/svg">
<circle cx="24" cy="24" r="24" fill="#A2B13A"/>
<mask id="mask0_88_196" style="mask-type:alpha" maskUnits="userSpaceOnUse" x="10" y="10" width="28" height="28">
<rect x="10" y="10" width="28" height="28" fill="#D9D9D9"/>
</mask>
<g mask="url(#mask0_88_196)">
<path d="M14.6666 33.3332C14.025 33.3332 13.4759 33.1049 13.0193 32.6483C12.562 32.191 12.3333 31.6415 12.3333 30.9998V16.9998C12.3333 16.3582 12.562 15.8091 13.0193 15.3525C13.4759 14.8952 14.025 14.6665 14.6666 14.6665H33.3333C33.975 14.6665 34.5245 14.8952 34.9818 15.3525C35.4384 15.8091 35.6666 16.3582 35.6666 16.9998V30.9998C35.6666 31.6415 35.4384 32.191 34.9818 32.6483C34.5245 33.1049 33.975 33.3332 33.3333 33.3332H14.6666ZM24 25.1665L14.6666 19.3332V30.9998H33.3333V19.3332L24 25.1665ZM24 22.8332L33.3333 16.9998H14.6666L24 22.8332ZM14.6666 19.3332V16.9998V30.9998V19.3332Z" fill="white"/>
</g>
</svg>
