<svg width="107" height="80" viewBox="0 0 107 80" fill="none" xmlns="http://www.w3.org/2000/svg">
<path opacity="0.45" d="M54.3748 74.1702C68.8309 74.1702 80.5499 72.9596 80.5499 71.4662C80.5499 69.9728 68.8309 68.7622 54.3748 68.7622C39.9187 68.7622 28.1998 69.9728 28.1998 71.4662C28.1998 72.9596 39.9187 74.1702 54.3748 74.1702Z" fill="#E6E6E6"/>
<path d="M45.6418 43.8291C45.6418 43.8291 37.49 47.6689 38.4904 50.9938C39.4908 54.3188 44.5804 53.4192 44.5804 53.4192" stroke="#24285B" stroke-width="4" stroke-linecap="round" stroke-linejoin="round"/>
<path d="M42.1099 31.19C42.1099 31.19 34.3375 24.4472 31.7874 14.751" stroke="#24285B" stroke-width="4" stroke-linecap="round" stroke-linejoin="round"/>
<path d="M64.3338 36.4522C64.3338 36.4522 72.4962 36.4363 77.4903 35.4386C82.4843 34.4408 81.3008 23.0569 81.3008 23.0569" stroke="#24285B" stroke-width="4" stroke-linecap="round" stroke-linejoin="round"/>
<path d="M33.7007 13.7718C33.7007 13.7718 36.7231 12.2645 35.7413 10.6777C34.7594 9.09082 33.4088 9.65603 33.4088 9.65603C33.4088 9.65603 33.2681 5.84813 30.251 7.01571C27.2338 8.18329 27.2259 12.6174 29.0542 14.5572C30.8825 16.497 33.7007 13.7718 33.7007 13.7718Z" fill="#FFD200"/>
<path d="M56.3119 48.688C56.3119 48.688 55.5769 57.0866 52.175 62.0064" stroke="#24285B" stroke-width="4" stroke-linecap="round" stroke-linejoin="round"/>
<path d="M57.1054 57.6012L51.7902 55.8074L48.3671 65.9468L55.0541 71.7104L54.2236 64.2405L57.1054 57.6012Z" fill="#FFD200"/>
<path d="M53.6053 49.1151C62.7224 49.1151 70.1133 41.7243 70.1133 32.6071C70.1133 23.49 62.7224 16.0991 53.6053 16.0991C44.4881 16.0991 37.0973 23.49 37.0973 32.6071C37.0973 41.7243 44.4881 49.1151 53.6053 49.1151Z" fill="#A2B13A"/>
<path opacity="0.09" d="M67.4013 23.6008C68.7384 27.41 68.633 31.5771 67.1053 35.3138C65.5775 39.0506 62.7332 42.0978 59.1104 43.8791C55.4877 45.6604 51.3377 46.0523 47.4456 44.9805C43.5534 43.9087 40.189 41.4477 37.9889 38.0629C38.7595 40.2678 39.9893 42.2841 41.5969 43.9785C43.2046 45.6729 45.1535 47.0068 47.3149 47.8922C49.4762 48.7776 51.8009 49.1942 54.1353 49.1146C56.4696 49.035 58.7605 48.4609 60.8565 47.4303C62.9525 46.3996 64.806 44.936 66.2944 43.1359C67.7829 41.3359 68.8724 39.2405 69.491 36.9882C70.1096 34.7359 70.2432 32.378 69.8829 30.0703C69.5227 27.7625 68.6769 25.5575 67.4013 23.6008Z" fill="black"/>
<path d="M61.5342 37.4765C61.5342 37.4765 60.0668 44.397 51.6894 43.1844C43.312 41.9717 44.0497 34.4275 44.0497 34.4275L61.5342 37.4765Z" fill="#24285B"/>
<path opacity="0.36" d="M47.3576 32.5558C47.458 31.8655 46.4814 31.1519 45.1761 30.962C43.8709 30.772 42.7313 31.1776 42.6309 31.868C42.5304 32.5583 43.5071 33.2719 44.8123 33.4619C46.1176 33.6518 47.2571 33.2462 47.3576 32.5558Z" fill="white"/>
<path opacity="0.36" d="M64.5481 35.0534C64.6486 34.3631 63.6719 33.6495 62.3667 33.4595C61.0615 33.2696 59.9219 33.6752 59.8215 34.3655C59.721 35.0559 60.6977 35.7695 62.0029 35.9594C63.3081 36.1494 64.4477 35.7437 64.5481 35.0534Z" fill="white"/>
<path d="M30.0122 18.0548C30.0122 18.0548 37.681 17.5453 36.2959 14.8387C34.9107 12.132 31.4637 14.0638 29.2957 14.491C27.1277 14.9183 27.0852 17.9301 30.0122 18.0548Z" fill="#FFD200"/>
<path opacity="0.44" d="M30.0122 18.0548C30.0122 18.0548 37.681 17.5453 36.2959 14.8387C34.9107 12.132 31.4637 14.0638 29.2957 14.491C27.1277 14.9183 27.0852 17.9301 30.0122 18.0548Z" fill="white"/>
<path d="M79.2018 23.017C79.2018 23.017 75.9512 22.1042 76.6199 20.3635C77.2886 18.6227 78.7215 18.9252 78.7215 18.9252C78.7215 18.9252 78.1484 15.1571 81.3406 15.7409C84.5329 16.3247 85.3582 20.6792 83.9226 22.9268C82.487 25.1744 79.2018 23.017 79.2018 23.017Z" fill="#FFD200"/>
<path d="M83.628 26.5302C83.628 26.5302 75.9989 27.4617 76.8534 24.5427C77.7079 21.6238 81.4574 22.8789 83.6652 22.8948C85.873 22.9107 86.4806 25.8589 83.628 26.5302Z" fill="#FFD200"/>
<path opacity="0.44" d="M83.628 26.5302C83.628 26.5302 75.9989 27.4617 76.8534 24.5427C77.7079 21.6238 81.4574 22.8789 83.6652 22.8948C85.873 22.9107 86.4806 25.8589 83.628 26.5302Z" fill="white"/>
<path opacity="0.58" d="M69.5056 68.0831C69.5056 68.0831 66.9475 67.3826 66.3903 65.0023C66.3903 65.0023 70.3548 64.2062 70.4689 68.2927L69.5056 68.0831Z" fill="#A2B13A"/>
<path opacity="0.73" d="M69.8187 67.8282C69.8187 67.8282 68.0329 65.0021 69.6064 62.3591C69.6064 62.3591 72.6209 64.2724 71.2809 67.8335L69.8187 67.8282Z" fill="#A2B13A"/>
<path d="M70.2805 67.8308C70.2805 67.8308 71.2251 64.8455 74.0804 64.2803C74.0804 64.2803 74.6111 66.2174 72.2229 67.8387L70.2805 67.8308Z" fill="#A2B13A"/>
<path d="M68.4256 67.762L68.943 71.3125L72.2096 71.3257L72.6926 67.7805L68.4256 67.762Z" fill="#24285B"/>
<path d="M47.0854 29.4547C47.0854 29.4547 47.8815 23.9565 50.1078 24.2112C52.3342 24.466 51.4346 30.0889 51.4346 30.0889" stroke="#24285B" stroke-width="2" stroke-linecap="round" stroke-linejoin="round"/>
<path d="M56.1846 30.7787C56.1846 30.7787 56.9806 25.2805 59.207 25.5352C61.4334 25.7899 60.5338 31.4129 60.5338 31.4129" stroke="#24285B" stroke-width="2" stroke-linecap="round" stroke-linejoin="round"/>
<path d="M40.1091 48.9585L36.8054 53.6527C36.8054 53.6527 41.4332 55.4359 44.2699 56.4363L45.7612 61.855L48.5979 52.7027C48.5979 52.7027 43.8453 51.9411 40.1091 48.9585Z" fill="#FFD200"/>
</svg>
