<svg width="140" height="140" viewBox="0 0 140 140" fill="none" xmlns="http://www.w3.org/2000/svg">
<g clip-path="url(#clip0_39_888)">
<rect width="140" height="140" rx="70" fill="#ECC5A2"/>
<path d="M111.268 66.1443C112.8 63.9786 114.173 61.705 115.378 59.3412C116.434 56.9862 117.11 54.4782 117.379 51.9111C117.403 51.3656 117.549 50.8325 117.806 50.3508C118.438 49.422 119.664 49.7239 120.003 50.7269C120.123 51.2034 120.177 51.6939 120.165 52.1851C120.213 53.4308 120.58 54.6432 121.233 55.7051C121.935 56.815 123.058 57.4744 123.969 58.3938C124.854 59.2759 125.659 60.2348 126.374 61.2591C126.727 61.7792 127.456 62.7079 127.303 63.3952C126.908 64.9648 120.045 70.9785 113.771 72.9428" fill="white"/>
<path d="M113.775 73.1425C113.73 73.1434 113.685 73.1294 113.648 73.1026C113.611 73.0757 113.584 73.0376 113.571 72.9939C113.555 72.9403 113.561 72.8826 113.587 72.8331C113.613 72.7836 113.657 72.7463 113.71 72.7292C120.165 70.7138 126.764 64.6815 127.099 63.3348C127.233 62.8147 126.699 62.0578 126.351 61.5562L126.221 61.3705C125.514 60.3547 124.717 59.405 123.839 58.5331C123.523 58.2127 123.17 57.9202 122.831 57.6322C122.154 57.1213 121.562 56.507 121.076 55.8119C120.406 54.7167 120.028 53.4679 119.98 52.1851V51.9064C119.987 51.5271 119.94 51.1487 119.84 50.7826C119.779 50.5815 119.663 50.4013 119.506 50.2619C119.349 50.1226 119.156 50.0296 118.949 49.9932C118.765 49.9693 118.579 50.0007 118.413 50.0835C118.248 50.1662 118.111 50.2965 118.02 50.4576C117.789 50.8871 117.657 51.3633 117.634 51.8507V51.9157C117.367 54.5056 116.687 57.036 115.619 59.4108C114.411 61.7838 113.031 64.0653 111.491 66.2372C111.475 66.2604 111.455 66.2802 111.431 66.2956C111.408 66.3109 111.381 66.3215 111.354 66.3267C111.326 66.3319 111.298 66.3315 111.27 66.3257C111.243 66.3199 111.217 66.3088 111.194 66.2929C111.171 66.2775 111.151 66.2577 111.135 66.2346C111.12 66.2114 111.11 66.1855 111.104 66.1583C111.099 66.1311 111.1 66.1031 111.105 66.076C111.111 66.0488 111.122 66.0231 111.138 66.0003C112.644 63.8527 113.992 61.5975 115.169 59.2529C116.215 56.9182 116.884 54.4323 117.152 51.8879V51.8229C117.181 51.2646 117.34 50.7209 117.616 50.2347C117.75 50.007 117.949 49.8239 118.187 49.7083C118.425 49.5927 118.691 49.5496 118.953 49.5845C119.239 49.631 119.505 49.7559 119.723 49.9454C119.942 50.1349 120.103 50.3814 120.189 50.6573C120.303 51.062 120.36 51.4811 120.356 51.9018V52.1758C120.4 53.3847 120.755 54.5619 121.387 55.5936C121.851 56.2515 122.415 56.8328 123.058 57.3165C123.407 57.609 123.764 57.9109 124.094 58.2452C124.99 59.135 125.803 60.105 126.523 61.1429L126.653 61.3194C127.047 61.8859 127.642 62.7404 127.465 63.4463C127.057 65.0948 120.193 71.141 113.789 73.1425C113.785 73.1427 113.78 73.1427 113.775 73.1425Z" fill="#231F20"/>
<path d="M49.8537 51.3678C49.8537 51.3678 72.3065 52.877 75.102 54.6185C77.8976 56.3599 87.6867 67.6443 94.5316 68.3687C97.5135 68.7087 100.533 68.443 103.41 67.5876C106.287 66.7321 108.961 65.3046 111.272 63.3906L116.237 73.528C116.237 73.528 103.559 85.5182 92.832 82.7459C84.6543 80.633 71.8096 74.0063 71.8096 74.0063L48.5581 80.4054L49.8537 51.3678Z" fill="#231F20"/>
<path d="M96.1709 83.3914C95.0247 83.3959 93.8826 83.2555 92.7717 82.9735C84.984 80.9627 72.9102 74.8236 71.7864 74.2571L48.6185 80.6284C48.5828 80.6379 48.5454 80.639 48.5091 80.6318C48.4729 80.6245 48.4388 80.6091 48.4095 80.5866C48.3814 80.5628 48.3592 80.5328 48.3446 80.4989C48.3301 80.4651 48.3237 80.4283 48.3259 80.3915L49.6215 51.3586C49.6263 51.2963 49.6545 51.2382 49.7005 51.196C49.7238 51.1755 49.7511 51.16 49.7806 51.1504C49.8102 51.1408 49.8414 51.1374 49.8723 51.1403C50.8011 51.2007 72.4133 52.6727 75.2274 54.391C76.5833 55.4034 77.8652 56.5115 79.0632 57.7066C83.3076 61.6446 89.716 67.5979 94.5549 68.1134C97.503 68.4406 100.487 68.175 103.331 67.332C106.175 66.4891 108.821 65.0858 111.115 63.2049C111.141 63.1796 111.172 63.161 111.207 63.1504C111.242 63.1399 111.279 63.1379 111.314 63.1445C111.35 63.1509 111.384 63.1655 111.413 63.1873C111.442 63.2091 111.465 63.2374 111.481 63.2699L116.446 73.4073C116.467 73.4526 116.473 73.5033 116.464 73.5524C116.455 73.6014 116.43 73.6465 116.395 73.6813C116.279 73.8113 106.016 83.3914 96.1709 83.3914ZM71.8096 73.7741C71.847 73.7739 71.8838 73.7835 71.9164 73.802C72.0464 73.867 84.8308 80.438 92.8877 82.523C102.807 85.0864 114.607 74.7029 115.949 73.4816L111.198 63.7668C106.486 67.5106 100.487 69.2458 94.5038 68.5963C89.5117 68.0669 83.0336 62.0486 78.7474 58.0688C77.071 56.5132 75.7522 55.2826 74.9813 54.8182C72.4179 53.23 52.4868 51.7951 50.0766 51.6279L48.8042 80.1083L71.7492 73.7974L71.8096 73.7741Z" fill="#231F20"/>
<path d="M78.6684 90.7239C79.0074 83.656 79.2628 75.3344 78.7706 72.2648C78.1623 71.5172 76.9642 70.2401 76.9642 70.2401C76.8227 64.4676 75.8017 58.7504 73.9364 53.2856L70.2214 52.8213C70.2214 52.8213 72.5061 59.4247 72.7894 70.0776L53.5409 68.9631C53.5409 68.9631 53.1044 57.7762 50.1416 50.8523H46.0876C46.0876 50.8523 45.7997 63.3534 45.5536 70.3562C45.5536 70.3562 40.8401 74.3452 39.5166 76.3281C38.8619 77.3126 38.8665 84.1251 39.0522 90.7239H78.6684Z" fill="#A2B13A"/>
<path d="M97.5222 81.6778C97.6522 81.6224 97.7602 81.5256 97.8294 81.4025C97.8987 81.2794 97.9253 81.1368 97.9052 80.997C97.8851 80.8572 97.8193 80.7279 97.7181 80.6293C97.617 80.5307 97.486 80.4683 97.3458 80.4518C92.7763 79.8481 82.4299 78.4922 76.9131 77.7956C76.4639 77.7379 76.0075 77.7825 75.578 77.9261C75.1484 78.0696 74.7569 78.3084 74.4327 78.6246C74.1085 78.9408 73.8599 79.3262 73.7056 79.752C73.5513 80.1777 73.4953 80.6329 73.5417 81.0834L74.2057 87.7101C74.2533 88.1841 74.4127 88.64 74.6708 89.0404C74.929 89.4407 75.2785 89.7741 75.6906 90.013C76.1027 90.252 76.5657 90.3896 77.0414 90.4147C77.5171 90.4398 77.992 90.3516 78.427 90.1574L97.5222 81.6778Z" fill="white"/>
<path d="M77.2056 90.6357C76.4079 90.6287 75.6405 90.3287 75.0497 89.7926C74.4588 89.2566 74.0857 88.522 74.0014 87.7287L73.3327 81.1066C73.2843 80.6241 73.3452 80.1368 73.511 79.6811C73.6768 79.2253 73.9431 78.8128 74.2903 78.4741C74.6374 78.1355 75.0564 77.8794 75.5161 77.725C75.9758 77.5705 76.4644 77.5216 76.9456 77.582C82.272 78.2553 92.0379 79.537 97.3783 80.2382C97.5631 80.2634 97.7348 80.348 97.8673 80.4794C97.9997 80.6107 98.0859 80.7816 98.1126 80.9663C98.1394 81.1509 98.1053 81.3392 98.0155 81.5028C97.9258 81.6663 97.7852 81.7962 97.6151 81.8728L78.5105 90.3524C78.1005 90.5379 77.6557 90.6345 77.2056 90.6357ZM76.5323 77.9813C76.1404 77.9792 75.7525 78.0597 75.3939 78.2176C75.0352 78.3756 74.7139 78.6074 74.451 78.898C74.188 79.1885 73.9893 79.5313 73.8679 79.9039C73.7464 80.2764 73.7049 80.6705 73.746 81.0602L74.4147 87.6869C74.4561 88.1284 74.6023 88.5537 74.8411 88.9274C75.0799 89.301 75.4044 89.6123 75.7878 89.8353C76.1711 90.0583 76.6021 90.1866 77.045 90.2095C77.4879 90.2324 77.9298 90.1492 78.3341 89.967L97.4433 81.5013C97.5289 81.4631 97.5997 81.398 97.645 81.316C97.6904 81.234 97.7078 81.1394 97.6947 81.0466C97.6816 80.9538 97.6386 80.8678 97.5723 80.8016C97.5061 80.7353 97.42 80.6924 97.3272 80.6794C91.9822 79.9782 82.2163 78.6965 76.8945 78.0231C76.7747 78.0021 76.6537 77.9881 76.5323 77.9813Z" fill="#231F20"/>
<path d="M80.1776 84.2877C80.1776 84.2877 73.4116 86.0198 72.4411 85.3836C71.4705 84.7474 70.1192 81.311 70.1192 81.311L65.48 82.9549L65.364 80.5076C65.364 80.5076 70.6207 77.9535 71.0851 78.7012C71.5495 79.4488 72.6129 83.9208 73.4627 83.8093C74.3125 83.6979 80.1126 82.8945 80.1126 82.8945" fill="white"/>
<path d="M73.2909 85.7273C72.9595 85.7545 72.6267 85.6953 72.325 85.5554C71.438 84.975 70.3003 82.3048 70.0031 81.5757L65.5776 83.1546C65.5462 83.1658 65.5127 83.1696 65.4796 83.1656C65.4465 83.1615 65.4149 83.1498 65.3872 83.1314C65.3595 83.1129 65.3366 83.0881 65.3205 83.059C65.3043 83.03 65.2953 82.9975 65.2943 82.9642L65.1782 80.5216C65.1755 80.4799 65.185 80.4383 65.2056 80.402C65.2263 80.3657 65.2571 80.3362 65.2943 80.3172C67.3236 79.3328 70.7972 77.7957 71.2848 78.5898C71.5457 79.1331 71.7615 79.6969 71.9303 80.2755C72.2368 81.2042 73.0355 83.6376 73.4534 83.5818C74.294 83.4565 80.0337 82.6902 80.0941 82.6856C80.1215 82.6817 80.1495 82.6833 80.1764 82.6903C80.2032 82.6973 80.2284 82.7096 80.2504 82.7265C80.2725 82.7433 80.291 82.7644 80.3048 82.7885C80.3186 82.8126 80.3275 82.8391 80.3309 82.8667C80.3348 82.8942 80.3332 82.9221 80.3262 82.949C80.3192 82.9759 80.3069 83.001 80.29 83.0231C80.2731 83.0451 80.2521 83.0636 80.228 83.0774C80.2039 83.0912 80.1773 83.1001 80.1498 83.1035C80.0894 83.1035 74.3497 83.879 73.5138 84.0044C72.8172 84.1112 72.2786 82.6484 71.5263 80.4101C71.3652 79.8639 71.165 79.3301 70.9272 78.8127C70.6625 78.534 68.2431 79.3699 65.6054 80.6377L65.7029 82.6577L70.0495 81.1067C70.1014 81.0894 70.1578 81.0923 70.2077 81.1146C70.2576 81.137 70.2972 81.1772 70.3189 81.2274C70.6904 82.1562 71.8188 84.7103 72.5665 85.2025C73.2166 85.6297 77.5539 84.7381 80.1358 84.0787C80.1627 84.0717 80.1906 84.0701 80.2181 84.0738C80.2456 84.0776 80.272 84.0868 80.296 84.1008C80.3199 84.1148 80.3408 84.1334 80.3576 84.1555C80.3743 84.1776 80.3866 84.2028 80.3936 84.2296C80.4006 84.2565 80.4022 84.2844 80.3985 84.3119C80.3947 84.3394 80.3855 84.3658 80.3715 84.3898C80.3575 84.4137 80.3389 84.4346 80.3168 84.4514C80.2947 84.4681 80.2695 84.4804 80.2426 84.4874C79.2953 84.7521 75.2784 85.7273 73.2909 85.7273Z" fill="#231F20"/>
<path d="M51.9434 73.5511C51.9434 73.5511 60.2605 73.4072 62.0762 73.9644C63.8919 74.5217 69.3809 80.0013 68.7957 82.2164C68.2106 84.4315 62.6938 87.1203 60.8038 86.3169C58.9138 85.5135 56.8658 82.7876 56.8658 82.7876C56.8658 82.7876 51.3815 80.554 48.5581 80.4054L51.9434 73.5511Z" fill="white"/>
<path d="M61.6582 86.6745C61.341 86.6809 61.0256 86.6257 60.7294 86.512C58.9277 85.7411 57.0144 83.3449 56.7404 82.9641C56.1692 82.7319 51.1679 80.7537 48.5534 80.6144C48.5187 80.6122 48.485 80.6019 48.4551 80.5841C48.4252 80.5663 48.4 80.5417 48.3816 80.5122C48.3645 80.4808 48.3556 80.4457 48.3556 80.41C48.3556 80.3743 48.3645 80.3392 48.3816 80.3079L51.7669 73.4583C51.7835 73.4228 51.8096 73.3926 51.8425 73.3713C51.8753 73.3499 51.9135 73.3382 51.9527 73.3375C52.2917 73.3375 60.3115 73.2029 62.169 73.7601C64.1333 74.3592 69.6502 79.9364 69.0279 82.2722C68.6843 83.5817 66.8593 84.882 65.2711 85.6575C64.1508 86.2446 62.9202 86.591 61.6582 86.6745ZM48.8878 80.215C51.7762 80.4983 56.7265 82.5044 56.9448 82.5926C56.9807 82.6062 57.0115 82.6305 57.033 82.6623C57.0562 82.6855 59.0763 85.3464 60.8873 86.1219C61.6768 86.4562 63.316 86.1219 65.0667 85.2767C66.9568 84.348 68.3453 83.1313 68.6007 82.1607C69.1533 80.085 63.7386 74.6842 62.0251 74.1641C60.3812 73.6626 53.1415 73.7462 52.0827 73.7601L48.8878 80.215Z" fill="#231F20"/>
<path d="M46.3476 51.3678C42.2841 52.4357 38.4102 54.1259 34.8635 56.3784C31.7058 58.4217 17.6815 66.9942 15.5129 69.5343C13.3442 72.0745 10.5069 80.0153 17.3146 83.1499C24.1224 86.2845 49.6633 82.1097 49.6633 82.1097L53.9263 72.1766L41.9175 72.7525L48.5581 69.6086C48.5581 69.6086 48.7903 66.0097 48.0937 59.6059C47.5179 53.9451 46.3476 51.3678 46.3476 51.3678Z" fill="#231F20"/>
<path d="M26.24 84.5523C22.4368 84.5523 19.1257 84.2365 17.2171 83.3589C14.8952 82.2908 13.4742 80.6051 12.982 78.3482C12.2344 74.9164 13.9108 71.0389 15.3364 69.381C17.1568 67.2588 26.9459 61.0965 32.2073 57.7716C33.3032 57.0843 34.1856 56.527 34.7382 56.1695C38.3101 53.9078 42.2084 52.2084 46.2966 51.1309C46.3489 51.1186 46.4039 51.1248 46.4522 51.1485C46.5005 51.1723 46.539 51.212 46.5613 51.261C46.6077 51.3678 47.7501 53.9358 48.3445 59.5687C48.7486 62.8991 48.9038 66.2551 48.8089 69.6086C48.8042 69.6497 48.7895 69.689 48.766 69.723C48.7425 69.7571 48.711 69.7847 48.6742 69.8036L43.1016 72.4506L53.9495 71.9305C53.989 71.9284 54.0284 71.9362 54.0641 71.9532C54.0998 71.9703 54.1306 71.996 54.1539 72.028C54.1748 72.0617 54.1878 72.0997 54.1918 72.1391C54.1958 72.1785 54.1908 72.2184 54.1771 72.2556L49.9141 82.1886C49.8985 82.2246 49.8742 82.2562 49.8434 82.2806C49.8126 82.3049 49.7763 82.3212 49.7376 82.3279C48.9482 82.4626 35.9827 84.5523 26.24 84.5523ZM46.2083 51.6418C42.2434 52.7166 38.4617 54.3789 34.9889 56.5735C34.4363 56.931 33.554 57.5022 32.4581 58.1802C27.2152 61.4773 17.4633 67.6164 15.6847 69.6829C14.3241 71.285 12.722 74.9722 13.4371 78.2507C13.9015 80.359 15.2342 81.9332 17.4122 82.9363C23.8345 85.8897 47.5504 82.2118 49.5008 81.9007L53.5641 72.4274L41.9268 72.9846C41.8729 72.9873 41.8199 72.9711 41.7767 72.9389C41.7335 72.9067 41.7028 72.8605 41.6899 72.8082C41.6778 72.7557 41.6836 72.7007 41.7063 72.6519C41.729 72.6031 41.7674 72.5633 41.8153 72.5388L48.3166 69.4553C48.3941 66.1731 48.2389 62.8894 47.8522 59.6291C47.3693 54.8971 46.473 52.3151 46.2083 51.6418Z" fill="#231F20"/>
<path d="M49.2268 30.4197C49.2855 30.0045 49.3979 29.5986 49.5611 29.2123C50.2252 27.7495 52.4078 27.0808 53.8706 26.9415C55.6073 26.779 57.1212 26.9647 58.6397 26.1335C60.1817 25.3179 61.9547 25.0494 63.669 25.3719C64.2363 25.4759 64.7854 25.662 65.2989 25.9245C66.0759 26.3471 66.7208 26.9764 67.1625 27.7426C67.6043 28.5089 67.8255 29.3823 67.8019 30.2664C67.7137 32.3562 66.4506 34.3901 65.0575 35.8761C64.1216 36.8149 63.1036 37.6682 62.0158 38.4256L59.7589 40.0974C57.437 41.8063 54.1863 43.4966 51.1865 42.6236C48.9064 41.9549 47.6943 39.4286 47.281 37.2739C46.8166 34.901 46.5194 32.11 49.1385 30.9259C49.171 30.7494 49.1943 30.5776 49.2268 30.4197Z" fill="white"/>
<path d="M52.8954 43.0926C52.2923 43.0956 51.6919 43.0127 51.1122 42.8464C48.1587 41.9781 47.2532 38.3977 47.0442 37.3203C46.7006 35.5093 46.0551 32.1611 48.9342 30.7679C48.9342 30.6333 48.9714 30.4986 48.9946 30.3639C49.0538 29.9307 49.1709 29.5075 49.3429 29.1055C50.0348 27.5777 52.2034 26.8532 53.8474 26.6953C54.3117 26.6535 54.7157 26.635 55.129 26.6164C56.3596 26.5607 57.4231 26.5142 58.5237 25.9152C60.1128 25.0753 61.9396 24.7986 63.7061 25.1304C64.296 25.2367 64.8672 25.4291 65.4011 25.7016C66.2213 26.1453 66.9016 26.8088 67.3659 27.6175C67.8301 28.4263 68.0599 29.3483 68.0295 30.2803C67.9227 32.7926 66.2231 34.9659 65.22 36.034C64.2783 36.9857 63.2508 37.8485 62.1505 38.6113L59.9075 40.2831C58.05 41.6437 55.482 43.0926 52.8954 43.0926ZM49.4497 30.4429C49.4218 30.6147 49.3986 30.7865 49.3754 30.9583C49.3703 30.997 49.3552 31.0336 49.3316 31.0645C49.3079 31.0955 49.2766 31.1197 49.2407 31.1348C46.7702 32.2493 47.0488 34.8498 47.5039 37.2321C47.9033 39.3172 49.0968 41.7691 51.2468 42.4006C54.2096 43.2644 57.4324 41.523 59.6057 39.9116L61.8625 38.2398C62.9399 37.4922 63.9471 36.6482 64.8717 35.7182C65.833 34.692 67.4583 32.6208 67.5605 30.2571C67.5859 29.4138 67.3767 28.58 66.956 27.8486C66.5354 27.1172 65.9199 26.517 65.1782 26.1149C64.6884 25.8641 64.1642 25.6873 63.6225 25.5901C61.9611 25.2725 60.241 25.5314 58.7466 26.3238C57.5531 26.974 56.3829 27.0251 55.1476 27.0808C54.7436 27.0808 54.321 27.1179 53.8891 27.1597C52.6632 27.2758 50.4202 27.8563 49.7655 29.2959C49.6121 29.6633 49.506 30.0487 49.4497 30.4429Z" fill="#231F20"/>
<path d="M64.6906 46.8541L65.5776 53.8197C65.5776 53.8197 64.8996 57.5348 60.5715 57.1958C59.2921 57.0862 58.0532 56.693 56.9447 56.0448C55.8362 55.3965 54.886 54.5096 54.1631 53.4482L52.3056 41.6902C52.3056 41.6902 55.129 39.5401 53.1275 32.9784C56.769 33.8947 60.5901 33.8129 64.1891 32.7416C64.1891 32.7416 67.2633 39.7073 67.2865 43.0183C67.3097 46.3293 64.6906 46.8541 64.6906 46.8541Z" fill="white"/>
<path d="M61.101 57.4651C60.9245 57.4651 60.7434 57.4651 60.553 57.4651C59.2352 57.3585 57.9584 56.9562 56.8176 56.2881C55.6767 55.62 54.7012 54.7033 53.9634 53.6061C53.9471 53.5808 53.936 53.5523 53.9309 53.5225L52.0734 41.7598C52.0663 41.7188 52.0708 41.6767 52.0864 41.6381C52.102 41.5995 52.128 41.5661 52.1617 41.5416C52.1849 41.5416 54.8225 39.3822 52.9 33.0852C52.8885 33.0447 52.888 33.0017 52.8986 32.9609C52.9092 32.9201 52.9305 32.8828 52.9604 32.853C52.9902 32.8232 53.0274 32.8019 53.0683 32.7913C53.1091 32.7806 53.152 32.7811 53.1926 32.7927C56.7957 33.6823 60.571 33.5942 64.1287 32.5373C64.183 32.5222 64.2409 32.5271 64.292 32.5509C64.3431 32.5747 64.384 32.616 64.4073 32.6673C64.5327 32.9506 67.5001 39.7166 67.5233 43.0322C67.5233 45.9299 65.6008 46.8216 64.9507 47.0398L65.8098 53.829C65.8144 53.852 65.8144 53.8757 65.8098 53.8987C65.5664 54.9503 64.9618 55.8832 64.1014 56.5348C63.2409 57.1865 62.1791 57.5157 61.101 57.4651ZM54.3814 53.3832C55.0914 54.3994 56.015 55.2481 57.0875 55.8698C58.16 56.4915 59.3555 56.8712 60.5901 56.9822C64.4909 57.2794 65.2618 54.1959 65.3407 53.829L64.4584 46.8634C64.4515 46.8052 64.4667 46.7466 64.5012 46.6992C64.5356 46.6518 64.5867 46.6192 64.6442 46.6079C64.7417 46.6079 67.0729 46.0693 67.0543 42.9997C67.0543 40.0741 64.542 34.1301 64.0544 33.0016C60.6015 33.9768 56.9608 34.0821 53.4573 33.3081C55.0687 38.9921 53.0579 41.3047 52.5285 41.7784L54.3814 53.3832Z" fill="#231F20"/>
<path d="M54.7065 41.1004C54.471 40.5511 54.0636 40.0932 53.5455 39.7955C53.0512 39.5415 52.5173 39.3735 51.9666 39.2986C51.6611 39.2278 51.3434 39.2278 51.0379 39.2986C50.8333 39.3642 50.6438 39.47 50.4806 39.6097C50.0848 39.9079 49.8056 40.335 49.6912 40.8171C49.6398 41.2219 49.6876 41.633 49.8305 42.0152C49.9512 42.4421 50.1276 42.8511 50.3552 43.2319C50.5925 43.6047 50.9012 43.9267 51.2637 44.1794C51.6262 44.4322 52.0351 44.6105 52.4669 44.7042C52.8988 44.7979 53.3449 44.8051 53.7795 44.7254C54.2141 44.6456 54.6286 44.4805 54.999 44.2396" fill="white"/>
<path d="M53.1554 45.0151C52.9026 45.0145 52.6505 44.988 52.4031 44.9362C51.4708 44.7283 50.6581 44.1609 50.1416 43.3573C49.9032 42.9588 49.7175 42.5311 49.589 42.0849C49.4352 41.6666 49.3858 41.2171 49.445 40.7754C49.5789 40.2253 49.9092 39.743 50.3738 39.4194C50.5609 39.2614 50.777 39.1416 51.01 39.0664C51.3428 38.9875 51.6895 38.9875 52.0223 39.0664C52.5995 39.1449 53.1588 39.3225 53.6755 39.5912C54.2333 39.909 54.6743 40.3973 54.934 40.9843C54.9461 41.0127 54.9526 41.0431 54.9528 41.0739C54.9531 41.1048 54.9472 41.1353 54.9355 41.1639C54.9239 41.1924 54.9066 41.2183 54.8848 41.2401C54.863 41.2619 54.8371 41.2791 54.8086 41.2908C54.7806 41.3029 54.7505 41.3092 54.72 41.3095C54.6895 41.3097 54.6593 41.3037 54.6311 41.2921C54.603 41.2804 54.5775 41.2631 54.5561 41.2414C54.5347 41.2196 54.5179 41.1938 54.5068 41.1654C54.2905 40.6632 53.9174 40.2445 53.4433 39.972C52.9714 39.7338 52.4628 39.5769 51.9387 39.5076C51.6759 39.4477 51.4029 39.4477 51.14 39.5076C50.9699 39.5679 50.8124 39.6592 50.6756 39.7769C50.3084 40.0379 50.044 40.419 49.928 40.8543C49.8828 41.2221 49.9291 41.5953 50.0627 41.941C50.1752 42.3493 50.344 42.74 50.5642 43.1019C50.7848 43.4493 51.0724 43.7494 51.4101 43.9846C51.7478 44.2198 52.1289 44.3854 52.5313 44.4719C52.9337 44.5583 53.3493 44.5638 53.7538 44.4881C54.1583 44.4123 54.5437 44.2568 54.8875 44.0307C54.9393 43.9975 55.0021 43.9862 55.0622 43.9993C55.1222 44.0123 55.1747 44.0487 55.208 44.1003C55.2252 44.1255 55.2372 44.1538 55.2433 44.1837C55.2494 44.2136 55.2494 44.2444 55.2433 44.2743C55.2373 44.3042 55.2253 44.3326 55.208 44.3577C55.1908 44.3829 55.1687 44.4043 55.143 44.4207C54.5529 44.8092 53.8618 45.0158 53.1554 45.0151Z" fill="#231F20"/>
<path d="M65.2757 50.8523C63.6778 50.78 62.1306 50.269 60.8037 49.3756C58.6815 47.9035 58.6722 46.854 58.6722 46.854C58.6722 46.854 61.895 47.9917 64.5374 47.0026L65.2757 50.8523Z" fill="#231F20"/>
<path d="M65.2757 51.0659C63.6306 50.9963 62.0372 50.4705 60.6737 49.5474C58.5144 48.0521 58.4447 46.9562 58.4447 46.8355C58.4452 46.7984 58.4543 46.7619 58.4712 46.7289C58.4881 46.6958 58.5124 46.6672 58.5422 46.6451C58.572 46.6235 58.6067 46.6097 58.6432 46.6049C58.6797 46.6 58.7168 46.6042 58.7512 46.6172C58.7837 46.6172 61.9322 47.7178 64.4584 46.7658C64.49 46.7536 64.5239 46.7486 64.5577 46.7509C64.5915 46.7532 64.6243 46.7629 64.654 46.7793C64.6836 46.7956 64.7093 46.8183 64.7293 46.8456C64.7493 46.873 64.763 46.9044 64.7695 46.9376L65.5033 50.792C65.5096 50.8252 65.5087 50.8593 65.5007 50.8922C65.4927 50.925 65.4777 50.9558 65.4568 50.9824C65.4341 51.0082 65.4063 51.0289 65.3751 51.0433C65.3439 51.0577 65.3101 51.0654 65.2757 51.0659ZM59.0112 47.1837C59.1924 47.5831 59.6753 48.2936 60.9338 49.1666C62.1513 49.9801 63.5563 50.4692 65.0157 50.5876L64.3841 47.2905C62.2712 47.9639 59.9493 47.4484 59.0112 47.1837Z" fill="#231F20"/>
<path d="M60.1025 37.6036C60.1025 37.6036 62.9167 40.3899 62.5173 41.0725C62.1179 41.7552 60.5948 41.653 60.5948 41.653" fill="white"/>
<path d="M60.7852 41.8898H60.5808C60.5192 41.8861 60.4617 41.8581 60.4207 41.812C60.3798 41.7658 60.3589 41.7053 60.3626 41.6437C60.3663 41.5821 60.3943 41.5245 60.4404 41.4836C60.4866 41.4427 60.5471 41.4218 60.6087 41.4255C60.9663 41.4255 62.0483 41.4255 62.3176 40.9611C62.4801 40.6964 61.3471 39.1779 59.94 37.7754C59.8963 37.7317 59.8717 37.6724 59.8717 37.6106C59.8717 37.5487 59.8963 37.4894 59.94 37.4457C59.9837 37.402 60.043 37.3774 60.1048 37.3774C60.1667 37.3774 60.226 37.402 60.2697 37.4457C61.152 38.3141 63.1581 40.4503 62.6938 41.1933C62.3362 41.8202 61.2542 41.8898 60.7852 41.8898Z" fill="#231F20"/>
<path d="M57.5313 38.6627C57.832 38.629 58.0374 38.2587 57.99 37.8356C57.9427 37.4125 57.6604 37.0969 57.3597 37.1305C57.0589 37.1642 56.8535 37.5345 56.9009 37.9576C56.9483 38.3807 57.2305 38.6964 57.5313 38.6627Z" fill="#231F20"/>
<path d="M62.8326 37.6124C63.1101 37.4916 63.1973 37.0772 63.0273 36.6868C62.8573 36.2965 62.4946 36.078 62.2171 36.1988C61.9397 36.3197 61.8525 36.734 62.0225 37.1244C62.1924 37.5147 62.5552 37.7332 62.8326 37.6124Z" fill="#231F20"/>
<path d="M62.3873 46.0739C62.2944 46.0739 62.1969 46.0739 62.0948 46.0739C61.119 46.0584 60.1618 45.8054 59.3058 45.337C58.4498 44.8685 57.7207 44.1986 57.1816 43.3852C57.1633 43.3501 57.1537 43.311 57.1537 43.2714C57.1537 43.2318 57.1633 43.1928 57.1816 43.1576C57.2007 43.1236 57.2283 43.095 57.2616 43.0747C57.295 43.0543 57.333 43.0429 57.372 43.0415L65.2665 42.6375C65.3273 42.635 65.3867 42.6564 65.4318 42.6973C65.477 42.7381 65.5043 42.795 65.5079 42.8558C65.5497 43.7378 65.2447 44.6012 64.6581 45.2613C64.355 45.5444 63.9972 45.7625 63.6067 45.9023C63.2162 46.0421 62.8012 46.1005 62.3873 46.0739ZM57.8178 43.4734C58.3407 44.1165 58.9956 44.6396 59.7384 45.0074C60.4811 45.3752 61.2942 45.5789 62.1226 45.6049C62.5171 45.6572 62.9181 45.6232 63.2982 45.5054C63.6782 45.3875 64.0281 45.1886 64.3238 44.9223C64.7711 44.4217 65.0247 43.7777 65.0389 43.1066L57.8178 43.4734Z" fill="#231F20"/>
<path d="M64.802 92.2936H35.1932V102.241H64.802V92.2936Z" fill="white"/>
<path d="M64.8021 102.473H35.1932C35.1317 102.473 35.0726 102.448 35.0291 102.405C34.9855 102.361 34.9611 102.302 34.9611 102.241V92.2936C34.9611 92.232 34.9855 92.1729 35.0291 92.1294C35.0726 92.0859 35.1317 92.0614 35.1932 92.0614H64.8021C64.8636 92.0614 64.9227 92.0859 64.9662 92.1294C65.0098 92.1729 65.0342 92.232 65.0342 92.2936V102.241C65.0342 102.302 65.0098 102.361 64.9662 102.405C64.9227 102.448 64.8636 102.473 64.8021 102.473ZM35.4254 102.008H64.5513V92.5258H35.4254V102.008Z" fill="#D1D3D4"/>
<path d="M33.8884 92.2936H13.7947V102.241H33.8884V92.2936Z" fill="white"/>
<path d="M33.9023 102.473H13.7947C13.7331 102.473 13.6741 102.448 13.6305 102.405C13.587 102.361 13.5625 102.302 13.5625 102.241V92.2936C13.5625 92.232 13.587 92.1729 13.6305 92.1294C13.6741 92.0859 13.7331 92.0614 13.7947 92.0614H33.9023C33.9639 92.0614 34.0229 92.0859 34.0665 92.1294C34.11 92.1729 34.1345 92.232 34.1345 92.2936V102.241C34.1345 102.302 34.11 102.361 34.0665 102.405C34.0229 102.448 33.9639 102.473 33.9023 102.473ZM14.0408 102.008H33.6701V92.5258H14.0269L14.0408 102.008Z" fill="#D1D3D4"/>
<path d="M96.1802 92.2936H66.5714V102.241H96.1802V92.2936Z" fill="white"/>
<path d="M96.1802 102.473H66.5714C66.5098 102.473 66.4507 102.448 66.4072 102.405C66.3636 102.361 66.3392 102.302 66.3392 102.241V92.2936C66.3392 92.232 66.3636 92.1729 66.4072 92.1294C66.4507 92.0859 66.5098 92.0614 66.5714 92.0614H96.1802C96.2417 92.0614 96.3008 92.0859 96.3443 92.1294C96.3879 92.1729 96.4124 92.232 96.4124 92.2936V102.241C96.4124 102.302 96.3879 102.361 96.3443 102.405C96.3008 102.448 96.2417 102.473 96.1802 102.473ZM66.8036 102.008H95.948V92.5258H66.8036V102.008Z" fill="#D1D3D4"/>
<path d="M146.723 92.2936H126.1V102.241H146.723V92.2936Z" fill="white"/>
<path d="M146.746 102.473H126.1C126.039 102.473 125.979 102.448 125.936 102.405C125.892 102.361 125.868 102.302 125.868 102.241V92.2936C125.868 92.232 125.892 92.1729 125.936 92.1294C125.979 92.0859 126.039 92.0614 126.1 92.0614H146.746C146.808 92.0614 146.867 92.0859 146.911 92.1294C146.954 92.1729 146.979 92.232 146.979 92.2936V102.241C146.979 102.302 146.954 102.361 146.911 102.405C146.867 102.448 146.808 102.473 146.746 102.473ZM126.356 102.008H146.514V92.5258H126.314L126.356 102.008Z" fill="#D1D3D4"/>
<path d="M56.7776 103.661H27.1688V113.608H56.7776V103.661Z" fill="white"/>
<path d="M56.7729 113.841H27.1688C27.1072 113.841 27.0481 113.816 27.0046 113.773C26.961 113.729 26.9366 113.67 26.9366 113.609V103.662C26.9366 103.6 26.961 103.541 27.0046 103.497C27.0481 103.454 27.1072 103.429 27.1688 103.429H56.7729C56.8345 103.429 56.8936 103.454 56.9371 103.497C56.9807 103.541 57.0051 103.6 57.0051 103.662V113.609C57.0051 113.67 56.9807 113.729 56.9371 113.773C56.8936 113.816 56.8345 113.841 56.7729 113.841ZM27.401 113.376H56.5408V103.894H27.401V113.376Z" fill="#D1D3D4"/>
<path d="M87.6867 103.661H58.0779V113.608H87.6867V103.661Z" fill="white"/>
<path d="M87.6866 113.841H58.0778C58.0163 113.841 57.9572 113.816 57.9137 113.773C57.8701 113.729 57.8456 113.67 57.8456 113.609V103.662C57.8456 103.6 57.8701 103.541 57.9137 103.497C57.9572 103.454 58.0163 103.429 58.0778 103.429H87.6866C87.7482 103.429 87.8073 103.454 87.8508 103.497C87.8944 103.541 87.9188 103.6 87.9188 103.662V113.609C87.9188 113.67 87.8944 113.729 87.8508 113.773C87.8073 113.816 87.7482 113.841 87.6866 113.841ZM58.31 113.376H87.4545V103.894H58.31V113.376Z" fill="#D1D3D4"/>
<path d="M118.596 103.661H88.9869V113.608H118.596V103.661Z" fill="white"/>
<path d="M118.596 113.841H88.9869C88.9253 113.841 88.8663 113.816 88.8227 113.773C88.7792 113.729 88.7547 113.67 88.7547 113.609V103.662C88.7559 103.6 88.7808 103.542 88.8241 103.499C88.8673 103.455 88.9257 103.431 88.9869 103.429H118.596C118.657 103.429 118.716 103.454 118.76 103.497C118.803 103.541 118.828 103.6 118.828 103.662V113.609C118.828 113.67 118.803 113.729 118.76 113.773C118.716 113.816 118.657 113.841 118.596 113.841ZM89.2191 113.376H118.364V103.894H89.2191V113.376Z" fill="#D1D3D4"/>
<path d="M140.905 103.661H119.901V113.608H140.905V103.661Z" fill="white"/>
<path d="M140.905 113.841H119.901C119.839 113.841 119.78 113.816 119.736 113.773C119.693 113.729 119.668 113.67 119.668 113.609V103.662C119.668 103.6 119.693 103.541 119.736 103.497C119.78 103.454 119.839 103.429 119.901 103.429H140.905C140.966 103.431 141.024 103.455 141.067 103.499C141.111 103.542 141.136 103.6 141.137 103.662V113.609C141.137 113.67 141.112 113.729 141.069 113.773C141.025 113.816 140.966 113.841 140.905 113.841ZM120.133 113.376H140.672V103.894H120.133V113.376Z" fill="#D1D3D4"/>
<path d="M134.405 67.8194L111.8 48.6963L105.376 56.2904L127.981 75.4135L134.405 67.8194Z" fill="white"/>
<path d="M127.99 75.6177C127.941 75.6175 127.893 75.5994 127.855 75.5666L105.249 56.4481C105.228 56.4302 105.21 56.4081 105.197 56.3832C105.183 56.3583 105.175 56.331 105.173 56.303C105.17 56.2749 105.173 56.2466 105.182 56.2197C105.19 56.1928 105.204 56.1679 105.222 56.1462L111.649 48.5537C111.666 48.5319 111.688 48.514 111.713 48.5012C111.738 48.4884 111.765 48.481 111.793 48.4793C111.82 48.4764 111.848 48.479 111.874 48.4869C111.9 48.4949 111.925 48.5081 111.946 48.5258L134.552 67.6489C134.594 67.685 134.621 67.7363 134.626 67.7918C134.631 67.8474 134.615 67.9028 134.58 67.9461L128.171 75.5434C128.135 75.5857 128.083 75.6123 128.027 75.6177H127.99ZM105.7 56.2577L127.99 75.1068L134.138 67.8347L111.834 48.9948L105.7 56.2577Z" fill="#231F20"/>
<path d="M63.251 115.034H33.6422V124.981H63.251V115.034Z" fill="white"/>
<path d="M63.251 125.213H33.6422C33.5806 125.213 33.5216 125.189 33.478 125.145C33.4345 125.102 33.41 125.043 33.41 124.981V115.034C33.41 114.973 33.4345 114.914 33.478 114.87C33.5216 114.826 33.5806 114.802 33.6422 114.802H63.251C63.3126 114.802 63.3717 114.826 63.4152 114.87C63.4588 114.914 63.4832 114.973 63.4832 115.034V124.981C63.482 125.042 63.4572 125.101 63.4139 125.144C63.3706 125.187 63.3122 125.212 63.251 125.213ZM33.8744 124.749H63.0188V115.266H33.8744V124.749Z" fill="#D1D3D4"/>
<path d="M94.1601 115.034H64.5513V124.981H94.1601V115.034Z" fill="white"/>
<path d="M94.1601 125.213H64.5513C64.4901 125.212 64.4317 125.187 64.3884 125.144C64.3451 125.101 64.3203 125.042 64.3191 124.981V115.034C64.3191 114.973 64.3436 114.914 64.3871 114.87C64.4306 114.826 64.4897 114.802 64.5513 114.802H94.1601C94.2217 114.802 94.2807 114.826 94.3243 114.87C94.3678 114.914 94.3923 114.973 94.3923 115.034V124.981C94.3923 125.043 94.3678 125.102 94.3243 125.145C94.2807 125.189 94.2217 125.213 94.1601 125.213ZM64.7835 124.749H93.9279V115.266H64.7835V124.749Z" fill="#D1D3D4"/>
<path d="M125.074 115.034H95.465V124.981H125.074V115.034Z" fill="white"/>
<path d="M125.074 125.213H95.465C95.4035 125.213 95.3444 125.189 95.3009 125.145C95.2573 125.102 95.2328 125.043 95.2328 124.981V115.034C95.2328 114.973 95.2573 114.914 95.3009 114.87C95.3444 114.826 95.4035 114.802 95.465 114.802H125.074C125.135 114.802 125.194 114.826 125.238 114.87C125.282 114.914 125.306 114.973 125.306 115.034V124.981C125.305 125.042 125.28 125.101 125.237 125.144C125.193 125.187 125.135 125.212 125.074 125.213ZM95.6972 124.749H124.842V115.266H95.6972V124.749Z" fill="#D1D3D4"/>
<path d="M119 56.1184C118.958 56.2531 118.916 56.3924 118.87 56.5271C118.475 57.6509 117.686 58.7375 117.918 59.9031C118.056 60.4374 118.322 60.93 118.693 61.3381C120.305 63.3302 122.687 64.8534 125.352 64.4773C126.574 64.3054 127.767 63.4649 128.013 62.2575C128.236 61.1709 127.679 60.0842 127.047 59.1741C125.731 57.3846 124.122 55.8303 122.288 54.5767C121.74 54.1913 121.076 53.8244 120.43 54.0009C120.185 54.0884 119.962 54.2279 119.776 54.4099C119.59 54.5918 119.445 54.8119 119.353 55.055C119.207 55.3994 119.089 55.7551 119 56.1184Z" fill="white"/>
<path d="M124.554 64.7466C122.394 64.7466 120.235 63.5856 118.517 61.4959C118.125 61.058 117.845 60.5324 117.699 59.9635C117.518 59.0626 117.904 58.2174 118.271 57.4047C118.41 57.1029 118.554 56.7871 118.661 56.476C118.707 56.346 118.744 56.2113 118.786 56.0766L118.833 55.9141C118.914 55.5969 119.02 55.2864 119.148 54.9853C119.256 54.7148 119.42 54.4705 119.63 54.2687C119.84 54.0669 120.091 53.9122 120.365 53.8151C121.117 53.6108 121.846 54.0333 122.399 54.4234C124.251 55.6929 125.879 57.2623 127.215 59.0672C127.763 59.8659 128.468 61.0687 128.213 62.3179C127.958 63.567 126.797 64.5051 125.376 64.7048C125.103 64.7388 124.828 64.7528 124.554 64.7466ZM120.778 54.168C120.68 54.1689 120.581 54.1814 120.486 54.2052C120.274 54.2861 120.082 54.4106 119.922 54.5706C119.762 54.7306 119.638 54.9226 119.557 55.1339C119.436 55.4181 119.338 55.7116 119.264 56.0116L119.213 56.1695C119.176 56.3134 119.13 56.4574 119.083 56.5967C118.967 56.9171 118.823 57.2422 118.684 57.5533C118.326 58.3381 117.987 59.0858 118.141 59.8752C118.274 60.3741 118.524 60.8342 118.87 61.2173C120.704 63.4835 123.049 64.6026 125.339 64.2822C126.36 64.1382 127.572 63.4324 127.818 62.2296C128.041 61.143 127.391 60.0424 126.89 59.3087C125.586 57.5413 123.994 56.006 122.181 54.7671C121.785 54.4302 121.296 54.2214 120.778 54.168Z" fill="#231F20"/>
</g>
<defs>
<clipPath id="clip0_39_888">
<rect width="140" height="140" rx="70" fill="white"/>
</clipPath>
</defs>
</svg>
