<svg width="140" height="140" viewBox="0 0 140 140" fill="none" xmlns="http://www.w3.org/2000/svg">
<g clip-path="url(#clip0_39_764)">
<rect width="140" height="140" rx="70" fill="#ECC5A2"/>
<path d="M57.7934 87.326C57.7607 87.3269 57.7283 87.3195 57.6992 87.3046C57.6701 87.2897 57.6452 87.2677 57.6268 87.2407C56.8491 86.1998 55.7188 85.4779 54.4474 85.2102C53.176 84.9425 51.8505 85.1472 50.7191 85.786C50.6907 85.8 50.6594 85.8072 50.6277 85.8072C50.596 85.8072 50.5647 85.8 50.5363 85.786C50.5073 85.7741 50.4813 85.7559 50.4602 85.7327C50.4392 85.7095 50.4235 85.6819 50.4144 85.6519C49.9814 84.2756 49.0772 83.0959 47.8607 82.3201C46.6443 81.5442 45.1933 81.2219 43.7627 81.4098C43.7334 81.4132 43.7036 81.4104 43.6753 81.4016C43.6471 81.3928 43.621 81.3781 43.5988 81.3586C43.5766 81.3391 43.5587 81.3151 43.5464 81.2882C43.534 81.2613 43.5274 81.2322 43.5271 81.2026C43.5718 79.2359 41.792 77.6756 40.2967 76.7126C37.446 74.8841 34.2375 73.6858 30.8861 73.1978C29.5371 73.0028 25.0024 72.6046 23.3121 75.6358C23.2855 75.6825 23.2419 75.7171 23.1903 75.7323C23.1388 75.7475 23.0834 75.742 23.0358 75.7171C20.5978 74.3925 18.4767 73.8358 16.5345 74.0064C14.1208 74.2259 12.0242 75.7577 11.4391 77.7406C11.4147 77.8178 11.3944 77.891 11.374 77.9682C11.3059 78.3495 11.1423 78.7073 10.8986 79.0084C10.6202 79.2749 10.2814 79.47 9.91125 79.5772L9.61463 79.691C8.99252 79.9676 8.47221 80.4313 8.12623 81.0177C7.78025 81.604 7.62585 82.2837 7.68455 82.962C7.69027 83.0153 7.67468 83.0687 7.64119 83.1105C7.6077 83.1524 7.55903 83.1793 7.50577 83.1855C7.47928 83.1889 7.45238 83.1869 7.42668 83.1797C7.40097 83.1724 7.37698 83.1601 7.35613 83.1434C7.33528 83.1268 7.318 83.1061 7.30531 83.0826C7.29262 83.0591 7.28479 83.0333 7.28228 83.0067C7.21617 82.2415 7.38996 81.4747 7.77952 80.8128C8.16909 80.1509 8.75509 79.6268 9.45616 79.3131L9.7731 79.1953C10.0745 79.1121 10.3526 78.9606 10.5858 78.7524C10.7816 78.4978 10.9127 78.1993 10.9677 77.8828C10.988 77.8056 11.0083 77.7244 11.0327 77.6472C11.6666 75.5099 13.9055 73.852 16.4816 73.6245C18.4727 73.4457 20.6222 73.9902 23.052 75.2864C24.9415 72.2104 29.5533 72.6087 30.9389 72.8118C34.3484 73.3078 37.6124 74.5269 40.5121 76.3875C42.6778 77.7813 43.8562 79.37 43.9293 80.9913C45.3804 80.8591 46.8344 81.2112 48.0643 81.9926C49.2941 82.7741 50.2305 83.9408 50.7273 85.3106C51.9412 84.6967 53.3326 84.5305 54.657 84.8412C55.9813 85.1518 57.1538 85.9194 57.9681 87.009C57.9834 87.0308 57.9942 87.0554 57.9998 87.0814C58.0054 87.1074 58.0058 87.1342 58.0009 87.1604C57.9959 87.1865 57.9858 87.2114 57.9711 87.2336C57.9564 87.2557 57.9374 87.2747 57.9153 87.2894C57.88 87.3152 57.837 87.3281 57.7934 87.326Z" fill="#D1D3D4"/>
<path d="M119.511 30.1632H73.8151V31.7073H119.511V30.1632Z" fill="white"/>
<path d="M119.511 31.9105H73.815C73.7612 31.9105 73.7095 31.8891 73.6714 31.851C73.6333 31.8128 73.6119 31.7612 73.6119 31.7073V30.1795C73.6119 30.1256 73.6333 30.0739 73.6714 30.0358C73.7095 29.9977 73.7612 29.9763 73.815 29.9763H119.511C119.565 29.9763 119.617 29.9977 119.655 30.0358C119.693 30.0739 119.714 30.1256 119.714 30.1795V31.7235C119.71 31.7746 119.687 31.8222 119.649 31.8568C119.612 31.8915 119.562 31.9106 119.511 31.9105ZM74.002 31.5041H119.308V30.3664H74.0182L74.002 31.5041Z" fill="#D1D3D4"/>
<path d="M119.511 34.9702H73.8151V36.5143H119.511V34.9702Z" fill="white"/>
<path d="M119.511 36.7174H73.815C73.7612 36.7174 73.7095 36.696 73.6714 36.6579C73.6333 36.6198 73.6119 36.5681 73.6119 36.5142V34.9701C73.6119 34.9163 73.6333 34.8646 73.6714 34.8265C73.7095 34.7884 73.7612 34.767 73.815 34.767H119.511C119.565 34.767 119.617 34.7884 119.655 34.8265C119.693 34.8646 119.714 34.9163 119.714 34.9701V36.5142C119.714 36.5681 119.693 36.6198 119.655 36.6579C119.617 36.696 119.565 36.7174 119.511 36.7174ZM74.002 36.311H119.308V35.1733H74.0182L74.002 36.311Z" fill="#D1D3D4"/>
<path d="M76.0783 26.6526H72.2019V40.667H76.0783V26.6526Z" fill="white"/>
<path d="M76.0743 40.8701H72.2019C72.148 40.8701 72.0964 40.8486 72.0583 40.8105C72.0202 40.7724 71.9987 40.7208 71.9987 40.6669V26.6525C71.9987 26.5986 72.0202 26.5469 72.0583 26.5088C72.0964 26.4707 72.148 26.4493 72.2019 26.4493H76.0743C76.1281 26.4493 76.1798 26.4707 76.2179 26.5088C76.256 26.5469 76.2774 26.5986 76.2774 26.6525V40.6669C76.2774 40.7208 76.256 40.7724 76.2179 40.8105C76.1798 40.8486 76.1281 40.8701 76.0743 40.8701ZM72.4173 40.4637H75.8833V26.8557H72.4051L72.4173 40.4637Z" fill="#D1D3D4"/>
<path d="M91.1979 26.6526H89.0525V40.667H91.1979V26.6526Z" fill="white"/>
<path d="M91.1776 40.8701H89.0362C88.9824 40.8701 88.9307 40.8486 88.8926 40.8105C88.8545 40.7724 88.8331 40.7208 88.8331 40.6669V26.6525C88.8331 26.5986 88.8545 26.5469 88.8926 26.5088C88.9307 26.4707 88.9824 26.4493 89.0362 26.4493H91.1776C91.2315 26.4493 91.2832 26.4707 91.3213 26.5088C91.3594 26.5469 91.3808 26.5986 91.3808 26.6525V40.6669C91.3808 40.7208 91.3594 40.7724 91.3213 40.8105C91.2832 40.8486 91.2315 40.8701 91.1776 40.8701ZM89.2394 40.4637H90.9744V26.8557H89.2394V40.4637Z" fill="#D1D3D4"/>
<path d="M121.449 26.6526H117.573V40.667H121.449V26.6526Z" fill="white"/>
<path d="M121.449 40.8701H117.589C117.535 40.8701 117.484 40.8486 117.445 40.8105C117.407 40.7724 117.386 40.7208 117.386 40.6669V26.6525C117.386 26.5986 117.407 26.5469 117.445 26.5088C117.484 26.4707 117.535 26.4493 117.589 26.4493H121.466C121.519 26.4504 121.57 26.4721 121.608 26.51C121.646 26.5479 121.668 26.5989 121.669 26.6525V40.6669C121.669 40.695 121.663 40.7228 121.652 40.7486C121.641 40.7744 121.624 40.7975 121.604 40.8166C121.583 40.8357 121.559 40.8503 121.532 40.8595C121.505 40.8687 121.477 40.8723 121.449 40.8701ZM117.792 40.4637H121.246V26.8557H117.776L117.792 40.4637Z" fill="#D1D3D4"/>
<path d="M73.5997 26.5713C73.5458 26.5713 73.4941 26.5499 73.456 26.5118C73.4179 26.4737 73.3965 26.422 73.3965 26.3681V25.3279C73.3965 25.274 73.4179 25.2224 73.456 25.1843C73.4941 25.1462 73.5458 25.1248 73.5997 25.1248C73.6536 25.1248 73.7053 25.1462 73.7434 25.1843C73.7815 25.2224 73.8029 25.274 73.8029 25.3279V26.3681C73.8029 26.422 73.7815 26.4737 73.7434 26.5118C73.7053 26.5499 73.6536 26.5713 73.5997 26.5713Z" fill="#D1D3D4"/>
<path d="M75.1315 26.5713C75.0777 26.5713 75.026 26.5499 74.9879 26.5118C74.9498 26.4737 74.9284 26.422 74.9284 26.3681V25.3279C74.9284 25.274 74.9498 25.2224 74.9879 25.1843C75.026 25.1462 75.0777 25.1248 75.1315 25.1248C75.1854 25.1248 75.2371 25.1462 75.2752 25.1843C75.3133 25.2224 75.3347 25.274 75.3347 25.3279V26.3681C75.3347 26.422 75.3133 26.4737 75.2752 26.5118C75.2371 26.5499 75.1854 26.5713 75.1315 26.5713Z" fill="#D1D3D4"/>
<path d="M118.759 26.5713C118.705 26.5713 118.654 26.5499 118.616 26.5118C118.578 26.4737 118.556 26.422 118.556 26.3681V25.3279C118.556 25.274 118.578 25.2224 118.616 25.1843C118.654 25.1462 118.705 25.1248 118.759 25.1248C118.813 25.1248 118.865 25.1462 118.903 25.1843C118.941 25.2224 118.963 25.274 118.963 25.3279V26.3681C118.963 26.422 118.941 26.4737 118.903 26.5118C118.865 26.5499 118.813 26.5713 118.759 26.5713Z" fill="#D1D3D4"/>
<path d="M120.295 26.5713C120.241 26.5713 120.19 26.5499 120.152 26.5118C120.114 26.4737 120.092 26.422 120.092 26.3681V25.3279C120.092 25.274 120.114 25.2224 120.152 25.1843C120.19 25.1462 120.241 25.1248 120.295 25.1248C120.349 25.1248 120.401 25.1462 120.439 25.1843C120.477 25.2224 120.498 25.274 120.498 25.3279V26.3681C120.498 26.422 120.477 26.4737 120.439 26.5118C120.401 26.5499 120.349 26.5713 120.295 26.5713Z" fill="#D1D3D4"/>
<path d="M92.1893 90.0809H88.3211V110.369H92.1893V90.0809Z" fill="white"/>
<path d="M92.1893 110.572H88.3333C88.2794 110.572 88.2277 110.551 88.1896 110.513C88.1515 110.475 88.1301 110.423 88.1301 110.369V90.081C88.1311 90.0274 88.1529 89.9763 88.1908 89.9385C88.2286 89.9006 88.2797 89.8788 88.3333 89.8778H92.2015C92.2554 89.8778 92.3071 89.8992 92.3452 89.9373C92.3833 89.9754 92.4047 90.0271 92.4047 90.081V110.369C92.4048 110.397 92.3991 110.424 92.3882 110.45C92.3772 110.475 92.3611 110.498 92.341 110.517C92.3208 110.536 92.2969 110.551 92.2708 110.56C92.2448 110.57 92.217 110.574 92.1893 110.572ZM88.5324 110.166H91.9902V90.2841H88.5283L88.5324 110.166Z" fill="#231F20"/>
<path d="M115.874 90.0809H112.006V110.369H115.874V90.0809Z" fill="white"/>
<path d="M115.87 110.572H112.006C111.952 110.572 111.901 110.551 111.863 110.513C111.824 110.475 111.803 110.423 111.803 110.369V90.081C111.803 90.0271 111.824 89.9754 111.863 89.9373C111.901 89.8992 111.952 89.8778 112.006 89.8778H115.87C115.924 89.8778 115.976 89.8992 116.014 89.9373C116.052 89.9754 116.074 90.0271 116.074 90.081V110.369C116.074 110.423 116.052 110.475 116.014 110.513C115.976 110.551 115.924 110.572 115.87 110.572ZM112.213 110.166H115.671V90.2841H112.213V110.166Z" fill="#231F20"/>
<path d="M127.91 68.6063H111.169V87.4114H127.91V68.6063Z" fill="white"/>
<path d="M127.906 87.6146H111.169C111.115 87.6146 111.064 87.5932 111.025 87.555C110.987 87.5169 110.966 87.4653 110.966 87.4114V68.6064C110.966 68.5525 110.987 68.5008 111.025 68.4627C111.064 68.4246 111.115 68.4032 111.169 68.4032H127.906C127.96 68.4032 128.012 68.4246 128.05 68.4627C128.088 68.5008 128.109 68.5525 128.109 68.6064V87.4114C128.109 87.4653 128.088 87.5169 128.05 87.555C128.012 87.5932 127.96 87.6146 127.906 87.6146ZM111.372 87.2082H127.703V68.8095H111.372V87.2082Z" fill="#D1D3D4"/>
<path d="M111.194 68.6063H65.1765V87.4114H111.194V68.6063Z" fill="white"/>
<path d="M111.194 87.6146H65.1724C65.1185 87.6146 65.0668 87.5932 65.0287 87.555C64.9906 87.5169 64.9692 87.4653 64.9692 87.4114V68.6064C64.9692 68.5525 64.9906 68.5008 65.0287 68.4627C65.0668 68.4246 65.1185 68.4032 65.1724 68.4032H111.194C111.247 68.4032 111.299 68.4246 111.337 68.4627C111.375 68.5008 111.397 68.5525 111.397 68.6064V87.4114C111.397 87.4653 111.375 87.5169 111.337 87.555C111.299 87.5932 111.247 87.6146 111.194 87.6146ZM65.3796 87.2082H110.99V68.8095H65.3796V87.2082Z" fill="#D1D3D4"/>
<path d="M124.411 40.476H107.65V68.5616H124.411V40.476Z" fill="white"/>
<path d="M124.411 68.7811H107.65C107.596 68.7811 107.545 68.7597 107.507 68.7216C107.469 68.6835 107.447 68.6318 107.447 68.5779V40.476C107.447 40.4221 107.469 40.3704 107.507 40.3323C107.545 40.2942 107.596 40.2728 107.65 40.2728H124.411C124.465 40.2728 124.517 40.2942 124.555 40.3323C124.593 40.3704 124.615 40.4221 124.615 40.476V68.5616C124.617 68.5897 124.613 68.6178 124.604 68.6444C124.595 68.671 124.58 68.6953 124.561 68.7159C124.542 68.7366 124.519 68.753 124.493 68.7642C124.467 68.7754 124.44 68.7812 124.411 68.7811ZM107.837 68.3747H124.192V40.6792H107.837V68.3747Z" fill="#D1D3D4"/>
<path d="M135.724 87.7282H7.09538C7.04149 87.7282 6.98982 87.7068 6.95172 87.6687C6.91362 87.6306 6.89221 87.5789 6.89221 87.5251C6.89221 87.4712 6.91362 87.4195 6.95172 87.3814C6.98982 87.3433 7.04149 87.3219 7.09538 87.3219H135.724C135.778 87.3219 135.829 87.3433 135.867 87.3814C135.906 87.4195 135.927 87.4712 135.927 87.5251C135.927 87.5789 135.906 87.6306 135.867 87.6687C135.829 87.7068 135.778 87.7282 135.724 87.7282Z" fill="#D1D3D4"/>
<path d="M39.5491 44.5149C39.5491 44.5149 46.5664 59.4029 47.505 61.5524C48.4437 63.7019 44.2828 68.6754 42.6697 67.4645C41.0566 66.2536 39.5491 44.5149 39.5491 44.5149Z" fill="#231F20"/>
<path d="M23.4177 107.789C23.4177 107.789 23.1414 109.589 23.5559 110.284C24.1223 111.26 24.4586 112.352 24.5392 113.477C24.207 113.848 23.8014 114.146 23.3483 114.353C22.8951 114.559 22.4041 114.669 21.9062 114.676C20.2443 114.676 18.5824 113.429 18.3955 112.831C18.2086 112.234 19.7364 105.859 19.7364 105.859L23.4177 107.789Z" fill="white"/>
<path d="M21.894 114.875C20.1102 114.875 18.3995 113.567 18.1923 112.884C18.0013 112.263 19.2691 106.879 19.5251 105.806C19.533 105.776 19.5473 105.748 19.5669 105.725C19.5866 105.701 19.6111 105.681 19.6388 105.668C19.6666 105.654 19.6972 105.647 19.7282 105.647C19.7593 105.647 19.7899 105.654 19.8176 105.668L23.5112 107.606C23.549 107.625 23.5797 107.656 23.5987 107.694C23.6177 107.732 23.6241 107.775 23.6168 107.817C23.5437 108.297 23.4218 109.658 23.7306 110.174C24.3067 111.167 24.6473 112.279 24.7261 113.425C24.73 113.451 24.728 113.479 24.7203 113.505C24.7126 113.531 24.6993 113.555 24.6814 113.575C24.3348 113.976 23.9072 114.299 23.4268 114.523C22.9464 114.747 22.424 114.867 21.894 114.875ZM19.8623 106.155C19.1553 109.138 18.4767 112.401 18.5783 112.766C18.7327 113.258 20.3134 114.469 21.894 114.469C22.3509 114.464 22.8022 114.367 23.221 114.184C23.6398 114.001 24.0176 113.736 24.332 113.404C24.2527 112.342 23.9347 111.312 23.4015 110.389C23.0195 109.751 23.1536 108.358 23.2186 107.907L19.8623 106.155Z" fill="#231F20"/>
<path d="M37.5418 67.3751L29.533 69.5937L27.6801 46.4572C27.6801 46.4572 34.2911 44.8887 35.9165 45.6201C37.5418 46.3515 37.5418 67.3751 37.5418 67.3751Z" fill="#231F20"/>
<path d="M29.533 69.7968C29.4913 69.7946 29.4508 69.782 29.4152 69.7602C29.3909 69.7428 29.3708 69.7203 29.3561 69.6944C29.3413 69.6684 29.3324 69.6396 29.3298 69.6099L27.477 46.4734C27.4719 46.4253 27.4849 46.377 27.5135 46.338C27.542 46.2989 27.584 46.2719 27.6314 46.2621C27.9036 46.1971 34.3399 44.6815 35.9896 45.4494C37.6393 46.2174 37.7328 63.8562 37.7368 67.3913C37.7373 67.436 37.7227 67.4795 37.6954 67.5149C37.6682 67.5503 37.6298 67.5754 37.5865 67.5864L29.5858 69.8049L29.533 69.7968ZM27.9077 46.6359L29.728 69.3539L37.3427 67.2451C37.3427 57.164 36.7901 46.2702 35.8311 45.8314C34.4374 45.1731 28.9316 46.3799 27.8955 46.6156L27.9077 46.6359Z" fill="#231F20"/>
<path d="M34.8682 104.038V109.455L37.4524 110.194L37.3915 109.085L38.5617 110.255C38.5617 110.255 45.5059 111.503 45.4694 110.58C45.4328 109.658 44.7298 109.146 43.844 108.687C42.9054 108.191 40.4308 106.793 40.4308 106.793L40.0611 102.823" fill="white"/>
<path d="M44.1772 111.117C42.2799 111.029 40.3912 110.808 38.5251 110.454C38.4833 110.448 38.4447 110.428 38.4154 110.398L37.6027 109.605L37.6353 110.182C37.6374 110.215 37.6314 110.247 37.618 110.277C37.6045 110.307 37.5839 110.333 37.558 110.353C37.533 110.374 37.5032 110.388 37.4713 110.394C37.4393 110.401 37.4063 110.399 37.3752 110.389L34.7909 109.65C34.7487 109.638 34.7117 109.612 34.6853 109.577C34.6589 109.542 34.6447 109.499 34.6447 109.455V104.038C34.6447 103.985 34.6661 103.933 34.7042 103.895C34.7423 103.857 34.7939 103.835 34.8478 103.835C34.9017 103.835 34.9534 103.857 34.9915 103.895C35.0296 103.933 35.051 103.985 35.051 104.038V109.3L37.2127 109.922L37.168 109.109C37.1661 109.069 37.1765 109.028 37.1979 108.993C37.2193 108.959 37.2507 108.931 37.288 108.914C37.3253 108.898 37.3667 108.893 37.4069 108.9C37.4471 108.907 37.4842 108.926 37.5134 108.955L38.6389 110.081C41.6132 110.609 44.9736 110.95 45.2499 110.58C45.2133 109.812 44.6201 109.341 43.7384 108.878C42.8566 108.415 40.3414 106.997 40.317 106.98C40.2881 106.965 40.2636 106.942 40.2459 106.914C40.2281 106.886 40.2176 106.855 40.2155 106.822L39.8457 102.852C39.8429 102.825 39.8454 102.799 39.8532 102.773C39.8609 102.748 39.8737 102.724 39.8907 102.704C39.9078 102.683 39.9288 102.666 39.9524 102.654C39.9761 102.642 40.002 102.635 40.0285 102.633C40.082 102.629 40.1349 102.646 40.1764 102.68C40.2179 102.714 40.2449 102.762 40.252 102.815L40.6096 106.68C41.0688 106.94 43.1045 108.086 43.9293 108.516C44.7542 108.947 45.6115 109.544 45.6522 110.584C45.6554 110.643 45.6445 110.701 45.6205 110.754C45.5964 110.807 45.5599 110.853 45.514 110.889C45.3352 111.04 44.8314 111.117 44.1772 111.117Z" fill="#231F20"/>
<path d="M22.4547 69.5612L17.6315 107.423C17.6315 107.423 17.8347 108.927 21.0975 109.113C24.3604 109.3 24.0313 108.532 24.0313 108.532L31.7922 81.6292L33.8848 105.574L40.9306 106.009L39.5287 66.6274L22.4547 69.5612Z" fill="#231F20"/>
<path d="M22.0646 109.345C21.7721 109.345 21.4511 109.345 21.1016 109.313C17.7128 109.122 17.4446 107.521 17.4446 107.452V107.382L22.2515 69.5205C22.2576 69.4776 22.2769 69.4377 22.3068 69.4064C22.3367 69.375 22.3756 69.3538 22.4181 69.3458L39.5125 66.4121C39.5403 66.4067 39.5689 66.4075 39.5963 66.4146C39.6237 66.4216 39.6492 66.4346 39.671 66.4527C39.6939 66.4707 39.7126 66.4935 39.726 66.5195C39.7393 66.5454 39.7469 66.5739 39.7482 66.603L41.146 105.985C41.1487 106.013 41.1446 106.041 41.134 106.067C41.1234 106.094 41.1066 106.117 41.085 106.135C41.0656 106.155 41.0421 106.17 41.0161 106.18C40.9902 106.19 40.9624 106.194 40.9347 106.192L33.8848 105.757C33.8368 105.754 33.7915 105.734 33.7571 105.701C33.7228 105.667 33.7018 105.622 33.6979 105.574L31.6988 82.71L24.2548 108.541C24.2675 108.648 24.24 108.757 24.1776 108.845C23.9419 109.178 23.2471 109.345 22.0646 109.345ZM17.851 107.415C17.8957 107.582 18.3061 108.752 21.126 108.91C23.1577 109.024 23.6859 108.76 23.8159 108.642C23.8484 108.614 23.8566 108.593 23.8566 108.589C23.8485 108.571 23.8443 108.552 23.8443 108.532C23.8443 108.513 23.8485 108.493 23.8566 108.476L31.6175 81.5723C31.6313 81.527 31.6601 81.4877 31.6993 81.4611C31.7385 81.4345 31.7856 81.4221 31.8328 81.426C31.8801 81.4297 31.9245 81.4502 31.958 81.4837C31.9915 81.5172 32.012 81.5616 32.0157 81.6089L34.0921 105.383L40.7396 105.79L39.354 66.8631L22.6376 69.7318L17.851 107.415Z" fill="#231F20"/>
<path d="M29.1754 43.5479C29.1754 43.5479 31.6866 70.1788 30.4554 71.7798C29.2242 73.3807 23.7265 75.5018 21.252 73.5311C18.7774 71.5604 19.3178 51.3128 20.4393 49.59C23.499 47.0139 29.1754 43.5479 29.1754 43.5479Z" fill="#A2B13A"/>
<path d="M39.5491 44.5149C39.5491 44.5149 44.7867 70.4063 44.0431 71.1337C43.2996 71.861 38.2082 73.4416 37.0989 72.7021C35.9897 71.9626 33.5842 44.4417 33.5842 44.4417C33.5842 44.4417 37.9482 43.1821 39.5491 44.5149Z" fill="#A2B13A"/>
<path d="M33.0316 42.4792L34.0068 45.7299C34.0068 45.7299 34.0311 47.3552 31.7028 47.4893C29.3746 47.6234 28.6025 46.2419 28.6025 46.2419L26.9772 40.1144C26.9772 40.1144 27.5826 37.7455 26.0305 34.4013C26.0305 34.4013 29.212 33.995 32.9747 33.2839C32.9747 33.2839 34.5269 37.9486 34.7828 39.708C35.0388 41.4675 33.0316 42.4792 33.0316 42.4792Z" fill="white"/>
<path d="M31.3615 47.7005C29.2039 47.7005 28.4481 46.4003 28.4156 46.3393C28.4133 46.3245 28.4133 46.3094 28.4156 46.2946L26.8147 40.1631C26.8066 40.1297 26.8066 40.0949 26.8147 40.0615C26.8147 40.0615 27.3795 37.717 25.8801 34.4866C25.8662 34.4579 25.8595 34.4262 25.8604 34.3943C25.8614 34.3624 25.87 34.3312 25.8855 34.3033C25.9011 34.2754 25.9231 34.2517 25.9497 34.2341C25.9763 34.2165 26.0068 34.2056 26.0386 34.2022C26.0711 34.2022 29.2567 33.7959 32.9706 33.0848C33.0189 33.0744 33.0695 33.0823 33.1123 33.1071C33.1551 33.1319 33.1871 33.1717 33.2022 33.2189C33.2631 33.4099 34.7584 37.9201 35.0185 39.6755C35.2542 41.3008 33.7995 42.2923 33.2916 42.5767L34.218 45.6689C34.22 45.6878 34.22 45.7069 34.218 45.7258C34.218 45.7258 34.218 47.5339 31.7231 47.6884L31.3615 47.7005ZM28.7813 46.1605C28.8869 46.3312 29.6508 47.412 31.6906 47.2861C33.6532 47.1601 33.7914 45.9533 33.8036 45.7542L32.8365 42.5361C32.823 42.4901 32.8262 42.4408 32.8455 42.3969C32.8648 42.353 32.8991 42.3174 32.9421 42.2963C32.9421 42.2963 34.8316 41.3252 34.6 39.7364C34.3684 38.1477 33.1331 34.3647 32.8527 33.5155C29.8256 34.0884 27.1641 34.4582 26.3514 34.5679C27.6679 37.5748 27.286 39.7405 27.2088 40.1103L28.7813 46.1605Z" fill="#231F20"/>
<path d="M25.8679 39.8665C25.8679 39.8665 23.4787 37.2944 23.7753 35.4619C24.0719 33.6293 27.4811 34.6492 27.4811 34.6492C27.4811 34.6492 28.1515 39.0823 27.4811 40.2932C26.8106 41.504 25.8679 39.8665 25.8679 39.8665Z" fill="#231F20"/>
<path d="M26.9081 40.9595C26.3067 40.9595 25.8029 40.1468 25.6891 39.9883C25.4616 39.7405 23.2511 37.2781 23.5599 35.4374C23.5875 35.2446 23.6571 35.0602 23.7638 34.8973C23.8706 34.7344 24.0118 34.597 24.1775 34.4947C25.2787 33.8121 27.4282 34.45 27.5217 34.4947C27.5587 34.5048 27.592 34.5256 27.6173 34.5545C27.6426 34.5834 27.6588 34.6192 27.6639 34.6573C27.6923 34.8401 28.3384 39.1757 27.6639 40.4312C27.6019 40.5823 27.4992 40.7132 27.3672 40.8094C27.2352 40.9055 27.079 40.9631 26.9162 40.9757L26.9081 40.9595ZM25.5753 34.5841C25.1707 34.5633 24.7679 34.6517 24.4092 34.8401C24.2912 34.9099 24.191 35.006 24.1163 35.1208C24.0416 35.2357 23.9944 35.3663 23.9784 35.5024C23.6981 37.209 26.0101 39.7039 26.0101 39.7323C26.0205 39.7428 26.0288 39.7553 26.0345 39.7689C26.2092 40.0737 26.5993 40.5572 26.9 40.5572C27.0381 40.5572 27.1722 40.4394 27.3063 40.2199C27.8142 39.3057 27.4932 36.1566 27.3063 34.832C26.7416 34.6789 26.1603 34.5957 25.5753 34.5841Z" fill="#231F20"/>
<path d="M27.9646 39.6227C27.7986 39.3483 27.5474 39.1357 27.2494 39.0172C26.9693 38.9165 26.6736 38.8656 26.3758 38.8669C26.2121 38.8519 26.0471 38.8727 25.8923 38.9278C25.7884 38.9777 25.6958 39.0482 25.6201 39.1351C25.4206 39.322 25.2951 39.5744 25.2665 39.8462C25.2684 40.0649 25.3242 40.2799 25.4291 40.4719C25.5244 40.6895 25.6488 40.8932 25.7988 41.0773C25.9525 41.2587 26.1406 41.4077 26.3523 41.5158C26.5639 41.6239 26.795 41.6889 27.0319 41.707C27.2689 41.7251 27.5071 41.6961 27.7328 41.6215C27.9585 41.5469 28.1671 41.4282 28.3465 41.2724" fill="white"/>
<path d="M27.1641 41.9144H27.0178C26.486 41.8708 25.9927 41.6198 25.6444 41.2155C25.48 41.0169 25.3433 40.7968 25.2381 40.5613C25.1173 40.3394 25.0545 40.0907 25.0552 39.8381C25.0841 39.5177 25.2285 39.2187 25.4616 38.997C25.5557 38.891 25.6705 38.8052 25.7988 38.745C25.9805 38.678 26.1747 38.6517 26.3677 38.6678C26.6902 38.6679 27.0104 38.7229 27.3145 38.8304C27.6528 38.9669 27.9379 39.2092 28.1271 39.5211C28.1551 39.5675 28.1636 39.623 28.1506 39.6756C28.1377 39.7282 28.1044 39.7735 28.058 39.8015C28.0117 39.8295 27.9561 39.838 27.9035 39.825C27.851 39.8121 27.8057 39.7788 27.7777 39.7324C27.6357 39.4955 27.4203 39.3115 27.1641 39.2082C26.903 39.1168 26.6281 39.0714 26.3514 39.0742C26.2144 39.0589 26.0756 39.0742 25.9451 39.1189C25.8658 39.1585 25.7953 39.2138 25.7379 39.2814C25.5733 39.4321 25.4681 39.6368 25.4413 39.8584C25.4474 40.0443 25.4961 40.2264 25.5835 40.3907C25.6735 40.5911 25.7881 40.7794 25.9248 40.9514C26.2034 41.2736 26.5974 41.4734 27.0219 41.5081C27.2329 41.5208 27.4443 41.4915 27.6438 41.4217C27.8433 41.352 28.0269 41.2432 28.184 41.1018C28.2227 41.0643 28.2744 41.0433 28.3282 41.0433C28.3821 41.0433 28.4338 41.0643 28.4725 41.1018C28.4914 41.1203 28.5064 41.1424 28.5167 41.1668C28.527 41.1913 28.5323 41.2175 28.5323 41.244C28.5323 41.2705 28.527 41.2967 28.5167 41.3211C28.5064 41.3455 28.4914 41.3676 28.4725 41.3862C28.1149 41.7151 27.6499 41.9028 27.1641 41.9144Z" fill="#231F20"/>
<path d="M32.4302 37.0872C32.4302 37.0872 34.1368 38.3712 33.9702 38.7531C33.8036 39.1351 32.995 39.2082 32.995 39.2082" fill="white"/>
<path d="M32.995 39.4195C32.9438 39.4196 32.8944 39.4005 32.8568 39.3658C32.8191 39.3312 32.7959 39.2836 32.7918 39.2326C32.7873 39.1793 32.8039 39.1264 32.8382 39.0853C32.8724 39.0442 32.9214 39.0183 32.9747 39.0131C33.255 38.9888 33.7061 38.8669 33.7873 38.684C33.7873 38.5174 33.0884 37.8429 32.3123 37.2578C32.291 37.2418 32.273 37.2217 32.2594 37.1988C32.2458 37.1758 32.2369 37.1504 32.2331 37.124C32.2293 37.0976 32.2308 37.0707 32.2374 37.0448C32.2441 37.019 32.2557 36.9947 32.2717 36.9734C32.2877 36.952 32.3078 36.934 32.3307 36.9204C32.3537 36.9068 32.3791 36.8979 32.4055 36.8941C32.4319 36.8904 32.4588 36.8918 32.4847 36.8984C32.5105 36.9051 32.5348 36.9167 32.5561 36.9327C33.3932 37.5625 34.3521 38.4036 34.1815 38.8425C34.0108 39.2813 33.1291 39.4073 33.0356 39.4154L32.995 39.4195Z" fill="#231F20"/>
<path d="M31.3834 37.1003C31.5212 37.0159 31.5361 36.7893 31.4166 36.5941C31.2971 36.3988 31.0885 36.3089 30.9507 36.3933C30.8129 36.4776 30.798 36.7043 30.9175 36.8995C31.037 37.0948 31.2456 37.1846 31.3834 37.1003Z" fill="#231F20"/>
<path d="M33.2383 36.466C33.3761 36.3817 33.3909 36.155 33.2715 35.9598C33.152 35.7645 32.9434 35.6747 32.8056 35.759C32.6677 35.8434 32.6529 36.07 32.7724 36.2652C32.8919 36.4605 33.1005 36.5504 33.2383 36.466Z" fill="#231F20"/>
<path d="M33.6451 39.8989L32.1539 40.2606C32.1539 40.2606 32.2473 41.3658 33.0966 41.4186C33.9458 41.4714 33.6451 39.8989 33.6451 39.8989Z" fill="white"/>
<path d="M33.1372 41.6259H33.0722C32.2595 41.5731 31.9791 40.7239 31.9426 40.281C31.9384 40.2331 31.9518 40.1853 31.9802 40.1464C32.0086 40.1076 32.0501 40.0803 32.097 40.0697L33.5842 39.704C33.6387 39.6926 33.6955 39.7028 33.7426 39.7324C33.7662 39.7471 33.7864 39.7667 33.8018 39.7898C33.8172 39.8129 33.8275 39.8391 33.832 39.8665C33.832 39.9762 34.027 40.9596 33.6329 41.4065C33.5708 41.4764 33.4944 41.5321 33.4088 41.57C33.3233 41.6078 33.2307 41.6269 33.1372 41.6259ZM32.3855 40.4069C32.4424 40.6792 32.6171 41.179 33.1087 41.2196C33.1511 41.2278 33.1948 41.2245 33.2355 41.2103C33.2762 41.196 33.3124 41.1712 33.3404 41.1383C33.4954 40.8353 33.5427 40.4885 33.4744 40.155L32.3855 40.4069Z" fill="#231F20"/>
<path d="M33.0315 42.4791C33.0315 42.4791 31.333 42.9464 30.4147 42.7026C30.4147 42.7026 31.6053 44.462 33.5882 44.4417L33.0315 42.4791Z" fill="#231F20"/>
<path d="M33.5557 44.6449C31.524 44.6449 30.305 42.8896 30.2482 42.8164C30.2256 42.7822 30.2139 42.742 30.2146 42.7011C30.2153 42.6601 30.2284 42.6203 30.2522 42.5869C30.2759 42.5535 30.3091 42.5281 30.3476 42.5139C30.386 42.4998 30.4279 42.4976 30.4676 42.5076C31.3209 42.7352 32.9625 42.2882 32.9787 42.2841C33.0041 42.2767 33.0306 42.2744 33.0569 42.2774C33.0831 42.2803 33.1085 42.2885 33.1316 42.3013C33.1546 42.3142 33.1749 42.3315 33.1912 42.3523C33.2075 42.373 33.2195 42.3968 33.2266 42.4223L33.7832 44.4011C33.7915 44.4311 33.7925 44.4625 33.7861 44.4929C33.7798 44.5233 33.7662 44.5517 33.7467 44.5758C33.7291 44.6015 33.7054 44.6224 33.6777 44.6366C33.6501 44.6508 33.6193 44.6578 33.5882 44.6571L33.5557 44.6449ZM30.9024 42.9708C31.5253 43.6723 32.3842 44.1206 33.316 44.2305L32.9096 42.723C32.2532 42.8874 31.5791 42.9706 30.9024 42.9708Z" fill="#231F20"/>
<path d="M31.8532 82.8766C31.8005 82.8676 31.7536 82.8383 31.7224 82.795C31.6912 82.7516 31.6783 82.6978 31.6866 82.645C31.6866 82.5597 33.0681 74.0633 32.9787 72.5314C32.9771 72.5049 32.9807 72.4784 32.9895 72.4533C32.9983 72.4283 33.0119 72.4053 33.0297 72.3856C33.0475 72.3659 33.0691 72.35 33.0931 72.3387C33.1171 72.3275 33.1432 72.3212 33.1697 72.3201C33.2229 72.3179 33.2749 72.3367 33.3144 72.3724C33.3539 72.4081 33.3778 72.4579 33.381 72.5111C33.4744 74.0836 32.162 82.3565 32.0888 82.71C32.0789 82.763 32.0488 82.81 32.0048 82.8411C31.9608 82.8722 31.9064 82.8849 31.8532 82.8766Z" fill="white"/>
<path d="M24.5636 76.5705C24.5321 76.5701 24.5011 76.5627 24.4729 76.5486C24.4448 76.5345 24.4202 76.5142 24.401 76.4892C24.3687 76.4461 24.3548 76.3919 24.3625 76.3386C24.3701 76.2852 24.3986 76.2371 24.4417 76.2048C25.0382 75.7247 25.6775 75.3003 26.3514 74.937C26.3754 74.9262 26.4013 74.9202 26.4276 74.9195C26.4539 74.9188 26.4801 74.9233 26.5047 74.9327C26.5292 74.9422 26.5517 74.9564 26.5707 74.9745C26.5897 74.9927 26.605 75.0145 26.6156 75.0386C26.6375 75.0876 26.6392 75.1434 26.6202 75.1937C26.6011 75.2439 26.5629 75.2846 26.514 75.3068C25.8715 75.6612 25.2598 76.069 24.6855 76.5258C24.651 76.5539 24.6081 76.5696 24.5636 76.5705Z" fill="white"/>
<path d="M39.3947 75.9487C39.3578 75.9475 39.3216 75.9377 39.2891 75.9202L36.7982 74.4249C36.7529 74.397 36.7204 74.3523 36.7076 74.3006C36.6949 74.2489 36.703 74.1942 36.7301 74.1484C36.7573 74.1025 36.8014 74.0692 36.8529 74.0556C36.9044 74.042 36.9592 74.0491 37.0055 74.0755L39.4963 75.5708C39.5344 75.5934 39.5641 75.6279 39.5808 75.6689C39.5975 75.71 39.6003 75.7554 39.5888 75.7983C39.5773 75.8411 39.5521 75.879 39.5171 75.9061C39.482 75.9333 39.439 75.9482 39.3947 75.9487Z" fill="white"/>
<path d="M35.0429 31.9105L33.0112 32.3412C32.4577 31.2086 31.5091 30.3176 30.3441 29.8361C29.1791 29.3546 27.8783 29.3158 26.6866 29.7269C25.495 30.1381 24.4949 30.971 23.8748 32.0685C23.2548 33.166 23.0575 34.4524 23.3202 35.6853L30.0166 34.2672L35.2989 33.1498C35.4648 33.1148 35.6101 33.0152 35.7027 32.8731C35.7952 32.731 35.8276 32.5579 35.7926 32.392C35.7575 32.226 35.658 32.0808 35.5159 31.9882C35.3738 31.8956 35.2007 31.8632 35.0348 31.8983L35.0429 31.9105Z" fill="white"/>
<path d="M23.3202 35.8885C23.28 35.8882 23.2407 35.877 23.2064 35.8559C23.1842 35.8411 23.1652 35.8219 23.1506 35.7996C23.1359 35.7773 23.1259 35.7522 23.1211 35.7259C22.8519 34.4583 23.0503 33.136 23.6798 32.0032C24.3094 30.8705 25.3275 30.0037 26.5462 29.563C27.7649 29.1223 29.1018 29.1373 30.3103 29.6054C31.5188 30.0734 32.5171 30.9629 33.1209 32.1096L34.9982 31.7032C35.2168 31.6572 35.4446 31.6996 35.6321 31.8211C35.7251 31.8812 35.8054 31.9591 35.8682 32.0503C35.9311 32.1416 35.9753 32.2443 35.9983 32.3527C36.0213 32.461 36.0227 32.5729 36.0024 32.6818C35.9821 32.7907 35.9405 32.8945 35.8799 32.9872C35.8209 33.0813 35.7432 33.1623 35.6517 33.2252C35.5601 33.2881 35.4566 33.3316 35.3476 33.3529L30.0653 34.4704H29.9962L23.3608 35.8681L23.3202 35.8885ZM28.379 29.6513C27.6548 29.6502 26.9391 29.8075 26.2821 30.1123C25.6251 30.4171 25.0428 30.8618 24.5759 31.4155C24.109 31.9691 23.7688 32.6182 23.5793 33.3172C23.3897 34.0162 23.3554 34.7481 23.4787 35.4618L29.98 34.0884H30.0531L35.2664 32.9832C35.3227 32.9721 35.3763 32.9498 35.4239 32.9177C35.4716 32.8856 35.5123 32.8443 35.5437 32.7962C35.5751 32.7481 35.5966 32.6942 35.6069 32.6377C35.6172 32.5812 35.6161 32.5232 35.6036 32.4671C35.5801 32.354 35.513 32.2547 35.4167 32.1908C35.319 32.1287 35.201 32.1068 35.0876 32.1299L33.0559 32.5606C33.0118 32.5697 32.9659 32.5638 32.9254 32.544C32.885 32.5241 32.8522 32.4914 32.8324 32.4509C32.4272 31.6137 31.7948 30.9073 31.0073 30.4123C30.2199 29.9173 29.3092 29.6536 28.379 29.6513Z" fill="#231F20"/>
<path d="M33.0112 32.3412C32.8243 32.2843 25.6973 33.7999 25.6973 33.7999L33.0112 32.3412Z" fill="white"/>
<path d="M25.7013 34.0031C25.6547 34.0023 25.6096 33.9859 25.5735 33.9564C25.5374 33.9269 25.5122 33.8861 25.5022 33.8405C25.4962 33.8146 25.4955 33.7878 25.5001 33.7616C25.5047 33.7355 25.5145 33.7105 25.5288 33.6881C25.5432 33.6658 25.562 33.6465 25.5839 33.6315C25.6058 33.6165 25.6306 33.6061 25.6566 33.6008C32.8365 32.0771 33.0031 32.1299 33.0681 32.1461C33.1192 32.1621 33.1622 32.1973 33.1879 32.2443C33.2137 32.2912 33.2202 32.3464 33.2062 32.3981C33.1917 32.4437 33.162 32.4831 33.1222 32.5096C33.0823 32.5362 33.0346 32.5485 32.9868 32.5443C32.6293 32.5443 28.4725 33.418 25.7419 33.9949L25.7013 34.0031Z" fill="#231F20"/>
<path d="M29.0901 32.134C28.7574 31.081 28.0291 30.1983 27.0585 29.6716L29.0901 32.134Z" fill="white"/>
<path d="M29.0901 32.3371C29.0464 32.3387 29.0034 32.3256 28.968 32.2998C28.9326 32.274 28.9069 32.237 28.8951 32.1949C28.5828 31.1939 27.8956 30.3524 26.9772 29.8463C26.9538 29.8339 26.9331 29.817 26.9164 29.7966C26.8996 29.7761 26.887 29.7526 26.8795 29.7272C26.8719 29.7019 26.8695 29.6753 26.8723 29.649C26.8751 29.6227 26.8832 29.5972 26.8959 29.574C26.9079 29.5503 26.9246 29.5292 26.9449 29.512C26.9653 29.4949 26.989 29.4822 27.0145 29.4746C27.04 29.467 27.0668 29.4647 27.0932 29.4678C27.1197 29.4709 27.1452 29.4794 27.1682 29.4928C28.1841 30.0448 28.9439 30.9723 29.2852 32.077C29.2933 32.1024 29.2962 32.1291 29.2939 32.1556C29.2915 32.1821 29.2838 32.2078 29.2713 32.2313C29.2588 32.2548 29.2417 32.2755 29.2211 32.2923C29.2004 32.3091 29.1766 32.3216 29.1511 32.329C29.1316 32.336 29.1108 32.3387 29.0901 32.3371Z" fill="#231F20"/>
<path d="M30.2278 31.8983C29.866 30.9588 29.2802 30.1219 28.5212 29.4603L30.2278 31.8983Z" fill="white"/>
<path d="M30.2278 32.1015C30.187 32.1021 30.147 32.0899 30.1134 32.0666C30.0799 32.0433 30.0545 32.01 30.0409 31.9715C29.6891 31.0599 29.1216 30.2471 28.3872 29.6026C28.3633 29.5865 28.343 29.5656 28.3279 29.5411C28.3127 29.5167 28.3028 29.4893 28.299 29.4608C28.2952 29.4322 28.2975 29.4032 28.3058 29.3756C28.314 29.3481 28.328 29.3226 28.3469 29.3008C28.3657 29.2791 28.389 29.2616 28.4151 29.2495C28.4412 29.2374 28.4696 29.231 28.4984 29.2307C28.5272 29.2304 28.5557 29.2363 28.582 29.2478C28.6084 29.2594 28.632 29.2764 28.6513 29.2978C29.4363 29.9848 30.0429 30.8521 30.4188 31.8252C30.4286 31.8502 30.4333 31.877 30.4327 31.9039C30.432 31.9308 30.4261 31.9573 30.4151 31.9819C30.4041 32.0064 30.3884 32.0286 30.3688 32.047C30.3492 32.0655 30.3262 32.0798 30.301 32.0893L30.2278 32.1015Z" fill="#231F20"/>
<path d="M25.8232 71.8367C25.7704 71.8357 25.7199 71.8145 25.6821 71.7775C25.6443 71.7405 25.6221 71.6904 25.6201 71.6376C25.6201 71.4994 25.2584 57.7979 25.0837 54.2588C24.9749 52.1049 24.7361 49.9597 24.3686 47.8346C24.3591 47.7819 24.3708 47.7275 24.4013 47.6833C24.4317 47.6392 24.4784 47.6089 24.5311 47.599C24.5844 47.5894 24.6393 47.601 24.6841 47.6314C24.7289 47.6618 24.76 47.7085 24.7708 47.7615C25.1386 49.9043 25.3787 52.0671 25.49 54.2384C25.6648 57.7857 26.0223 71.4872 26.0264 71.6254C26.0275 71.6524 26.0232 71.6793 26.0137 71.7047C26.0042 71.73 25.9898 71.7532 25.9713 71.7729C25.9527 71.7925 25.9304 71.8083 25.9057 71.8193C25.881 71.8302 25.8543 71.8361 25.8273 71.8367H25.8232Z" fill="#231F20"/>
<path d="M20.2686 66.8185C20.2148 66.8217 20.1618 66.8034 20.1214 66.7676C20.081 66.7318 20.0565 66.6814 20.0533 66.6275C20.0501 66.5736 20.0684 66.5207 20.1042 66.4803C20.14 66.4399 20.1904 66.4154 20.2443 66.4121C20.3093 66.4121 26.6806 65.6889 28.5944 64.6446C28.6177 64.6312 28.6435 64.6226 28.6703 64.6194C28.697 64.6163 28.7241 64.6185 28.7499 64.6261C28.7757 64.6337 28.7998 64.6465 28.8205 64.6636C28.8413 64.6808 28.8583 64.7019 28.8707 64.7259C28.8956 64.7735 28.9011 64.8289 28.8859 64.8805C28.8707 64.932 28.8361 64.9756 28.7894 65.0022C26.8065 66.083 20.5571 66.786 20.289 66.8144L20.2686 66.8185Z" fill="#231F20"/>
<path d="M39.801 69.1467C39.7524 69.1462 39.7056 69.1283 39.6691 69.0963C39.6325 69.0642 39.6087 69.0201 39.6019 68.972C38.5373 61.5361 35.7336 45.8111 35.7052 45.6608C35.6957 45.608 35.7074 45.5536 35.7379 45.5094C35.7683 45.4653 35.815 45.435 35.8677 45.4251C35.9209 45.4168 35.9753 45.4295 36.0193 45.4606C36.0633 45.4917 36.0935 45.5387 36.1034 45.5917C36.1318 45.7502 38.9477 61.4711 40.0042 68.9151C40.0101 68.9687 39.9953 69.0226 39.9628 69.0657C39.9304 69.1087 39.8826 69.1377 39.8294 69.1467H39.801Z" fill="#231F20"/>
<path d="M37.1111 64.669C37.0642 64.6686 37.0189 64.6517 36.9832 64.6213C36.9475 64.5908 36.9238 64.5487 36.9161 64.5024C36.9108 64.4762 36.9106 64.4493 36.9157 64.4231C36.9208 64.3969 36.931 64.3719 36.9457 64.3497C36.9604 64.3274 36.9793 64.3083 37.0015 64.2933C37.0236 64.2784 37.0484 64.268 37.0746 64.2626L42.4503 63.1899C42.5042 63.1797 42.56 63.1913 42.6053 63.2221C42.6506 63.253 42.6819 63.3006 42.6921 63.3545C42.7023 63.4084 42.6908 63.4641 42.6599 63.5094C42.629 63.5548 42.5814 63.586 42.5275 63.5962L37.1355 64.6649L37.1111 64.669Z" fill="#231F20"/>
<path d="M20.4271 49.59C20.4271 49.59 9.53743 65.5832 14.8482 70.0203C19.7242 74.0836 30.4838 67.3304 30.4838 67.3304L29.8215 61.6174C29.8215 61.6174 20.3499 66.1155 20.2118 63.97C20.0086 60.8128 21.512 59.6264 21.512 59.6264L20.4271 49.59Z" fill="#231F20"/>
<path d="M29.4152 55.5427L30.3538 75.0466C30.3538 75.0466 46.0463 79.8454 51.0158 72.4542L52.3973 52.1986C52.3973 52.1986 38.4032 57.6922 29.4152 55.5427Z" fill="white"/>
<path d="M40.5771 76.7654C40.0001 76.7654 39.4069 76.7451 38.7933 76.7085C35.9051 76.5131 33.0452 76.016 30.2604 75.2254C30.2205 75.2136 30.1854 75.1896 30.1599 75.1568C30.1344 75.124 30.1198 75.0841 30.1181 75.0426L29.1795 55.5387C29.1776 55.5071 29.1832 55.4755 29.1959 55.4465C29.2087 55.4176 29.2281 55.392 29.2526 55.3721C29.2764 55.3518 29.3047 55.3375 29.3351 55.3305C29.3655 55.3234 29.3971 55.3237 29.4274 55.3314C38.2651 57.4403 52.1494 52.032 52.2876 51.9792C52.3194 51.966 52.3541 51.9614 52.3883 51.9656C52.4225 51.9699 52.455 51.983 52.4826 52.0036C52.5107 52.0239 52.5331 52.0509 52.548 52.0821C52.563 52.1134 52.5698 52.1478 52.568 52.1824L51.2027 72.438C51.2024 72.4744 51.1911 72.5098 51.1702 72.5396C49.3254 75.323 45.6684 76.7654 40.5771 76.7654ZM30.5326 74.876C32.0767 75.3189 46.1845 79.1303 50.8004 72.3689L52.1698 52.4871C49.6039 53.4317 46.9854 54.2267 44.3276 54.8682C40.1708 55.8637 34.279 56.8267 29.6305 55.8028L30.5326 74.876Z" fill="#231F20"/>
<path d="M28.1027 63.5637C28.0292 63.1345 28.0613 62.6938 28.1962 62.2797C28.3325 61.9971 28.5183 61.7411 28.7448 61.524C29.1256 61.1234 29.5329 60.7487 29.9637 60.4025C30.1411 60.2238 30.3548 60.0852 30.5904 59.9962C30.8259 59.9072 31.0778 59.8697 31.329 59.8864C31.1708 60.6064 30.749 61.2412 30.1466 61.6662C30.3471 61.4379 30.6075 61.2704 30.8983 61.1826C31.0974 61.1217 31.3656 61.1339 31.4509 61.3208C31.468 61.3832 31.4725 61.4484 31.4641 61.5126C31.4558 61.5768 31.4347 61.6387 31.4022 61.6946C31.1724 62.1941 30.8184 62.6263 30.3741 62.9502L30.8536 62.6576C30.9738 62.5689 31.1129 62.5091 31.2599 62.4829C31.3329 62.4708 31.4078 62.4824 31.4736 62.5161C31.5394 62.5497 31.5927 62.6036 31.6256 62.6698C31.6556 62.7771 31.6439 62.8917 31.5931 62.9908C31.4706 63.2827 31.2642 63.5316 30.9999 63.706C31.1732 63.5652 31.3782 63.469 31.5972 63.4256C31.708 63.4073 31.8217 63.4292 31.9178 63.4873C32.0139 63.5454 32.0861 63.6359 32.1214 63.7425C32.1354 63.8639 32.1098 63.9865 32.0482 64.092C31.6947 64.7746 30.8292 64.8518 30.4229 65.4247C30.1182 65.8555 30.2604 66.3146 29.6346 66.5747C28.1109 67.2167 28.1962 64.4577 28.1027 63.5637Z" fill="white"/>
<path d="M29.2323 66.8753C29.0636 66.8778 28.898 66.8297 28.7569 66.7372C28.0621 66.3024 27.9808 64.9209 27.9443 64.0066C27.9443 63.8441 27.9443 63.6978 27.9158 63.6003C27.8385 63.1362 27.8776 62.6601 28.0296 62.2147C28.1728 61.909 28.3728 61.6333 28.6188 61.4021C29.0106 60.9919 29.4301 60.609 29.8743 60.2562C30.2807 59.9352 30.8211 59.5817 31.4103 59.7036C31.4624 59.7156 31.5076 59.7478 31.5362 59.793C31.5516 59.8152 31.5621 59.8405 31.567 59.8671C31.572 59.8938 31.5711 59.9211 31.5647 59.9474C31.4897 60.3072 31.3522 60.651 31.1583 60.9632C31.2643 60.9544 31.3705 60.9776 31.4632 61.0298C31.5559 61.0819 31.6309 61.1606 31.6784 61.2558C31.7097 61.3441 31.7216 61.438 31.7131 61.5313C31.7047 61.6246 31.6763 61.7149 31.6297 61.7962C31.5491 61.9697 31.4554 62.1368 31.3493 62.296C31.4549 62.2923 31.5591 62.32 31.6489 62.3758C31.7386 62.4315 31.8097 62.5126 31.8532 62.6089C31.9011 62.7677 31.888 62.9386 31.8166 63.0883L31.7435 63.2387C31.8838 63.2417 32.0194 63.29 32.13 63.3764C32.2406 63.4628 32.3202 63.5827 32.357 63.7181C32.383 63.8853 32.35 64.0563 32.2636 64.2017C32.0399 64.5685 31.7116 64.86 31.3209 65.0387C31.0604 65.1532 30.8265 65.3207 30.6342 65.5304C30.5527 65.6556 30.491 65.7927 30.4513 65.9367C30.4113 66.1189 30.3269 66.2884 30.2057 66.4301C30.0845 66.5719 29.9302 66.6815 29.7565 66.7494C29.592 66.826 29.4137 66.8688 29.2323 66.8753ZM31.0933 60.0734C30.7255 60.138 30.3841 60.3073 30.11 60.561C29.6789 60.9011 29.2716 61.2704 28.891 61.6662C28.6816 61.864 28.5095 62.098 28.3831 62.3569C28.2617 62.7417 28.2338 63.1498 28.3018 63.5475C28.3018 63.6653 28.3018 63.8157 28.3303 63.9863C28.3709 64.7137 28.4481 66.0668 28.9682 66.3959C29.0626 66.4464 29.168 66.4728 29.275 66.4728C29.382 66.4728 29.4874 66.4464 29.5818 66.3959C29.7018 66.3495 29.8077 66.2727 29.8889 66.1729C29.9701 66.0732 30.0239 65.9539 30.045 65.827C30.0973 65.6447 30.1782 65.4719 30.2847 65.315C30.5049 65.0447 30.7825 64.8268 31.0974 64.6771C31.4178 64.5353 31.6892 64.302 31.8775 64.0066C31.9187 63.9426 31.9386 63.8673 31.9344 63.7913C31.9344 63.6856 31.7556 63.6247 31.6337 63.6328C31.4664 63.6689 31.3093 63.7425 31.1746 63.8482L31.1218 63.8847C31.077 63.9142 31.0224 63.9247 30.9699 63.914C30.9174 63.9034 30.8712 63.8724 30.8414 63.8279C30.8126 63.7833 30.8021 63.7293 30.8119 63.6771C30.8217 63.625 30.8512 63.5786 30.8942 63.5475L30.943 63.515C31.1516 63.3642 31.3146 63.159 31.4143 62.9217C31.459 62.8202 31.459 62.7714 31.4468 62.7511C31.4301 62.728 31.4069 62.7102 31.3802 62.7001C31.3535 62.69 31.3244 62.688 31.2965 62.6942C31.1824 62.7198 31.0746 62.7682 30.9796 62.8364L30.5001 63.133C30.4555 63.157 30.4035 63.1634 30.3544 63.151C30.3054 63.1387 30.2627 63.1084 30.2347 63.0662C30.2067 63.024 30.1955 62.9729 30.2033 62.9229C30.211 62.8729 30.2372 62.8275 30.2766 62.7958C30.6918 62.4916 31.022 62.0858 31.2355 61.6174C31.2843 61.5158 31.3006 61.4468 31.2843 61.4142C31.268 61.3817 31.1136 61.3452 30.9796 61.3858C30.8716 61.4179 30.7679 61.4629 30.6707 61.5199C30.5461 61.6399 30.41 61.7474 30.2644 61.8409C30.2243 61.8707 30.1744 61.8843 30.1248 61.879C30.0751 61.8737 30.0292 61.85 29.9962 61.8125C29.9637 61.7754 29.9457 61.7277 29.9457 61.6784C29.9457 61.629 29.9637 61.5814 29.9962 61.5443C30.1141 61.41 30.251 61.2936 30.4026 61.1989C30.7187 60.8837 30.9554 60.4979 31.0933 60.0734Z" fill="#231F20"/>
<path d="M53.2222 60.825C53.1653 60.0124 52.9093 59.0819 52.186 58.6674C51.9636 58.5421 51.7135 58.4739 51.4582 58.4689C51.2029 58.464 50.9504 58.5224 50.7232 58.639C50.6811 58.6543 50.6431 58.6792 50.6121 58.7116C50.5811 58.744 50.5579 58.7831 50.5445 58.8259C50.516 58.9518 50.6379 59.0615 50.7517 59.1306C50.9885 59.2769 51.246 59.3865 51.5156 59.4557C51.2971 59.4357 51.0777 59.4839 50.8878 59.5938C50.6978 59.7037 50.5466 59.8698 50.4551 60.0692C50.7229 60.3796 51.0965 60.5795 51.5034 60.63C51.3676 60.5952 51.2246 60.6014 51.0923 60.6476C50.96 60.6939 50.8443 60.7782 50.7598 60.89C50.4957 61.2639 50.707 61.3654 50.9995 61.5889C50.8714 61.5643 50.7388 61.577 50.6176 61.6255C50.5575 61.6525 50.5066 61.6965 50.4712 61.7521C50.4358 61.8077 50.4175 61.8725 50.4185 61.9384C50.4429 62.1781 50.7436 62.2512 50.9508 62.3731C51.1189 62.4727 51.2468 62.628 51.3124 62.812C51.3364 62.9153 51.3704 63.016 51.414 63.1127C51.8203 63.8278 52.7427 63.2305 52.9621 62.7307C53.1965 62.1245 53.2855 61.4718 53.2222 60.825Z" fill="white"/>
<path d="M51.9503 63.645C51.804 63.6439 51.6607 63.6033 51.5355 63.5275C51.4104 63.4517 51.308 63.3435 51.2392 63.2143C51.1971 63.1363 51.1657 63.0529 51.1458 62.9665L51.1214 62.8771C51.0724 62.7387 50.9759 62.6221 50.8492 62.5479L50.7069 62.4789C50.5119 62.3854 50.2437 62.2554 50.2153 61.9547C50.211 61.848 50.2385 61.7424 50.2941 61.6513C50.3498 61.5602 50.4313 61.4876 50.5282 61.4427C50.4144 61.2843 50.3778 61.077 50.5972 60.7723C50.6443 60.7029 50.7019 60.6412 50.7679 60.5894C50.5904 60.4811 50.4325 60.3438 50.3006 60.1831C50.2749 60.1542 50.2581 60.1185 50.2523 60.0803C50.2465 60.042 50.252 60.0029 50.2681 59.9677C50.3797 59.7164 50.573 59.5102 50.8166 59.3826L50.6419 59.2851C50.325 59.0901 50.3209 58.8788 50.3453 58.7609C50.3664 58.6894 50.4028 58.6233 50.4519 58.5672C50.501 58.5111 50.5617 58.4663 50.6297 58.4359C50.8879 58.3056 51.1741 58.2408 51.4632 58.2471C51.7523 58.2535 52.0354 58.3309 52.2876 58.4724C53.1246 58.9519 53.3684 60.0002 53.4253 60.7926C53.4898 61.4727 53.3952 62.1585 53.149 62.7958C53.0388 63.0153 52.8762 63.2042 52.6757 63.346C52.4751 63.4877 52.2427 63.5779 51.9991 63.6085L51.9503 63.645ZM50.8573 61.78C50.8045 61.7793 50.752 61.789 50.7029 61.8084C50.6582 61.8328 50.6175 61.8816 50.6216 61.9181C50.6257 61.9547 50.7354 62.04 50.8857 62.1132L51.0523 62.1944C51.2626 62.3184 51.4223 62.5127 51.5033 62.743C51.5033 62.7836 51.5277 62.8202 51.5359 62.8608C51.5491 62.9124 51.5667 62.9627 51.5887 63.0112C51.6249 63.0862 51.6833 63.1482 51.756 63.1889C51.8287 63.2296 51.9121 63.247 51.995 63.2387C52.1674 63.2116 52.3308 63.1441 52.4721 63.0417C52.6133 62.9393 52.7283 62.8049 52.8077 62.6495C53.025 62.0731 53.1083 61.4548 53.0515 60.8413C52.9986 60.1465 52.7955 59.2363 52.1128 58.8422C51.9197 58.7346 51.7031 58.676 51.482 58.6718C51.2609 58.6675 51.0422 58.7177 50.8451 58.8178C50.8155 58.829 50.7891 58.8472 50.7679 58.8706C50.8042 58.9012 50.8422 58.9297 50.8817 58.956C51.1033 59.093 51.3444 59.1958 51.5968 59.2607C51.6462 59.2733 51.6889 59.3043 51.7161 59.3474C51.7433 59.3905 51.753 59.4423 51.7431 59.4923C51.7341 59.5426 51.7066 59.5876 51.6659 59.6185C51.6253 59.6494 51.5745 59.6638 51.5237 59.6589C51.3664 59.6399 51.207 59.6652 51.0634 59.7319C50.9198 59.7987 50.7977 59.9043 50.711 60.0368C50.9319 60.2551 51.2165 60.3974 51.5237 60.4431C51.5773 60.4503 51.626 60.478 51.6594 60.5205C51.6928 60.5631 51.7082 60.6169 51.7025 60.6707C51.6944 60.7238 51.6664 60.7719 51.6241 60.8051C51.5818 60.8384 51.5285 60.8542 51.4749 60.8495C51.1945 60.8129 51.0401 60.8495 50.9264 61.0201C50.8126 61.1908 50.8004 61.203 51.0483 61.3858L51.1255 61.4468C51.1612 61.474 51.1866 61.5125 51.1977 61.556C51.2087 61.5996 51.2048 61.6455 51.1864 61.6865C51.1689 61.7277 51.1384 61.762 51.0994 61.784C51.0605 61.8061 51.0154 61.8146 50.9711 61.8084L50.8573 61.78Z" fill="#231F20"/>
<path d="M21.9712 53.8239C21.927 53.8246 21.8839 53.8106 21.8486 53.7841C21.8133 53.7576 21.7878 53.7202 21.7761 53.6776C21.7621 53.6259 21.7687 53.5708 21.7945 53.5238C21.8202 53.4769 21.8632 53.4417 21.9143 53.4257L28.5009 51.5444C28.5548 51.5298 28.6123 51.5373 28.6606 51.5651C28.709 51.5929 28.7444 51.6388 28.7589 51.6927C28.7735 51.7466 28.766 51.804 28.7382 51.8524C28.7104 51.9008 28.6645 51.9362 28.6106 51.9507L22.028 53.832C22.0087 53.8331 21.9894 53.8303 21.9712 53.8239Z" fill="#231F20"/>
<path d="M35.2745 50.3295C35.2206 50.3295 35.1689 50.3081 35.1308 50.27C35.0927 50.2319 35.0713 50.1803 35.0713 50.1264C35.0713 50.0725 35.0927 50.0208 35.1308 49.9827C35.1689 49.9446 35.2206 49.9232 35.2745 49.9232L39.9798 49.3868C40.0337 49.3809 40.0877 49.3966 40.13 49.4306C40.1723 49.4645 40.1994 49.5138 40.2053 49.5677C40.2112 49.6215 40.1955 49.6756 40.1616 49.7179C40.1277 49.7602 40.0784 49.7873 40.0245 49.7932L35.3192 50.3295H35.2745Z" fill="#231F20"/>
<path d="M107.699 40.476H69.1585V68.5616H107.699V40.476Z" fill="white"/>
<path d="M107.699 68.7811H69.1585C69.1046 68.7811 69.0529 68.7597 69.0148 68.7216C68.9767 68.6835 68.9553 68.6318 68.9553 68.5779V40.476C68.9553 40.4221 68.9767 40.3704 69.0148 40.3323C69.0529 40.2942 69.1046 40.2728 69.1585 40.2728H107.699C107.753 40.2728 107.805 40.2942 107.843 40.3323C107.881 40.3704 107.902 40.4221 107.902 40.476V68.5616C107.904 68.5897 107.901 68.6178 107.892 68.6444C107.882 68.671 107.868 68.6953 107.849 68.7159C107.83 68.7366 107.807 68.753 107.781 68.7642C107.755 68.7754 107.727 68.7812 107.699 68.7811ZM69.3617 68.3747H107.496V40.6792H69.3617V68.3747Z" fill="#D1D3D4"/>
<path d="M118.861 92.332H84.5544V102.628H118.861V92.332Z" fill="white"/>
<path d="M118.861 102.832H84.5544C84.5005 102.832 84.4488 102.81 84.4107 102.772C84.3726 102.734 84.3512 102.682 84.3512 102.628V92.3483C84.3512 92.2944 84.3726 92.2428 84.4107 92.2047C84.4488 92.1665 84.5005 92.1451 84.5544 92.1451H118.861C118.915 92.1451 118.967 92.1665 119.005 92.2047C119.043 92.2428 119.064 92.2944 119.064 92.3483V102.628C119.064 102.682 119.043 102.734 119.005 102.772C118.967 102.81 118.915 102.832 118.861 102.832ZM84.7576 102.425H118.658V92.5352H84.7576V102.425Z" fill="#231F20"/>
<path d="M96.9475 102.628H91.6896L85.1883 92.332H90.4503L96.9475 102.628Z" fill="#231F20"/>
<path d="M96.9516 102.832H91.6896C91.655 102.832 91.621 102.823 91.5906 102.807C91.5601 102.79 91.5341 102.767 91.5149 102.738L85.0136 92.4418C84.9945 92.4106 84.9845 92.3747 84.9845 92.3382C84.9845 92.3016 84.9945 92.2658 85.0136 92.2346C85.0314 92.2028 85.0574 92.1763 85.0888 92.1577C85.1201 92.1392 85.1559 92.1292 85.1923 92.1289H90.4543C90.4883 92.129 90.5218 92.1375 90.5516 92.1539C90.5814 92.1702 90.6066 92.1937 90.625 92.2224L97.1263 102.523C97.1449 102.553 97.1551 102.588 97.1559 102.624C97.1566 102.66 97.1479 102.695 97.1306 102.727C97.1133 102.758 97.088 102.784 97.0572 102.803C97.0265 102.821 96.9915 102.831 96.9556 102.832H96.9516ZM91.7993 102.425H96.5818L90.3365 92.5352H85.554L91.7993 102.425Z" fill="#231F20"/>
<path d="M107.589 102.628H102.327L95.826 92.332H101.088L107.589 102.628Z" fill="#231F20"/>
<path d="M107.589 102.832H102.327C102.293 102.832 102.26 102.823 102.23 102.807C102.2 102.79 102.175 102.767 102.157 102.738L95.6554 92.4418C95.6363 92.4106 95.6263 92.3747 95.6263 92.3382C95.6263 92.3016 95.6363 92.2658 95.6554 92.2346C95.6719 92.2025 95.697 92.1757 95.7278 92.157C95.7586 92.1384 95.7941 92.1287 95.8301 92.1289H101.092C101.126 92.129 101.16 92.1376 101.189 92.1539C101.219 92.1702 101.244 92.1938 101.263 92.2224L107.764 102.523C107.782 102.554 107.791 102.589 107.791 102.624C107.791 102.66 107.782 102.695 107.764 102.726C107.747 102.757 107.721 102.783 107.691 102.802C107.66 102.82 107.625 102.831 107.589 102.832ZM102.441 102.425H107.224L100.978 92.5352H96.1958L102.441 102.425Z" fill="#231F20"/>
<path d="M118.227 102.628H112.969L106.468 92.332H111.73L118.227 102.628Z" fill="#231F20"/>
<path d="M118.231 102.832H112.969C112.935 102.832 112.902 102.823 112.872 102.807C112.842 102.79 112.817 102.767 112.799 102.738L106.297 92.4418C106.278 92.4106 106.268 92.3747 106.268 92.3382C106.268 92.3016 106.278 92.2658 106.297 92.2346C106.315 92.2028 106.341 92.1763 106.372 92.1577C106.404 92.1392 106.44 92.1292 106.476 92.1289H111.738C111.772 92.129 111.805 92.1375 111.835 92.1539C111.865 92.1702 111.89 92.1937 111.909 92.2224L118.402 102.507C118.42 102.537 118.431 102.572 118.431 102.608C118.432 102.644 118.423 102.679 118.406 102.711C118.389 102.742 118.363 102.768 118.333 102.787C118.302 102.805 118.267 102.815 118.231 102.815V102.832ZM113.079 102.425H117.861L111.616 92.5352H106.834L113.079 102.425Z" fill="#231F20"/>
<path d="M67.8826 100.125H64.6807C64.6268 100.125 64.5751 100.104 64.537 100.066C64.4989 100.028 64.4775 99.9762 64.4775 99.9223C64.4775 99.8684 64.4989 99.8167 64.537 99.7786C64.5751 99.7405 64.6268 99.7191 64.6807 99.7191H67.8826C67.9365 99.7191 67.9882 99.7405 68.0263 99.7786C68.0644 99.8167 68.0858 99.8684 68.0858 99.9223C68.0858 99.9762 68.0644 100.028 68.0263 100.066C67.9882 100.104 67.9365 100.125 67.8826 100.125Z" fill="#D1D3D4"/>
<path d="M53.466 104.242H50.7192C50.6653 104.242 50.6136 104.22 50.5755 104.182C50.5374 104.144 50.516 104.092 50.516 104.038C50.517 103.985 50.5388 103.934 50.5767 103.896C50.6145 103.858 50.6656 103.836 50.7192 103.835H53.466C53.5198 103.835 53.5715 103.857 53.6096 103.895C53.6477 103.933 53.6691 103.984 53.6691 104.038C53.6691 104.092 53.6477 104.144 53.6096 104.182C53.5715 104.22 53.5198 104.242 53.466 104.242Z" fill="#D1D3D4"/>
<path d="M10.2201 94.8635H7.24571C7.19215 94.8624 7.14108 94.8407 7.1032 94.8028C7.06532 94.765 7.04358 94.7139 7.04254 94.6603C7.04254 94.6064 7.06395 94.5548 7.10205 94.5167C7.14015 94.4786 7.19182 94.4572 7.24571 94.4572H10.2201C10.2739 94.4572 10.3256 94.4786 10.3637 94.5167C10.4018 94.5548 10.4232 94.6064 10.4232 94.6603C10.4232 94.7142 10.4018 94.7659 10.3637 94.804C10.3256 94.8421 10.2739 94.8635 10.2201 94.8635Z" fill="#D1D3D4"/>
<path d="M118.678 110.633H106.553C106.499 110.633 106.448 110.612 106.41 110.574C106.371 110.536 106.35 110.484 106.35 110.43C106.35 110.376 106.371 110.325 106.41 110.286C106.448 110.248 106.499 110.227 106.553 110.227H118.678C118.732 110.227 118.784 110.248 118.822 110.286C118.86 110.325 118.881 110.376 118.881 110.43C118.881 110.484 118.86 110.536 118.822 110.574C118.784 110.612 118.732 110.633 118.678 110.633Z" fill="#231F20"/>
<path d="M93.8919 110.633H86.0334C85.9795 110.633 85.9279 110.612 85.8898 110.574C85.8517 110.536 85.8303 110.484 85.8303 110.43C85.8303 110.376 85.8517 110.325 85.8898 110.286C85.9279 110.248 85.9795 110.227 86.0334 110.227H93.8919C93.9458 110.227 93.9974 110.248 94.0355 110.286C94.0736 110.325 94.095 110.376 94.095 110.43C94.095 110.484 94.0736 110.536 94.0355 110.574C93.9974 110.612 93.9458 110.633 93.8919 110.633Z" fill="#231F20"/>
<path d="M57.5861 93.0308H55.526C55.4722 93.0308 55.4205 93.0094 55.3824 92.9713C55.3443 92.9332 55.3229 92.8816 55.3229 92.8277C55.3229 92.7738 55.3443 92.7221 55.3824 92.684C55.4205 92.6459 55.4722 92.6245 55.526 92.6245H57.5861C57.64 92.6245 57.6917 92.6459 57.7298 92.684C57.7679 92.7221 57.7893 92.7738 57.7893 92.8277C57.7893 92.8816 57.7679 92.9332 57.7298 92.9713C57.6917 93.0094 57.64 93.0308 57.5861 93.0308Z" fill="#D1D3D4"/>
<path d="M129.434 99.4388H126.228C126.174 99.4378 126.123 99.416 126.085 99.3781C126.047 99.3403 126.026 99.2892 126.025 99.2356C126.025 99.1818 126.046 99.1301 126.084 99.092C126.122 99.0539 126.174 99.0325 126.228 99.0325H129.434C129.488 99.0325 129.539 99.0539 129.577 99.092C129.615 99.1301 129.637 99.1818 129.637 99.2356C129.636 99.2892 129.614 99.3403 129.576 99.3781C129.538 99.416 129.487 99.4378 129.434 99.4388Z" fill="#D1D3D4"/>
<path d="M79.0283 51.0853H75.2697C75.2158 51.0853 75.1641 51.0639 75.126 51.0258C75.0879 50.9877 75.0665 50.936 75.0665 50.8821V46.2784C75.0665 46.2245 75.0879 46.1728 75.126 46.1347C75.1641 46.0966 75.2158 46.0752 75.2697 46.0752H79.0283C79.0821 46.0752 79.1338 46.0966 79.1719 46.1347C79.21 46.1728 79.2314 46.2245 79.2314 46.2784V50.9024C79.2264 50.9527 79.2028 50.9993 79.1652 51.0331C79.1276 51.0669 79.0788 51.0855 79.0283 51.0853ZM75.4729 50.6789H78.8251V46.4815H75.4729V50.6789Z" fill="#D1D3D4"/>
<path d="M86.9802 51.0853H83.2176C83.164 51.0842 83.1129 51.0625 83.0751 51.0246C83.0372 50.9867 83.0154 50.9357 83.0144 50.8821V46.2784C83.0144 46.2245 83.0358 46.1728 83.0739 46.1347C83.112 46.0966 83.1637 46.0752 83.2176 46.0752H86.9802C87.0341 46.0752 87.0858 46.0966 87.1239 46.1347C87.162 46.1728 87.1834 46.2245 87.1834 46.2784V50.9024C87.1775 50.9524 87.1536 50.9984 87.1162 51.0321C87.0788 51.0657 87.0305 51.0846 86.9802 51.0853ZM83.4207 50.6789H86.777V46.4815H83.4207V50.6789Z" fill="#D1D3D4"/>
<path d="M94.928 51.0853H91.1776C91.1237 51.0853 91.072 51.0639 91.0339 51.0258C90.9958 50.9877 90.9744 50.936 90.9744 50.8821V46.2784C90.9744 46.2245 90.9958 46.1728 91.0339 46.1347C91.072 46.0966 91.1237 46.0752 91.1776 46.0752H94.9362C94.99 46.0752 95.0417 46.0966 95.0798 46.1347C95.1179 46.1728 95.1393 46.2245 95.1393 46.2784V50.9024C95.1342 50.9541 95.1094 51.0019 95.0701 51.0359C95.0308 51.0699 94.98 51.0876 94.928 51.0853ZM91.3726 50.6789H94.7249V46.4815H91.3726V50.6789Z" fill="#D1D3D4"/>
<path d="M102.88 51.0853H99.1173C99.0638 51.0842 99.0127 51.0625 98.9748 51.0246C98.9369 50.9867 98.9152 50.9357 98.9142 50.8821V46.2784C98.9142 46.2245 98.9355 46.1728 98.9737 46.1347C99.0118 46.0966 99.0634 46.0752 99.1173 46.0752H102.88C102.934 46.0752 102.986 46.0966 103.024 46.1347C103.062 46.1728 103.083 46.2245 103.083 46.2784V50.9024C103.078 50.9527 103.054 50.9993 103.017 51.0331C102.979 51.0669 102.93 51.0855 102.88 51.0853ZM99.3205 50.6789H102.677V46.4815H99.3042L99.3205 50.6789Z" fill="#D1D3D4"/>
<path d="M79.0283 59.6833H75.2697C75.2158 59.6833 75.1641 59.6619 75.126 59.6238C75.0879 59.5857 75.0665 59.534 75.0665 59.4801V54.8764C75.0665 54.8225 75.0879 54.7708 75.126 54.7327C75.1641 54.6946 75.2158 54.6732 75.2697 54.6732H79.0283C79.0821 54.6732 79.1338 54.6946 79.1719 54.7327C79.21 54.7708 79.2314 54.8225 79.2314 54.8764V59.4801C79.2314 59.534 79.21 59.5857 79.1719 59.6238C79.1338 59.6619 79.0821 59.6833 79.0283 59.6833ZM75.4729 59.277H78.8251V55.0795H75.4729V59.277Z" fill="#D1D3D4"/>
<path d="M86.9802 59.6833H83.2176C83.164 59.6822 83.1129 59.6605 83.0751 59.6226C83.0372 59.5848 83.0154 59.5337 83.0144 59.4801V54.8764C83.0144 54.8225 83.0358 54.7708 83.0739 54.7327C83.112 54.6946 83.1637 54.6732 83.2176 54.6732H86.9802C87.0341 54.6732 87.0858 54.6946 87.1239 54.7327C87.162 54.7708 87.1834 54.8225 87.1834 54.8764V59.4801C87.1823 59.5337 87.1606 59.5848 87.1227 59.6226C87.0848 59.6605 87.0338 59.6822 86.9802 59.6833ZM83.4207 59.277H86.777V55.0795H83.4207V59.277Z" fill="#D1D3D4"/>
<path d="M94.928 59.6833H91.1776C91.1237 59.6833 91.072 59.6619 91.0339 59.6238C90.9958 59.5857 90.9744 59.534 90.9744 59.4801V54.8764C90.9744 54.8225 90.9958 54.7708 91.0339 54.7327C91.072 54.6946 91.1237 54.6732 91.1776 54.6732H94.9362C94.99 54.6732 95.0417 54.6946 95.0798 54.7327C95.1179 54.7708 95.1393 54.8225 95.1393 54.8764V59.4801C95.1393 59.5075 95.1338 59.5346 95.1231 59.5598C95.1124 59.585 95.0967 59.6078 95.077 59.6267C95.0572 59.6457 95.0339 59.6605 95.0083 59.6702C94.9827 59.6799 94.9554 59.6844 94.928 59.6833ZM91.3726 59.277H94.7249V55.0795H91.3726V59.277Z" fill="#D1D3D4"/>
<path d="M102.88 59.6833H99.1173C99.0638 59.6822 99.0127 59.6605 98.9748 59.6226C98.9369 59.5848 98.9152 59.5337 98.9142 59.4801V54.8764C98.9142 54.8225 98.9355 54.7708 98.9737 54.7327C99.0118 54.6946 99.0634 54.6732 99.1173 54.6732H102.88C102.934 54.6732 102.986 54.6946 103.024 54.7327C103.062 54.7708 103.083 54.8225 103.083 54.8764V59.4801C103.083 59.534 103.062 59.5857 103.024 59.6238C102.986 59.6619 102.934 59.6833 102.88 59.6833ZM99.3205 59.277H102.677V55.0795H99.3042L99.3205 59.277Z" fill="#D1D3D4"/>
<path d="M120.726 62.8852H116.967C116.914 62.8852 116.862 62.8638 116.824 62.8257C116.786 62.7876 116.764 62.7359 116.764 62.682V58.0783C116.764 58.0244 116.786 57.9727 116.824 57.9346C116.862 57.8965 116.914 57.8751 116.967 57.8751H120.726C120.78 57.8751 120.832 57.8965 120.87 57.9346C120.908 57.9727 120.929 58.0244 120.929 58.0783V62.6861C120.928 62.7393 120.906 62.7899 120.868 62.8271C120.83 62.8644 120.779 62.8852 120.726 62.8852ZM117.171 62.4789H120.523V58.2815H117.183L117.171 62.4789Z" fill="#D1D3D4"/>
<path d="M121.795 80.5646H118.036C117.982 80.5646 117.931 80.5432 117.892 80.5051C117.854 80.467 117.833 80.4153 117.833 80.3614V75.774C117.833 75.7201 117.854 75.6684 117.892 75.6303C117.931 75.5922 117.982 75.5708 118.036 75.5708H121.795C121.849 75.5708 121.9 75.5922 121.938 75.6303C121.976 75.6684 121.998 75.7201 121.998 75.774V80.3777C121.994 80.4287 121.971 80.4763 121.933 80.511C121.895 80.5456 121.846 80.5648 121.795 80.5646ZM118.239 80.1583H121.592V75.9771H118.239V80.1583Z" fill="#D1D3D4"/>
<path d="M115.692 50.5286H111.933C111.879 50.5286 111.827 50.5072 111.789 50.4691C111.751 50.431 111.73 50.3793 111.73 50.3254V45.7257C111.73 45.6719 111.751 45.6202 111.789 45.5821C111.827 45.544 111.879 45.5226 111.933 45.5226H115.692C115.745 45.5226 115.797 45.544 115.835 45.5821C115.873 45.6202 115.895 45.6719 115.895 45.7257V50.3254C115.895 50.3793 115.873 50.431 115.835 50.4691C115.797 50.5072 115.745 50.5286 115.692 50.5286ZM112.136 50.1223H115.488V45.9289H112.136V50.1223Z" fill="#D1D3D4"/>
<path d="M82.2789 78.2973H78.5204C78.4665 78.2973 78.4148 78.2759 78.3767 78.2378C78.3386 78.1997 78.3172 78.148 78.3172 78.0941V73.4904C78.3172 73.4365 78.3386 73.3848 78.3767 73.3467C78.4148 73.3086 78.4665 73.2872 78.5204 73.2872H82.2789C82.3328 73.2872 82.3845 73.3086 82.4226 73.3467C82.4607 73.3848 82.4821 73.4365 82.4821 73.4904V78.0941C82.4821 78.148 82.4607 78.1997 82.4226 78.2378C82.3845 78.2759 82.3328 78.2973 82.2789 78.2973ZM78.7235 77.891H82.0758V73.6936H78.7235V77.891Z" fill="#D1D3D4"/>
<path d="M90.2308 78.2973H86.4682C86.4147 78.2963 86.3636 78.2745 86.3257 78.2366C86.2878 78.1988 86.2661 78.1477 86.265 78.0941V73.4904C86.2661 73.4368 86.2878 73.3858 86.3257 73.3479C86.3636 73.31 86.4147 73.2883 86.4682 73.2872H90.2308C90.2844 73.2883 90.3355 73.31 90.3734 73.3479C90.4112 73.3858 90.433 73.4368 90.434 73.4904V78.0941C90.433 78.1477 90.4112 78.1988 90.3734 78.2366C90.3355 78.2745 90.2844 78.2963 90.2308 78.2973ZM86.6714 77.891H90.0277V73.6936H86.6714V77.891Z" fill="#D1D3D4"/>
<path d="M74.327 78.2973H70.5685C70.5146 78.2973 70.4629 78.2759 70.4248 78.2378C70.3867 78.1997 70.3653 78.148 70.3653 78.0941V73.4904C70.3653 73.4365 70.3867 73.3848 70.4248 73.3467C70.4629 73.3086 70.5146 73.2872 70.5685 73.2872H74.327C74.3809 73.2872 74.4326 73.3086 74.4707 73.3467C74.5088 73.3848 74.5302 73.4365 74.5302 73.4904V78.0941C74.5302 78.148 74.5088 78.1997 74.4707 78.2378C74.4326 78.2759 74.3809 78.2973 74.327 78.2973ZM70.7716 77.891H74.1117V73.6936H70.7594L70.7716 77.891Z" fill="#D1D3D4"/>
<path d="M98.1787 78.2973H94.4283C94.3744 78.2973 94.3227 78.2759 94.2846 78.2378C94.2465 78.1997 94.2251 78.148 94.2251 78.0941V73.4904C94.2251 73.4365 94.2465 73.3848 94.2846 73.3467C94.3227 73.3086 94.3744 73.2872 94.4283 73.2872H98.1868C98.2407 73.2872 98.2924 73.3086 98.3305 73.3467C98.3686 73.3848 98.39 73.4365 98.39 73.4904V78.0941C98.39 78.1215 98.3845 78.1486 98.3738 78.1738C98.3631 78.199 98.3474 78.2218 98.3276 78.2408C98.3079 78.2597 98.2845 78.2745 98.259 78.2842C98.2334 78.294 98.2061 78.2984 98.1787 78.2973ZM94.6233 77.891H97.9755V73.6936H94.6233V77.891Z" fill="#D1D3D4"/>
<path d="M106.131 78.2973H102.368C102.314 78.2963 102.263 78.2745 102.225 78.2366C102.188 78.1988 102.166 78.1477 102.165 78.0941V73.4904C102.166 73.4368 102.188 73.3858 102.225 73.3479C102.263 73.31 102.314 73.2883 102.368 73.2872H106.131C106.184 73.2872 106.236 73.3086 106.274 73.3467C106.312 73.3848 106.334 73.4365 106.334 73.4904V78.0941C106.334 78.148 106.312 78.1997 106.274 78.2378C106.236 78.2759 106.184 78.2973 106.131 78.2973ZM102.571 77.891H105.927V73.6936H102.555L102.571 77.891Z" fill="#D1D3D4"/>
<path d="M12.9791 103.555H10.9068C10.8529 103.555 10.8012 103.533 10.7631 103.495C10.725 103.457 10.7036 103.406 10.7036 103.352C10.7047 103.298 10.7264 103.247 10.7643 103.209C10.8021 103.171 10.8532 103.15 10.9068 103.149H12.9791C13.033 103.149 13.0846 103.17 13.1227 103.208C13.1608 103.246 13.1822 103.298 13.1822 103.352C13.1822 103.406 13.1608 103.457 13.1227 103.495C13.0846 103.533 13.033 103.555 12.9791 103.555Z" fill="#D1D3D4"/>
<path d="M77.9515 106.529H75.8914C75.8375 106.529 75.7858 106.508 75.7477 106.47C75.7096 106.432 75.6882 106.38 75.6882 106.326C75.6882 106.272 75.7096 106.221 75.7477 106.182C75.7858 106.144 75.8375 106.123 75.8914 106.123H77.9515C78.0051 106.124 78.0561 106.146 78.094 106.184C78.1319 106.221 78.1536 106.273 78.1547 106.326C78.1547 106.38 78.1333 106.432 78.0952 106.47C78.0571 106.508 78.0054 106.529 77.9515 106.529Z" fill="#D1D3D4"/>
<path d="M76.8056 92.3482H74.518C74.4641 92.3482 74.4124 92.3268 74.3743 92.2887C74.3362 92.2506 74.3148 92.1989 74.3148 92.1451C74.3148 92.0912 74.3362 92.0395 74.3743 92.0014C74.4124 91.9633 74.4641 91.9419 74.518 91.9419H76.8056C76.8595 91.9419 76.9112 91.9633 76.9493 92.0014C76.9874 92.0395 77.0088 92.0912 77.0088 92.1451C77.0088 92.1989 76.9874 92.2506 76.9493 92.2887C76.9112 92.3268 76.8595 92.3482 76.8056 92.3482Z" fill="#D1D3D4"/>
<path d="M45.9163 96.4644H43.6368C43.5829 96.4644 43.5312 96.443 43.4931 96.4049C43.455 96.3668 43.4336 96.3152 43.4336 96.2613C43.4336 96.2074 43.455 96.1557 43.4931 96.1176C43.5312 96.0795 43.5829 96.0581 43.6368 96.0581H45.9244C45.9783 96.0581 46.03 96.0795 46.0681 96.1176C46.1062 96.1557 46.1276 96.2074 46.1276 96.2613C46.1276 96.2886 46.1221 96.3157 46.1114 96.3409C46.1007 96.3661 46.085 96.3889 46.0652 96.4079C46.0455 96.4269 46.0221 96.4416 45.9965 96.4514C45.9709 96.4611 45.9436 96.4655 45.9163 96.4644Z" fill="#D1D3D4"/>
<path d="M131.721 93.0308H130.592C130.538 93.0308 130.486 93.0094 130.448 92.9713C130.41 92.9332 130.389 92.8816 130.389 92.8277C130.389 92.7738 130.41 92.7221 130.448 92.684C130.486 92.6459 130.538 92.6245 130.592 92.6245H131.738C131.792 92.6245 131.843 92.6459 131.881 92.684C131.919 92.7221 131.941 92.7738 131.941 92.8277C131.941 92.8816 131.919 92.9332 131.881 92.9713C131.843 93.0094 131.792 93.0308 131.738 93.0308H131.721Z" fill="#D1D3D4"/>
</g>
<defs>
<clipPath id="clip0_39_764">
<rect width="140" height="140" rx="70" fill="white"/>
</clipPath>
</defs>
</svg>
