<svg width="48" height="48" viewBox="0 0 48 48" fill="none" xmlns="http://www.w3.org/2000/svg">
<circle cx="24" cy="24" r="24" fill="#A2B13A"/>
<path d="M24.2 25C24.97 25 25.6294 24.7256 26.1782 24.1768C26.7261 23.6289 27 22.97 27 22.2C27 21.43 26.7261 20.7706 26.1782 20.2218C25.6294 19.6739 24.97 19.4 24.2 19.4C23.43 19.4 22.7711 19.6739 22.2232 20.2218C21.6744 20.7706 21.4 21.43 21.4 22.2C21.4 22.97 21.6744 23.6289 22.2232 24.1768C22.7711 24.7256 23.43 25 24.2 25ZM24.2 35.29C27.0467 32.6767 29.1583 30.3023 30.535 28.1668C31.9117 26.0323 32.6 24.1367 32.6 22.48C32.6 19.9367 31.7889 17.8539 30.1668 16.2318C28.5456 14.6106 26.5567 13.8 24.2 13.8C21.8433 13.8 19.8539 14.6106 18.2318 16.2318C16.6106 17.8539 15.8 19.9367 15.8 22.48C15.8 24.1367 16.4883 26.0323 17.865 28.1668C19.2417 30.3023 21.3533 32.6767 24.2 35.29ZM24.2 39C20.4433 35.8033 17.6377 32.8339 15.7832 30.0918C13.9277 27.3506 13 24.8133 13 22.48C13 18.98 14.1261 16.1917 16.3782 14.115C18.6294 12.0383 21.2367 11 24.2 11C27.1633 11 29.7706 12.0383 32.0218 14.115C34.2739 16.1917 35.4 18.98 35.4 22.48C35.4 24.8133 34.4727 27.3506 32.6182 30.0918C30.7627 32.8339 27.9567 35.8033 24.2 39Z" fill="white"/>
</svg>
