<svg width="72" height="72" viewBox="0 0 72 72" fill="none" xmlns="http://www.w3.org/2000/svg">
<path d="M14.71 31.9746L18.2626 34.1015L15.8257 37.1078L12.4165 35.2056L14.71 31.9746Z" fill="#CD8B4B"/>
<path d="M15.8257 37.4836C15.7594 37.4816 15.6945 37.4644 15.6359 37.4333L12.2306 35.5466C12.1826 35.5199 12.1409 35.4832 12.1082 35.4392C12.0754 35.3951 12.0525 35.3445 12.0407 35.2909C12.0287 35.2378 12.028 35.1827 12.0387 35.1293C12.0494 35.0759 12.0712 35.0254 12.1027 34.981L14.3923 31.75C14.4487 31.6703 14.5331 31.6148 14.6287 31.5947C14.7242 31.5746 14.8238 31.5913 14.9076 31.6415L18.4601 33.7684C18.5075 33.7968 18.5483 33.835 18.5797 33.8804C18.6111 33.9258 18.6324 33.9775 18.6422 34.0318C18.6521 34.0869 18.65 34.1435 18.6359 34.1976C18.6219 34.2518 18.5963 34.3023 18.5609 34.3456L16.1279 37.3519C16.0903 37.3948 16.0438 37.4288 15.9915 37.4515C15.9393 37.4743 15.8827 37.4853 15.8257 37.4836ZM12.9821 35.0623L15.7289 36.612L17.6659 34.2061L14.8223 32.4899L12.9821 35.0623Z" fill="#093F68"/>
<path d="M40.7246 46.2896L42.3595 49.0712C42.3595 49.0712 43.3668 50.6208 43.4249 51.601C43.483 52.5811 43.1886 54.1889 40.8602 54.8901C38.5978 55.5758 36.9319 47.3084 36.9319 47.3084L40.7246 46.2896Z" fill="#CD8B4B"/>
<path d="M40.5968 55.3047C40.3349 55.3019 40.0788 55.2269 39.8568 55.0878C37.9198 53.9255 36.6878 48.0369 36.5522 47.3705C36.5331 47.2742 36.5513 47.1742 36.6031 47.0908C36.6548 47.0074 36.7364 46.9467 36.8311 46.9211L40.6239 45.9022C40.7058 45.8804 40.7925 45.886 40.8709 45.9182C40.9493 45.9504 41.0149 46.0074 41.0578 46.0804L42.6927 48.8582C42.7275 48.9124 43.7503 50.4892 43.8084 51.5701C43.8665 52.6509 43.576 54.4679 40.9726 55.2543C40.8505 55.2899 40.7239 55.3069 40.5968 55.3047ZM37.389 47.5565C37.8113 49.4935 38.9387 53.6272 40.252 54.4059C40.3236 54.4551 40.405 54.4882 40.4906 54.503C40.5762 54.5177 40.664 54.5136 40.7479 54.4911C42.7392 53.8868 43.0917 52.5812 43.0375 51.5894C42.9949 50.8727 42.3014 49.6524 42.0341 49.265L40.5387 46.7236L37.389 47.5565Z" fill="#093F68"/>
<path d="M29.8771 48.8037L29.9779 43.7248L20.9202 42.7795C20.9202 42.6245 20.9202 42.4735 20.9202 42.334L17.573 42.4308L17.3986 42.4115V42.4347L15.663 44.027C15.8451 50.2255 15.7405 56.1219 15.5313 57.4236C15.1168 58.5278 12.2383 62.3825 9.76663 65.3423L13.9274 68.829C16.8136 65.3772 20.3507 60.8057 20.8233 58.6362C21.0674 57.5205 21.1139 54.0919 21.0829 50.5006L24.957 50.6827C24.957 50.6827 28.4708 56.5713 29.4897 57.997C28.9125 59.5699 27.4636 63.0527 26.1812 66.0009L31.1556 68.1627C32.4999 65.0634 34.7895 59.69 35.0297 58.3496C35.2621 57.1912 36.7498 55.8198 29.8771 48.8037Z" fill="#A2B13A"/>
<path d="M13.9158 69.2053C13.8253 69.2055 13.7376 69.174 13.6679 69.1162L9.50706 65.6295C9.46783 65.597 9.43541 65.5571 9.41164 65.512C9.38787 65.4669 9.37323 65.4176 9.36855 65.3669C9.36387 65.3161 9.36925 65.265 9.38437 65.2163C9.3995 65.1676 9.42407 65.1224 9.45669 65.0833C12.1027 61.9104 14.7371 58.3113 15.1439 57.3118C15.3453 55.9481 15.4383 50.0362 15.264 44.0275C15.263 43.9721 15.2739 43.9172 15.296 43.8664C15.318 43.8156 15.3507 43.7702 15.3918 43.7331L17.0732 42.1834C17.0957 42.1639 17.1204 42.147 17.1468 42.1331C17.1865 42.0954 17.2334 42.0661 17.2846 42.0468C17.3358 42.0275 17.3904 42.0186 17.4451 42.0207H17.5962L20.9163 41.9277C21.0191 41.9277 21.1176 41.9686 21.1903 42.0412C21.2629 42.1139 21.3037 42.2124 21.3037 42.3151V42.4236L30.0243 43.334C30.1195 43.3446 30.2075 43.39 30.2711 43.4615C30.3348 43.5331 30.3697 43.6257 30.3691 43.7214L30.2723 48.6377C36.4515 54.9757 35.8897 56.8353 35.5178 58.0673C35.483 58.1874 35.4481 58.2997 35.4249 58.4121C35.1769 59.7215 33.1585 64.5138 31.512 68.3027C31.4711 68.3965 31.3948 68.4703 31.2998 68.508C31.2047 68.5457 31.0985 68.5444 31.0045 68.5041L26.0301 66.3462C25.9832 66.326 25.9408 66.2967 25.9052 66.26C25.8697 66.2234 25.8417 66.18 25.823 66.1325C25.8043 66.0849 25.7952 66.0342 25.7961 65.9831C25.7971 65.932 25.8082 65.8816 25.8287 65.8349C26.9677 63.2121 28.4127 59.7603 29.0558 58.044C28.0214 56.537 25.3134 52.0198 24.7284 51.0474L21.4664 50.8963C21.4936 55.1191 21.4006 57.7418 21.1952 58.6988C20.8078 60.5002 18.4524 63.983 14.2218 69.0543C14.1858 69.1011 14.1394 69.1391 14.0864 69.1653C14.0333 69.1915 13.975 69.2052 13.9158 69.2053ZM10.2974 65.2925L13.8693 68.2717C17.7434 63.5879 20.0679 60.1361 20.432 58.5438C20.5715 57.9046 20.7304 55.9946 20.6839 50.505C20.6835 50.4522 20.694 50.3998 20.7147 50.3512C20.7353 50.3026 20.7657 50.2587 20.804 50.2222C20.8414 50.1861 20.8857 50.1578 20.9343 50.1392C20.9829 50.1205 21.0348 50.1119 21.0868 50.1137L24.9609 50.2958C25.0251 50.298 25.0878 50.3162 25.1432 50.3487C25.1987 50.3811 25.2452 50.4269 25.2786 50.4818C25.3134 50.5438 28.7962 56.3782 29.7919 57.7728C29.8291 57.8242 29.8532 57.8839 29.862 57.9467C29.8708 58.0095 29.864 58.0735 29.8423 58.1331C29.2611 59.7138 27.8432 63.1114 26.681 65.8L30.9425 67.6518C33.1236 62.6155 34.4718 59.2063 34.65 58.2765C34.6798 58.1338 34.7174 57.9928 34.7624 57.8542C35.0646 56.8547 35.5682 55.1811 29.5904 49.0755C29.5541 49.0388 29.5254 48.9952 29.5061 48.9473C29.4868 48.8994 29.4773 48.8482 29.4781 48.7965L29.5827 44.0701L20.8814 43.1597C20.7863 43.1492 20.6983 43.1037 20.6347 43.0322C20.571 42.9607 20.5361 42.8681 20.5366 42.7723V42.7103L17.5768 42.7955H17.5342L16.0311 44.1747C16.2054 50.4004 16.1008 56.1573 15.8916 57.4668C15.8934 57.4926 15.8934 57.5185 15.8916 57.5443C15.4538 58.6988 12.7032 62.3869 10.2974 65.2925Z" fill="#093F68"/>
<path d="M41.4181 47.1264C41.4181 47.1264 39.5237 31.9747 35.4985 30.3941C31.1401 28.6779 26.2006 26.9926 26.2006 26.9926C25.7008 26.8454 12.3352 21.5418 9.4722 26.5355C8.1705 28.8057 8.37583 30.7273 8.77873 31.9592C9.77438 34.9694 12.8388 36.3757 13.1875 36.5268L15.8141 31.9399C15.3105 31.7074 13.1294 30.3902 14.1018 29.3907C15.0742 28.3912 19.6689 30.2081 19.6689 30.2081L16.6199 40.2808L31.4152 44.6082L33.8055 37.3752L36.3624 49.0712L41.4181 47.1264Z" fill="#A2B13A"/>
<path d="M36.3547 49.4588C36.2911 49.4585 36.2285 49.4425 36.1726 49.4123C36.1235 49.3856 36.0807 49.3485 36.0473 49.3037C36.0139 49.2589 35.9905 49.2074 35.9789 49.1527L33.7203 38.8437L31.7832 44.7014C31.7512 44.7963 31.6837 44.8751 31.5949 44.9214C31.5061 44.9676 31.4028 44.9776 31.3067 44.9493L16.5231 40.622C16.4737 40.6074 16.4276 40.5831 16.3877 40.5505C16.3478 40.5179 16.3148 40.4776 16.2906 40.4321C16.2437 40.3414 16.2326 40.2362 16.2597 40.1377L19.204 30.4214C17.1817 29.6466 14.8533 29.1662 14.3923 29.6466C14.341 29.6901 14.3018 29.7461 14.2787 29.8093C14.2556 29.8725 14.2494 29.9406 14.2606 30.0069C14.3691 30.5996 15.5429 31.3667 15.9885 31.5565C16.037 31.579 16.0804 31.6113 16.1159 31.6514C16.1513 31.6915 16.1781 31.7386 16.1945 31.7895C16.2109 31.8405 16.2165 31.8943 16.211 31.9475C16.2056 32.0008 16.1892 32.0523 16.1628 32.0989L13.5323 36.7091C13.4849 36.7913 13.4091 36.8532 13.3191 36.8832C13.2292 36.9132 13.1313 36.9091 13.0441 36.8718C12.68 36.713 9.47221 35.2369 8.42232 32.0679C7.99617 30.7817 7.77535 28.7439 9.14679 26.3536C11.603 22.0688 20.7924 24.6258 26.0534 26.5357C26.1967 26.5861 26.2858 26.6209 26.3207 26.6287C26.3556 26.6364 31.3222 28.341 35.6418 30.0379C39.8297 31.6883 41.7242 46.4602 41.8055 47.084C41.8163 47.1703 41.7977 47.2578 41.7528 47.3323C41.7078 47.4068 41.639 47.464 41.5576 47.4946L36.4941 49.4317C36.45 49.4503 36.4025 49.4595 36.3547 49.4588ZM33.8055 36.988C33.8904 36.9919 33.9716 37.0236 34.0367 37.0782C34.1018 37.1328 34.1472 37.2073 34.1658 37.2902L36.6258 48.5484L40.9842 46.8748C40.407 42.5164 38.3963 31.9517 35.3474 30.7546C31.0432 29.0616 26.127 27.3764 26.0766 27.3609L25.7783 27.2563C17.2166 24.157 11.3976 23.9594 9.80925 26.7294C8.57729 28.8718 8.771 30.681 9.14679 31.8161C9.94873 34.2374 12.1725 35.5662 13.0209 36.004L15.295 32.0602C14.7178 31.7192 13.6601 30.9909 13.5013 30.1231C13.4646 29.9351 13.4763 29.7408 13.5353 29.5585C13.5942 29.3763 13.6985 29.2119 13.8383 29.081C14.0282 28.8834 15.2253 27.9924 19.8238 29.8132C19.9134 29.8488 19.9865 29.9167 20.0288 30.0034C20.0711 30.09 20.0795 30.1894 20.0524 30.282L17.1158 39.9672L31.175 44.0815L33.4181 37.2515C33.445 37.1713 33.4975 37.1021 33.5674 37.0546C33.6374 37.007 33.721 36.9836 33.8055 36.988Z" fill="#093F68"/>
<path d="M27.5269 26.6323L30.3064 27.3501L29.8986 28.9293C29.8605 29.0873 29.7912 29.2361 29.6947 29.367C29.5983 29.4978 29.4767 29.6081 29.337 29.6913C29.1974 29.7745 29.0425 29.829 28.8815 29.8515C28.7206 29.8741 28.5567 29.8642 28.3996 29.8226L27.9869 29.716C27.6736 29.6351 27.4052 29.433 27.2408 29.1542C27.0764 28.8754 27.0296 28.5427 27.1105 28.2293L27.5232 26.6313L27.5269 26.6323Z" fill="#CD8B4B"/>
<path d="M28.7188 30.2467C28.588 30.2461 28.4579 30.2291 28.3314 30.1963L27.913 30.0878C27.5029 29.9836 27.1507 29.7214 26.933 29.3586C26.7153 28.9958 26.6498 28.5617 26.7507 28.1508L27.1614 26.5508C27.1872 26.4515 27.2513 26.3665 27.3396 26.3145C27.3834 26.2883 27.432 26.2711 27.4826 26.2638C27.5331 26.2564 27.5846 26.2592 27.634 26.2718L30.4156 26.9886C30.5147 27.0149 30.5992 27.0795 30.6508 27.1681C30.7023 27.2566 30.7167 27.3621 30.6907 27.4612L30.28 29.0612C30.1899 29.4043 29.9893 29.7082 29.7092 29.926C29.4291 30.1437 29.0852 30.2632 28.7304 30.266L28.7188 30.2467ZM28.5096 29.4447C28.6183 29.4733 28.7318 29.4795 28.843 29.4628C28.9542 29.4462 29.0609 29.4071 29.1566 29.3479C29.2519 29.2936 29.3353 29.2207 29.4019 29.1335C29.4684 29.0463 29.5167 28.9466 29.544 28.8404L29.8616 27.6162L27.8316 27.0893L27.5139 28.3174C27.4593 28.5301 27.4914 28.7558 27.603 28.945C27.6576 29.0408 27.731 29.1246 27.8189 29.1912C27.9068 29.2578 28.0074 29.3059 28.1144 29.3324L28.5096 29.4447Z" fill="#093F68"/>
<path d="M40.1303 21.922C40.462 20.6375 39.7988 19.3556 38.6491 19.0587C37.4993 18.7618 36.2983 19.5623 35.9666 20.8467C35.635 22.1311 36.2981 23.4131 37.4479 23.71C38.5977 24.0069 39.7986 23.2064 40.1303 21.922Z" fill="#CD8B4B"/>
<path d="M37.9275 24.1568C37.7315 24.1572 37.5362 24.1324 37.3464 24.0832C37.0133 23.9958 36.7028 23.8383 36.4355 23.6211C36.1683 23.404 35.9505 23.1322 35.7968 22.8241C35.4798 22.1791 35.4045 21.442 35.5843 20.7462C35.7641 20.0504 36.1872 19.442 36.7769 19.0314C37.06 18.8369 37.3811 18.705 37.7191 18.6442C38.0571 18.5834 38.4041 18.5952 38.7372 18.6788C40.0931 19.0275 40.8835 20.5268 40.4999 22.0144C40.3654 22.6042 40.0407 23.1334 39.5759 23.5205C39.1111 23.9076 38.5319 24.1312 37.9275 24.1568ZM38.1561 19.38C37.8183 19.3829 37.4891 19.4868 37.2108 19.6783C36.778 19.9811 36.4675 20.4285 36.3354 20.9399C36.2033 21.4514 36.2582 21.9932 36.4902 22.4677C36.593 22.6786 36.7399 22.8649 36.9211 23.014C37.1023 23.163 37.3134 23.2714 37.5401 23.3316C38.4815 23.5757 39.4772 22.8977 39.7522 21.8207C40.0312 20.7437 39.4888 19.6706 38.5474 19.4304C38.4198 19.3963 38.2882 19.3793 38.1561 19.38Z" fill="#093F68"/>
<path d="M24.1551 9.73733C23.419 12.0308 22.218 16.0831 22.3846 18.396C22.6945 22.3824 25.0965 26.6943 28.6645 27.6202C30.0735 28.0095 31.565 27.9821 32.9587 27.5414C34.3524 27.1007 35.5885 26.2655 36.5174 25.1369C37.4172 24.0642 38.0599 22.8001 38.3963 21.441C38.3963 21.441 38.8883 20.55 39.6554 16.7921C40.4225 13.0342 40.7789 11.0235 33.9411 8.04047C28.6607 5.716 24.895 7.44773 24.1551 9.73733Z" fill="#CD8B4B"/>
<path d="M30.7062 28.2713C29.9873 28.2685 29.2715 28.1761 28.5754 27.9962C25.6195 27.2214 22.4156 23.6998 21.9894 18.4272C21.8539 16.68 22.4388 13.7783 23.7793 9.62134C23.9844 9.06468 24.3043 8.55735 24.7181 8.13222C25.1318 7.7071 25.6303 7.37366 26.1812 7.15353C27.4132 6.59566 30.0786 5.92544 34.0883 7.68041C41.2554 10.8107 40.7944 13.1042 40.0273 16.8543C39.3455 20.2132 38.8651 21.3405 38.7527 21.5807C38.398 22.9771 37.7363 24.2768 36.8157 25.3851C36.0725 26.2862 35.1396 27.0121 34.0835 27.5111C33.0274 28.01 31.8742 28.2696 30.7062 28.2713ZM29.1992 7.35111C28.2771 7.335 27.362 7.51458 26.5144 7.87799C26.0626 8.05351 25.6528 8.32224 25.3117 8.66667C24.9706 9.01109 24.7059 9.4235 24.5347 9.87703C24.0505 11.3763 22.5977 15.94 22.7759 18.4001C23.0587 22.0262 25.2553 26.3691 28.7691 27.2757C30.108 27.643 31.5244 27.6157 32.8481 27.1971C34.1718 26.7786 35.3464 25.9866 36.2307 24.9163C37.0898 23.8871 37.7044 22.6764 38.0283 21.3754C38.0371 21.3441 38.0502 21.3141 38.067 21.2863C38.067 21.2863 38.5513 20.3449 39.2835 16.7303C40.0583 13.0034 40.3876 11.3066 33.7939 8.42036C32.3503 7.74661 30.7839 7.3761 29.1914 7.33174L29.1992 7.35111Z" fill="#093F68"/>
<path d="M33.9488 22.5064C33.1043 21.9447 30.59 20.9568 29.0791 21.2861C27.0916 21.7045 27.5604 23.3432 26.3013 22.5064C25.4258 21.9253 25.1623 21.7665 24.8292 20.7592C24.3875 19.4459 25.0074 18.0008 25.2979 16.6991C25.4276 16.2424 25.4735 15.7659 25.4335 15.2928C25.3703 14.916 25.199 14.5656 24.9404 14.2843C24.6818 14.003 24.3471 13.8029 23.9769 13.7083C21.3657 13.0884 21.4238 16.858 21.2069 18.4463L22.3304 18.733L22.063 19.6396C22.1822 21.4934 22.8827 23.2625 24.0651 24.6952C25.2475 26.128 26.8515 27.1515 28.649 27.6202C30.0602 28.0128 31.5549 27.987 32.9517 27.5462C34.3485 27.1054 35.5872 26.2684 36.5173 25.1369C36.1569 25.11 35.7986 25.0608 35.4442 24.9897C34.4408 24.7689 35.1769 24.0444 34.5687 23.1108C34.4062 22.8685 34.1951 22.6627 33.9488 22.5064Z" fill="#725858"/>
<path d="M30.7062 28.2711C29.9873 28.2684 29.2715 28.176 28.5754 27.9961C26.6912 27.5165 25.0078 26.4512 23.7678 24.9536C22.5278 23.456 21.7952 21.6035 21.6756 19.6628C21.6661 19.6168 21.6661 19.5694 21.6756 19.5234L21.8306 19.0004L21.0945 18.8105C21.0029 18.7868 20.9232 18.7303 20.8704 18.6518C20.8176 18.5733 20.7953 18.4782 20.8078 18.3844C20.835 18.1752 20.8582 17.9234 20.8853 17.6522C21.017 16.2691 21.1991 14.3786 22.2955 13.5921C22.5501 13.4206 22.8395 13.3077 23.143 13.2615C23.4464 13.2152 23.7564 13.2369 24.0505 13.3248C24.4961 13.4378 24.8991 13.6782 25.2102 14.0168C25.5212 14.3553 25.7267 14.7773 25.8016 15.2309C25.8501 15.7518 25.8015 16.2773 25.6582 16.7805C25.5962 17.0711 25.5149 17.3733 25.4297 17.6754C25.1585 18.6788 24.8757 19.721 25.1817 20.6353C25.4878 21.5495 25.6389 21.6115 26.464 22.1578L26.4989 22.181C26.8592 22.4173 26.8592 22.4173 27.1343 22.0764C27.5775 21.4636 28.2415 21.0469 28.9861 20.9142C30.6016 20.5733 33.205 21.5612 34.1464 22.1849C34.4367 22.3715 34.6858 22.6154 34.8786 22.9016C35.1185 23.281 35.2387 23.7237 35.2234 24.1723C35.2234 24.5597 35.2234 24.5597 35.514 24.6178C35.8517 24.6842 36.1933 24.7295 36.5367 24.7534C36.6074 24.7595 36.6751 24.7848 36.7324 24.8268C36.7897 24.8687 36.8344 24.9255 36.8615 24.991C36.8887 25.0566 36.8974 25.1284 36.8866 25.1985C36.8757 25.2686 36.8458 25.3345 36.8002 25.3888C36.0583 26.2872 35.1277 27.0112 34.0745 27.5093C33.0213 28.0075 31.8713 28.2676 30.7062 28.2711ZM22.4543 19.6822C22.5786 21.4464 23.2557 23.1266 24.3893 24.4842C25.5229 25.8417 27.0554 26.8075 28.7691 27.2445C29.988 27.5817 31.2742 27.5921 32.4983 27.2745C33.7224 26.9569 34.8414 26.3225 35.7425 25.4353L35.39 25.3694C34.5261 25.1757 34.5067 24.5946 34.4951 24.2072C34.5081 23.9008 34.4299 23.5974 34.2704 23.3355C34.1356 23.138 33.9615 22.9705 33.759 22.8435C32.9067 22.274 30.5202 21.4023 29.1875 21.6813C28.905 21.7311 28.6352 21.8365 28.3938 21.9915C28.1524 22.1464 27.9442 22.3478 27.7812 22.5839C27.4791 22.9713 27.0645 23.475 26.1115 22.8435L26.0766 22.8202C25.2166 22.2508 24.8602 22.0144 24.4882 20.8832C24.1163 19.752 24.434 18.5394 24.7246 17.4779C24.8059 17.1834 24.8834 16.8967 24.9454 16.6139C25.0662 16.2045 25.1109 15.7765 25.0771 15.351C25.0245 15.0509 24.8871 14.7722 24.6811 14.5477C24.4752 14.3232 24.2093 14.1624 23.9149 14.0841C23.7284 14.0238 23.5309 14.0057 23.3365 14.0312C23.1422 14.0566 22.956 14.125 22.7914 14.2313C21.9817 14.8086 21.8151 16.5558 21.7028 17.718C21.7028 17.8653 21.6756 18.0047 21.664 18.1403L22.4388 18.3457C22.489 18.3584 22.5361 18.3811 22.5774 18.4124C22.6186 18.4437 22.6532 18.4829 22.679 18.5277C22.7049 18.5731 22.7214 18.6233 22.7274 18.6753C22.7334 18.7272 22.7288 18.7798 22.7139 18.8299L22.4543 19.6822Z" fill="#093F68"/>
<path d="M29.8843 17.9719C29.9918 17.5555 29.7414 17.1307 29.325 17.0232C28.9086 16.9157 28.4839 17.1661 28.3763 17.5825C28.2688 17.9989 28.5192 18.4236 28.9356 18.5311C29.352 18.6387 29.7767 18.3883 29.8843 17.9719Z" fill="#093F68"/>
<path d="M35.4985 20.2981C35.9285 20.2981 36.2772 19.9495 36.2772 19.5194C36.2772 19.0894 35.9285 18.7407 35.4985 18.7407C35.0684 18.7407 34.7198 19.0894 34.7198 19.5194C34.7198 19.9495 35.0684 20.2981 35.4985 20.2981Z" fill="#093F68"/>
<path d="M32.3255 20.9647H32.2558C31.604 20.8813 30.9651 20.7173 30.3536 20.4766C30.2582 20.4394 30.1815 20.3659 30.1401 20.2723C30.0987 20.1786 30.0961 20.0724 30.1328 19.9768C30.1512 19.9291 30.1789 19.8856 30.2142 19.8486C30.2495 19.8117 30.2918 19.7821 30.3386 19.7616C30.3855 19.741 30.4359 19.73 30.487 19.729C30.5381 19.7281 30.5889 19.7372 30.6364 19.756C31.1371 19.9505 31.6564 20.0933 32.1861 20.1821C32.1222 19.5751 31.964 18.9817 31.7173 18.4233C31.6783 18.3283 31.6786 18.2216 31.7182 18.1268C31.7578 18.032 31.8334 17.9568 31.9284 17.9177C32.0235 17.8787 32.1301 17.879 32.225 17.9186C32.3198 17.9582 32.395 18.0338 32.434 18.1289C32.7362 18.8688 33.1895 20.1899 32.8214 20.7168C32.7641 20.7942 32.6893 20.857 32.6032 20.9001C32.517 20.9432 32.4219 20.9653 32.3255 20.9647Z" fill="#093F68"/>
<path d="M30.1057 16.4746C30.1057 16.4746 29.8771 16.0523 28.9667 15.8043C28.7692 15.7264 28.5529 15.7095 28.3458 15.7558C28.1386 15.8021 27.95 15.9094 27.8045 16.0639C27.6843 16.228 27.5044 16.3383 27.3036 16.3709C27.1028 16.4035 26.8973 16.3559 26.7313 16.2382C26.6482 16.1789 26.5775 16.1038 26.5235 16.017C26.4695 15.9303 26.4331 15.8338 26.4166 15.7329C26.4 15.6321 26.4035 15.529 26.427 15.4296C26.4504 15.3301 26.4933 15.2363 26.5531 15.1535C26.8817 14.7416 27.3282 14.4399 27.833 14.289C28.3378 14.138 28.8767 14.145 29.3774 14.3089C31.113 14.7738 31.5352 15.8315 31.5779 15.9516L30.1173 16.4746H30.1057Z" fill="#093F68"/>
<path d="M37.7571 18.7445C37.5594 18.7449 37.369 18.6697 37.225 18.5343C37.081 18.3989 36.9941 18.2135 36.9822 18.0162C36.959 17.9503 36.8273 17.8031 36.4786 17.6947C36.0174 17.5691 35.5272 17.6033 35.0878 17.7915C34.907 17.8724 34.702 17.881 34.5151 17.8155C34.3281 17.75 34.1734 17.6154 34.0826 17.4393C33.9918 17.2632 33.9719 17.0591 34.027 16.8688C34.0821 16.6785 34.208 16.5165 34.3788 16.4162C35.1752 16.034 36.0854 15.9622 36.9319 16.2147C38.2103 16.6022 38.5358 17.5087 38.528 17.9813C38.525 18.1841 38.4425 18.3777 38.2984 18.5204C38.1542 18.6631 37.9599 18.7435 37.7571 18.7445Z" fill="#093F68"/>
<path d="M24.1202 16.2424C24.1202 16.2424 22.4892 14.3518 20.9589 15.855C19.4287 17.3581 19.6843 20.6395 23.202 20.6085L24.1202 16.2424Z" fill="#CD8B4B"/>
<path d="M23.1439 20.9877C21.5594 20.9877 20.3739 20.3213 19.8936 19.1552C19.6603 18.5466 19.6093 17.8832 19.7469 17.2461C19.8845 16.6091 20.2047 16.0259 20.6684 15.5678C20.8792 15.3455 21.1344 15.17 21.4173 15.0525C21.7003 14.935 22.0047 14.8783 22.311 14.8859C23.4732 14.9324 24.3604 15.9436 24.3953 15.9862C24.4342 16.0314 24.4621 16.085 24.4769 16.1428C24.4917 16.2006 24.4929 16.261 24.4805 16.3194L23.5585 20.6816C23.5396 20.7697 23.4905 20.8485 23.4198 20.9043C23.3491 20.9602 23.2611 20.9897 23.1711 20.9877H23.1439ZM22.2335 15.6569C22.0419 15.6628 21.8533 15.7069 21.679 15.7868C21.5047 15.8666 21.3481 15.9805 21.2185 16.1218C20.8661 16.4726 20.6216 16.9169 20.5138 17.4023C20.4061 17.8877 20.4395 18.3938 20.6103 18.8608C20.9473 19.6705 21.7454 20.1431 22.8766 20.2051L23.6902 16.362C23.3133 15.9765 22.8182 15.7283 22.2839 15.6569H22.2335Z" fill="#093F68"/>
<path d="M28.9047 22.9639L31.7212 23.6535C31.7212 23.6535 30.8728 25.8849 29.6757 25.73C28.4786 25.575 28.9047 22.9639 28.9047 22.9639Z" fill="white"/>
<path d="M29.7997 26.1253C29.7429 26.1291 29.686 26.1291 29.6292 26.1253C29.475 26.1068 29.3264 26.0562 29.193 25.9768C29.0595 25.8974 28.9442 25.791 28.8544 25.6643C28.2306 24.8313 28.4902 23.1073 28.5212 22.9136C28.5297 22.8613 28.5489 22.8112 28.5776 22.7666C28.6062 22.7219 28.6437 22.6836 28.6878 22.6541C28.7786 22.5962 28.8887 22.5767 28.9938 22.5998L31.8103 23.2894C31.864 23.3025 31.9142 23.3269 31.9576 23.361C32.001 23.3951 32.0367 23.438 32.0621 23.487C32.0877 23.5356 32.1026 23.589 32.106 23.6438C32.1093 23.6985 32.101 23.7534 32.0815 23.8047C31.9885 24.041 31.1556 26.1253 29.7997 26.1253ZM29.2379 23.4444C29.1876 24.0565 29.2185 24.8468 29.4742 25.1916C29.5029 25.2338 29.5401 25.2694 29.5835 25.2961C29.6269 25.3228 29.6755 25.34 29.7261 25.3466C30.3072 25.4202 30.8883 24.5369 31.1788 23.9209L29.2379 23.4444Z" fill="#093F68"/>
<path d="M41.0378 13.9995L23.698 9.33387L24.2617 7.23888C24.7783 5.31899 26.0364 3.68296 27.7593 2.69068C29.4821 1.69839 31.5286 1.43115 33.4485 1.94774L36.3104 2.7178C38.2303 3.23439 39.8663 4.49248 40.8586 6.21533C41.8509 7.93817 42.1181 9.98464 41.6015 11.9045L41.0378 13.9995Z" fill="#FFBC0E"/>
<path d="M41.0423 14.3827C41.0088 14.3865 40.9751 14.3865 40.9416 14.3827L23.6011 9.73377C23.5027 9.70657 23.4191 9.64168 23.3683 9.55319C23.3176 9.4647 23.3037 9.35975 23.3299 9.26113L23.8916 7.16524C24.4313 5.14225 25.7523 3.41644 27.5642 2.36735C29.3761 1.31827 31.5306 1.03182 33.5537 1.57102L36.4166 2.34585C38.4336 2.89128 40.1519 4.21433 41.1948 6.02486C42.2377 7.8354 42.52 9.98562 41.9799 12.004L41.4181 14.096C41.4049 14.1455 41.382 14.1918 41.3507 14.2324C41.3195 14.273 41.2805 14.3069 41.236 14.3323C41.177 14.3658 41.1102 14.3832 41.0423 14.3827ZM24.1783 9.0558L40.7789 13.5227L41.2438 11.8025C41.7318 9.98193 41.4777 8.04206 40.5371 6.4086C39.5965 4.77514 38.0464 3.58153 36.2268 3.08968L33.3638 2.31485C31.5406 1.82748 29.5984 2.08427 27.9645 3.02874C26.3305 3.97322 25.1386 5.52802 24.651 7.3512L24.1783 9.0558Z" fill="#093F68"/>
<path d="M22.4006 12.459L40.5971 17.3552C41.4917 17.5959 42.4121 17.0658 42.6528 16.1711C42.8936 15.2765 42.3635 14.3561 41.4688 14.1154L23.2724 9.21924C22.3777 8.97852 21.4573 9.50862 21.2166 10.4033C20.9759 11.2979 21.506 12.2183 22.4006 12.459Z" fill="#FFBC0E"/>
<path d="M41.0384 17.7995C40.8565 17.7981 40.6755 17.7734 40.4999 17.7259L22.2916 12.829C22.0265 12.7614 21.7774 12.6418 21.5588 12.4771C21.3403 12.3124 21.1567 12.1059 21.0187 11.8696C20.8807 11.6333 20.791 11.3719 20.7549 11.1007C20.7187 10.8294 20.7369 10.5537 20.8083 10.2895C20.8796 10.0254 21.0028 9.778 21.1706 9.56185C21.3384 9.34569 21.5475 9.16505 21.7857 9.03041C22.024 8.89577 22.2866 8.80983 22.5583 8.77758C22.8301 8.74532 23.1055 8.7674 23.3686 8.84253L41.5769 13.7394C42.0614 13.8686 42.4823 14.1697 42.7611 14.5864C43.0399 15.0031 43.1575 15.5071 43.0921 16.0042C43.0266 16.5013 42.7825 16.9576 42.4054 17.2879C42.0282 17.6183 41.5437 17.8001 41.0423 17.7995H41.0384ZM22.5008 12.0813L40.7091 16.9782C40.8739 17.0261 41.0466 17.0406 41.217 17.0209C41.3875 17.0013 41.5523 16.9478 41.7019 16.8636C41.8514 16.7795 41.9827 16.6664 42.0879 16.5309C42.1932 16.3954 42.2704 16.2402 42.315 16.0745C42.3596 15.9088 42.3706 15.7359 42.3476 15.5659C42.3245 15.3958 42.2677 15.2321 42.1806 15.0843C42.0935 14.9365 41.9777 14.8075 41.8402 14.705C41.7026 14.6024 41.5459 14.5284 41.3794 14.4871L23.1749 9.59024C23.0114 9.54433 22.8402 9.53199 22.6718 9.55396C22.5033 9.57593 22.3411 9.63176 22.1948 9.71808C21.9738 9.84529 21.7955 10.0351 21.6823 10.2636C21.5691 10.4921 21.5262 10.749 21.559 11.0018C21.5917 11.2547 21.6987 11.4922 21.8663 11.6843C22.0339 11.8764 22.2547 12.0146 22.5008 12.0813Z" fill="#093F68"/>
<path d="M35.0026 12.3735L29.7389 10.9572L31.8327 3.17585C32.0196 2.48132 32.4747 1.88947 33.0979 1.5305C33.7212 1.17154 34.4615 1.07486 35.1561 1.26174C35.8506 1.44862 36.4424 1.90375 36.8014 2.527C37.1604 3.15025 37.257 3.89057 37.0702 4.5851L34.9764 12.3665L35.0026 12.3735Z" fill="#FFBC0E"/>
<path d="M35.0026 12.7593C34.9692 12.7647 34.9352 12.7647 34.9019 12.7593L29.6408 11.3453C29.5914 11.3321 29.545 11.3092 29.5044 11.2779C29.4639 11.2466 29.4299 11.2077 29.4045 11.1632C29.3549 11.0734 29.3411 10.9683 29.3658 10.8688L31.481 3.07406C31.5857 2.67869 31.7676 2.30796 32.0162 1.98322C32.2649 1.65849 32.5753 1.38617 32.9297 1.18198C33.2841 0.977784 33.6753 0.845748 34.081 0.79348C34.4866 0.741212 34.8986 0.769746 35.2931 0.877438L35.1924 1.26485L35.2931 0.877438C35.6885 0.982124 36.0592 1.16403 36.384 1.41266C36.7087 1.6613 36.981 1.97175 37.1852 2.32612C37.3894 2.68048 37.5215 3.07176 37.5737 3.4774C37.626 3.88303 37.5975 4.29501 37.4898 4.68956L35.3977 12.4688C35.3755 12.5554 35.324 12.6316 35.252 12.6846C35.18 12.7375 35.0919 12.7639 35.0026 12.7593ZM30.2181 10.6828L34.7314 11.9148L36.7227 4.51135C36.804 4.21499 36.8257 3.90544 36.7866 3.60062C36.7475 3.2958 36.6484 3.00176 36.4949 2.73551C36.3414 2.46927 36.1366 2.2361 35.8925 2.04949C35.6483 1.86289 35.3695 1.72656 35.0723 1.64839C34.7762 1.56702 34.4669 1.54513 34.1623 1.58398C33.8577 1.62284 33.5638 1.72167 33.2976 1.87476C33.0314 2.02786 32.7981 2.23218 32.6114 2.47593C32.4246 2.71968 32.2879 2.99802 32.2094 3.29488L30.2181 10.6828Z" fill="#093F68"/>
<path d="M27.173 35.206C27.173 35.206 30.2723 34.2685 32.3062 28.376L34.4447 29.0695C34.4447 29.0695 30.7101 36.1901 33.1856 39.7116L29.8771 48.8042C29.8771 48.8042 15.5972 43.8724 15.6514 44.0274C15.7056 44.1824 17.6621 35.0782 17.6621 35.0782C17.6621 35.0782 20.0136 33.1915 21.2069 31.5915C22.4001 29.9915 23.8723 26.4351 23.8723 26.4351L26.1967 27.0046C26.1967 27.0046 24.31 32.0951 27.173 35.206Z" fill="#F56132"/>
<path d="M29.8771 49.1918C29.8349 49.1933 29.7929 49.1867 29.7531 49.1725C24.465 47.3439 16.465 44.6126 15.6553 44.4189C15.5703 44.4231 15.4863 44.3992 15.4163 44.3509C15.3463 44.3025 15.2941 44.2325 15.2679 44.1516C15.2507 44.1001 15.2446 44.0455 15.25 43.9914C15.2553 43.9374 15.272 43.885 15.2988 43.8378C15.4732 43.2606 16.5618 38.2862 17.2708 34.9971C17.2893 34.9101 17.3372 34.8321 17.4064 34.7763C17.4296 34.7763 19.7308 32.9012 20.8931 31.3516C22.0553 29.8019 23.4926 26.3152 23.5081 26.2726C23.5441 26.1879 23.6091 26.1187 23.6914 26.0775C23.7738 26.0363 23.8681 26.0258 23.9575 26.0479L26.282 26.6174C26.3351 26.6304 26.3848 26.6544 26.428 26.688C26.4711 26.7216 26.5067 26.7639 26.5323 26.8122C26.5579 26.8605 26.573 26.9137 26.5766 26.9683C26.5802 27.0228 26.5722 27.0775 26.5531 27.1288C26.5338 27.1753 24.8524 31.8281 27.2582 34.7414C27.9788 34.3927 30.2994 32.9438 31.9072 28.2484C31.9406 28.1523 32.0106 28.0732 32.102 28.0282C32.1933 27.9833 32.2987 27.9761 32.3953 28.0082L34.5338 28.6978C34.5879 28.7153 34.6374 28.7446 34.6789 28.7834C34.7204 28.8222 34.7529 28.8697 34.774 28.9225C34.7976 28.9735 34.8098 29.029 34.8098 29.0852C34.8098 29.1414 34.7976 29.1969 34.774 29.2479C34.7353 29.3177 31.1788 36.2019 33.4878 39.4911C33.5231 39.5418 33.5458 39.6004 33.5539 39.6617C33.562 39.723 33.5552 39.7854 33.5343 39.8436L30.2258 48.9361C30.1997 49.0086 30.1526 49.0716 30.0904 49.1172C30.0283 49.1627 29.9541 49.1887 29.8771 49.1918ZM16.124 43.7681C16.926 43.9812 18.7119 44.5894 22.927 46.0267C25.7977 47.003 28.6568 47.9909 29.6447 48.3512L32.744 39.801C30.6868 36.5506 33.1314 30.9099 33.9062 29.3409L32.5541 28.9031C30.4815 34.5942 27.4248 35.5821 27.2931 35.6208C27.2248 35.64 27.1525 35.6399 27.0842 35.6208C27.0159 35.6017 26.9541 35.5642 26.9057 35.5124C24.372 32.754 25.3328 28.6319 25.7435 27.3147L24.1279 26.9273C23.7405 27.8339 22.5783 30.4954 21.5478 31.8629C20.4708 33.3157 18.526 34.9622 18.0611 35.3496C17.9487 35.861 17.5381 37.7748 17.1158 39.6925C16.5618 41.9511 16.2984 43.1405 16.124 43.7526V43.7681Z" fill="#093F68"/>
<path d="M32.2326 42.7215C32.1644 42.7208 32.0976 42.7021 32.0389 42.6672L25.8907 39.0527L17.1158 38.6459C17.0633 38.646 17.0113 38.6354 16.9629 38.6147C16.9146 38.594 16.871 38.5637 16.8348 38.5257C16.7986 38.4876 16.7704 38.4426 16.7521 38.3933C16.7339 38.3441 16.7258 38.2916 16.7284 38.2391C16.7334 38.1398 16.7764 38.0461 16.8485 37.9776C16.9206 37.9091 17.0163 37.871 17.1158 37.8711L25.9875 38.2895C26.0503 38.2906 26.1117 38.308 26.1657 38.3399L32.3953 42.0009C32.4702 42.0433 32.5289 42.1095 32.562 42.1891C32.5951 42.2686 32.6008 42.3568 32.5782 42.4399C32.5555 42.523 32.5058 42.5962 32.4369 42.6479C32.368 42.6996 32.2838 42.7268 32.1977 42.7254L32.2326 42.7215Z" fill="#093F68"/>
<path d="M31.1285 45.794C31.0593 45.7951 30.9911 45.7777 30.9309 45.7436L24.7866 42.1329L16.4689 41.9082C16.3661 41.9057 16.2686 41.8624 16.1977 41.7879C16.1269 41.7135 16.0886 41.6139 16.0911 41.5112C16.0937 41.4084 16.137 41.3109 16.2114 41.24C16.2859 41.1692 16.3855 41.1309 16.4882 41.1334L24.895 41.3581C24.9606 41.3602 25.0246 41.3788 25.081 41.4124L31.3144 45.0734C31.3629 45.0966 31.406 45.1295 31.441 45.1703C31.476 45.211 31.5022 45.2585 31.5179 45.3099C31.5335 45.3612 31.5383 45.4153 31.532 45.4686C31.5257 45.522 31.5083 45.5734 31.481 45.6196C31.4432 45.6775 31.3905 45.7242 31.3285 45.7549C31.2665 45.7855 31.1975 45.799 31.1285 45.794Z" fill="#093F68"/>
<path d="M23.388 46.8048C23.3456 46.8046 23.3036 46.7967 23.264 46.7816C23.1672 46.7489 23.0872 46.6792 23.0414 46.5878C22.9957 46.4963 22.988 46.3905 23.02 46.2934L26.805 35.0818C26.8212 35.0334 26.8469 34.9888 26.8804 34.9504C26.914 34.9119 26.9547 34.8805 27.0004 34.8578C27.0461 34.8352 27.0958 34.8217 27.1467 34.8183C27.1976 34.8148 27.2486 34.8214 27.297 34.8377C27.3453 34.854 27.39 34.8796 27.4284 34.9132C27.4668 34.9467 27.4982 34.9875 27.5209 35.0332C27.5436 35.0788 27.557 35.1286 27.5605 35.1794C27.5639 35.2303 27.5573 35.2814 27.541 35.3297L23.756 46.5414C23.73 46.6183 23.6805 46.6852 23.6145 46.7324C23.5484 46.7797 23.4692 46.805 23.388 46.8048Z" fill="#093F68"/>
<path d="M48.004 52.7029L53.1089 56.3738C53.9197 56.9568 54.4657 57.8381 54.6267 58.8238C54.7878 59.8094 54.5507 60.8186 53.9676 61.6295L53.3909 62.4315C52.8078 63.2424 51.9265 63.7883 50.9409 63.9494C49.9552 64.1105 48.946 63.8734 48.1352 63.2903L43.0303 59.6194L48.0063 52.6997L48.004 52.7029Z" fill="white"/>
<path d="M50.3324 64.3936C49.4652 64.3958 48.6194 64.1247 47.915 63.6187L42.7973 59.9538C42.756 59.9239 42.721 59.8861 42.6944 59.8426C42.6677 59.7991 42.6499 59.7507 42.642 59.7003C42.6341 59.65 42.6362 59.5985 42.6482 59.5489C42.6603 59.4993 42.682 59.4526 42.7121 59.4115L47.6826 52.5C47.7424 52.4171 47.8326 52.3612 47.9335 52.3446C48.0343 52.3279 48.1377 52.3517 48.2211 52.4109L53.3388 56.0913C53.7835 56.41 54.1608 56.8133 54.4492 57.2783C54.7376 57.7432 54.9312 58.2605 55.0191 58.8005C55.1069 59.3405 55.0872 59.8925 54.9611 60.4248C54.8349 60.9572 54.6048 61.4593 54.284 61.9025L53.7107 62.6657C53.3253 63.2014 52.8179 63.6375 52.2304 63.938C51.6429 64.2385 50.9923 64.3946 50.3324 64.3936ZM43.5644 59.5316L48.3683 62.9834C49.0963 63.5037 50.0008 63.7143 50.8838 63.5691C51.7668 63.4239 52.5562 62.9347 53.0792 62.2086L53.6564 61.4066C54.1768 60.6786 54.3874 59.7741 54.2422 58.8911C54.0969 58.0081 53.6077 57.2187 52.8816 56.6957L48.0816 53.2439L43.5644 59.5316Z" fill="#093F68"/>
<path d="M47.9052 57.1102L22.9503 39.165L22.222 40.1778L47.1769 58.123L47.9052 57.1102Z" fill="#093F68"/>
<path d="M47.1712 58.5088C47.0891 58.5091 47.0091 58.4833 46.9426 58.4352L21.9894 40.4903C21.9065 40.4305 21.8506 40.3403 21.8339 40.2394C21.8173 40.1385 21.8411 40.0352 21.9003 39.9518L22.6287 38.9368C22.6888 38.8539 22.7794 38.7982 22.8805 38.7818C22.9311 38.7736 22.9829 38.7756 23.0328 38.7876C23.0826 38.7995 23.1296 38.8213 23.171 38.8516L48.1397 56.7964C48.1813 56.8261 48.2166 56.8637 48.2436 56.907C48.2706 56.9504 48.2888 56.9987 48.2971 57.0491C48.3054 57.0995 48.3036 57.151 48.2919 57.2008C48.2801 57.2505 48.2587 57.2974 48.2288 57.3388L47.5005 58.35C47.4403 58.4329 47.3498 58.4886 47.2486 58.5049L47.1712 58.5088ZM22.7643 40.0874L47.0898 57.5829L47.3649 57.1955L23.0393 39.7L22.7643 40.0874Z" fill="#093F68"/>
<path d="M51.421 60.8214L44.3392 56.7265L45.6564 54.8901L51.793 60.3139C51.8479 60.3673 51.8816 60.4388 51.888 60.5151C51.8944 60.5915 51.8729 60.6675 51.8276 60.7293C51.7824 60.7911 51.7163 60.8345 51.6416 60.8514C51.5668 60.8683 51.4885 60.8577 51.421 60.8214Z" fill="white"/>
<path d="M51.5877 61.2517C51.4612 61.2512 51.337 61.2179 51.2274 61.1548L44.1455 57.0599C44.0987 57.0328 44.058 56.9961 44.0262 56.9523C43.9944 56.9086 43.9721 56.8586 43.9608 56.8057C43.9495 56.7527 43.9494 56.698 43.9605 56.6451C43.9717 56.5921 43.9938 56.5421 44.0254 56.4982L45.3426 54.6657C45.3742 54.6218 45.4146 54.5849 45.4614 54.5575C45.5081 54.5302 45.56 54.5129 45.6138 54.5069C45.6672 54.5008 45.7214 54.5059 45.7727 54.5219C45.8241 54.538 45.8715 54.5645 45.9121 54.5998L52.0487 60.0236C52.1544 60.1188 52.2291 60.2435 52.263 60.3817C52.2969 60.5199 52.2884 60.6651 52.2387 60.7984C52.189 60.9317 52.1003 61.0469 51.9842 61.1292C51.8681 61.2114 51.7299 61.2568 51.5877 61.2594V61.2517ZM51.6148 60.4769L51.4211 60.8139L51.6186 60.4769H51.6148ZM44.9009 56.6028L51.0182 60.1398L45.7223 55.4638L44.9009 56.6028Z" fill="#093F68"/>
<path d="M19.7115 38.7159L22.1909 40.498L23.2447 39.0375L20.7652 37.2554" fill="white"/>
<path d="M22.1832 40.8854C22.1022 40.8866 22.0231 40.8607 21.9585 40.8118L19.4713 39.0336C19.4277 39.0048 19.3905 38.9675 19.3617 38.9239C19.333 38.8803 19.3133 38.8314 19.3039 38.78C19.2946 38.7286 19.2957 38.6759 19.3072 38.625C19.3187 38.5741 19.3404 38.526 19.371 38.4837C19.4016 38.4414 19.4404 38.4056 19.4851 38.3787C19.5298 38.3517 19.5795 38.3341 19.6312 38.3269C19.6829 38.3196 19.7356 38.3229 19.786 38.3365C19.8364 38.3501 19.8835 38.3737 19.9246 38.406L22.0863 39.9556L22.6868 39.1227L20.5212 37.5731C20.4374 37.5129 20.381 37.422 20.3643 37.3203C20.3476 37.2186 20.372 37.1144 20.4321 37.0307C20.4922 36.9469 20.5831 36.8905 20.6848 36.8738C20.7865 36.8571 20.8907 36.8815 20.9744 36.9416L23.4539 38.7275C23.5368 38.7874 23.5927 38.8776 23.6094 38.9784C23.626 39.0793 23.6022 39.1827 23.543 39.266L22.4892 40.7305C22.4291 40.8134 22.3385 40.8691 22.2374 40.8854H22.1832Z" fill="#093F68"/>
<path d="M16.1821 39.1537L15.3182 38.5339C15.2588 38.4915 15.2084 38.4378 15.1698 38.3759C15.1312 38.3139 15.1052 38.245 15.0933 38.173C15.0814 38.101 15.0839 38.0274 15.1005 37.9563C15.1172 37.8853 15.1477 37.8182 15.1904 37.759L18.4214 33.2689C18.4638 33.2095 18.5174 33.1591 18.5794 33.1205C18.6413 33.0819 18.7102 33.0559 18.7822 33.044C18.8542 33.0321 18.9279 33.0346 18.9989 33.0513C19.0699 33.0679 19.137 33.0984 19.1962 33.1411L20.0601 33.7648C20.7742 34.2786 21.255 35.0549 21.3967 35.9231C21.5383 36.7914 21.3293 37.6803 20.8156 38.3944C20.3018 39.1085 19.5255 39.5892 18.6573 39.7309C17.7891 39.8726 16.9001 39.6636 16.186 39.1498L16.1821 39.1537ZM16.4107 37.9566L16.8252 38.2549C17.0611 38.4246 17.328 38.5462 17.6108 38.6127C17.8936 38.6792 18.1867 38.6893 18.4734 38.6426C18.7601 38.5958 19.0348 38.493 19.2818 38.3401C19.5288 38.1872 19.7432 37.9871 19.9129 37.7513C20.0826 37.5155 20.2041 37.2486 20.2707 36.9658C20.3372 36.683 20.3473 36.3899 20.3006 36.1031C20.2538 35.8164 20.151 35.5417 19.9981 35.2947C19.8452 35.0477 19.6451 34.8333 19.4093 34.6636L18.9948 34.3692L16.4107 37.9566Z" fill="white"/>
<path d="M18.1076 40.1648C17.3341 40.165 16.5802 39.921 15.9536 39.4675L15.0897 38.8476C14.885 38.7025 14.7458 38.4826 14.7023 38.2355C14.663 37.9889 14.7229 37.7369 14.8688 37.5343L18.096 33.0442C18.2426 32.8428 18.4629 32.7074 18.7088 32.6675C18.9547 32.6276 19.2065 32.6864 19.4093 32.8311L20.2732 33.451C20.8682 33.8775 21.3234 34.4707 21.5814 35.1558C21.8394 35.8408 21.8886 36.587 21.7228 37.3C21.5569 38.013 21.1836 38.6609 20.6498 39.1618C20.1159 39.6627 19.4457 39.9942 18.7236 40.1144C18.5201 40.1488 18.314 40.1657 18.1076 40.1648ZM18.8824 33.4277C18.8559 33.428 18.8299 33.4345 18.8064 33.4466C18.7829 33.4587 18.7625 33.4761 18.7468 33.4975L15.5158 37.9876C15.5032 38.0054 15.4943 38.0255 15.4897 38.0468C15.485 38.0681 15.4847 38.0901 15.4887 38.1115C15.4966 38.1545 15.52 38.1932 15.5546 38.22L16.4185 38.8399C16.7309 39.0645 17.0844 39.2254 17.459 39.3133C17.8335 39.4013 18.2217 39.4147 18.6014 39.3526C18.9812 39.2906 19.3449 39.1543 19.672 38.9517C19.999 38.749 20.283 38.484 20.5076 38.1716C20.7322 37.8592 20.8931 37.5056 20.9811 37.1311C21.0691 36.7565 21.0824 36.3683 21.0203 35.9886C20.9583 35.6089 20.8221 35.2451 20.6194 34.9181C20.4168 34.591 20.1517 34.3071 19.8393 34.0825L18.9754 33.4587C18.945 33.4369 18.9081 33.426 18.8708 33.4277H18.8824ZM18.1076 39.0607C17.5646 39.0605 17.0357 38.8883 16.5967 38.5687L16.1822 38.2742C16.0992 38.2141 16.0435 38.1236 16.0272 38.0224C16.0185 37.972 16.0198 37.9204 16.0311 37.8706C16.0424 37.8207 16.0634 37.7736 16.0931 37.7319L18.6771 34.1406C18.7372 34.0577 18.8278 34.0019 18.9289 33.9856C19.0294 33.969 19.1324 33.9927 19.2156 34.0515L19.6301 34.3498C20.0501 34.6488 20.3717 35.0659 20.554 35.5481C20.7363 36.0303 20.7711 36.5559 20.654 37.0579C20.5369 37.56 20.2732 38.0159 19.8963 38.3676C19.5195 38.7194 19.0465 38.9512 18.5376 39.0336C18.3965 39.054 18.254 39.063 18.1115 39.0607H18.1076ZM16.9454 37.8713L17.0461 37.9411C17.439 38.2223 17.9273 38.3366 18.4042 38.2589C18.8812 38.1812 19.308 37.9179 19.5914 37.5265C19.8722 37.1331 19.9858 36.6445 19.9074 36.1676C19.829 35.6906 19.565 35.2641 19.173 34.9812L19.0761 34.9076L16.9454 37.8713Z" fill="#093F68"/>
<path d="M19.1246 34.0188L17.0916 32.769C16.8218 32.6032 16.4687 32.6874 16.3029 32.9572L16.2501 33.043C16.0843 33.3128 16.1685 33.6659 16.4383 33.8317L18.4714 35.0815C18.7411 35.2473 19.0942 35.1631 19.2601 34.8933L19.3128 34.8075C19.4787 34.5377 19.3944 34.1846 19.1246 34.0188Z" fill="#CD8B4B"/>
<path d="M18.7739 35.5468C18.596 35.5468 18.4216 35.4972 18.2703 35.4035L16.2403 34.156C16.0236 34.0223 15.8689 33.8081 15.81 33.5604C15.7512 33.3127 15.7931 33.0518 15.9265 32.8349L15.9768 32.7497C16.1105 32.5331 16.3247 32.3783 16.5724 32.3195C16.8201 32.2606 17.0811 32.3025 17.2979 32.4359L19.3279 33.6834C19.4361 33.7493 19.5301 33.8359 19.6046 33.9382C19.6792 34.0406 19.7327 34.1567 19.7622 34.2798C19.7918 34.4029 19.7967 34.5307 19.7766 34.6557C19.7566 34.7807 19.7121 34.9006 19.6456 35.0083L19.5952 35.0897C19.5084 35.2293 19.3875 35.3446 19.2438 35.4246C19.1001 35.5045 18.9384 35.5466 18.7739 35.5468ZM18.6771 34.7449C18.6979 34.7576 18.7211 34.7661 18.7452 34.7699C18.7694 34.7737 18.794 34.7726 18.8178 34.7669C18.8415 34.7611 18.8639 34.7507 18.8836 34.7363C18.9034 34.7219 18.9201 34.7038 18.9328 34.6829L18.9831 34.6015C18.9971 34.5807 19.0064 34.5571 19.0104 34.5324C19.0144 34.5077 19.013 34.4824 19.0064 34.4582C19.0013 34.4344 18.9915 34.4118 18.9775 34.3918C18.9635 34.3719 18.9457 34.3549 18.925 34.342L16.895 33.0945C16.8523 33.0686 16.8011 33.0606 16.7525 33.0722C16.7039 33.0838 16.6618 33.1141 16.6354 33.1565L16.5851 33.2417C16.5719 33.2622 16.563 33.2851 16.559 33.3091C16.555 33.333 16.556 33.3576 16.5618 33.3812C16.5742 33.4295 16.6048 33.4711 16.6471 33.4974L18.6771 34.7449Z" fill="#093F68"/>
<path d="M19.237 37.7232L20.5935 35.7598C20.7735 35.4993 20.7082 35.1422 20.4477 34.9622L20.3648 34.9049C20.1043 34.7249 19.7472 34.7902 19.5672 35.0507L18.2107 37.0142C18.0307 37.2747 18.096 37.6318 18.3565 37.8118L18.4394 37.8691C18.6999 38.0491 19.057 37.9838 19.237 37.7232Z" fill="#CD8B4B"/>
<path d="M18.7623 38.352C18.5671 38.352 18.3766 38.2925 18.2161 38.1815L18.1347 38.1234C17.9251 37.9785 17.7816 37.7563 17.7359 37.5057C17.6901 37.255 17.7458 36.9965 17.8906 36.7869L19.2466 34.8266C19.3915 34.617 19.6137 34.4735 19.8643 34.4277C20.115 34.382 20.3735 34.4376 20.5831 34.5825L20.6645 34.6367C20.8741 34.7816 21.0176 35.0038 21.0633 35.2545C21.1091 35.5051 21.0534 35.7637 20.9086 35.9733L19.5526 37.9336C19.4806 38.0357 19.3891 38.1225 19.2834 38.189C19.1777 38.2555 19.0598 38.3003 18.9366 38.321C18.8793 38.3352 18.821 38.3456 18.7623 38.352ZM20.0369 35.1869C20.0069 35.1872 19.9773 35.1943 19.9505 35.2077C19.9236 35.2211 19.9002 35.2405 19.8819 35.2643L18.5299 37.2246C18.5019 37.2668 18.4908 37.318 18.4989 37.368C18.5081 37.4166 18.5359 37.4597 18.5764 37.4881L18.6577 37.5423C18.6984 37.5704 18.7484 37.5815 18.7972 37.5733C18.8451 37.5624 18.8876 37.535 18.9173 37.4958L20.2732 35.5355C20.2875 35.5156 20.2973 35.4928 20.302 35.4688C20.3067 35.4447 20.3061 35.4199 20.3003 35.3961C20.2972 35.371 20.2886 35.347 20.2752 35.3256C20.2618 35.3042 20.244 35.2859 20.2228 35.2721L20.1454 35.2179C20.1133 35.1965 20.0754 35.1857 20.0369 35.1869Z" fill="#093F68"/>
<path d="M18.4681 35.0798L16.4351 33.8301C16.1653 33.6642 15.8122 33.7485 15.6463 34.0182L15.5936 34.1041C15.4278 34.3738 15.512 34.7269 15.7818 34.8928L17.8148 36.1425C18.0846 36.3084 18.4377 36.2241 18.6036 35.9543L18.6563 35.8685C18.8221 35.5988 18.7379 35.2456 18.4681 35.0798Z" fill="#CD8B4B"/>
<path d="M18.1192 36.6124C17.9424 36.6134 17.7689 36.5636 17.6195 36.4691L15.5972 35.2216C15.4892 35.1561 15.3952 35.0699 15.3207 34.9678C15.2463 34.8658 15.1927 34.7501 15.1632 34.6273C15.1336 34.5045 15.1287 34.377 15.1487 34.2523C15.1686 34.1276 15.2131 34.008 15.2795 33.9006L15.3299 33.8192C15.4637 33.6016 15.6783 33.446 15.9267 33.3865C16.175 33.3269 16.4369 33.3683 16.6548 33.5015L18.6848 34.749C18.9018 34.8834 19.0566 35.0983 19.1154 35.3467C19.1742 35.595 19.1322 35.8565 18.9986 36.0739L18.9483 36.1553C18.8825 36.2635 18.7959 36.3576 18.6935 36.432C18.591 36.5065 18.4749 36.5599 18.3517 36.5892C18.2753 36.6053 18.1973 36.6131 18.1192 36.6124ZM16.1434 34.133C16.1115 34.133 16.0802 34.1412 16.0523 34.1568C16.0245 34.1724 16.0012 34.1949 15.9846 34.2221L15.9342 34.3073C15.9201 34.3273 15.9107 34.3503 15.9067 34.3744C15.9026 34.3986 15.9041 34.4233 15.911 34.4468C15.9161 34.4706 15.9259 34.4932 15.9399 34.5132C15.9538 34.5331 15.9717 34.5501 15.9923 34.563L18.0224 35.8105C18.0652 35.8369 18.1167 35.8453 18.1657 35.8337C18.214 35.8213 18.2556 35.7908 18.2819 35.7485L18.3323 35.6672C18.3587 35.6243 18.3671 35.5728 18.3555 35.5238C18.3421 35.476 18.3118 35.4348 18.2703 35.4076L16.2403 34.1601C16.2106 34.1435 16.1774 34.1342 16.1434 34.133Z" fill="#093F68"/>
<path d="M17.8167 36.1467L15.7837 34.8969C15.5139 34.7311 15.1608 34.8154 14.995 35.0851L14.9422 35.1709C14.7764 35.4407 14.8606 35.7938 15.1304 35.9597L17.1635 37.2094C17.4332 37.3753 17.7864 37.291 17.9522 37.0212L18.0049 36.9354C18.1708 36.6657 18.0865 36.3125 17.8167 36.1467Z" fill="#CD8B4B"/>
<path d="M17.4684 37.6776C17.2905 37.6767 17.1163 37.6272 16.9647 37.5342L14.9347 36.2868C14.8269 36.2205 14.7332 36.1337 14.6591 36.0312C14.5849 35.9287 14.5317 35.8126 14.5026 35.6895C14.4734 35.5664 14.4689 35.4387 14.4892 35.3138C14.5095 35.189 14.5542 35.0693 14.6209 34.9618L14.6712 34.8805C14.7368 34.7725 14.823 34.6785 14.925 34.604C15.027 34.5295 15.1428 34.476 15.2656 34.4464C15.3884 34.4169 15.5159 34.412 15.6406 34.432C15.7653 34.4519 15.8849 34.4964 15.9923 34.5628L18.0223 35.8102C18.2399 35.944 18.3956 36.1587 18.4551 36.407C18.5147 36.6554 18.4733 36.9173 18.34 37.1352L18.2897 37.2165C18.1558 37.4342 17.9414 37.5902 17.6931 37.6504C17.6193 37.6671 17.544 37.6762 17.4684 37.6776ZM17.3715 36.8717C17.3924 36.8845 17.4155 36.893 17.4397 36.8967C17.4638 36.9005 17.4884 36.8995 17.5122 36.8937C17.5359 36.888 17.5583 36.8776 17.578 36.8632C17.5978 36.8488 17.6145 36.8306 17.6272 36.8098L17.6814 36.7284C17.7054 36.6852 17.7124 36.6346 17.7009 36.5866C17.6894 36.5385 17.6604 36.4965 17.6194 36.4688L15.5972 35.2214C15.554 35.1974 15.5034 35.1904 15.4553 35.2019C15.4073 35.2134 15.3653 35.2425 15.3376 35.2834L15.2872 35.3686C15.2745 35.3894 15.266 35.4126 15.2622 35.4367C15.2585 35.4609 15.2595 35.4855 15.2652 35.5093C15.271 35.533 15.2814 35.5554 15.2958 35.5751C15.3102 35.5949 15.3283 35.6116 15.3492 35.6243L17.3715 36.8717Z" fill="#093F68"/>
<path d="M17.2653 36.8731L15.2368 35.6321C14.9677 35.4675 14.616 35.5522 14.4513 35.8214L14.3989 35.907C14.2343 36.1761 14.319 36.5278 14.5881 36.6925L16.6166 37.9334C16.8858 38.0981 17.2375 38.0134 17.4021 37.7442L17.4545 37.6586C17.6192 37.3894 17.5345 37.0378 17.2653 36.8731Z" fill="#CD8B4B"/>
<path d="M16.8136 38.7389C16.6369 38.7387 16.4638 38.6891 16.3139 38.5955L14.2839 37.3481C14.0663 37.2143 13.9107 36.9996 13.8511 36.7513C13.7915 36.5029 13.8329 36.241 13.9662 36.0231L14.0165 35.9418C14.0824 35.8336 14.169 35.7396 14.2714 35.6651C14.3738 35.5905 14.4898 35.537 14.613 35.5074C14.7361 35.4779 14.8638 35.473 14.9889 35.493C15.1139 35.5131 15.2337 35.5576 15.3415 35.6241L17.3715 36.8715C17.588 37.0058 17.7426 37.2203 17.8015 37.4682C17.832 37.5912 17.8374 37.719 17.8174 37.8441C17.7974 37.9692 17.7525 38.0891 17.6853 38.1965L17.635 38.2778C17.5494 38.419 17.4289 38.5356 17.2849 38.6164C17.141 38.6972 16.9787 38.7394 16.8136 38.7389ZM16.7168 37.9369C16.76 37.9609 16.8106 37.9678 16.8586 37.9564C16.9067 37.9449 16.9487 37.9158 16.9764 37.8749L17.0267 37.7897C17.0397 37.7692 17.0484 37.7463 17.0524 37.7223C17.0564 37.6984 17.0556 37.6739 17.05 37.6502C17.0444 37.6261 17.034 37.6033 17.0193 37.5833C17.0047 37.5634 16.9861 37.5466 16.9647 37.534L14.9347 36.2866C14.9142 36.2736 14.8913 36.2648 14.8673 36.2608C14.8434 36.2568 14.8189 36.2577 14.7952 36.2633C14.7711 36.2689 14.7483 36.2793 14.7283 36.2939C14.7083 36.3086 14.6916 36.3272 14.679 36.3485L14.6286 36.4299C14.6026 36.4715 14.5941 36.5218 14.605 36.5697C14.6159 36.6176 14.6453 36.6593 14.6868 36.6856L16.7168 37.9369Z" fill="#093F68"/>
<path d="M42.162 70.7082C42.162 70.7082 44.9746 65.6951 45.4433 65.5014C46.3502 65.2975 47.2688 65.15 48.1939 65.0597C48.1939 65.0597 49.8056 60.4883 50.7896 60.4883C51.7736 60.4883 55.2564 63.0258 55.2564 63.0258C55.2564 63.0258 56.3993 61.5033 56.9688 61.821C57.5383 62.1387 58.84 64.7421 58.84 64.7421C58.84 64.7421 60.2424 63.9672 60.9165 64.4864C61.5906 65.0055 64.8604 70.7082 64.8604 70.7082H42.162Z" fill="#725858"/>
<path d="M64.8604 71.0958H42.162C42.0944 71.0957 42.028 71.0779 41.9694 71.0442C41.9109 71.0105 41.8621 70.9621 41.8281 70.9037C41.794 70.8454 41.7758 70.7791 41.7752 70.7116C41.7747 70.644 41.7918 70.5775 41.8249 70.5186C43.7348 67.1132 44.9242 65.304 45.3116 65.1452C46.1706 64.93 47.0448 64.7811 47.9266 64.6996C48.5813 62.8827 49.7552 60.1011 50.8051 60.1011C51.7426 60.1011 54.2182 61.7979 55.1983 62.4953C55.6865 61.9142 56.5155 61.1161 57.1741 61.4803C57.7126 61.7824 58.592 63.3863 59.0298 64.2309C59.5606 64.0062 60.533 63.704 61.1645 64.1766C61.8657 64.7074 64.6512 69.55 65.2129 70.5186C65.2469 70.5774 65.2648 70.6443 65.2648 70.7123C65.2648 70.7803 65.2469 70.8471 65.2129 70.906C65.177 70.9667 65.1252 71.0165 65.063 71.05C65.0009 71.0834 64.9308 71.0993 64.8604 71.0958ZM42.8244 70.321H64.1901C62.6831 67.7176 61.0366 65.0638 60.6841 64.7965C60.3315 64.5292 59.394 64.8817 59.0221 65.0832C58.9762 65.1078 58.9259 65.1229 58.8741 65.1276C58.8223 65.1323 58.77 65.1265 58.7205 65.1106C58.671 65.0947 58.6252 65.069 58.5858 65.035C58.5464 65.001 58.5143 64.9594 58.4913 64.9127C57.8908 63.7079 57.0618 62.3132 56.7828 62.1582C56.6085 62.1582 56.008 62.6851 55.5664 63.2585C55.5054 63.3402 55.4146 63.3945 55.3138 63.4097C55.213 63.425 55.1103 63.3999 55.0279 63.3398C53.6254 62.3171 51.3823 60.8759 50.7896 60.8759C50.4022 60.9573 49.3407 62.9757 48.562 65.1878C48.5375 65.2568 48.4939 65.3175 48.4363 65.3627C48.3787 65.408 48.3094 65.436 48.2366 65.4435C47.3563 65.5268 46.4817 65.6626 45.6177 65.8503C45.2922 66.1524 44.0099 68.2406 42.8244 70.321Z" fill="#093F68"/>
<path d="M46.7411 69.2517C46.7039 69.2576 46.666 69.2576 46.6288 69.2517C46.5798 69.237 46.5343 69.2129 46.4947 69.1806C46.4552 69.1483 46.4224 69.1085 46.3983 69.0635C46.3742 69.0185 46.3592 68.9692 46.3542 68.9184C46.3492 68.8675 46.3543 68.8162 46.3692 68.7674C46.683 67.7446 47.791 65.0366 47.8375 64.9243C47.8568 64.8772 47.8852 64.8344 47.9211 64.7984C47.957 64.7623 47.9996 64.7336 48.0465 64.714C48.0935 64.6944 48.1438 64.6842 48.1947 64.6841C48.2456 64.6839 48.296 64.6938 48.3431 64.7131C48.3901 64.7325 48.4329 64.7609 48.469 64.7968C48.5051 64.8326 48.5337 64.8753 48.5533 64.9222C48.5729 64.9691 48.5831 65.0195 48.5833 65.0704C48.5834 65.1212 48.5735 65.1717 48.5542 65.2187C48.5542 65.2458 47.4152 68.0042 47.113 68.9921C47.0862 69.069 47.0358 69.1354 46.969 69.182C46.9023 69.2286 46.8225 69.253 46.7411 69.2517Z" fill="#093F68"/>
<path d="M42.6733 50.2021C42.6733 50.2021 43.7387 51.9687 43.4094 52.4569C43.0801 52.945 41.0849 53.6191 40.7634 53.2317C40.3101 52.639 41.6351 51.9494 41.6351 51.9494C41.6351 51.9494 40.6859 51.6239 40.7518 50.7251" fill="#CD8B4B"/>
<path d="M41.1663 53.7553C41.0324 53.7681 40.8974 53.7491 40.7722 53.7C40.647 53.6509 40.5352 53.5729 40.4457 53.4725C40.3707 53.3776 40.3182 53.267 40.292 53.1489C40.2659 53.0308 40.2667 52.9084 40.2946 52.7907C40.4026 52.457 40.6161 52.1674 40.9028 51.9655C40.7163 51.8141 40.5691 51.6198 40.474 51.3992C40.3789 51.1786 40.3386 50.9382 40.3566 50.6987C40.3643 50.5959 40.4125 50.5004 40.4906 50.4332C40.5687 50.366 40.6703 50.3326 40.7731 50.3403C40.8758 50.348 40.9713 50.3962 41.0385 50.4743C41.1057 50.5524 41.1391 50.654 41.1314 50.7568C41.0888 51.3418 41.7319 51.582 41.759 51.5897C41.8302 51.6148 41.8926 51.6601 41.9384 51.7202C41.9842 51.7802 42.0114 51.8523 42.0168 51.9277C42.0221 52.003 42.0053 52.0782 41.9685 52.1441C41.9317 52.2101 41.8764 52.2638 41.8094 52.2987C41.484 52.4691 41.0927 52.7829 41.0539 52.9611C41.4413 53.0619 42.8748 52.5737 43.0878 52.2444C43.1498 52.0468 42.7973 51.1635 42.3401 50.4081C42.3045 50.3217 42.3013 50.2252 42.3312 50.1366C42.3611 50.048 42.422 49.9732 42.5027 49.926C42.5835 49.8788 42.6785 49.8624 42.7704 49.8798C42.8623 49.8972 42.9447 49.9472 43.0026 50.0207C43.4481 50.7568 44.1377 52.0856 43.7309 52.6899C43.3861 53.2013 42.007 53.7282 41.2283 53.7515L41.1663 53.7553Z" fill="#093F68"/>
<path d="M33.8055 37.7626C33.7606 37.7626 33.716 37.7547 33.6738 37.7394C33.5772 37.7044 33.4985 37.6325 33.4549 37.5396C33.4113 37.4466 33.4064 37.3401 33.4413 37.2435L34.7004 33.7568C34.7149 33.7058 34.7398 33.6584 34.7733 33.6174C34.8069 33.5764 34.8486 33.5428 34.8957 33.5185C34.9428 33.4943 34.9944 33.48 35.0472 33.4764C35.1001 33.4729 35.1531 33.4803 35.203 33.4981C35.2529 33.5159 35.2987 33.5437 35.3374 33.5799C35.3761 33.616 35.407 33.6597 35.4282 33.7083C35.4493 33.7569 35.4603 33.8093 35.4604 33.8623C35.4605 33.9153 35.4497 33.9677 35.4287 34.0164L34.1697 37.5031C34.1432 37.5787 34.094 37.6442 34.0288 37.6907C33.9636 37.7372 33.8856 37.7623 33.8055 37.7626Z" fill="#093F68"/>
<path d="M19.6805 30.5763C19.642 30.5821 19.6028 30.5821 19.5643 30.5763C19.5156 30.5609 19.4705 30.536 19.4314 30.5031C19.3924 30.4702 19.3603 30.4299 19.3369 30.3846C19.3135 30.3392 19.2993 30.2897 19.2951 30.2388C19.2909 30.1879 19.2968 30.1367 19.3124 30.0882L20.2306 27.1826C20.2423 27.1302 20.2647 27.0807 20.2965 27.0375C20.3283 26.9942 20.3688 26.958 20.4153 26.9312C20.4618 26.9043 20.5134 26.8875 20.5668 26.8817C20.6202 26.8759 20.6742 26.8812 20.7254 26.8974C20.7766 26.9135 20.8239 26.9402 20.8643 26.9756C20.9046 27.011 20.9372 27.0545 20.9599 27.1031C20.9826 27.1518 20.9949 27.2047 20.9961 27.2584C20.9972 27.3121 20.9872 27.3654 20.9667 27.415L20.0485 30.3245C20.0206 30.3993 19.9702 30.4636 19.9044 30.5086C19.8385 30.5537 19.7603 30.5773 19.6805 30.5763Z" fill="#093F68"/>
<path d="M27.4713 51.0702H24.9531C24.8504 51.0702 24.7519 51.0294 24.6792 50.9568C24.6066 50.8841 24.5657 50.7856 24.5657 50.6828C24.5657 50.5801 24.6066 50.4815 24.6792 50.4089C24.7519 50.3362 24.8504 50.2954 24.9531 50.2954H27.4713C27.5741 50.2954 27.6726 50.3362 27.7453 50.4089C27.8179 50.4815 27.8587 50.5801 27.8587 50.6828C27.8587 50.7856 27.8179 50.8841 27.7453 50.9568C27.6726 51.0294 27.5741 51.0702 27.4713 51.0702Z" fill="#093F68"/>
<path d="M17.5807 64.9708L12.7807 60.8643L6.23732 70.7084H17.5807L15.0858 68.8178L17.5807 64.9708Z" fill="#F56132"/>
<path d="M17.5807 71.0954H6.23732C6.16723 71.0957 6.09836 71.077 6.03804 71.0413C5.97773 71.0056 5.92824 70.9542 5.89484 70.8926C5.86144 70.8309 5.84539 70.7614 5.84839 70.6914C5.8514 70.6213 5.87335 70.5534 5.9119 70.4949L12.4591 60.6508C12.4897 60.6055 12.5295 60.5671 12.5759 60.5383C12.6223 60.5095 12.6743 60.4908 12.7285 60.4835C12.7826 60.4762 12.8377 60.4804 12.8901 60.4959C12.9425 60.5113 12.991 60.5377 13.0325 60.5733L17.8325 64.676C17.9035 64.7369 17.9501 64.8214 17.9637 64.914C17.9772 65.0066 17.9568 65.1009 17.9061 65.1796L15.5972 68.7283L17.8015 70.4019C17.865 70.4512 17.9116 70.5189 17.9349 70.5958C17.9581 70.6727 17.9569 70.7549 17.9314 70.8311C17.9059 70.9073 17.8573 70.9736 17.7924 71.021C17.7274 71.0683 17.6494 71.0943 17.5691 71.0954H17.5807ZM6.95791 70.3205H16.4301L14.8533 69.1273C14.7752 69.0685 14.7221 68.9823 14.7049 68.886C14.6876 68.7897 14.7075 68.6905 14.7604 68.6082L17.0848 65.044L12.8775 61.445L6.95791 70.3205Z" fill="#093F68"/>
<path d="M33.5304 64.6643L27.5527 62.9326L24.2713 70.708H35.328L31.8452 68.8445L33.5304 64.6643Z" fill="#F56132"/>
<path d="M35.328 71.0956H24.2713C24.2074 71.0955 24.1444 71.0796 24.0881 71.0493C24.0318 71.0191 23.9839 70.9753 23.9486 70.922C23.9133 70.8687 23.8917 70.8074 23.8859 70.7438C23.88 70.6801 23.89 70.6159 23.9149 70.5571L27.1963 62.7856C27.2326 62.6975 27.3001 62.626 27.3858 62.5845C27.4716 62.5431 27.5696 62.5347 27.6612 62.5609L33.6389 64.2926C33.6912 64.3076 33.7398 64.3335 33.7815 64.3685C33.8232 64.4036 33.857 64.447 33.8807 64.496C33.9045 64.5449 33.9177 64.5984 33.9194 64.6528C33.9211 64.7072 33.9113 64.7614 33.8907 64.8118L32.3411 68.6859L35.5178 70.3827C35.5936 70.4236 35.6536 70.4885 35.6883 70.5673C35.723 70.646 35.7306 70.7341 35.7097 70.8176C35.6888 70.9011 35.6407 70.9753 35.573 71.0284C35.5053 71.0816 35.4218 71.1106 35.3358 71.1111L35.328 71.0956ZM24.8679 70.3207H33.7784L31.6592 69.1856C31.5752 69.1409 31.5106 69.0668 31.4778 68.9775C31.4449 68.8882 31.4461 68.7899 31.481 68.7014L33.0074 64.9202L27.7735 63.4016L24.8679 70.3207Z" fill="#093F68"/>
<path d="M71.1945 71.0956H0.387411C0.284663 71.0956 0.186123 71.0548 0.11347 70.9822C0.0408161 70.9095 0 70.811 0 70.7082C0 70.6055 0.0408161 70.5069 0.11347 70.4343C0.186123 70.3616 0.284663 70.3208 0.387411 70.3208H71.1945C71.2973 70.3208 71.3958 70.3616 71.4685 70.4343C71.5411 70.5069 71.5819 70.6055 71.5819 70.7082C71.5819 70.811 71.5411 70.9095 71.4685 70.9822C71.3958 71.0548 71.2973 71.0956 71.1945 71.0956Z" fill="#093F68"/>
</svg>
