<svg width="40" height="163" viewBox="0 0 40 163" fill="none" xmlns="http://www.w3.org/2000/svg">
<path d="M0.000305772 159.965C-0.0190094 161.069 0.860626 161.98 1.96503 162L19.9623 162.314C21.0667 162.334 21.9776 161.454 21.9969 160.35C22.0163 159.245 21.1366 158.334 20.0322 158.315L4.03467 158.035L4.31445 142.038C4.33377 140.933 3.45413 140.022 2.34973 140.003C1.24533 139.984 0.33438 140.863 0.315065 141.968L0.000305772 159.965ZM13.6304 16.3502L12.0766 17.6095L13.6304 16.3502ZM0.44623 3.25928L12.0766 17.6095L15.1842 15.0909L3.55377 0.740715L0.44623 3.25928ZM31.0807 53.0173L31.8531 55.4788L35.6696 54.2811L34.8971 51.8196L31.0807 53.0173ZM32.8018 106.374L32.378 107.924L36.2365 108.979L36.6603 107.428L32.8018 106.374ZM4.74124 154.573L0.610732 158.561L3.38927 161.439L7.51978 157.45L4.74124 154.573ZM32.378 107.924C27.5262 125.675 17.979 141.79 4.74124 154.573L7.51978 157.45C21.2749 144.168 31.1951 127.423 36.2365 108.979L32.378 107.924ZM36 82.5426C36 90.5933 34.9244 98.6079 32.8018 106.374L36.6603 107.428C38.8768 99.3188 40 90.9496 40 82.5426H36ZM31.8531 55.4788C34.6017 64.2371 36 73.3631 36 82.5426H40C40 72.9569 38.5398 63.4271 35.6696 54.2811L31.8531 55.4788ZM12.0766 17.6095C20.5861 28.1089 27.034 40.1225 31.0807 53.0173L34.8971 51.8196C30.6996 38.4438 24.0111 25.9821 15.1842 15.0909L12.0766 17.6095Z" fill="#A2B13A"/>
</svg>
