<svg width="48" height="48" viewBox="0 0 48 48" fill="none" xmlns="http://www.w3.org/2000/svg">
<circle cx="24" cy="24" r="24" fill="#A2B13A"/>
<mask id="mask0_88_198" style="mask-type:alpha" maskUnits="userSpaceOnUse" x="10" y="10" width="28" height="28">
<rect x="10" y="10" width="28" height="28" fill="#D9D9D9"/>
</mask>
<g mask="url(#mask0_88_198)">
<path d="M22.775 31.4085L18.6333 27.2668L20.325 25.5752L22.775 28.0252L27.675 23.1252L29.3667 24.8168L22.775 31.4085ZM15.8333 35.6668C15.1917 35.6668 14.6422 35.4386 14.1848 34.982C13.7283 34.5247 13.5 33.9752 13.5 33.3335V17.0002C13.5 16.3585 13.7283 15.8094 14.1848 15.3528C14.6422 14.8955 15.1917 14.6668 15.8333 14.6668H17V12.3335H19.3333V14.6668H28.6667V12.3335H31V14.6668H32.1667C32.8083 14.6668 33.3578 14.8955 33.8152 15.3528C34.2717 15.8094 34.5 16.3585 34.5 17.0002V33.3335C34.5 33.9752 34.2717 34.5247 33.8152 34.982C33.3578 35.4386 32.8083 35.6668 32.1667 35.6668H15.8333ZM15.8333 33.3335H32.1667V21.6668H15.8333V33.3335ZM15.8333 19.3335H32.1667V17.0002H15.8333V19.3335Z" fill="white"/>
</g>
</svg>
