<svg width="140" height="140" viewBox="0 0 140 140" fill="none" xmlns="http://www.w3.org/2000/svg">
<rect width="140" height="140" rx="70" fill="#ECC5A2"/>
<path d="M54.1804 18.0795V71.7036H29.5993V18.0795" fill="#FFBC0E"/>
<path d="M54.2036 72.2831H29.5993C29.4456 72.2831 29.2982 72.2221 29.1896 72.1134C29.0809 72.0047 29.0198 71.8573 29.0198 71.7036V18.0795C29.0198 17.9258 29.0809 17.7784 29.1896 17.6697C29.2982 17.5611 29.4456 17.5 29.5993 17.5C29.753 17.5 29.9004 17.5611 30.0091 17.6697C30.1177 17.7784 30.1788 17.9258 30.1788 18.0795V71.1242H53.6241V18.0795C53.6241 17.9258 53.6852 17.7784 53.7939 17.6697C53.9025 17.5611 54.0499 17.5 54.2036 17.5C54.3573 17.5 54.5047 17.5611 54.6134 17.6697C54.722 17.7784 54.7831 17.9258 54.7831 18.0795V71.7036C54.7831 71.8573 54.722 72.0047 54.6134 72.1134C54.5047 72.2221 54.3573 72.2831 54.2036 72.2831Z" fill="#093F68"/>
<path d="M35.1739 66.7898C35.9996 66.7898 36.6689 66.1204 36.6689 65.2947C36.6689 64.469 35.9996 63.7997 35.1739 63.7997C34.3482 63.7997 33.6788 64.469 33.6788 65.2947C33.6788 66.1204 34.3482 66.7898 35.1739 66.7898Z" fill="#093F68"/>
<path d="M69.0728 50.8775C69.0728 50.8775 62.8319 51.3469 60.0447 51.8104C57.2574 52.274 53.091 58.3179 47.1863 58.9379C41.2815 59.558 36.495 59.7086 34.7914 58.1614C33.0877 56.6143 33.7078 53.5257 33.7078 53.5257H26.6846C22.553 53.5257 22.2401 48.9942 24.9462 47.6498C24.9462 47.6498 20.3104 47.0124 19.9106 43.7558C19.4412 40.0646 23.9089 39.8328 23.9089 39.8328C23.1601 38.8213 22.7946 37.5769 22.8775 36.3212C23.0861 34.3568 26.702 33.0182 26.702 33.0182C26.702 33.0182 24.6333 31.6739 26.0819 29.0894C27.5306 26.505 28.4578 26.9222 33.7252 26.9222C38.9925 26.9222 44.2599 26.5108 47.053 27.5422C49.846 28.5737 58.4164 32.2939 60.7922 32.3982C63.168 32.5025 69.096 32.1896 69.096 32.1896L69.0728 50.8775Z" fill="#FFC9B0"/>
<path d="M40.3891 59.9636C37.567 59.9636 35.5041 59.5927 34.4031 58.5903C32.9892 57.3038 32.9545 55.1888 33.0472 54.0994H26.673C24.2218 54.0994 23.0107 52.6623 22.6978 51.3237C22.5606 50.7286 22.5702 50.1092 22.7256 49.5186C22.8811 48.9281 23.1778 48.3842 23.5902 47.9338C22.0604 47.476 19.6266 46.3576 19.3021 43.8254C19.2124 43.3162 19.2338 42.7937 19.3648 42.2937C19.4958 41.7936 19.7334 41.3277 20.0612 40.928C20.8194 40.1189 21.82 39.5779 22.9122 39.3866C22.3948 38.4294 22.1692 37.3415 22.2632 36.2575C22.4371 34.5828 24.442 33.3601 25.6299 32.8212C24.9751 31.9868 24.5347 30.5845 25.5314 28.8055C26.9569 26.2674 28.1738 26.279 31.7955 26.3253H33.6846C34.8783 26.3253 36.072 26.3254 37.2425 26.2848C41.2061 26.2153 44.9553 26.1457 47.2094 26.9802C47.8932 27.2351 48.9188 27.6465 50.1068 28.1391C53.6705 29.5704 59.0654 31.7376 60.7632 31.8129C63.0811 31.9114 68.9511 31.6101 69.0091 31.6043C69.0888 31.6 69.1685 31.6121 69.2433 31.6401C69.3181 31.668 69.3863 31.7111 69.4437 31.7666C69.5002 31.8204 69.5452 31.8852 69.5761 31.9569C69.607 32.0285 69.623 32.1057 69.6233 32.1838V50.8775C69.6237 51.0244 69.5682 51.166 69.4682 51.2736C69.3681 51.3811 69.231 51.4467 69.0844 51.457C69.0207 51.457 62.8435 51.9263 60.1142 52.3841C59.1523 52.5406 57.8717 53.572 56.3824 54.76C53.9602 56.7012 50.9412 59.1234 47.2152 59.5116C44.9488 59.7761 42.6706 59.9269 40.3891 59.9636ZM30.5381 27.4727C28.0579 27.4727 27.5132 27.6871 26.5745 29.3676C25.4155 31.3957 26.8468 32.4156 27.0091 32.5257C27.1032 32.5871 27.1774 32.6746 27.2227 32.7775C27.268 32.8804 27.2823 32.9942 27.2641 33.1052C27.2518 33.2108 27.2107 33.3109 27.1453 33.3948C27.0799 33.4786 26.9926 33.5428 26.8932 33.5803C26.0414 33.899 23.5786 35.0985 23.4164 36.4081C23.347 37.5126 23.6691 38.6062 24.3261 39.4967C24.3922 39.58 24.4341 39.6799 24.4472 39.7854C24.4603 39.8909 24.4441 39.9979 24.4005 40.0949C24.3568 40.1918 24.2873 40.2748 24.1996 40.3349C24.1118 40.395 24.0093 40.4298 23.9031 40.4355C23.9031 40.4355 21.8982 40.5629 20.9362 41.7161C20.7162 41.9937 20.5584 42.3154 20.4734 42.6593C20.3885 43.0032 20.3783 43.3613 20.4437 43.7095C20.7972 46.4909 24.9404 47.0936 24.9809 47.0994C25.1037 47.1163 25.2177 47.1722 25.3064 47.2588C25.395 47.3453 25.4536 47.458 25.4735 47.5803C25.4863 47.6973 25.4632 47.8153 25.4073 47.9188C25.3515 48.0223 25.2654 48.1064 25.1606 48.1598C24.6459 48.4244 24.2339 48.8528 23.9895 49.3773C23.7451 49.9019 23.682 50.4928 23.8104 51.0571C24.0886 52.2161 25.1548 52.9404 26.6614 52.9404H33.6846C33.7709 52.9388 33.8565 52.9566 33.9351 52.9923C34.0136 53.0281 34.0832 53.0809 34.1388 53.147C34.1943 53.2131 34.2344 53.2908 34.2561 53.3743C34.2777 53.4579 34.2805 53.5452 34.264 53.63C34.264 53.63 33.7309 56.4288 35.168 57.7326C36.8137 59.2277 42.4172 58.8568 47.1109 58.3585C50.495 58.005 53.3692 55.7045 55.6755 53.856C57.2922 52.5638 58.6829 51.4454 59.9404 51.2368C62.2583 50.8485 66.894 50.4661 68.4818 50.3444V32.7922C66.8998 32.8676 62.6871 33.053 60.7342 32.9719C58.7814 32.8907 53.5488 30.7641 49.6896 29.2111C48.5306 28.7359 47.4876 28.3303 46.7922 28.0522C44.7409 27.2931 41.1018 27.3568 37.2483 27.4263C36.0894 27.4263 34.8725 27.4669 33.673 27.4669H31.7665L30.5381 27.4727Z" fill="#093F68"/>
<path d="M41.971 54.0994H33.7078C33.5541 54.0994 33.4067 54.0383 33.298 53.9296C33.1893 53.821 33.1283 53.6736 33.1283 53.5199C33.1283 53.3662 33.1893 53.2188 33.298 53.1102C33.4067 53.0015 33.5541 52.9404 33.7078 52.9404H41.971C42.1247 52.9404 42.2721 53.0015 42.3808 53.1102C42.4894 53.2188 42.5505 53.3662 42.5505 53.5199C42.5505 53.6736 42.4894 53.821 42.3808 53.9296C42.2721 54.0383 42.1247 54.0994 41.971 54.0994Z" fill="#093F68"/>
<path d="M37.1151 48.2235H24.9462C24.7925 48.2235 24.6452 48.1625 24.5365 48.0538C24.4278 47.9451 24.3668 47.7977 24.3668 47.644C24.3668 47.4904 24.4278 47.343 24.5365 47.2343C24.6452 47.1256 24.7925 47.0646 24.9462 47.0646H37.1151C37.2688 47.0646 37.4162 47.1256 37.5248 47.2343C37.6335 47.343 37.6946 47.4904 37.6946 47.644C37.6946 47.7977 37.6335 47.9451 37.5248 48.0538C37.4162 48.1625 37.2688 48.2235 37.1151 48.2235Z" fill="#093F68"/>
<path d="M37.3991 40.4064H23.8916C23.7379 40.4064 23.5905 40.3453 23.4819 40.2367C23.3732 40.128 23.3121 39.9806 23.3121 39.8269C23.3121 39.6732 23.3732 39.5258 23.4819 39.4172C23.5905 39.3085 23.7379 39.2474 23.8916 39.2474H37.3991C37.5527 39.2474 37.7001 39.3085 37.8088 39.4172C37.9175 39.5258 37.9785 39.6732 37.9785 39.8269C37.9785 39.9806 37.9175 40.128 37.8088 40.2367C37.7001 40.3453 37.5527 40.4064 37.3991 40.4064Z" fill="#093F68"/>
<path d="M36.4951 33.5918H26.6846C26.5309 33.5918 26.3836 33.5308 26.2749 33.4221C26.1662 33.3134 26.1052 33.166 26.1052 33.0123C26.1052 32.8586 26.1662 32.7113 26.2749 32.6026C26.3836 32.4939 26.5309 32.4329 26.6846 32.4329H36.4951C36.6487 32.4329 36.7961 32.4939 36.9048 32.6026C37.0135 32.7113 37.0745 32.8586 37.0745 33.0123C37.0745 33.166 37.0135 33.3134 36.9048 33.4221C36.7961 33.5308 36.6487 33.5918 36.4951 33.5918Z" fill="#093F68"/>
<path d="M68.8759 52.077V30.3875H63.5679V52.077H68.8759Z" fill="white"/>
<path d="M68.8758 52.6506H63.5679C63.4142 52.6506 63.2668 52.5896 63.1581 52.4809C63.0495 52.3722 62.9884 52.2248 62.9884 52.0712V30.3816C62.9884 30.2279 63.0495 30.0805 63.1581 29.9718C63.2668 29.8632 63.4142 29.8021 63.5679 29.8021H68.8758C69.0295 29.8021 69.1769 29.8632 69.2856 29.9718C69.3942 30.0805 69.4553 30.2279 69.4553 30.3816V52.0712C69.4553 52.2248 69.3942 52.3722 69.2856 52.4809C69.1769 52.5896 69.0295 52.6506 68.8758 52.6506ZM64.1473 51.4917H68.2964V30.9611H64.1473V51.4917Z" fill="#093F68"/>
<path d="M122.494 53.5198H68.8759V28.9387H122.494" fill="#A2B13A"/>
<path d="M122.494 54.0993H68.8759C68.7222 54.0993 68.5748 54.0383 68.4661 53.9296C68.3574 53.8209 68.2964 53.6735 68.2964 53.5198V28.9387C68.2964 28.785 68.3574 28.6376 68.4661 28.529C68.5748 28.4203 68.7222 28.3593 68.8759 28.3593H122.494C122.648 28.3593 122.795 28.4203 122.904 28.529C123.013 28.6376 123.074 28.785 123.074 28.9387C123.074 29.0924 123.013 29.2398 122.904 29.3485C122.795 29.4571 122.648 29.5182 122.494 29.5182H69.4553V52.9404H122.494C122.648 52.9404 122.795 53.0014 122.904 53.1101C123.013 53.2188 123.074 53.3662 123.074 53.5198C123.074 53.6735 123.013 53.8209 122.904 53.9296C122.795 54.0383 122.648 54.0993 122.494 54.0993Z" fill="#093F68"/>
<path d="M75.279 36.0025C76.1047 36.0025 76.774 35.3332 76.774 34.5075C76.774 33.6818 76.1047 33.0125 75.279 33.0125C74.4533 33.0125 73.784 33.6818 73.784 34.5075C73.784 35.3332 74.4533 36.0025 75.279 36.0025Z" fill="#093F68"/>
<path d="M108.923 68.4934C108.923 68.4934 109.392 62.2583 109.856 59.4652C110.32 56.6722 116.363 52.5116 116.983 46.6068C117.603 40.702 117.754 35.9156 116.207 34.2119C114.66 32.5083 111.571 33.1283 111.571 33.1283V26.1051C111.571 21.9735 107.04 21.6664 105.695 24.3667C105.695 24.3667 105.058 19.731 101.801 19.3311C98.1101 18.8618 97.8783 23.3353 97.8783 23.3353C96.8682 22.5837 95.6228 22.2179 94.3667 22.3038C92.4023 22.5066 91.0638 26.1225 91.0638 26.1225C91.0638 26.1225 89.7194 24.0596 87.135 25.5025C84.5505 26.9454 84.9677 27.8783 84.9677 33.1457C84.9677 38.4131 84.5563 43.6805 85.5878 46.4735C86.6192 49.2666 90.3394 57.8311 90.4437 60.207C90.548 62.5828 90.2351 68.5108 90.2351 68.5108L108.923 68.4934Z" fill="#AD7972"/>
<path d="M108.923 69.0728H90.2293C90.1513 69.0725 90.0741 69.0564 90.0024 69.0256C89.9307 68.9947 89.866 68.9497 89.8121 68.8932C89.7573 68.8365 89.7147 68.7692 89.6868 68.6955C89.6589 68.6218 89.6463 68.5431 89.6498 68.4644C89.6498 68.4064 89.957 62.5364 89.8585 60.2185C89.7831 58.5149 87.6159 53.12 86.1788 49.5505C85.7036 48.3915 85.2922 47.3369 85.0199 46.6531C84.1854 44.399 84.2492 40.6498 84.3245 36.6862C84.3245 35.5273 84.3651 34.322 84.3651 33.1283C84.3651 32.4271 84.3651 31.8013 84.3651 31.2392C84.3187 27.6175 84.3071 26.4006 86.8394 24.9809C88.6242 23.9784 90.0265 24.4015 90.8609 25.0736C91.4404 23.9147 92.5993 21.8808 94.2972 21.7069C95.3812 21.6129 96.4691 21.8385 97.4263 22.3559C97.62 21.2586 98.1651 20.254 98.9793 19.4933C99.3803 19.1678 99.8464 18.9322 100.346 18.8022C100.846 18.6722 101.368 18.651 101.877 18.74C104.403 19.0587 105.527 21.4925 105.985 23.0223C106.435 22.6099 106.979 22.3132 107.57 22.1577C108.16 22.0023 108.78 21.9927 109.375 22.1299C110.714 22.4486 112.151 23.6597 112.151 26.1051V32.4793C113.24 32.3923 115.355 32.4213 116.642 33.8352C118.334 35.6953 118.235 40.3137 117.563 46.6821C117.175 50.4023 114.753 53.4213 112.811 55.8493C111.618 57.3327 110.592 58.6192 110.43 59.5753C109.978 62.3046 109.514 68.4875 109.508 68.5455C109.495 68.691 109.428 68.8261 109.319 68.9239C109.211 69.0217 109.069 69.0749 108.923 69.0728ZM90.8378 67.9139H108.39C108.512 66.3319 108.894 61.7077 109.282 59.3725C109.491 58.115 110.609 56.7243 111.902 55.1076C113.75 52.7897 116.051 49.9329 116.404 46.5488C116.902 41.8493 117.273 36.2516 115.778 34.6059C114.469 33.163 111.722 33.6904 111.676 33.6962C111.591 33.7126 111.503 33.7098 111.42 33.6882C111.336 33.6665 111.259 33.6264 111.193 33.5709C111.126 33.5153 111.074 33.4457 111.038 33.3672C111.002 33.2886 110.984 33.203 110.986 33.1167V26.1051C110.986 24.5985 110.279 23.538 109.103 23.2599C108.538 23.1305 107.947 23.193 107.422 23.4376C106.897 23.6821 106.469 24.0947 106.205 24.6101C106.15 24.72 106.062 24.8096 105.952 24.8659C105.843 24.9222 105.718 24.9421 105.597 24.923C105.475 24.9031 105.362 24.8445 105.275 24.7559C105.189 24.6672 105.133 24.5532 105.116 24.4304C105.116 24.3899 104.496 20.2409 101.72 19.8874C101.373 19.8225 101.016 19.8329 100.673 19.9178C100.33 20.0028 100.009 20.1604 99.7326 20.3799C98.5737 21.3418 98.452 23.3294 98.452 23.3468C98.4464 23.4533 98.4115 23.5562 98.3512 23.6441C98.2908 23.732 98.2074 23.8016 98.1101 23.8452C98.0155 23.8851 97.912 23.8991 97.8102 23.8859C97.7084 23.8726 97.6119 23.8326 97.5306 23.7698C96.6384 23.1164 95.5461 22.7946 94.4421 22.8601C93.1325 22.9991 91.933 25.4561 91.6142 26.3079C91.5767 26.4079 91.5122 26.4955 91.428 26.5611C91.3437 26.6268 91.243 26.6678 91.1369 26.6798C91.0308 26.6918 90.9234 26.6742 90.8267 26.6291C90.7299 26.5839 90.6475 26.5129 90.5886 26.4238C90.4785 26.2616 89.4296 24.8592 87.4305 25.9892C85.495 27.0728 85.5008 27.6291 85.5472 31.2044C85.5472 31.7839 85.5472 32.3981 85.5472 33.1051C85.5472 34.3104 85.5472 35.5099 85.5066 36.6862C85.4371 40.5397 85.3734 44.1788 86.1325 46.2301C86.3758 46.8965 86.7873 47.9164 87.2624 49.0927C88.8154 52.9577 90.9363 58.2425 91.0232 60.1432C91.1101 62.0438 90.9131 66.3319 90.8378 67.9139Z" fill="#093F68"/>
<path d="M111.571 41.971C111.418 41.971 111.27 41.91 111.161 41.8013C111.053 41.6926 110.992 41.5452 110.992 41.3915V33.1283C110.992 32.9746 111.053 32.8272 111.161 32.7186C111.27 32.6099 111.418 32.5488 111.571 32.5488C111.725 32.5488 111.872 32.6099 111.981 32.7186C112.09 32.8272 112.151 32.9746 112.151 33.1283V41.3915C112.151 41.5452 112.09 41.6926 111.981 41.8013C111.872 41.91 111.725 41.971 111.571 41.971Z" fill="#093F68"/>
<path d="M105.69 37.115C105.536 37.115 105.388 37.054 105.28 36.9453C105.171 36.8367 105.11 36.6893 105.11 36.5356V24.3667C105.11 24.213 105.171 24.0656 105.28 23.957C105.388 23.8483 105.536 23.7872 105.69 23.7872C105.843 23.7872 105.991 23.8483 106.099 23.957C106.208 24.0656 106.269 24.213 106.269 24.3667V36.5356C106.269 36.6893 106.208 36.8367 106.099 36.9453C105.991 37.054 105.843 37.115 105.69 37.115Z" fill="#093F68"/>
<path d="M97.8725 37.428C97.7188 37.428 97.5714 37.3669 97.4628 37.2583C97.3541 37.1496 97.293 37.0022 97.293 36.8485V23.3179C97.293 23.1642 97.3541 23.0168 97.4628 22.9081C97.5714 22.7995 97.7188 22.7384 97.8725 22.7384C98.0262 22.7384 98.1736 22.7995 98.2822 22.9081C98.3909 23.0168 98.452 23.1642 98.452 23.3179V36.8485C98.452 37.0022 98.3909 37.1496 98.2822 37.2583C98.1736 37.3669 98.0262 37.428 97.8725 37.428Z" fill="#093F68"/>
<path d="M91.058 36.495C90.9043 36.495 90.7569 36.434 90.6482 36.3253C90.5395 36.2166 90.4785 36.0692 90.4785 35.9155V26.1051C90.4785 25.9514 90.5395 25.804 90.6482 25.6954C90.7569 25.5867 90.9043 25.5256 91.058 25.5256C91.2116 25.5256 91.359 25.5867 91.4677 25.6954C91.5764 25.804 91.6374 25.9514 91.6374 26.1051V35.9155C91.6374 36.0692 91.5764 36.2166 91.4677 36.3253C91.359 36.434 91.2116 36.495 91.058 36.495Z" fill="#093F68"/>
<path d="M110.117 62.9941H88.4272V68.3021H110.117V62.9941Z" fill="#093F68"/>
<path d="M110.117 68.8758H88.4272C88.2735 68.8758 88.1261 68.8147 88.0174 68.706C87.9087 68.5974 87.8477 68.45 87.8477 68.2963V62.9941C87.8477 62.8405 87.9087 62.6931 88.0174 62.5844C88.1261 62.4757 88.2735 62.4147 88.4272 62.4147H110.117C110.27 62.4147 110.418 62.4757 110.526 62.5844C110.635 62.6931 110.696 62.8405 110.696 62.9941V68.2963C110.696 68.45 110.635 68.5974 110.526 68.706C110.418 68.8147 110.27 68.8758 110.117 68.8758ZM89.0066 67.7168H109.537V63.5736H89.0066V67.7168Z" fill="#093F68"/>
<path d="M111.565 121.921V68.2964H86.9843V121.921" fill="#F56132"/>
<path d="M111.571 122.5C111.418 122.5 111.27 122.439 111.161 122.33C111.053 122.222 110.992 122.074 110.992 121.921V68.8759H87.5638V121.921C87.5638 122.074 87.5027 122.222 87.394 122.33C87.2854 122.439 87.138 122.5 86.9843 122.5C86.8306 122.5 86.6832 122.439 86.5745 122.33C86.4659 122.222 86.4048 122.074 86.4048 121.921V68.2964C86.4048 68.1427 86.4659 67.9953 86.5745 67.8866C86.6832 67.778 86.8306 67.7169 86.9843 67.7169H111.571C111.725 67.7169 111.872 67.778 111.981 67.8866C112.09 67.9953 112.151 68.1427 112.151 68.2964V121.921C112.151 122.074 112.09 122.222 111.981 122.33C111.872 122.439 111.725 122.5 111.571 122.5Z" fill="#093F68"/>
<path d="M92.553 76.2003C93.3787 76.2003 94.048 75.5309 94.048 74.7052C94.048 73.8796 93.3787 73.2102 92.553 73.2102C91.7273 73.2102 91.058 73.8796 91.058 74.7052C91.058 75.5309 91.7273 76.2003 92.553 76.2003Z" fill="#093F68"/>
<path d="M70.6258 108.332C70.6258 108.332 76.8667 108.796 79.654 109.265C82.4412 109.734 86.6076 115.772 92.5124 116.392C98.4172 117.012 103.204 117.163 104.907 115.616C106.611 114.069 105.991 110.98 105.991 110.98H113.014C117.146 110.98 117.459 106.443 114.752 105.104C114.752 105.104 119.388 104.467 119.788 101.21C120.257 97.5191 115.79 97.2873 115.79 97.2873C116.539 96.2758 116.904 95.0314 116.821 93.7757C116.613 91.8113 112.997 90.4669 112.997 90.4669C112.997 90.4669 115.065 89.1283 113.617 86.5439C112.168 83.9595 111.241 84.3767 105.974 84.3767C100.706 84.3767 95.4388 83.9652 92.6457 84.9967C89.8527 86.0282 81.2823 89.7484 78.9065 89.8527C76.5306 89.957 70.6027 89.644 70.6027 89.644L70.6258 108.332Z" fill="#FFC9B0"/>
<path d="M99.3096 117.418C97.0184 117.382 94.7305 117.231 92.4544 116.966C88.7285 116.572 85.7094 114.156 83.2872 112.214C81.798 111.021 80.5174 109.995 79.5554 109.833C76.8261 109.381 70.649 108.917 70.5852 108.911C70.4387 108.901 70.3015 108.836 70.2015 108.728C70.1014 108.62 70.046 108.479 70.0463 108.332V89.6382C70.0458 89.5592 70.0615 89.4809 70.0924 89.4081C70.1233 89.3354 70.1688 89.2697 70.226 89.2152C70.2831 89.1615 70.3506 89.1199 70.4243 89.093C70.498 89.0661 70.5764 89.0544 70.6548 89.0587C70.7185 89.0587 76.5828 89.3659 78.9064 89.2674C80.6043 89.192 85.9992 87.0248 89.5629 85.5935C90.7566 85.1126 91.7823 84.7011 92.4602 84.4346C94.7202 83.6001 98.4636 83.6639 102.427 83.7392C103.586 83.7392 104.791 83.7798 105.985 83.7798C106.692 83.7798 107.318 83.7798 107.874 83.7798C111.496 83.7392 112.713 83.7276 114.132 86.2599C115.135 88.0447 114.712 89.447 114.04 90.2814C115.228 90.8609 117.233 92.0198 117.406 93.7119C117.502 94.796 117.276 95.8843 116.757 96.841C117.855 97.0387 118.86 97.583 119.626 98.394C119.953 98.7943 120.19 99.2602 120.321 99.7601C120.452 100.26 120.473 100.782 120.385 101.291C120.06 103.818 117.632 104.936 116.097 105.4C116.509 105.85 116.806 106.394 116.961 106.985C117.117 107.575 117.126 108.195 116.989 108.79C116.676 110.128 115.465 111.565 113.014 111.565H106.64C106.733 112.655 106.698 114.77 105.284 116.056C104.195 117.041 102.132 117.418 99.3096 117.418ZM71.2053 107.799C72.7872 107.92 77.4114 108.303 79.7467 108.691C81.0041 108.9 82.3949 110.018 84.0116 111.31C86.3295 113.159 89.192 115.459 92.5761 115.813C97.2698 116.305 102.873 116.682 104.519 115.187C105.956 113.877 105.429 111.131 105.423 111.084C105.407 111 105.409 110.912 105.431 110.829C105.453 110.745 105.493 110.668 105.548 110.601C105.604 110.535 105.673 110.482 105.752 110.447C105.831 110.411 105.916 110.393 106.002 110.395H113.026C114.532 110.395 115.598 109.688 115.877 108.512C116.005 107.947 115.942 107.356 115.698 106.832C115.453 106.307 115.041 105.879 114.526 105.614C114.417 105.558 114.328 105.469 114.273 105.359C114.217 105.25 114.198 105.125 114.218 105.004C114.238 104.883 114.296 104.771 114.384 104.685C114.472 104.599 114.585 104.543 114.706 104.525C114.747 104.525 118.89 103.905 119.243 101.129C119.309 100.782 119.298 100.425 119.213 100.082C119.128 99.7388 118.971 99.4181 118.751 99.1415C117.789 97.9826 115.807 97.8609 115.784 97.8609C115.677 97.855 115.574 97.8197 115.486 97.7589C115.398 97.6981 115.329 97.6142 115.286 97.5164C115.243 97.4187 115.227 97.3109 115.242 97.205C115.256 97.0991 115.299 96.9992 115.367 96.9164C116.017 96.0227 116.336 94.9309 116.271 93.8278C116.137 92.524 113.675 91.3245 112.823 91.0058C112.723 90.9678 112.635 90.9027 112.569 90.8178C112.504 90.7329 112.463 90.6314 112.452 90.5248C112.441 90.4188 112.46 90.3119 112.506 90.2158C112.552 90.1197 112.623 90.0381 112.713 89.9801C112.869 89.87 114.277 88.8212 113.142 86.822C112.058 84.8866 111.507 84.8924 107.926 84.9329C107.347 84.9329 106.727 84.9329 106.02 84.9329C104.82 84.9329 103.615 84.9329 102.445 84.8924C98.591 84.8228 94.952 84.7533 92.9006 85.5182C92.2285 85.7616 91.2086 86.173 90.0033 86.6481C86.144 88.2011 80.8593 90.322 78.9586 90.4031C77.0579 90.4842 72.7988 90.3046 71.2111 90.2293L71.2053 107.799Z" fill="#093F68"/>
<path d="M105.991 111.554H97.7277C97.574 111.554 97.4266 111.493 97.3179 111.384C97.2092 111.275 97.1482 111.128 97.1482 110.974C97.1482 110.821 97.2092 110.673 97.3179 110.564C97.4266 110.456 97.574 110.395 97.7277 110.395H105.991C106.145 110.395 106.292 110.456 106.401 110.564C106.509 110.673 106.57 110.821 106.57 110.974C106.57 111.128 106.509 111.275 106.401 111.384C106.292 111.493 106.145 111.554 105.991 111.554Z" fill="#093F68"/>
<path d="M114.77 105.678H102.601C102.447 105.678 102.3 105.617 102.191 105.508C102.083 105.4 102.022 105.252 102.022 105.099C102.022 104.945 102.083 104.797 102.191 104.689C102.3 104.58 102.447 104.519 102.601 104.519H114.77C114.924 104.519 115.071 104.58 115.18 104.689C115.288 104.797 115.349 104.945 115.349 105.099C115.349 105.252 115.288 105.4 115.18 105.508C115.071 105.617 114.924 105.678 114.77 105.678Z" fill="#093F68"/>
<path d="M115.807 97.861H102.3C102.146 97.861 101.999 97.7999 101.89 97.6912C101.781 97.5826 101.72 97.4352 101.72 97.2815C101.72 97.1278 101.781 96.9804 101.89 96.8717C101.999 96.7631 102.146 96.702 102.3 96.702H115.83C115.984 96.702 116.131 96.7631 116.24 96.8717C116.349 96.9804 116.41 97.1278 116.41 97.2815C116.41 97.4352 116.349 97.5826 116.24 97.6912C116.131 97.7999 115.984 97.861 115.83 97.861H115.807Z" fill="#093F68"/>
<path d="M113.014 91.0405H103.204C103.05 91.0405 102.903 90.9795 102.794 90.8708C102.685 90.7621 102.624 90.6147 102.624 90.4611C102.624 90.3074 102.685 90.16 102.794 90.0513C102.903 89.9426 103.05 89.8816 103.204 89.8816H113.014C113.168 89.8816 113.315 89.9426 113.424 90.0513C113.532 90.16 113.594 90.3074 113.594 90.4611C113.594 90.6147 113.532 90.7621 113.424 90.8708C113.315 90.9795 113.168 91.0405 113.014 91.0405Z" fill="#093F68"/>
<path d="M76.1308 109.526V87.8361H70.8228V109.526H76.1308Z" fill="white"/>
<path d="M76.1308 110.105H70.8228C70.6692 110.105 70.5218 110.044 70.4131 109.935C70.3044 109.827 70.2434 109.679 70.2434 109.526V87.8361C70.2434 87.6824 70.3044 87.535 70.4131 87.4263C70.5218 87.3176 70.6692 87.2566 70.8228 87.2566H76.1308C76.2845 87.2566 76.4319 87.3176 76.5405 87.4263C76.6492 87.535 76.7103 87.6824 76.7103 87.8361V109.526C76.7103 109.679 76.6492 109.827 76.5405 109.935C76.4319 110.044 76.2845 110.105 76.1308 110.105ZM71.4023 108.946H75.5513V88.4155H71.4023V108.946Z" fill="#093F68"/>
<path d="M17.2045 110.974H70.8228V86.3932H17.2045" fill="#A2B13A"/>
<path d="M70.8228 111.554H17.2045C17.0508 111.554 16.9034 111.493 16.7947 111.384C16.6861 111.275 16.625 111.128 16.625 110.974C16.625 110.821 16.6861 110.673 16.7947 110.565C16.9034 110.456 17.0508 110.395 17.2045 110.395H70.2434V86.9727H17.2045C17.0508 86.9727 16.9034 86.9116 16.7947 86.8029C16.6861 86.6943 16.625 86.5469 16.625 86.3932C16.625 86.2395 16.6861 86.0921 16.7947 85.9834C16.9034 85.8748 17.0508 85.8137 17.2045 85.8137H70.8228C70.9765 85.8137 71.1239 85.8748 71.2326 85.9834C71.3413 86.0921 71.4023 86.2395 71.4023 86.3932V110.974C71.4023 111.128 71.3413 111.275 71.2326 111.384C71.1239 111.493 70.9765 111.554 70.8228 111.554Z" fill="#093F68"/>
<path d="M64.4197 93.457C65.2454 93.457 65.9148 92.7876 65.9148 91.9619C65.9148 91.1363 65.2454 90.4669 64.4197 90.4669C63.594 90.4669 62.9247 91.1363 62.9247 91.9619C62.9247 92.7876 63.594 93.457 64.4197 93.457Z" fill="#093F68"/>
<path d="M51.5439 73.1581C51.5439 73.1581 52.0074 77.7417 52.471 80.5348C52.9346 83.3278 58.9785 87.4884 59.5985 93.3932C60.2185 99.298 60.375 104.084 58.8278 105.788C57.2806 107.492 54.192 106.872 54.192 106.872V113.895C54.192 118.027 49.6606 118.334 48.3162 115.633C48.3162 115.633 47.6788 120.269 44.428 120.669C40.7368 121.138 40.505 116.665 40.505 116.665C39.4942 117.415 38.2493 117.781 36.9934 117.696C35.029 117.493 33.6846 113.878 33.6846 113.878C33.6846 113.878 32.3402 115.94 29.7616 114.498C27.1829 113.055 27.5944 112.122 27.5944 106.854C27.5944 101.587 27.1771 96.3196 28.2086 93.5265C29.2401 90.7335 32.9603 82.1689 33.0646 79.7931C33.1689 77.4172 32.8617 73.1407 32.8617 73.1407L51.5439 73.1581Z" fill="#E28362"/>
<path d="M43.8833 121.3C43.0538 121.316 42.246 121.034 41.606 120.507C40.7939 119.743 40.2476 118.74 40.0472 117.644C39.0889 118.158 38.0019 118.384 36.918 118.293C35.2434 118.119 34.0497 116.114 33.4876 114.926C32.6474 115.575 31.2508 116.021 29.4661 115.019C26.928 113.599 26.9454 112.382 26.9859 108.761C26.9859 108.181 26.9859 107.602 26.9859 106.872C26.9859 105.678 26.9859 104.478 26.9396 103.314C26.87 99.3501 26.8005 95.6009 27.6407 93.3468C27.8957 92.6572 28.3071 91.6084 28.7997 90.4494C30.2368 86.8799 32.404 81.4908 32.4735 79.7872C32.5778 77.4693 32.2707 73.245 32.2707 73.2044C32.2648 73.1255 32.2751 73.0462 32.3011 72.9715C32.327 72.8968 32.3679 72.8281 32.4214 72.7698C32.4761 72.7108 32.5424 72.6639 32.6163 72.6319C32.6901 72.6 32.7697 72.5838 32.8502 72.5844H51.5439C51.688 72.5836 51.8273 72.6367 51.9344 72.7331C52.0416 72.8295 52.1089 72.9625 52.1234 73.1059C52.1234 73.1522 52.5927 77.7069 53.0505 80.442C53.207 81.3981 54.2384 82.6845 55.4263 84.168C57.3733 86.5959 59.7897 89.615 60.1838 93.3352C60.8502 99.7094 60.9487 104.345 59.2566 106.182C57.976 107.596 55.8609 107.631 54.7657 107.538V113.912C54.7657 116.358 53.3344 117.569 51.9901 117.887C51.395 118.024 50.7756 118.014 50.1852 117.859C49.5947 117.703 49.0508 117.407 48.6002 116.995C48.1424 118.525 47.024 120.959 44.4917 121.277C44.2897 121.299 44.0864 121.307 43.8833 121.3ZM40.4876 116.085C40.5714 116.086 40.6542 116.104 40.731 116.137C40.8272 116.182 40.9094 116.252 40.9687 116.34C41.0279 116.427 41.062 116.53 41.0671 116.636C41.0671 116.636 41.1945 118.641 42.3535 119.603C42.6299 119.823 42.9505 119.981 43.2935 120.066C43.6365 120.151 43.9938 120.161 44.3411 120.095C47.1167 119.742 47.7252 115.593 47.731 115.552C47.7471 115.429 47.8025 115.314 47.8891 115.224C47.9757 115.135 48.0889 115.075 48.2118 115.055C48.3347 115.035 48.4608 115.055 48.5715 115.112C48.6822 115.169 48.7715 115.261 48.8262 115.372C49.09 115.888 49.5183 116.3 50.043 116.545C50.5678 116.789 51.1592 116.852 51.7235 116.723C52.8825 116.444 53.601 115.384 53.601 113.877V106.872C53.6016 106.786 53.6211 106.702 53.6582 106.624C53.6952 106.547 53.7489 106.479 53.8154 106.425C53.8816 106.371 53.959 106.332 54.0422 106.31C54.1254 106.289 54.2122 106.287 54.2964 106.304C54.2964 106.304 57.0894 106.831 58.399 105.394C59.894 103.748 59.5174 98.1506 59.0248 93.4511C58.6656 90.067 56.3651 87.1986 54.5166 84.8865C53.2243 83.2756 52.1118 81.8849 51.9031 80.6274C51.5323 78.408 51.1556 75.0239 51.0224 73.7375H33.4702C33.5513 75.0181 33.7136 77.9676 33.6325 79.8335C33.5513 81.6994 31.4247 87.019 29.8659 90.8608C29.3907 92.0198 28.9793 93.0628 28.707 93.7582C27.9479 95.8095 28.0116 99.4486 28.0811 103.302C28.0811 104.461 28.1275 105.678 28.1275 106.883C28.1275 107.59 28.1275 108.222 28.1275 108.784C28.0869 112.382 28.0811 112.939 30.0166 113.999C32.0389 115.158 33.0646 113.727 33.1747 113.564C33.2339 113.475 33.3167 113.404 33.4139 113.359C33.5111 113.314 33.6188 113.297 33.7252 113.31C33.8308 113.322 33.931 113.363 34.0148 113.428C34.0986 113.494 34.1628 113.581 34.2003 113.68C34.519 114.532 35.7186 116.989 37.0224 117.128C38.1268 117.198 39.2204 116.875 40.1109 116.218C40.2191 116.137 40.3524 116.096 40.4876 116.103V116.085Z" fill="#093F68"/>
<path d="M54.2036 107.451C54.0499 107.451 53.9025 107.39 53.7939 107.281C53.6852 107.173 53.6241 107.025 53.6241 106.872V98.6084C53.6241 98.4547 53.6852 98.3073 53.7939 98.1987C53.9025 98.09 54.0499 98.0289 54.2036 98.0289C54.3573 98.0289 54.5047 98.09 54.6134 98.1987C54.722 98.3073 54.7831 98.4547 54.7831 98.6084V106.872C54.7831 107.025 54.722 107.173 54.6134 107.281C54.5047 107.39 54.3573 107.451 54.2036 107.451Z" fill="#093F68"/>
<path d="M48.3046 116.23C48.1509 116.23 48.0036 116.169 47.8949 116.06C47.7862 115.952 47.7252 115.804 47.7252 115.651V103.482C47.7252 103.328 47.7862 103.181 47.8949 103.072C48.0036 102.963 48.1509 102.902 48.3046 102.902C48.4583 102.902 48.6057 102.963 48.7144 103.072C48.823 103.181 48.8841 103.328 48.8841 103.482V115.651C48.8841 115.804 48.823 115.952 48.7144 116.06C48.6057 116.169 48.4583 116.23 48.3046 116.23Z" fill="#093F68"/>
<path d="M40.4933 117.262C40.3397 117.262 40.1923 117.201 40.0836 117.092C39.9749 116.983 39.9139 116.836 39.9139 116.682V103.151C39.9139 102.998 39.9749 102.85 40.0836 102.742C40.1923 102.633 40.3397 102.572 40.4933 102.572C40.647 102.572 40.7944 102.633 40.9031 102.742C41.0118 102.85 41.0728 102.998 41.0728 103.151V116.682C41.0728 116.836 41.0118 116.983 40.9031 117.092C40.7944 117.201 40.647 117.262 40.4933 117.262Z" fill="#093F68"/>
<path d="M33.673 114.474C33.5194 114.474 33.372 114.413 33.2633 114.305C33.1546 114.196 33.0936 114.048 33.0936 113.895V104.084C33.0936 103.931 33.1546 103.783 33.2633 103.675C33.372 103.566 33.5194 103.505 33.673 103.505C33.8267 103.505 33.9741 103.566 34.0828 103.675C34.1914 103.783 34.2525 103.931 34.2525 104.084V113.895C34.2525 114.048 34.1914 114.196 34.0828 114.305C33.9741 114.413 33.8267 114.474 33.673 114.474Z" fill="#093F68"/>
<path d="M52.7376 71.7036H31.048V77.0116H52.7376V71.7036Z" fill="#093F68"/>
<path d="M52.7376 77.5852H31.0248C30.8712 77.5852 30.7238 77.5242 30.6151 77.4155C30.5064 77.3068 30.4454 77.1594 30.4454 77.0058V71.7036C30.4454 71.5499 30.5064 71.4025 30.6151 71.2939C30.7238 71.1852 30.8712 71.1241 31.0248 71.1241H52.7144C52.8681 71.1241 53.0155 71.1852 53.1242 71.2939C53.2328 71.4025 53.2939 71.5499 53.2939 71.7036V77.0058C53.294 77.1555 53.2361 77.2995 53.1324 77.4075C53.0287 77.5156 52.8872 77.5792 52.7376 77.5852ZM31.6275 76.4263H52.1581V72.2831H31.6043L31.6275 76.4263Z" fill="#093F68"/>
</svg>
